<svg xmlns="http://www.w3.org/2000/svg" width="118" height="25" viewBox="0 0 118 25">
  <g fill="none" fill-rule="evenodd">
    <path fill="#18285F" d="M115.287611,4.20482424 C115.371109,4.87557836 115.283563,5.38900742 115.024974,5.74461199 C114.766891,6.10121545 114.352945,6.27901773 113.783644,6.27901773 C113.342372,6.27901773 112.987635,6.22907327 112.718418,6.12918435 C112.613667,6.091726 112.551423,6.05826321 112.531688,6.02929542 C112.512458,6.00032764 112.495252,5.93140428 112.482095,5.8230248 L112.409731,5.24217071 C112.389995,5.08384676 112.471468,5.01292563 112.654151,5.0294073 C112.973971,5.05437953 113.163738,5.06736509 113.223958,5.06736509 C113.785162,5.06736509 114.032619,4.79816444 113.965821,4.26126148 L113.715834,2.24899911 C113.641445,1.65366113 113.323649,1.35549269 112.762444,1.35549269 L111.950241,1.35549269 C111.585383,1.35549269 111.357662,1.44539272 111.268092,1.6241939 L111.806018,5.94788595 C111.820694,6.06875155 111.816645,6.14366824 111.791849,6.17263603 C111.767559,6.20210326 111.704809,6.21658716 111.605118,6.21658716 L110.721057,6.21658716 C110.672476,6.21658716 110.633511,6.21458938 110.602642,6.21059382 C110.572279,6.20609882 110.547483,6.19461159 110.529266,6.17613214 C110.511048,6.15715325 110.497385,6.13018324 110.489288,6.09472267 C110.480685,6.0592621 110.472588,6.01031653 110.464998,5.94788595 L109.968061,1.95532568 C109.944783,1.76803395 109.86584,1.60171889 109.731738,1.45588106 L109.406351,1.11226316 C109.305142,1.00787924 109.250489,0.92696921 109.243404,0.868034745 C109.236319,0.81009917 109.271236,0.737180256 109.348661,0.649777447 L109.830417,0.124861154 C109.912396,0.0414539033 109.993363,0 110.073319,0 C110.133538,0 110.201348,0.0289677878 110.277255,0.0874028081 L110.529772,0.331131781 L110.925499,0.755659706 C111.342987,0.310155108 111.748329,0.0874028081 112.14102,0.0874028081 L112.977514,0.0874028081 C114.176335,0.0874028081 114.85393,0.714205803 115.009286,1.96781179 L115.287611,4.20482424 Z M108.956476,4.14239366 C108.846158,5.57530027 108.121501,6.29150385 106.781999,6.29150385 L106.06645,6.29150385 C105.46122,6.29150385 104.964789,6.13667602 104.577158,5.82602146 C104.189528,5.51586636 103.890455,5.01092785 103.679434,4.31070649 L102.510975,0.480965167 C102.43608,0.235238415 102.470997,0.112375039 102.61522,0.112375039 L103.565574,0.112375039 C103.698157,0.112375039 103.798354,0.226747856 103.867177,0.455992936 L104.698609,3.32380393 L104.750226,3.2988317 C105.000719,3.15698943 105.134315,2.87630155 105.150002,2.45526974 L105.218824,0.44350682 C105.235524,0.222752299 105.307382,0.112375039 105.435918,0.112375039 L106.332124,0.112375039 C106.448009,0.112375039 106.519361,0.151831164 106.545675,0.230743413 C106.553266,0.264206203 106.55276,0.358101791 106.544663,0.511930733 L106.440418,2.43029751 C106.402465,3.00116271 106.201565,3.39672284 105.835694,3.61747737 L104.963271,4.14239366 L105.085228,4.54194935 C105.21933,4.94200449 105.510812,5.14178234 105.959169,5.14178234 L106.579074,5.14178234 C107.188353,5.14178234 107.519813,4.84411335 107.574466,4.24827592 L107.896311,0.406048474 C107.916047,0.210266184 107.993978,0.112375039 108.130104,0.112375039 L109.044528,0.112375039 C109.192799,0.112375039 109.255549,0.230743413 109.233283,0.468479051 L108.956476,4.14239366 Z M99.7201339,8.65937078 C99.7348092,8.77624082 99.7287366,8.85015862 99.7024223,8.88162363 C99.6761079,8.9125892 99.6148764,8.92857143 99.5192338,8.92857143 L98.6771741,8.92857143 C98.5127093,8.92857143 98.4190909,8.8386714 98.3968249,8.65937078 L97.8290418,4.0924492 C97.797667,3.84222744 97.8482716,3.44267175 97.9803494,2.89278323 C98.0112182,2.75543596 98.0926915,2.6865126 98.2252755,2.6865126 L98.7667441,2.6865126 C98.9069187,2.6865126 98.9868739,2.76792207 99.0071158,2.93024157 L99.7201339,8.65937078 Z M101.613756,5.89794149 C101.543922,6.11020545 101.458906,6.21658716 101.359215,6.21658716 L100.360281,6.21658716 C100.264639,6.21658716 100.20948,6.16464491 100.196829,6.06026099 C100.186708,5.98134874 100.202395,5.8834576 100.243891,5.76658755 L101.340492,2.6865126 C101.397675,2.49872142 101.415386,2.31992025 101.394132,2.14911019 C101.365794,1.92436011 101.273694,1.73806727 101.116819,1.59023166 C100.960451,1.44239606 100.761575,1.36797881 100.520698,1.36797881 L97.5203541,1.36797881 C97.3553833,1.36797881 97.2622709,1.27857822 97.2400049,1.0992776 L97.1489167,0.368590128 C97.1276628,0.197780069 97.1995212,0.112375039 97.36348,0.112375039 L100.305122,0.112375039 C100.95033,0.112375039 101.486739,0.297668992 101.913335,0.668256898 C102.335883,1.03484925 102.583845,1.51181886 102.656716,2.09916573 C102.709345,2.5196981 102.657222,2.95721158 102.500854,3.41120674 L101.613756,5.89794149 Z M97.0173449,3.45515786 C97.0325262,3.57152846 97.0274658,3.64544626 97.0031756,3.67691127 C96.9788854,3.70787684 96.9166418,3.72385907 96.8164448,3.72385907 L95.9566735,3.72385907 C95.7922087,3.72385907 95.6985903,3.63395904 95.6763243,3.45515786 L95.2891995,0.343617897 C95.2699698,0.18928951 95.3428403,0.112375039 95.5073051,0.112375039 L96.3554374,0.112375039 C96.4151507,0.112375039 96.4617069,0.115371707 96.4945999,0.121864487 C96.5274928,0.127857822 96.5533012,0.140343938 96.5720248,0.159322833 C96.5902425,0.177802284 96.6033997,0.206270627 96.6125085,0.243229529 C96.6206052,0.28118732 96.629208,0.331131781 96.6373047,0.393562359 L97.0173449,3.45515786 Z M94.7512732,2.27397134 C94.771515,3.01964216 94.6839691,3.65094015 94.4871174,4.16736589 C94.3079773,4.6253566 94.0018198,5.08184898 93.5691509,5.53584414 C93.1152281,6.01031653 92.3586901,6.5562095 91.301055,7.17252415 C91.1623985,7.25193585 91.0632136,7.29139197 91.0029942,7.29139197 C90.9432808,7.29139197 90.8957125,7.26392252 90.8602894,7.2099825 L90.5126361,6.68506621 C90.4286326,6.5562095 90.3835945,6.47080447 90.378534,6.42935056 C90.3694252,6.35393442 90.4073786,6.29150385 90.4934064,6.24155939 C90.9088697,6.00432319 91.3521656,5.69816364 91.8227879,5.32308073 L91.8531506,5.27962905 L89.8056905,0.41853459 C89.7277595,0.214261741 89.7814004,0.112375039 89.9656009,0.112375039 L90.8739526,0.112375039 C90.9979337,0.112375039 91.078901,0.135349491 91.1168544,0.180798952 C91.1629046,0.230743413 91.2084487,0.322641223 91.2534867,0.455992936 L92.202322,2.86131821 C92.3834863,3.32380393 92.4953223,3.72186129 92.5368181,4.05499085 C92.5626264,4.25876425 92.5773017,4.47552322 92.5818561,4.7047683 L92.6344849,4.74222664 C92.9629084,4.45055099 93.1800019,4.11941921 93.2867775,3.7488313 C93.3869745,3.42369285 93.4234098,2.96370436 93.3976015,2.36786693 L93.3272611,0.499944062 C93.3156221,0.24123175 93.381914,0.112375039 93.526137,0.112375039 L94.4461277,0.112375039 C94.6105925,0.112375039 94.6976323,0.218756743 94.7082593,0.431020705 L94.7512732,2.27397134 Z M89.8122691,3.45515786 C89.8269445,3.57152846 89.821884,3.64544626 89.7975938,3.67691127 C89.7733036,3.70787684 89.71106,3.72385907 89.6113691,3.72385907 L88.7510917,3.72385907 C88.586627,3.72385907 88.4935146,3.63395904 88.4712486,3.45515786 L88.0836177,0.343617897 C88.0648941,0.18928951 88.1372586,0.112375039 88.3017233,0.112375039 L89.1498556,0.112375039 C89.210075,0.112375039 89.2566312,0.115371707 89.2890181,0.121864487 C89.3219111,0.127857822 89.3477194,0.140343938 89.365937,0.159322833 C89.3841547,0.177802284 89.3978179,0.206270627 89.4064207,0.243229529 C89.4150234,0.28118732 89.4236262,0.331131781 89.4312169,0.393562359 L89.8122691,3.45515786 Z M86.629749,4.9734695 L86.2755172,2.12413796 C86.2314912,1.77402728 86.1049799,1.54727943 85.8959831,1.44339494 C85.7249397,1.35998769 85.3909497,1.31803435 84.894013,1.31803435 L83.8475109,1.31803435 L84.3024458,4.9734695 L86.629749,4.9734695 Z M88.0922205,5.94788595 C88.1144865,6.12718657 88.0431341,6.21658716 87.8791754,6.21658716 L83.3561407,6.21658716 C83.191676,6.21658716 83.0990696,6.12718657 83.0762976,5.94788595 L82.5069964,1.36797881 L82.2362621,1.36797881 C82.0637006,1.36797881 81.9675519,1.29106434 81.9483222,1.13673595 L81.8653307,0.468479051 C81.8445829,0.302163994 81.9113809,0.208268406 82.0652187,0.187291732 C82.5216717,0.153828942 82.9766066,0.128856711 83.4300234,0.112375039 C83.8824281,0.095393922 84.3358448,0.0874028081 84.7887555,0.0874028081 C85.7674475,0.0874028081 86.4576936,0.224750078 86.8610118,0.499944062 C87.263318,0.770643045 87.5153286,1.31204101 87.6165377,2.12413796 L88.0922205,5.94788595 Z M79.56586,5.94788595 C79.588632,6.12718657 79.5314489,6.21658716 79.3948166,6.21658716 L74.9325075,6.21658716 C74.8282621,6.21658716 74.7589339,6.20010548 74.7250288,6.16664269 C74.6906177,6.1331799 74.6673396,6.06875155 74.6557006,5.97335763 L74.5615761,5.21669903 C74.5469008,5.10032843 74.5595519,5.02840841 74.5980114,5.0014384 C74.6369769,4.97446839 74.6961842,4.96098339 74.7761394,4.96098339 L77.5249785,4.96098339 L77.1616379,2.04272849 C77.1181179,1.69311725 76.962762,1.47236273 76.6945579,1.38046492 C76.5680465,1.33052046 76.2983242,1.30554823 75.8853911,1.30554823 C75.2998965,1.30554823 74.8399011,1.33052046 74.5054051,1.38046492 C74.3520733,1.4059366 74.2635153,1.32053157 74.2392251,1.12474928 L74.1688848,0.562374639 C74.1440886,0.362097348 74.1835601,0.245726752 74.2878055,0.212263962 C74.6835331,0.10388448 75.2998965,0.0499444618 76.1384139,0.0499444618 C76.8635771,0.0499444618 77.4090941,0.180798952 77.774459,0.44350682 C78.1565233,0.739178034 78.3903163,1.23512654 78.4768501,1.93035345 L78.8573963,4.98595562 L79.2121342,4.98595562 C79.3685023,4.98595562 79.4575663,5.0753562 79.4798323,5.25465682 L79.56586,5.94788595 Z M74.2275861,8.50354406 C74.2498521,8.68234523 74.1749574,8.77224526 74.0023958,8.77224526 L73.1486971,8.77224526 C73.0439457,8.77224526 72.9786658,8.75776137 72.9508333,8.72829414 C72.9230008,8.69932635 72.9017469,8.62440966 72.8865655,8.50354406 L72.0763867,1.99278402 C72.0606993,1.86392731 72.0293245,1.75454894 71.9817562,1.66514836 C71.934694,1.57524832 71.8653657,1.50482663 71.7752896,1.45238495 C71.6842014,1.40044271 71.5688231,1.36298436 71.4301666,1.34000991 C71.2910041,1.31703546 71.123503,1.30554823 70.9266513,1.30554823 C70.5496474,1.30554823 70.2156574,1.31104212 69.9241752,1.32153046 C69.632693,1.3320188 69.3801763,1.34750158 69.1661191,1.36797881 C69.0183538,1.37247381 68.9333381,1.28706878 68.9115782,1.11226316 L68.8387076,0.524416848 C68.8149235,0.33312956 68.8700825,0.229245079 69.0041845,0.212263962 C69.2794733,0.166814502 69.5906912,0.132352824 69.9388505,0.109378371 C70.2865038,0.0864039188 70.6731225,0.0749166926 71.0982008,0.0749166926 C71.8562569,0.0749166926 72.4124009,0.229245079 72.7676448,0.537402409 C73.1188404,0.845559738 73.3379581,1.34750158 73.4239858,2.04272849 L74.2275861,8.50354406 Z"/>
    <path fill="#FFC10E" d="M18.356091,20.1389976 L20.1322505,21.829533 C20.4377989,22.1192807 20.2898707,22.2279362 20.1297,22.2309969 L17.2267352,22.2993529 C17.0191255,22.3039439 16.7712181,22.1799849 16.582482,21.9988926 L14.7139949,20.2155155 C14.32224,19.841598 14.2161397,19.3697376 14.4609865,19.1417143 L16.7151074,17.0568567 C16.9364897,16.8517887 16.8655861,16.4008432 16.4967856,16.0473305 L14.824686,14.4409648 C14.4257898,14.056845 14.2987755,13.5819239 14.5528041,13.3508398 L16.859465,11.2465977 C17.0334082,11.0884607 17.2359169,10.9537892 17.5271826,10.9512386 L20.2460023,10.9262354 C20.4638139,10.9247124 20.6306158,11.1639583 20.5311468,11.2573102 L18.2295869,13.3942 C18.005654,13.6028388 18.1357289,14.056845 18.4922871,14.4057666 L20.0955235,15.9743835 C20.4928895,16.361564 20.6199037,16.8313839 20.3674055,17.0655287 L18.1500116,19.1228399 C17.9184274,19.3381102 17.9878006,19.7885456 18.356091,20.1389976 L18.356091,20.1389976 Z M12.8368361,18.6754653 C13.2326717,19.0616256 13.3601961,19.5314455 13.1092281,19.7661003 L10.8908141,21.8234115 C10.6566794,22.0402123 10.7291132,22.4896274 11.0958733,22.8390591 L12.899068,24.5494892 C13.1428946,24.7800631 13.1061676,24.93769 12.8577501,24.9438114 L9.96753765,25 C9.75890777,25.0034954 9.51202058,24.8800465 9.32226431,24.6989541 L7.45479736,22.915577 C7.06253239,22.5416595 6.95439172,22.0708194 7.20178901,21.842286 L9.45539976,19.7569182 C9.67780227,19.5513401 9.60638862,19.1009048 9.23707803,18.7473921 L7.75218421,17.3205884 C7.36042933,16.9466709 7.25177856,16.4753207 7.49917585,16.2472973 L9.7532967,14.1619296 C9.97569921,13.9548211 9.90377546,13.5059161 9.53548507,13.1524034 L7.86287536,11.5460377 C7.46295892,11.162428 7.33747494,10.688017 7.5909934,10.4564229 L9.89816439,8.35116045 C10.0705773,8.19455382 10.2735961,8.05886208 10.565882,8.05580136 L13.2887825,8.03590671 C13.4662964,8.02825492 13.6795172,8.25066694 13.5591341,8.37156522 L11.2677762,10.499783 C11.0433333,10.7089319 11.1744283,11.1629381 11.5299663,11.5108395 L13.1342229,13.0804766 C13.5310788,13.4666369 13.657583,13.9364568 13.406615,14.1695813 L11.1871808,16.2284229 C10.9550864,16.4447135 11.0392525,16.8849465 11.3942804,17.2445806 L12.8368361,18.6754653 Z M4.02643207,20.1849083 L5.80259156,21.876464 C6.10813997,22.167232 5.96021169,22.274357 5.80004108,22.278438 L2.89707621,22.3457737 C2.68895643,22.351385 2.44206924,22.2279362 2.25282306,22.0453134 L0.38484602,20.2619363 C-0.00741895751,19.8880189 -0.114539432,19.4156484 0.13183766,19.1881352 L2.38493832,17.1032775 C2.60683073,16.8982096 2.53541708,16.4477742 2.16763678,16.0937514 L0.495537177,14.4873857 C0.0956207374,14.103776 -0.0308834425,13.6283448 0.223145112,13.3972607 L2.5313363,11.2925084 C2.70272906,11.1348815 2.90727816,10.9996999 3.19701354,10.9971493 L5.91634331,10.974181 C6.13517513,10.9721535 6.30095682,11.2108893 6.20148781,11.3032209 L3.89992789,13.441131 C3.67599509,13.6502799 3.80658005,14.1042861 4.1626281,14.4521874 L5.76637464,16.0208043 C6.16374059,16.4090051 6.29126497,16.8772947 6.0392768,17.1114394 L3.82086278,19.1692608 C3.58825832,19.3850412 3.65916187,19.8359867 4.02643207,20.1849083 L4.02643207,20.1849083 Z"/>
    <path fill="#18285F" d="M110.548334,22.3214286 L109.442047,15.5219028 L109.238945,15.5219028 C107.821852,15.5219028 105.801608,16.1202732 105.138965,16.895733 L106.022148,22.3214286 L110.548334,22.3214286 Z M118,22.3214286 L116.826525,15.1006218 C116.362367,12.243479 114.70627,11.2021329 112.251616,11.2021329 L103.673147,11.2021329 C104.044474,12.3766744 104.759945,13.1743334 105.33386,13.6617076 L110.337026,13.6834023 C111.506398,13.6834023 112.020819,14.3478658 112.182889,15.3443089 L113.317898,22.3214286 L118,22.3214286 Z M104.786102,19.7972743 L101.992945,19.7972743 C103.297204,19.5096932 103.561852,18.2241555 103.381317,17.1167163 L102.99563,14.7464431 C102.678155,12.7974509 100.978464,11.2021329 98.9977124,11.2021329 L90.6649144,11.2021329 C90.8880181,12.1556911 91.5952828,13.0406334 92.3035732,13.6617076 L95.7265493,13.6617076 C97.1456946,13.6617076 98.2335178,14.1268825 98.4863688,15.676793 L98.8351287,17.8255783 C99.1018275,19.4642857 97.7816685,19.7972743 96.7235925,19.7972743 L93.4144761,19.7972743 C92.6000191,20.3290469 92.3004959,21.3920877 92.204074,22.3214286 L103.912663,22.3214286 C104.798924,21.6801733 104.926118,20.6610265 104.786102,19.7972743 L104.786102,19.7972743 Z M90.7700552,16.7998726 L89.8981554,11.2021329 L85.2365685,11.2021329 L86.110007,16.7998726 C86.7757282,17.0208559 87.5783889,17.1096529 88.4118226,17.1096529 C89.2442305,17.1096529 90.0643292,17.0208559 90.7700552,16.7998726 L90.7700552,16.7998726 Z M85.4868551,20.7493189 L84.5323812,14.8796385 C84.1256656,12.3766744 82.673183,11.2021329 80.0395326,11.2021329 L75.895444,11.2021329 C75.9021115,11.2470359 75.8882636,11.2914344 75.895444,11.3353283 C76.0534117,12.3105812 76.7606764,13.1970372 77.3089475,13.6617076 L78.186489,13.6617076 C79.0419766,13.6617076 79.7753983,14.1485772 79.9190053,15.0345286 L80.6431951,19.4869895 C80.6929446,19.7972743 80.6749938,19.818969 80.4718924,19.818969 L78.2203393,19.818969 C77.6561688,20.3734454 77.4048565,21.5918809 77.4120368,22.3214286 L84.1451551,22.3214286 C85.1575847,22.3214286 85.6632866,21.8350634 85.4868551,20.7493189 L85.4868551,20.7493189 Z M75.5902791,13.373622 C75.403077,12.2212797 74.6506788,11.2021329 72.9627833,11.2021329 L68.5499443,11.2021329 C68.2801682,11.2021329 68.0888632,11.0028443 68.0498841,10.7591572 L67.6524004,8.32228627 C67.1328506,8.16790066 66.4358437,8.03571429 65.3777676,8.03571429 C64.3191786,8.03571429 63.6349936,8.25669761 63.1636549,8.54478318 L63.7252609,11.9997919 C63.8796385,12.9533501 64.6561422,13.705097 65.5336838,13.705097 L70.0593568,13.705097 C70.6896891,13.705097 70.9333082,13.9497931 71.0087019,14.413959 C71.0261399,14.5249552 71.0220368,14.6359514 71.021011,14.7691468 L71.0553741,18.0253715 C71.0553741,19.1318017 70.5112061,19.7972743 69.2269489,19.7972743 L66.7420344,19.7972743 C66.2055595,20.24025 65.8137175,21.5686726 65.8470548,22.3214286 L70.7399516,22.3214286 C73.6905632,22.3214286 75.7862001,20.9486075 75.7349119,18.1358631 L75.6287452,13.8826909 C75.6225906,13.705097 75.6190005,13.5507114 75.5902791,13.373622 L75.5902791,13.373622 Z M64.9551526,22.3214286 L60.675663,18.1580624 C63.0621042,17.6040905 63.3924003,16.0319808 63.1651935,14.6359514 L62.6061518,11.2021329 L57.923024,11.2021329 L58.6697805,15.7877892 L58.4435994,15.7877892 L53.7794482,11.2021329 L48.6454968,11.2021329 L52.6982924,15.2121225 C50.4272498,15.7877892 50.1225977,17.515798 50.3451886,18.8891236 L50.9042303,22.3214286 L55.587871,22.3214286 L54.8647071,17.8699768 L55.0790918,17.8033791 L59.6186127,22.3214286 L64.9551526,22.3214286 Z M49.4184104,22.3214286 L47.616655,11.2470359 L42.7971004,11.2470359 L44.5983429,22.3214286 L49.4184104,22.3214286 Z M42.9396817,18.5566396 C42.8965996,18.2907533 42.8499273,18.0031722 42.7581214,17.7150867 L41.8882731,14.8569347 C41.1974207,12.5532593 39.8295637,11.2021329 36.9251115,11.2021329 L27.8060649,11.2021329 C28.0071148,12.4427676 28.9031201,13.6617076 29.9170883,13.6617076 L29.5914081,22.3214286 L34.252482,22.3214286 L34.4201945,13.6617076 L35.3213287,13.6617076 C36.1763034,13.6617076 36.9871702,14.081475 37.2784873,15.0345286 L38.1298719,17.9148798 C38.1662865,18.0031722 38.1775699,18.0692654 38.1914178,18.1580624 C38.32528,18.9769115 37.9175386,19.7972743 36.8589497,19.7972743 L36.16502,19.818969 C35.6182875,20.1958515 35.2823496,21.5918809 35.2890171,22.3214286 L38.9366357,22.3214286 C41.3902644,22.3214286 43.3833249,21.2810915 42.9396817,18.5566396 L42.9396817,18.5566396 Z M27.8824844,16.7998726 L27.0100717,11.2021329 L22.3484848,11.2021329 L23.2214104,16.7998726 C23.8881574,17.0208559 24.6903052,17.1096529 25.523226,17.1096529 C26.3566597,17.1096529 27.1747069,17.0208559 27.8824844,16.7998726 L27.8824844,16.7998726 Z"/>
  </g>
</svg>
