<?xml version="1.0" encoding="utf-8"?>
<!-- Generator: Adobe Illustrator 23.0.3, SVG Export Plug-In . SVG Version: 6.00 Build 0)  -->
<svg version="1.1" id="Layer_1" xmlns="http://www.w3.org/2000/svg" xmlns:xlink="http://www.w3.org/1999/xlink" x="0px" y="0px"
	 viewBox="0 0 145 160" style="enable-background:new 0 0 145 160;" xml:space="preserve">
<style type="text/css">
	.st0{fill:#FFFFFF;}
	.st1{fill:#FBB348;}
	.st2{fill:none;stroke:#000000;stroke-width:1.35;stroke-linecap:round;stroke-linejoin:round;}
	.st3{fill:none;stroke:#221F1F;stroke-width:1.4;stroke-linecap:round;stroke-linejoin:round;}
	.st4{fill:none;stroke:#000000;stroke-width:1.4;stroke-linecap:round;stroke-linejoin:round;}
	.st5{fill:none;stroke:#000000;stroke-width:1.45;stroke-linecap:round;stroke-linejoin:round;}
	.st6{fill:none;stroke:#FFFFFF;stroke-width:1.35;stroke-linecap:round;stroke-linejoin:round;}
	.st7{fill:none;stroke:#000000;stroke-width:1.55;stroke-linecap:round;stroke-linejoin:round;}
</style>
<g transform="matrix( 1, 0, 0, 1, 0,0) ">
	<g>
		<g id="Layer1_0_FILL">
			<path class="st0" d="M138,94.5c0-18.1-6.4-33.5-19.2-46.3C106,35.4,90.6,29,72.5,29C54.4,29,39,35.4,26.2,48.2
				C13.4,61,7,76.4,7,94.5s6.4,33.5,19.2,46.3C39,153.7,54.4,160,72.5,160s33.5-6.4,46.3-19.2C131.6,128.1,138,112.6,138,94.5z"/>
		</g>
	</g>
</g>
<g transform="matrix( 1, 0, 0, 1, 0,0) ">
	<g>
		<g id="Layer0_0_FILL">
			<path class="st0" d="M55.7,114.1l-0.1,4.9c-0.3,3.1-0.8,5.3-1.6,6.5l6.6,13.7v-0.1c4.3,8.3,8,12.3,11.3,12.1c2.4-0.3,5.5-3.3,9-9
				c-0.9-1.8-1.6-3.5-2-5.2c-1.3-4.8-1.2-10.3,0.3-16.5c-2.4,2-4.7,3.1-6.7,3.3c-2.8,0.3-5.5-0.3-8.3-1.9
				C61.7,120.4,58.8,117.8,55.7,114.1 M48.3,88.4C48.2,88.4,48.2,88.3,48.3,88.4c-0.1-0.1-0.2-0.2-0.2-0.2c-0.1-0.1-0.3-0.1-0.5-0.2
				L46,88.6c-0.1,0.1-0.3,0.2-0.3,0.3c-0.7,0.9-0.7,2.5,0.1,4.8c1.1,2.9,1.6,5,1.6,6.2c0,1.8,0.6,3.1,1.8,3.9
				c0.6,0.4,1.3,0.7,1.8,0.7L50,93.9l-0.1-1.1l-0.3-2.3c-0.3-0.7-0.6-1.3-1.1-1.8L48.3,88.4L48.3,88.4 M95.6,89.4
				c-0.6-0.9-1.2-1.2-1.9-1.1c-0.3,0.1-0.6,0.2-0.9,0.5l-0.5,0.8l-0.8,1l-2.4,13.7c0.1-0.1,0.1-0.1,0.2-0.2c0.2-0.1,0.4-0.1,0.5-0.1
				l0.3,0.1l0.3-0.2l0.3-0.2H91c1.3-0.9,2-2.1,2.1-3.6c0.1-1.1,0.8-3.1,2.1-6C96.1,92,96.3,90.4,95.6,89.4 M90.5,86.5
				c-0.5-1.8-0.7-3.5-0.6-5c0.2-2.9,0.2-5-0.1-6.4c-0.5-2.5-1.8-3.9-3.9-4.3c-2-0.4-4.7-0.2-7.9,0.6c-3.6,0.9-6.3,1.3-8,1.2
				c-7.9-0.6-12.1-0.9-12.6-0.9c-4.1-0.2-6.6,1.6-7.5,5.2c-0.6,2.7-0.3,6.2,0.9,10.3c0.4,1.4,0.2,3.6-0.5,6.6
				c0.2,2.2,0.6,5.1,1.1,8.5c0.8,5.4,1.5,8.4,2.1,9.2c0.5,0.7,1,1.3,1.5,1.9l0,0h0.7l0,0.8c3.2,3.7,6,6.3,8.6,7.8
				c2.7,1.6,5.5,2.3,8.3,1.9c2-0.2,4.2-1.3,6.7-3.3c0-0.1,0-0.1,0-0.2c0.1-0.4,0.4-1,1.1-1.8l0,0c0.6-0.8,1.5-1.8,2.8-2.9
				c0.3-0.3,0.6-0.6,0.9-0.9v0c1.6-1.6,2.5-2.6,2.8-3.1l2.4-7.2c0-0.1,0.1-0.2,0.1-0.3l2.4-13.7l0.8-1L91.9,90
				C91.4,89.2,90.9,88,90.5,86.5 M74,102.9c0.2,0.1,0.3,0.1,0.5,0.1C74.3,103.1,74.2,103,74,102.9c-0.2-0.1-0.4-0.1-0.5-0.1
				c-0.9,1-1.7,1.5-2.3,1.6c-0.8,0-1.7-0.5-2.6-1.8l-1.3,0l1.3,0c0.9,1.2,1.8,1.8,2.6,1.8c0.7-0.1,1.4-0.6,2.3-1.6
				C73.6,102.8,73.8,102.8,74,102.9 M56.8,107.9c-0.2,0.6,0,1.2,0.4,1.8C56.8,109.2,56.6,108.6,56.8,107.9l0.4-0.8L56.8,107.9
				 M85.3,107.9c0.2,0.6,0,1.2-0.4,1.8C85.3,109.2,85.5,108.6,85.3,107.9l-0.4-0.8L85.3,107.9z"/>
			<path class="st1" d="M80.7,120.8L80.7,120.8c-1.5,6-1.6,11.4-0.3,15.9c0.4,1.6,1.1,3.3,2.1,5.1c0.9,1.8,2,3.6,3.4,5.6v-0.1
				c0.2,0.3,0.4,0.6,0.6,0.9c0,0,0.1,0.1,0,0.1l3.4,9.3c0,0,0,0.1,0.1,0.1c7.9-2.1,15.1-5.6,21.7-10.7c-0.1-0.1-0.1-0.3-0.2-0.4
				c0-1.3-0.1-2.6-0.3-3.9c-0.7-5.2-2.7-8.8-6-10.8c-4.2-2.4-7.5-5.8-10.1-10.2c-1.4-2.5-2.6-5.2-3.5-8.3c-0.7-2.4-1.2-4.9-1.4-7.3
				v0c0-0.1,0-0.2,0-0.4l-2.1,6.4c0,0,0,0,0,0c-0.2,0.6-1.2,1.8-3,3.6H85c-0.3,0.3-0.6,0.6-0.9,0.9c-1.2,1.1-2.1,2.1-2.7,2.8v0
				C81,120.2,80.8,120.6,80.7,120.8 M90.2,104.9L90.2,104.9C90.1,104.9,90.1,105,90.2,104.9L90.2,104.9L90.2,104.9 M90.1,104.8
				L90.1,104.8C90.1,104.8,90.1,104.8,90.1,104.8L90.1,104.8 M50.2,94.1c0-0.1,0.1-0.3,0.1-0.3c0-0.4-0.2-0.7-0.4-0.9l0.1,1.1
				C50,94,50.1,94,50.2,94.1 M77.8,58c-0.5-1-1.2-1.9-2.1-2.8C73.5,53.1,71,52,68.1,52c-2.9,0-5.5,1.1-7.7,3.2
				c-1.6,1.6-2.6,3.4-3,5.3c5-2.7,10.2-3.8,15.7-3.3C74.8,57.3,76.3,57.6,77.8,58 M89.9,81.5c-0.1,1.5,0.1,3.2,0.6,5
				c0.4,1.5,0.9,2.6,1.4,3.5l0.4-0.5l0.5-0.8c0.3-0.3,0.6-0.4,0.9-0.5c0,0,0-0.1,0-0.1c0.1-0.6,0.3-2.6,0.7-5.9
				c0.8-7.5-1.1-13.6-5.8-18.3c-3-2.9-6.6-4.9-10.8-6c-1.5-0.4-3-0.7-4.7-0.8c-5.5-0.5-10.7,0.7-15.7,3.3c-0.4,0.2-0.8,0.5-1.3,0.7
				c-6,3.6-9,8.3-9,14.2c0,5.3,0.3,9.6,1,12.9c0,0,0.1,0,0.1,0.1h0l0.2,0.2c0.5,0.5,0.8,1.1,1.1,1.8l0.3,2.3
				c0.2,0.3,0.4,0.6,0.4,0.9c0.8-3,1-5.2,0.5-6.6c-1.2-4.2-1.5-7.7-0.9-10.3c0.9-3.6,3.4-5.3,7.5-5.2c0.5,0,4.7,0.3,12.6,0.9
				c1.7,0.1,4.4-0.3,8-1.2c3.3-0.8,5.9-0.9,7.9-0.6c2.1,0.4,3.4,1.8,3.9,4.3C90.2,76.5,90.2,78.6,89.9,81.5z"/>
			<path d="M80.7,120.8L80.7,120.8c0.1-0.2,0.3-0.6,0.8-1.1v0c0.6-0.7,1.5-1.7,2.7-2.8c0.3-0.3,0.6-0.6,0.9-0.9h0.1
				c1.8-1.8,2.8-3,3-3.6c0,0,0,0,0,0l2.1-6.4c0,0.1,0,0.2,0,0.4v0c0.2,2.4,0.7,4.8,1.4,7.3c0.9,3.1,2,5.8,3.5,8.3
				c2.6,4.3,5.9,7.7,10.1,10.2c3.3,2,5.3,5.6,6,10.8c0.2,1.3,0.3,2.6,0.3,3.9c0,0.2,0.1,0.3,0.2,0.4c0.5-0.3,0.9-0.7,1.4-1.1
				c1.7-1.3,3.3-2.7,4.8-4.3c0.2-0.2,0.4-0.4,0.6-0.6c-2.1-8.5-4.9-14.1-8.3-17l0,0c-1.9-1.6-5.3-2.6-10.3-3.2
				c-1.2-0.1-2.4-0.2-3.5-0.3c-1.3-2.3-2.3-4.8-3.2-7.7c-0.7-2.3-1.1-4.6-1.3-6.9c0-0.7,0-1.2-0.1-1.4c0-0.1,0-0.1,0-0.2
				c0-0.1,0-0.2-0.1-0.3c-0.2-0.4-0.4-0.6-0.7-0.7l-0.3,0.2c-0.1,0.1-0.1,0.1-0.2,0.2l-0.2,0l-0.3-0.1c-0.2,0-0.4,0-0.5,0.1
				c-0.1,0.1-0.1,0.1-0.2,0.2c-0.1,0.1-0.1,0.2-0.1,0.3l-2.4,7.2c-0.2,0.5-1.1,1.5-2.8,3.1v0c-0.3,0.3-0.6,0.6-0.9,0.9
				c-1.2,1.2-2.1,2.2-2.8,2.9l0,0c-0.6,0.8-1,1.3-1.1,1.8c0,0.1,0,0.1,0,0.2c-1.5,6.2-1.6,11.7-0.3,16.5c0.4,1.6,1.1,3.3,2,5.2
				c-3.6,5.7-6.6,8.7-9,9c-3.2,0.2-7-3.8-11.3-12.1v0.1L54,125.6c0.8-1.3,1.4-3.4,1.6-6.5l0.1-4.9l0-0.8H55h-0.7l-0.1,5.7
				c-0.2,2.2-0.5,3.9-1,5l-0.5-0.9h-0.5c-4.4-0.1-8-0.2-10.8-0.1c-0.9,0-1.8,0.1-2.7,0.3c-0.1,0-0.1,0-0.2,0c0,0-0.1,0-0.1,0.1
				c-4.3,0.9-7.6,3.8-9.9,8.6c-1.1,2.4-2.2,5.2-3.1,8.3c0.2,0.2,0.4,0.4,0.5,0.6c0.1,0.1,0.1,0.1,0.2,0.2
				C39,153.7,54.4,160,72.5,160c5.5,0,10.8-0.6,15.8-1.8c0.5-0.1,1-0.3,1.6-0.4c0,0,0,0-0.1-0.1l-3.4-9.3c0,0,0-0.1,0-0.1
				c-0.2-0.3-0.4-0.6-0.6-0.9v0.1c-1.4-2-2.5-3.8-3.4-5.6c-0.9-1.8-1.6-3.5-2.1-5.1C79.1,132.2,79.2,126.8,80.7,120.8 M90.2,104.5
				L90.2,104.5c0,0.1,0,0.1-0.1,0.3v0l0.1,0.1v0l-0.1,0.1c0,0,0-0.1,0-0.2c0,0,0,0,0,0C90.1,104.7,90.1,104.6,90.2,104.5z"/>
		</g>
	</g>
	<g>
		<path id="Layer0_0_1_STROKES" class="st2" d="M50.3,93.7c0.8-3,1-5.2,0.5-6.6c-1.2-4.2-1.5-7.7-0.9-10.3c0.9-3.6,3.4-5.3,7.5-5.2
			c0.5,0,4.7,0.3,12.6,0.9c1.7,0.1,4.4-0.3,8-1.2c3.3-0.8,5.9-0.9,7.9-0.6c2.1,0.4,3.4,1.8,3.9,4.3c0.3,1.4,0.3,3.5,0.1,6.4
			c-0.1,1.5,0.1,3.2,0.6,5c0.4,1.5,0.9,2.6,1.4,3.5 M93.7,88.3C93.7,88.3,93.7,88.3,93.7,88.3c0.1-0.7,0.3-2.7,0.7-6
			c0.8-7.5-1.1-13.6-5.8-18.3c-3-2.9-6.6-4.9-10.8-6c-1.5-0.4-3-0.7-4.7-0.8c-5.5-0.5-10.7,0.7-15.7,3.3c-0.4,0.2-0.8,0.5-1.3,0.7
			c-6,3.6-9,8.3-9,14.2c0,5.3,0.3,9.6,1,12.9 M50,93.9c0.1,0.1,0.1,0.1,0.2,0.2c0-0.1,0.1-0.3,0.1-0.3"/>
	</g>
	<g>
		<path id="Layer0_0_2_STROKES" class="st3" d="M92.3,89.6l0.5-0.8c0.3-0.3,0.6-0.4,0.9-0.5 M48.2,88.3
			C48.2,88.3,48.2,88.4,48.2,88.3l0.1,0.1l0.2,0.2c0.5,0.5,0.8,1.1,1.1,1.8l0.3,2.3 M89.2,104.2l2.4-13.7l0.8-1 M91,103.8L91,103.8
			c1.3-0.9,2-2.1,2.1-3.6c0.1-1.1,0.8-3.1,2.1-6c1-2.2,1.1-3.8,0.4-4.8c-0.6-0.9-1.2-1.2-1.9-1.1 M48.2,88.3c0,0-0.1-0.1-0.1-0.1
			c-0.1-0.1-0.3-0.1-0.5-0.2L46,88.6c-0.1,0.1-0.3,0.2-0.3,0.3c-0.7,0.9-0.7,2.5,0.1,4.8c1.1,2.9,1.6,5,1.6,6.2
			c0,1.8,0.6,3.1,1.8,3.9c0.6,0.4,1.3,0.7,1.8,0.7L50,93.9l-0.1-1.1 M91,103.8l-0.4,0.2l-0.3,0.1"/>
	</g>
	<g>
		<path id="Layer0_0_3_STROKES" class="st4" d="M49.8,92.8c0.2,0.3,0.4,0.6,0.4,0.9c0.2,2.2,0.6,5.1,1.1,8.5
			c0.8,5.4,1.5,8.4,2.1,9.2c0.5,0.7,1,1.3,1.5,1.9 M55.7,114.2c3.1,3.7,6,6.3,8.6,7.8c2.7,1.6,5.5,2.3,8.3,1.9
			c2-0.2,4.2-1.3,6.7-3.3 M57.5,60.5c0.3-1.9,1.3-3.7,3-5.3c2.2-2.1,4.8-3.2,7.7-3.2c2.9,0,5.5,1.1,7.6,3.2c0.9,0.9,1.6,1.8,2.1,2.8
			"/>
	</g>
	<g>
		<path id="Layer0_0_4_STROKES" class="st5" d="M67.3,102.6l1.3,0c0.9,1.2,1.8,1.8,2.6,1.8c0.7-0.1,1.4-0.6,2.3-1.6
			c0.1,0,0.3,0,0.5,0.1c0.2,0.1,0.3,0.1,0.5,0.1"/>
	</g>
	<g>
		<path id="Layer0_0_5_STROKES" class="st6" d="M57.2,107.1l-0.4,0.8c-0.2,0.6,0,1.2,0.4,1.8 M84.9,107.1l0.4,0.8
			c0.2,0.6,0,1.2-0.4,1.8"/>
	</g>
</g>
<g transform="matrix( 1, 0, 0, 1, 0,0) ">
	<g>
		<path id="Layer0_1_1_STROKES" class="st7" d="M54.8,92.4l2.1-1.5c1.2-0.6,2.3-0.8,3.5-0.5l4.7,1.7"/>
	</g>
</g>
<g transform="matrix( 1, 0, 0, 1, 0,0) ">
	<g>
		<path id="Layer0_2_1_STROKES" class="st7" d="M86.8,92.4l-2-1.5c-1.1-0.6-2.3-0.8-3.4-0.5l-4.9,1.2"/>
	</g>
</g>
<g transform="matrix( 1, 0, 0, 1, 0,0) ">
	<g>
		<g id="Layer0_3_FILL">
			<path d="M82.3,95.3c0-0.4-0.1-0.7-0.4-1c-0.3-0.3-0.7-0.5-1-0.5c-0.4,0-0.8,0.2-1.1,0.5c-0.3,0.3-0.5,0.6-0.5,1s0.2,0.7,0.5,1
				c0.3,0.3,0.7,0.4,1.1,0.4c0.4,0,0.8-0.2,1-0.4C82.2,96,82.3,95.7,82.3,95.3z"/>
		</g>
	</g>
</g>
<g transform="matrix( 1, 0, 0, 1, 0,0) ">
	<g>
		<g id="Layer0_4_FILL">
			<path d="M60.7,96.9c0.4,0,0.7-0.2,1-0.5c0.3-0.3,0.4-0.6,0.4-1c0-0.4-0.1-0.7-0.4-1c-0.3-0.3-0.7-0.4-1-0.4
				c-0.4,0-0.8,0.1-1.1,0.4c-0.3,0.3-0.4,0.6-0.4,1s0.1,0.7,0.4,1C59.9,96.7,60.3,96.9,60.7,96.9z"/>
		</g>
	</g>
</g>
<g transform="matrix( 1, 0, 0, 1, 0,0) ">
	<g>
		<path id="Layer0_5_1_STROKES" class="st5" d="M80.8,107.8c-3.3,0.5-5.5,0.6-6.7,0.4c-0.5-0.1-1.2,0-2,0.3c-1,0.2-1.8,0.3-2.3,0.3
			c-1.4-0.7-2.9-0.8-4.6-0.3c-0.6,0.2-1.5,0.2-2.7,0c-0.1,0-0.2-0.1-0.3-0.1l2.3,3c1.9,2,3.6,2.9,5.3,2.9c2,0,3.6-0.3,4.7-0.8
			c1.5-0.8,3-2.4,4.5-4.9 M62.3,108.4c-0.9-0.2-1.3-0.3-1.3-0.4"/>
	</g>
</g>
</svg>
