<?xml version="1.0" encoding="utf-8"?>
<!-- Generator: Adobe Illustrator 23.0.3, SVG Export Plug-In . SVG Version: 6.00 Build 0)  -->
<svg version="1.1" id="Layer_1" xmlns="http://www.w3.org/2000/svg" xmlns:xlink="http://www.w3.org/1999/xlink" x="0px" y="0px"
	 viewBox="0 0 145 160" style="enable-background:new 0 0 145 160;" xml:space="preserve">
<style type="text/css">
	.st0{fill:#221F1F;}
	.st1{fill:#FBB348;}
	.st2{fill:#FFFFFF;}
	.st3{fill:none;stroke:#000000;stroke-width:1.45;stroke-linejoin:round;}
	.st4{fill:none;stroke:#000000;stroke-width:1.35;stroke-linecap:round;stroke-linejoin:round;}
	.st5{fill:none;stroke:#000000;stroke-width:1.35;}
	.st6{fill:none;stroke:#000000;stroke-width:0.9;stroke-linecap:round;stroke-linejoin:round;}
	.st7{fill:none;stroke:#000000;stroke-width:0.1;}
	.st8{fill:none;stroke:#000000;stroke-width:1.55;stroke-linecap:round;stroke-linejoin:round;}
	.st9{fill:none;stroke:#000000;stroke-width:1.6;stroke-linecap:round;stroke-linejoin:round;}
	.st10{fill:none;stroke:#000000;stroke-width:1.45;stroke-linecap:round;stroke-linejoin:round;}
</style>
<g transform="matrix( 1, 0, 0, 1, 0,0) ">
	<g>
		<g id="Layer0_0_FILL">
			<path class="st0" d="M88.9,157.8c0,0.1,0,0.2,0.1,0.3c0.5-0.1,1-0.3,1.6-0.4c0.2,0,0.4-0.1,0.5-0.1c-0.1-0.2-0.2-0.4-0.3-0.5
				c-0.2-0.2-0.5-0.3-0.8-0.3s-0.5,0.1-0.8,0.3C89,157.2,88.9,157.5,88.9,157.8 M97.8,151.3c0-0.5,0-1.1-0.1-1.7
				c-0.2-0.1-0.3-0.1-0.5-0.1c-0.3,0-0.5,0.1-0.8,0.3c-0.2,0.2-0.3,0.5-0.3,0.8c0,0.3,0.1,0.6,0.3,0.8c0.2,0.2,0.5,0.3,0.8,0.3
				c0.2,0,0.4,0,0.6-0.1C97.8,151.5,97.8,151.4,97.8,151.3 M86.4,140.9c0.3,0,0.6-0.1,0.8-0.3c0,0,0-0.1,0.1-0.1
				c-0.5,0-1.1,0-1.7,0.1l0.1,0.1C85.8,140.8,86.1,140.9,86.4,140.9 M46.8,149.5c0,0.6,0,1.1,0.1,1.8c0,0.1,0,0.3,0,0.4
				c0.2,0,0.5-0.1,0.7-0.3c0,0,0.1-0.1,0.1-0.1c0.1-0.2,0.2-0.4,0.2-0.7c0-0.3-0.1-0.5-0.3-0.8C47.4,149.6,47.1,149.5,46.8,149.5
				 M53.3,157.3l1.1,0.3c0.2,0.1,0.5,0.2,0.8,0.3v0c0,0,0,0,0-0.1c0-0.3-0.1-0.6-0.3-0.8c-0.2-0.2-0.4-0.3-0.8-0.3
				c-0.3,0-0.5,0.1-0.8,0.3c-0.1,0.1-0.2,0.1-0.2,0.3C53.2,157.3,53.2,157.3,53.3,157.3 M58.4,139.1L58.4,139.1
				c-0.2-0.2-0.4-0.2-0.5-0.3c-0.1,0-0.2-0.1-0.3-0.1c-0.3,0-0.5,0.1-0.8,0.4c-0.1,0.1-0.2,0.2-0.3,0.3c-0.1,0.2-0.1,0.3-0.1,0.5
				c0,0.3,0.1,0.6,0.4,0.8c0.2,0.2,0.5,0.3,0.8,0.3s0.5-0.1,0.8-0.3s0.3-0.4,0.3-0.8c0-0.1,0-0.3-0.1-0.4
				C58.6,139.3,58.5,139.2,58.4,139.1 M54.6,135.3c-0.2-0.1-0.3-0.2-0.5-0.2c-0.3,0-0.5,0.1-0.8,0.4c-0.2,0.2-0.3,0.4-0.3,0.8
				s0.1,0.6,0.3,0.8c0.2,0.2,0.5,0.3,0.8,0.3c0.3,0,0.6-0.1,0.8-0.3c0.2-0.2,0.3-0.4,0.3-0.8c0-0.1,0-0.1,0-0.2
				c-0.1-0.1-0.1-0.1-0.1-0.2L54.6,135.3 M83.9,157.8c0-0.3-0.1-0.6-0.3-0.8c-0.2-0.2-0.5-0.3-0.8-0.3c-0.3,0-0.5,0.1-0.8,0.3
				c-0.2,0.2-0.3,0.4-0.3,0.8c0,0.3,0.1,0.6,0.3,0.8c0.2,0.2,0.5,0.3,0.8,0.3c0.3,0,0.6-0.1,0.8-0.3
				C83.8,158.4,83.9,158.1,83.9,157.8 M83.6,151.4c0.2-0.2,0.3-0.5,0.3-0.8c0-0.3-0.1-0.5-0.3-0.8c-0.2-0.2-0.5-0.3-0.8-0.3
				c-0.3,0-0.5,0.1-0.8,0.3c-0.2,0.2-0.3,0.5-0.3,0.8c0,0.3,0.1,0.6,0.3,0.8c0.2,0.2,0.5,0.3,0.8,0.3
				C83.1,151.7,83.4,151.6,83.6,151.4 M87.5,154.2c0-0.3-0.1-0.5-0.3-0.8c-0.2-0.2-0.5-0.3-0.8-0.3s-0.6,0.1-0.8,0.3
				c-0.2,0.2-0.3,0.5-0.3,0.8c0,0.3,0.1,0.6,0.3,0.8c0.2,0.2,0.4,0.3,0.8,0.3s0.6-0.1,0.8-0.3C87.4,154.8,87.5,154.5,87.5,154.2
				 M90.8,149.8c-0.2-0.2-0.5-0.3-0.8-0.3s-0.5,0.1-0.8,0.3c-0.2,0.2-0.3,0.5-0.3,0.8c0,0.3,0.1,0.6,0.3,0.8
				c0.2,0.2,0.5,0.3,0.8,0.3s0.6-0.1,0.8-0.3c0.2-0.2,0.3-0.5,0.3-0.8C91.1,150.3,91,150.1,90.8,149.8 M92.8,153.4
				c-0.2,0.2-0.3,0.5-0.3,0.8c0,0.3,0.1,0.6,0.3,0.8c0.2,0.2,0.4,0.3,0.8,0.3s0.6-0.1,0.8-0.3c0.2-0.2,0.3-0.5,0.3-0.8
				c0-0.3-0.1-0.5-0.3-0.8c-0.2-0.2-0.5-0.3-0.8-0.3S93,153.2,92.8,153.4 M94.4,146.2c-0.2-0.2-0.5-0.3-0.8-0.3s-0.6,0.1-0.8,0.3
				c-0.2,0.2-0.3,0.5-0.3,0.8c0,0.3,0.1,0.6,0.3,0.8c0.2,0.2,0.4,0.3,0.8,0.3s0.6-0.1,0.8-0.3c0.2-0.2,0.3-0.5,0.3-0.8
				C94.7,146.7,94.6,146.5,94.4,146.2 M91.1,143.4c0-0.3-0.1-0.5-0.3-0.8c-0.2-0.2-0.5-0.3-0.8-0.3s-0.5,0.1-0.8,0.3
				c-0.2,0.2-0.3,0.5-0.3,0.8c0,0.3,0.1,0.5,0.3,0.8c0.2,0.2,0.5,0.3,0.8,0.3s0.6-0.1,0.8-0.3C91,144,91.1,143.7,91.1,143.4
				 M85.7,146.2c-0.2,0.2-0.3,0.5-0.3,0.8c0,0.3,0.1,0.6,0.3,0.8c0.2,0.2,0.4,0.3,0.8,0.3s0.6-0.1,0.8-0.3c0.2-0.2,0.3-0.5,0.3-0.8
				c0-0.3-0.1-0.5-0.3-0.8c-0.2-0.2-0.5-0.3-0.8-0.3S85.8,146,85.7,146.2 M83.6,144.2c0.2-0.2,0.3-0.5,0.3-0.8
				c0-0.3-0.1-0.5-0.3-0.8c-0.2-0.2-0.5-0.3-0.8-0.3c-0.3,0-0.5,0.1-0.8,0.3c-0.2,0.2-0.3,0.5-0.3,0.8c0,0.3,0.1,0.5,0.3,0.8
				c0.2,0.2,0.5,0.3,0.8,0.3C83.1,144.5,83.4,144.4,83.6,144.2 M51.5,154.2c0-0.3-0.1-0.5-0.3-0.8c-0.2-0.2-0.5-0.3-0.8-0.3
				c-0.3,0-0.6,0.1-0.8,0.3c-0.2,0.2-0.4,0.5-0.4,0.8c0,0.3,0.1,0.6,0.4,0.8c0.2,0.2,0.4,0.3,0.8,0.3c0.3,0,0.5-0.1,0.8-0.3
				C51.4,154.8,51.5,154.5,51.5,154.2 M54.8,149.8c-0.2-0.2-0.4-0.3-0.8-0.3c-0.3,0-0.5,0.1-0.8,0.3c-0.2,0.2-0.3,0.5-0.3,0.8
				c0,0.3,0.1,0.6,0.3,0.8l0,0.1c0.2,0.2,0.4,0.3,0.7,0.3c0.3,0,0.5-0.1,0.7-0.3l0-0.1c0.2-0.2,0.3-0.5,0.3-0.8
				C55.1,150.3,55,150.1,54.8,149.8 M58.4,153.4c-0.2-0.2-0.5-0.3-0.8-0.3s-0.5,0.1-0.8,0.3c-0.2,0.2-0.4,0.5-0.4,0.8
				c0,0.3,0.1,0.6,0.4,0.8c0.2,0.2,0.5,0.3,0.8,0.3s0.5-0.1,0.8-0.3c0.2-0.2,0.3-0.5,0.3-0.8C58.7,153.9,58.6,153.6,58.4,153.4
				 M68.4,158.9c0.3,0,0.6-0.1,0.8-0.3c0.2-0.2,0.3-0.5,0.3-0.8c0-0.3-0.1-0.6-0.3-0.8c-0.2-0.2-0.4-0.3-0.8-0.3
				c-0.3,0-0.5,0.1-0.8,0.3c-0.2,0.2-0.3,0.4-0.3,0.8c0,0.3,0.1,0.6,0.3,0.8C67.9,158.8,68.2,158.9,68.4,158.9 M62,157
				c-0.2-0.2-0.5-0.3-0.8-0.3s-0.5,0.1-0.8,0.3c-0.2,0.2-0.3,0.4-0.3,0.8c0,0.3,0.1,0.6,0.3,0.8c0.2,0.2,0.5,0.3,0.8,0.3
				s0.5-0.1,0.8-0.3c0.2-0.2,0.3-0.5,0.3-0.8C62.3,157.5,62.2,157.2,62,157 M64.1,153.4c-0.2,0.2-0.3,0.5-0.3,0.8
				c0,0.3,0.1,0.6,0.3,0.8c0.2,0.2,0.4,0.3,0.8,0.3s0.6-0.1,0.8-0.3c0.2-0.2,0.3-0.5,0.3-0.8c0-0.3-0.1-0.5-0.3-0.8
				c-0.2-0.2-0.4-0.3-0.8-0.3S64.3,153.2,64.1,153.4 M62,151.4c0.2-0.2,0.3-0.5,0.3-0.8c0-0.3-0.1-0.5-0.3-0.8
				c-0.2-0.2-0.5-0.3-0.8-0.3s-0.5,0.1-0.8,0.3c-0.2,0.2-0.3,0.5-0.3,0.8c0,0.3,0.1,0.6,0.3,0.8c0.1,0.1,0.1,0.1,0.3,0.2
				c0.1,0.1,0.3,0.1,0.5,0.1c0.2,0,0.3,0,0.5-0.1C61.9,151.5,61.9,151.5,62,151.4 M68.4,149.5c-0.3,0-0.5,0.1-0.8,0.3
				c-0.2,0.2-0.3,0.5-0.3,0.8c0,0.3,0.1,0.6,0.3,0.8c0.2,0.2,0.5,0.3,0.8,0.3c0.3,0,0.6-0.1,0.8-0.3c0.2-0.2,0.3-0.5,0.3-0.8
				c0-0.3-0.1-0.5-0.3-0.8C69,149.6,68.8,149.5,68.4,149.5 M74.9,157c-0.2,0.2-0.3,0.4-0.3,0.8c0,0.3,0.1,0.6,0.3,0.8
				c0.2,0.2,0.4,0.3,0.8,0.3s0.6-0.1,0.8-0.3c0.2-0.2,0.3-0.5,0.3-0.8c0-0.3-0.1-0.6-0.3-0.8c-0.2-0.2-0.4-0.3-0.8-0.3
				S75.1,156.8,74.9,157 M71.3,153.4c-0.2,0.2-0.4,0.5-0.4,0.8c0,0.3,0.1,0.6,0.4,0.8c0.2,0.2,0.4,0.3,0.8,0.3
				c0.3,0,0.5-0.1,0.8-0.3c0.2-0.2,0.3-0.5,0.3-0.8c0-0.3-0.1-0.5-0.3-0.8c-0.2-0.2-0.5-0.3-0.8-0.3
				C71.8,153.1,71.5,153.2,71.3,153.4 M76.4,151.4c0.2-0.2,0.3-0.5,0.3-0.8c0-0.3-0.1-0.5-0.3-0.8c-0.2-0.2-0.4-0.3-0.8-0.3
				s-0.6,0.1-0.8,0.3c-0.2,0.2-0.3,0.5-0.3,0.8c0,0.3,0.1,0.6,0.3,0.8c0.2,0.2,0.4,0.3,0.8,0.3S76.2,151.6,76.4,151.4 M80.3,154.2
				c0-0.3-0.1-0.5-0.3-0.8c-0.2-0.2-0.5-0.3-0.8-0.3c-0.3,0-0.5,0.1-0.8,0.3c-0.2,0.2-0.3,0.5-0.3,0.8c0,0.3,0.1,0.6,0.3,0.8
				c0.2,0.2,0.5,0.3,0.8,0.3c0.3,0,0.5-0.1,0.8-0.3C80.2,154.8,80.3,154.5,80.3,154.2 M80,147.8c0.2-0.2,0.3-0.5,0.3-0.8
				c0-0.3-0.1-0.5-0.3-0.8c-0.2-0.2-0.5-0.3-0.8-0.3c-0.3,0-0.5,0.1-0.8,0.3c-0.2,0.2-0.3,0.5-0.3,0.8c0,0.3,0.1,0.6,0.3,0.8
				c0.2,0.2,0.5,0.3,0.8,0.3C79.5,148.1,79.8,148,80,147.8 M72.8,147.8c0.2-0.2,0.3-0.5,0.3-0.8c0-0.3-0.1-0.5-0.3-0.8
				c-0.2-0.2-0.5-0.3-0.8-0.3c-0.3,0-0.6,0.1-0.8,0.3c-0.2,0.2-0.4,0.5-0.4,0.8c0,0.3,0.1,0.6,0.4,0.8c0.2,0.2,0.4,0.3,0.8,0.3
				C72.3,148.1,72.6,148,72.8,147.8 M74.9,144.2c0.2,0.2,0.4,0.3,0.8,0.3s0.6-0.1,0.8-0.3c0.2-0.2,0.3-0.5,0.3-0.8
				c0-0.3-0.1-0.5-0.3-0.8c-0.2-0.2-0.4-0.3-0.8-0.3s-0.6,0.1-0.8,0.3c-0.2,0.2-0.3,0.5-0.3,0.8C74.6,143.7,74.7,144,74.9,144.2
				 M67.3,143.4c0,0.3,0.1,0.5,0.3,0.8c0.2,0.2,0.5,0.3,0.8,0.3c0.3,0,0.6-0.1,0.8-0.3c0.2-0.2,0.3-0.5,0.3-0.8
				c0-0.3-0.1-0.5-0.3-0.8c-0.2-0.2-0.4-0.3-0.8-0.3c-0.3,0-0.5,0.1-0.8,0.3C67.5,142.9,67.3,143.1,67.3,143.4 M64.8,148.1
				c0.3,0,0.6-0.1,0.8-0.3c0.2-0.2,0.3-0.5,0.3-0.8c0-0.3-0.1-0.5-0.3-0.8c-0.2-0.2-0.4-0.3-0.8-0.3s-0.6,0.1-0.8,0.3
				c-0.2,0.2-0.3,0.5-0.3,0.8c0,0.3,0.1,0.6,0.3,0.8C64.3,148,64.5,148.1,64.8,148.1 M57.7,145.9c-0.3,0-0.5,0.1-0.8,0.3
				c-0.2,0.2-0.4,0.5-0.4,0.8c0,0.3,0.1,0.6,0.4,0.8c0.2,0.2,0.5,0.3,0.8,0.3s0.5-0.1,0.8-0.3c0.2-0.2,0.3-0.5,0.3-0.8
				c0-0.3-0.1-0.5-0.3-0.8C58.2,146,58,145.9,57.7,145.9 M60.2,143.4c0,0.3,0.1,0.5,0.3,0.8c0.2,0.2,0.5,0.3,0.8,0.3
				s0.5-0.1,0.8-0.3c0.2-0.2,0.3-0.5,0.3-0.8c0-0.3-0.1-0.5-0.3-0.8c-0.2-0.2-0.5-0.3-0.8-0.3s-0.5,0.1-0.8,0.3
				C60.3,142.9,60.2,143.1,60.2,143.4 M55.1,143.4c0-0.3-0.1-0.5-0.3-0.8c-0.2-0.2-0.4-0.3-0.8-0.3c-0.3,0-0.5,0.1-0.8,0.3
				c-0.2,0.2-0.3,0.5-0.3,0.8c0,0.3,0.1,0.5,0.3,0.8c0.2,0.2,0.5,0.3,0.8,0.3c0.3,0,0.6-0.1,0.8-0.3C55,144,55.1,143.7,55.1,143.4
				 M49.7,147.8c0.2,0.2,0.4,0.3,0.8,0.3c0.3,0,0.5-0.1,0.8-0.3c0.2-0.2,0.3-0.5,0.3-0.8c0-0.3-0.1-0.5-0.3-0.8
				c-0.2-0.2-0.5-0.3-0.8-0.3c-0.3,0-0.6,0.1-0.8,0.3c-0.2,0.2-0.4,0.5-0.4,0.8C49.3,147.3,49.5,147.6,49.7,147.8 M50.5,138.7
				c-0.3,0-0.6,0.1-0.8,0.4c-0.2,0.2-0.4,0.4-0.4,0.8c0,0,0,0.1,0,0.1c0,0.3,0.1,0.5,0.4,0.7c0.2,0.2,0.4,0.3,0.8,0.3
				c0.3,0,0.5-0.1,0.8-0.3c0.1-0.1,0.2-0.2,0.2-0.3c0.1-0.1,0.1-0.3,0.1-0.4c0-0.3-0.1-0.6-0.3-0.8C51,138.9,50.8,138.7,50.5,138.7
				 M51.2,133.4c0.2-0.2,0.3-0.4,0.3-0.8s-0.1-0.6-0.3-0.8c-0.2-0.2-0.5-0.3-0.8-0.3c-0.3,0-0.6,0.1-0.8,0.3
				c-0.2,0.2-0.4,0.4-0.4,0.8c0,0.3,0.1,0.6,0.4,0.8c0.2,0.2,0.4,0.3,0.8,0.3C50.8,133.7,51,133.6,51.2,133.4z"/>
			<path d="M96.3,140.6c-0.5,0.2-0.9,0.3-1.4,0.5c1.5,3.2,2.5,6.1,2.8,8.5c0,0.6,0.1,1.1,0.1,1.7c0,0.1,0,0.2,0.1,0.3
				c0.1,0.3,0.3,0.5,0.6,0.5c0.4,0,0.6-0.1,0.7-0.4c0-0.1,0-0.2,0-0.3c0-0.2,0-0.4,0-0.7C99.1,147.8,98.2,144.4,96.3,140.6
				 M70.9,134.1l0.1,0.5L70.9,134.1l-0.2,0.1l-0.1-0.1c-0.3-0.3-0.6-0.3-1-0.3c-0.3,0.1-0.6,0.4-0.7,0.7c-0.1,0.4,0,0.7,0.3,0.9
				l1.4,1.4c0.1,0,0.2,0,0.2,0l1.4-1.4c0.3-0.2,0.4-0.5,0.3-0.9c0-0.3-0.2-0.6-0.5-0.7c-0.3-0.2-0.6-0.2-0.9-0.1L70.9,134.1
				 M50.8,125.4c0-0.1,0-0.2-0.1-0.3c-0.1-0.1-0.2-0.2-0.4-0.3c-0.4-0.3-1.2-0.2-2.4,0.3c-0.2,0.1-0.4,0.2-0.6,0.3
				c-0.3,0.1-0.5,0.3-0.5,0.7l0.1,0.3l0.6,13c0,0.7-0.2,1.9-0.8,3.4c-0.6,1.5-1,2.8-1.2,3.9c-0.2,1.4-0.3,3-0.1,4.6
				c0,0.2,0,0.4,0,0.6c0,0.2,0,0.4,0,0.6c0,0.1,0.1,0.3,0.1,0.4c0.1,0.2,0.3,0.3,0.6,0.3h0.1c0.2,0,0.4-0.1,0.5-0.3
				c0.1-0.2,0.2-0.4,0.1-0.6s0-0.4,0-0.6c0-0.1,0-0.3,0-0.4c-0.1-0.6-0.1-1.2-0.1-1.8c0-0.9,0-1.8,0.2-2.7c0.2-1,0.5-2.2,1-3.6
				c0.5-1.4,0.8-2.6,0.9-3.4c0-0.2,0.1-0.3,0-0.5l-0.7-12.8l1.2-0.3c2,4.1,3.7,7.1,5.1,9.2l0.4,0.6c0,0,0.1,0.1,0.1,0.2
				c0.5,0.8,1,1.4,1.5,1.8c0.4,0.4,0.9,0.7,1.4,1c0.1,0.1,0.3,0.1,0.4,0.3c0.3,0.1,0.5,0.3,0.8,0.4c3.7,1.7,9.5,2.2,17.3,1.8
				c0.9-0.1,1.7-0.1,2.6-0.2c-0.4-0.3-0.8-0.8-1.3-1.4c-7.2,0.6-12.7,0.3-16.4-0.9c-1.6-0.5-2.9-1.2-3.9-2.1
				c-0.8-0.7-1.9-2.4-3.5-5.2C52.8,129.4,51.7,127.4,50.8,125.4 M78.8,86.3c-0.1-0.2-0.2-0.4-0.3-0.6c-0.3-0.3-0.6-0.4-1-0.4
				c-0.3,0-0.6,0.1-0.8,0.3c-0.1,0-0.1,0.1-0.2,0.1c-0.3,0.3-0.4,0.6-0.4,1s0.1,0.7,0.4,1s0.6,0.4,1,0.4s0.7-0.1,1-0.4
				s0.4-0.6,0.4-1C78.9,86.6,78.9,86.4,78.8,86.3 M60.1,85.2c-0.4,0-0.7,0.2-1,0.4c-0.3,0.3-0.4,0.6-0.4,1s0.1,0.7,0.4,1
				c0.3,0.3,0.6,0.4,1,0.4c0.4,0,0.7-0.1,1-0.4c0.3-0.3,0.4-0.6,0.4-1s-0.1-0.7-0.4-1C60.8,85.4,60.5,85.2,60.1,85.2z"/>
			<path class="st1" d="M41.4,129.9c0.1-0.1,0.2-0.3,0.3-0.4c-1.4,1.2-2.6,2.7-3.6,4.3l0,0.1c0.1,0.1,0.1,0.1,0.3,0.3
				C40.1,131.8,41,130.4,41.4,129.9 M58.8,124.9c-0.2-0.1-0.3-0.3-0.4-0.4c-1.9,0-3.7,0.1-5.4,0.3c0.5,0,1,0,1.5,0.1
				c1.2,0.1,2.7,0.2,4.5,0.3C58.9,125.2,58.9,125.1,58.8,124.9 M39.2,76.9c-0.3,0.4-0.7,0.9-1.3,1.5c-1.2,1.2-1.9,2.9-2.2,5.2
				c-0.2,2.2,0.1,4.1,0.9,5.8c1,2.1,1.1,4.2,0.1,6.2c-1.1,2.2-1.6,3.7-1.5,4.3c0.1,0.8,0.5,1.8,1,2.9c0.7,1.5,1.1,2.4,1.3,2.8
				c0.4,1.1,0.5,2.2,0.3,3.3c-0.2,0.9-0.6,1.9-1.2,3.1c-1.3,2.5-1.7,4.6-1.1,6.4c0.1,0.2,0.6,1.2,1.5,2.9c0.6,1.1,0.8,2.2,0.6,3.3
				c-0.1,0.7-0.4,1.8-0.8,3.3c-0.3,1.3-0.3,2.4-0.2,3.3c0.2,1.1,0.7,2,1.6,2.6c1-1.7,2.2-3.1,3.6-4.3c1.7-2.1,3.4-3.4,5-4.1
				c0.3-0.1,0.7-0.2,1.2-0.3c1.2-0.4,2-0.5,2.4-0.3c0.8-0.1,1.7-0.1,2.7,0c1.6-0.2,3.4-0.3,5.4-0.3c-0.3-0.2-0.5-0.4-0.7-0.6
				c0.2,0.2,0.4,0.3,0.7,0.6c0.1,0.1,0.3,0.3,0.4,0.4c-0.6-1.8-1-3.9-1.3-6.4l-0.3-6.5c-1.1-1.1-2.3-2.4-3.3-4
				c-2.3-3.1-3.4-5.9-3.4-8.2c0-3.7-0.2-6.9-0.7-9.6l-0.2-0.9c0,0.2,0.1,0.4,0.1,0.6c0.4,3.6,0.6,6.3,0.5,8.2c0,0.4-0.3,0.6-1,0.7
				c-0.7,0.1-1.2-0.3-1.3-1.2c-1.1-3.7-1.8-6.3-2.3-7.8c-0.7-2.5-0.8-4.3-0.3-5.6c0.4-1.1,1-1.7,1.8-1.7c0.7,0,1.1,0.3,1.3,0.8
				c0,0.1,0.1,0.2,0.1,0.3c0-0.2-0.1-0.4-0.1-0.6l-0.3-2.5c-0.5-5.1,0.3-10.4,2.4-15.8c1.5-3.9,2.9-6.4,4.1-7.6L54.5,57
				c-1.5,0.1-3,0.8-4.5,1.8c-2.5,1.8-4.6,4.7-6.3,8.6c-0.4,1.1-1,2.5-1.8,4.4C41.3,73.4,40.4,75.1,39.2,76.9 M95.2,59
				c-1.6-3.1-4.2-5.3-7.5-6.8c-2.7-1.1-6.9-2-12.6-2.7c-5.7-0.7-10.5,0.1-14.5,2.3c-2.7,1.5-4.6,3.3-5.8,5.4
				c-0.1,0.2-0.2,0.4-0.3,0.7c2.6-1.9,5.5-2.6,8.7-2.2c3,0.4,5.9,1.8,8.7,4.1c6.2,5.1,9.5,11.8,9.8,20c0,0.8,0.1,1.6,0.1,2.4
				c0.3,4.8,0.8,9,1.5,12.8c0.1,1.2-0.1,2.7-0.6,4.5c-0.4,1.6-0.9,3.1-1.4,4.7c-0.4,1.1-0.8,2.2-1.3,3.4c-0.4,0.9-0.7,1.8-1,2.8
				c0,0,0,0.1,0,0.1c-0.2,0.9-0.6,1.9-1,2.8c-0.3,0.8-1.2,2.3-2.4,4.6c-0.9,2.3-0.9,4.6,0.2,6.7c0.6,1.2,0.8,2.4,0.8,3.7
				c-0.1,0.8-0.1,1.5-0.2,2.2c-0.1,1.5-0.1,2.7,0,3.6c0.1,2.1,0.6,3.9,1.5,5.4v0.1c0.4,0.6,0.8,1.1,1.3,1.4c0.5,0.4,1.1,0.6,1.7,0.6
				l3.8-0.8c0.4-0.1,0.7-0.1,1-0.2c0.6,0,1.1-0.1,1.7-0.1c0.9,0.1,1.8,0.2,2.7,0.6c1.5,0.5,3.1,0.5,5,0.1c0.5-0.1,0.9-0.3,1.4-0.5
				c0.1,0,0.1,0,0.2,0c1.2-0.4,2.3-0.9,3.1-1.6h2.9c2-0.3,3.2-1.1,3.6-2.6c0.3-1,0.4-2.1,0.2-3.3c-0.3-1.2-0.5-2.1-0.6-2.8
				c0-0.1,0-0.2,0-0.3c-0.1-1.1,0.2-2.2,0.8-3.2c1-1.7,1.6-2.7,1.7-2.9c0.4-1.1,0.6-2.2,0.3-3.3c-0.1-0.8-0.5-1.8-1-3.1
				c-0.6-1.3-1-2.3-1.1-2.9c-0.2-0.9-0.1-1.9,0.2-3c0.2-0.7,0.7-1.8,1.6-3.1c0.8-1.3,1.3-2.3,1.5-3.1c0.2-0.6-0.2-2.1-1.2-4.4
				c-0.8-2-0.7-4,0.5-6.1c0.9-1.5,1.3-3.4,1.3-5.6c0-2.3-0.6-4-1.6-5.3c-0.6-0.6-1.1-1.3-1.5-1.9c-0.9-1.7-1.4-3.4-1.3-5.1
				c0-2.4,0-3.9-0.2-4.4c-1-4.5-2.8-7.8-5.6-9.8c-0.2-0.2-1.2-0.8-3-1.9C96.2,60.3,95.5,59.6,95.2,59z"/>
			<path class="st2" d="M47.9,125.1c-0.5,0.1-0.9,0.2-1.2,0.3c-1.6,0.7-3.3,2-5,4.1c0.1-0.1,0.1-0.1,0.2-0.2c1.4-1.3,3.1-2.3,5-3
				l-0.1-0.3c0-0.4,0.2-0.6,0.5-0.7C47.5,125.2,47.7,125.2,47.9,125.1 M54,135.1c0.2,0,0.4,0.1,0.5,0.2c-1.4-2-3.1-5.1-5.1-9.2
				l-1.2,0.3l0.7,12.8c0,0.2,0,0.3,0,0.5c0,0.9-0.3,2-0.9,3.4c-0.5,1.5-0.9,2.7-1,3.6c-0.2,0.9-0.2,1.8-0.2,2.7
				c0.3,0,0.6,0.1,0.8,0.3c0.2,0.2,0.3,0.5,0.3,0.8c0,0.3-0.1,0.5-0.2,0.7c0,0-0.1,0.1-0.1,0.1c-0.2,0.2-0.4,0.3-0.7,0.3
				c0,0.2,0,0.4,0,0.6s0,0.4-0.1,0.6c-0.1,0.2-0.3,0.3-0.5,0.3h-0.1c-0.3,0-0.5-0.1-0.6-0.3c0-0.1-0.1-0.2-0.1-0.4
				c0-0.2,0-0.4,0-0.6c0-0.2,0-0.4,0-0.6c-0.2-1.6-0.1-3.2,0.1-4.6c0.2-1.1,0.6-2.4,1.2-3.9c0.5-1.5,0.8-2.7,0.8-3.4l-0.6-13
				c-1.9,0.7-3.5,1.7-5,3c-0.1,0.1-0.1,0.1-0.2,0.2c-0.1,0.1-0.3,0.3-0.3,0.4c-0.4,0.5-1.3,1.9-3,4.3c-0.1-0.1-0.2-0.2-0.3-0.3
				l0-0.1c-0.5,1-1,2-1.5,3.1c-0.7,1.7-1.3,3.6-1.8,5.8c0,0.2-0.1,0.4-0.1,0.6c-0.2,1.1-0.4,2.1-0.5,3c-0.1,0.5-0.1,0.9-0.2,1.4
				c0.1,0,0.1,0.1,0.2,0.1c0.9,0.7,1.8,1.3,2.6,1.9l1.7,1.1c0.2,0.1,0.4,0.2,0.6,0.3l0,0c4.4,2.6,9.1,4.7,13.9,6.2
				c0-0.1,0.1-0.2,0.2-0.3c0.2-0.2,0.5-0.3,0.8-0.3c0.3,0,0.6,0.1,0.8,0.3c0.2,0.2,0.3,0.4,0.3,0.8c0,0,0,0,0,0.1
				c5.5,1.5,11.3,2.2,17.4,2.2c5.8,0,11.3-0.6,16.5-1.9c0-0.1-0.1-0.2-0.1-0.3c0-0.3,0.1-0.6,0.3-0.8c0.2-0.2,0.5-0.3,0.8-0.3
				s0.6,0.1,0.8,0.3c0.1,0.1,0.2,0.3,0.3,0.5c4.3-1.2,8.4-2.9,12.3-5.1h0.1c0.2-0.1,0.3-0.2,0.5-0.3l0.4-0.3
				c2.9-1.6,5.7-3.5,8.5-5.7c-1-6-2.3-10.3-3.8-12.8c-0.2-0.3-0.4-0.6-0.5-0.8c-0.6-0.8-1.5-1.6-2.8-2.3c0.1,0.7,0.3,1.7,0.6,2.8
				c0.2,1.2,0.1,2.3-0.2,3.3c-0.5,1.4-1.7,2.3-3.6,2.6h-2.9c-0.9,0.6-1.9,1.1-3.1,1.6c-0.1,0-0.1,0-0.2,0c1.8,3.8,2.8,7.1,2.8,10.1
				c0,0.2,0,0.5,0,0.7c0,0.1,0,0.2,0,0.3c-0.1,0.2-0.3,0.4-0.7,0.4c-0.4,0-0.6-0.2-0.6-0.5c-0.2,0.1-0.4,0.1-0.6,0.1
				c-0.3,0-0.5-0.1-0.8-0.3c-0.2-0.2-0.3-0.5-0.3-0.8c0-0.3,0.1-0.5,0.3-0.8c0.2-0.2,0.5-0.3,0.8-0.3c0.2,0,0.3,0,0.5,0.1
				c-0.3-2.5-1.2-5.3-2.8-8.5c-1.9,0.5-3.5,0.4-5-0.1c-0.9-0.3-1.8-0.5-2.7-0.6c0,0,0,0.1-0.1,0.1c-0.2,0.2-0.5,0.3-0.8,0.3
				s-0.6-0.1-0.8-0.3l-0.1-0.1c-0.3,0.1-0.7,0.1-1,0.2l-3.8,0.8c-0.6,0-1.2-0.2-1.7-0.6c-0.9,0.1-1.7,0.1-2.6,0.2
				c-7.8,0.5-13.6-0.1-17.3-1.8c-0.3-0.1-0.5-0.3-0.8-0.4l0.1,0.1c0.1,0.1,0.2,0.2,0.2,0.3c0.1,0.1,0.1,0.3,0.1,0.4
				c0,0.3-0.1,0.6-0.3,0.8s-0.5,0.3-0.8,0.3s-0.5-0.1-0.8-0.3c-0.2-0.2-0.4-0.4-0.4-0.8c0-0.2,0-0.3,0.1-0.5
				c0.1-0.1,0.2-0.2,0.3-0.3c0.2-0.2,0.5-0.4,0.8-0.4c0.1,0,0.1,0,0.3,0.1c-0.5-0.3-1-0.6-1.4-1c-0.4-0.4-0.9-1-1.5-1.8
				c0,0.1,0,0.1,0,0.2c0,0.3-0.1,0.6-0.3,0.8c-0.2,0.2-0.4,0.3-0.8,0.3c-0.3,0-0.5-0.1-0.8-0.3c-0.2-0.2-0.3-0.4-0.3-0.8
				s0.1-0.6,0.3-0.8C53.5,135.3,53.8,135.1,54,135.1 M51.5,132.6c0,0.3-0.1,0.6-0.3,0.8c-0.2,0.2-0.5,0.3-0.8,0.3
				c-0.3,0-0.6-0.1-0.8-0.3c-0.2-0.2-0.4-0.4-0.4-0.8c0-0.3,0.1-0.6,0.4-0.8c0.2-0.2,0.4-0.3,0.8-0.3c0.3,0,0.5,0.1,0.8,0.3
				C51.4,132.1,51.5,132.3,51.5,132.6 M49.7,139.1c0.2-0.2,0.4-0.4,0.8-0.4c0.3,0,0.5,0.1,0.8,0.4c0.2,0.2,0.3,0.4,0.3,0.8
				c0,0.2,0,0.3-0.1,0.4c0,0.1-0.1,0.2-0.2,0.3c-0.2,0.2-0.5,0.3-0.8,0.3c-0.3,0-0.6-0.1-0.8-0.3c-0.2-0.2-0.3-0.4-0.4-0.7
				c0,0,0-0.1,0-0.1C49.3,139.5,49.5,139.3,49.7,139.1 M50.5,148.1c-0.3,0-0.6-0.1-0.8-0.3c-0.2-0.2-0.4-0.5-0.4-0.8
				c0-0.3,0.1-0.5,0.4-0.8c0.2-0.2,0.4-0.3,0.8-0.3c0.3,0,0.5,0.1,0.8,0.3c0.2,0.2,0.3,0.5,0.3,0.8c0,0.3-0.1,0.6-0.3,0.8
				C51,148,50.8,148.1,50.5,148.1 M54.8,142.7c0.2,0.2,0.3,0.5,0.3,0.8c0,0.3-0.1,0.5-0.3,0.8c-0.2,0.2-0.4,0.3-0.8,0.3
				c-0.3,0-0.5-0.1-0.8-0.3c-0.2-0.2-0.3-0.5-0.3-0.8c0-0.3,0.1-0.5,0.3-0.8c0.2-0.2,0.5-0.3,0.8-0.3
				C54.4,142.3,54.6,142.5,54.8,142.7 M60.5,144.2c-0.2-0.2-0.3-0.5-0.3-0.8c0-0.3,0.1-0.5,0.3-0.8c0.2-0.2,0.5-0.3,0.8-0.3
				s0.5,0.1,0.8,0.3c0.2,0.2,0.3,0.5,0.3,0.8c0,0.3-0.1,0.5-0.3,0.8c-0.2,0.2-0.5,0.3-0.8,0.3S60.7,144.4,60.5,144.2 M56.9,146.2
				c0.2-0.2,0.5-0.3,0.8-0.3s0.5,0.1,0.8,0.3c0.2,0.2,0.3,0.5,0.3,0.8c0,0.3-0.1,0.6-0.3,0.8c-0.2,0.2-0.5,0.3-0.8,0.3
				s-0.5-0.1-0.8-0.3c-0.2-0.2-0.4-0.5-0.4-0.8C56.5,146.7,56.7,146.5,56.9,146.2 M65.6,147.8c-0.2,0.2-0.4,0.3-0.8,0.3
				s-0.6-0.1-0.8-0.3c-0.2-0.2-0.3-0.5-0.3-0.8c0-0.3,0.1-0.5,0.3-0.8c0.2-0.2,0.4-0.3,0.8-0.3s0.6,0.1,0.8,0.3
				c0.2,0.2,0.3,0.5,0.3,0.8C65.9,147.3,65.8,147.6,65.6,147.8 M67.7,144.2c-0.2-0.2-0.3-0.5-0.3-0.8c0-0.3,0.1-0.5,0.3-0.8
				c0.2-0.2,0.5-0.3,0.8-0.3c0.3,0,0.6,0.1,0.8,0.3c0.2,0.2,0.3,0.5,0.3,0.8c0,0.3-0.1,0.5-0.3,0.8c-0.2,0.2-0.4,0.3-0.8,0.3
				C68.2,144.5,67.9,144.4,67.7,144.2 M75.7,144.5c-0.3,0-0.6-0.1-0.8-0.3c-0.2-0.2-0.3-0.5-0.3-0.8c0-0.3,0.1-0.5,0.3-0.8
				c0.2-0.2,0.4-0.3,0.8-0.3s0.6,0.1,0.8,0.3c0.2,0.2,0.3,0.5,0.3,0.8c0,0.3-0.1,0.5-0.3,0.8C76.2,144.4,76,144.5,75.7,144.5
				 M73.1,147c0,0.3-0.1,0.6-0.3,0.8c-0.2,0.2-0.5,0.3-0.8,0.3c-0.3,0-0.6-0.1-0.8-0.3c-0.2-0.2-0.4-0.5-0.4-0.8
				c0-0.3,0.1-0.5,0.4-0.8c0.2-0.2,0.4-0.3,0.8-0.3c0.3,0,0.5,0.1,0.8,0.3C73,146.5,73.1,146.7,73.1,147 M80.3,147
				c0,0.3-0.1,0.6-0.3,0.8c-0.2,0.2-0.5,0.3-0.8,0.3c-0.3,0-0.5-0.1-0.8-0.3c-0.2-0.2-0.3-0.5-0.3-0.8c0-0.3,0.1-0.5,0.3-0.8
				c0.2-0.2,0.5-0.3,0.8-0.3c0.3,0,0.5,0.1,0.8,0.3C80.2,146.5,80.3,146.7,80.3,147 M80,153.4c0.2,0.2,0.3,0.5,0.3,0.8
				c0,0.3-0.1,0.6-0.3,0.8c-0.2,0.2-0.5,0.3-0.8,0.3c-0.3,0-0.5-0.1-0.8-0.3c-0.2-0.2-0.3-0.5-0.3-0.8c0-0.3,0.1-0.5,0.3-0.8
				c0.2-0.2,0.5-0.3,0.8-0.3C79.5,153.1,79.8,153.2,80,153.4 M76.7,150.6c0,0.3-0.1,0.6-0.3,0.8c-0.2,0.2-0.4,0.3-0.8,0.3
				s-0.6-0.1-0.8-0.3c-0.2-0.2-0.3-0.5-0.3-0.8c0-0.3,0.1-0.5,0.3-0.8c0.2-0.2,0.4-0.3,0.8-0.3s0.6,0.1,0.8,0.3
				C76.6,150.1,76.7,150.3,76.7,150.6 M70.9,154.2c0-0.3,0.1-0.5,0.4-0.8c0.2-0.2,0.4-0.3,0.8-0.3c0.3,0,0.5,0.1,0.8,0.3
				c0.2,0.2,0.3,0.5,0.3,0.8c0,0.3-0.1,0.6-0.3,0.8c-0.2,0.2-0.5,0.3-0.8,0.3c-0.3,0-0.6-0.1-0.8-0.3
				C71.1,154.8,70.9,154.5,70.9,154.2 M74.6,157.8c0-0.3,0.1-0.6,0.3-0.8c0.2-0.2,0.4-0.3,0.8-0.3s0.6,0.1,0.8,0.3
				c0.2,0.2,0.3,0.4,0.3,0.8c0,0.3-0.1,0.6-0.3,0.8c-0.2,0.2-0.4,0.3-0.8,0.3s-0.6-0.1-0.8-0.3C74.7,158.4,74.6,158.1,74.6,157.8
				 M67.7,149.8c0.2-0.2,0.5-0.3,0.8-0.3c0.3,0,0.6,0.1,0.8,0.3c0.2,0.2,0.3,0.5,0.3,0.8c0,0.3-0.1,0.6-0.3,0.8
				c-0.2,0.2-0.4,0.3-0.8,0.3c-0.3,0-0.5-0.1-0.8-0.3c-0.2-0.2-0.3-0.5-0.3-0.8C67.3,150.3,67.5,150.1,67.7,149.8 M62.3,150.6
				c0,0.3-0.1,0.6-0.3,0.8c-0.1,0.1-0.1,0.1-0.3,0.2c-0.2,0.1-0.3,0.1-0.5,0.1c-0.2,0-0.4,0-0.5-0.1c-0.1-0.1-0.2-0.1-0.3-0.2
				c-0.2-0.2-0.3-0.5-0.3-0.8c0-0.3,0.1-0.5,0.3-0.8c0.2-0.2,0.5-0.3,0.8-0.3s0.5,0.1,0.8,0.3C62.2,150.1,62.3,150.3,62.3,150.6
				 M63.8,154.2c0-0.3,0.1-0.5,0.3-0.8c0.2-0.2,0.4-0.3,0.8-0.3s0.6,0.1,0.8,0.3c0.2,0.2,0.3,0.5,0.3,0.8c0,0.3-0.1,0.6-0.3,0.8
				c-0.2,0.2-0.4,0.3-0.8,0.3s-0.6-0.1-0.8-0.3C63.9,154.8,63.8,154.5,63.8,154.2 M61.3,156.7c0.3,0,0.5,0.1,0.8,0.3
				c0.2,0.2,0.3,0.4,0.3,0.8c0,0.3-0.1,0.6-0.3,0.8c-0.2,0.2-0.5,0.3-0.8,0.3s-0.5-0.1-0.8-0.3c-0.2-0.2-0.3-0.5-0.3-0.8
				c0-0.3,0.1-0.6,0.3-0.8C60.7,156.8,61,156.7,61.3,156.7 M69.2,158.6c-0.2,0.2-0.4,0.3-0.8,0.3c-0.3,0-0.5-0.1-0.8-0.3
				c-0.2-0.2-0.3-0.5-0.3-0.8c0-0.3,0.1-0.6,0.3-0.8c0.2-0.2,0.5-0.3,0.8-0.3c0.3,0,0.6,0.1,0.8,0.3c0.2,0.2,0.3,0.4,0.3,0.8
				C69.5,158.1,69.4,158.4,69.2,158.6 M57.7,153.1c0.3,0,0.5,0.1,0.8,0.3c0.2,0.2,0.3,0.5,0.3,0.8c0,0.3-0.1,0.6-0.3,0.8
				c-0.2,0.2-0.5,0.3-0.8,0.3s-0.5-0.1-0.8-0.3c-0.2-0.2-0.4-0.5-0.4-0.8c0-0.3,0.1-0.5,0.4-0.8C57.1,153.2,57.4,153.1,57.7,153.1
				 M54,149.5c0.3,0,0.6,0.1,0.8,0.3c0.2,0.2,0.3,0.5,0.3,0.8c0,0.3-0.1,0.6-0.3,0.8l0,0.1c-0.2,0.2-0.4,0.3-0.7,0.3
				c-0.3,0-0.5-0.1-0.7-0.3l0-0.1c-0.2-0.2-0.3-0.5-0.3-0.8c0-0.3,0.1-0.5,0.3-0.8C53.5,149.6,53.8,149.5,54,149.5 M51.2,153.4
				c0.2,0.2,0.3,0.5,0.3,0.8c0,0.3-0.1,0.6-0.3,0.8c-0.2,0.2-0.5,0.3-0.8,0.3c-0.3,0-0.6-0.1-0.8-0.3c-0.2-0.2-0.4-0.5-0.4-0.8
				c0-0.3,0.1-0.5,0.4-0.8c0.2-0.2,0.4-0.3,0.8-0.3C50.8,153.1,51,153.2,51.2,153.4 M83.9,143.4c0,0.3-0.1,0.5-0.3,0.8
				c-0.2,0.2-0.5,0.3-0.8,0.3c-0.3,0-0.5-0.1-0.8-0.3c-0.2-0.2-0.3-0.5-0.3-0.8c0-0.3,0.1-0.5,0.3-0.8c0.2-0.2,0.5-0.3,0.8-0.3
				c0.3,0,0.6,0.1,0.8,0.3C83.8,142.9,83.9,143.1,83.9,143.4 M85.3,147c0-0.3,0.1-0.5,0.3-0.8c0.2-0.2,0.4-0.3,0.8-0.3
				s0.6,0.1,0.8,0.3c0.2,0.2,0.3,0.5,0.3,0.8c0,0.3-0.1,0.6-0.3,0.8c-0.2,0.2-0.5,0.3-0.8,0.3s-0.6-0.1-0.8-0.3
				C85.5,147.6,85.3,147.3,85.3,147 M90.8,142.7c0.2,0.2,0.3,0.5,0.3,0.8c0,0.3-0.1,0.5-0.3,0.8c-0.2,0.2-0.5,0.3-0.8,0.3
				s-0.5-0.1-0.8-0.3c-0.2-0.2-0.3-0.5-0.3-0.8c0-0.3,0.1-0.5,0.3-0.8c0.2-0.2,0.5-0.3,0.8-0.3S90.6,142.5,90.8,142.7 M93.6,145.9
				c0.3,0,0.6,0.1,0.8,0.3c0.2,0.2,0.3,0.5,0.3,0.8c0,0.3-0.1,0.6-0.3,0.8c-0.2,0.2-0.5,0.3-0.8,0.3s-0.6-0.1-0.8-0.3
				c-0.2-0.2-0.3-0.5-0.3-0.8c0-0.3,0.1-0.5,0.3-0.8C93,146,93.3,145.9,93.6,145.9 M92.6,154.2c0-0.3,0.1-0.5,0.3-0.8
				c0.2-0.2,0.4-0.3,0.8-0.3s0.6,0.1,0.8,0.3c0.2,0.2,0.3,0.5,0.3,0.8c0,0.3-0.1,0.6-0.3,0.8c-0.2,0.2-0.5,0.3-0.8,0.3
				s-0.6-0.1-0.8-0.3C92.7,154.8,92.6,154.5,92.6,154.2 M90,149.5c0.3,0,0.6,0.1,0.8,0.3c0.2,0.2,0.3,0.5,0.3,0.8
				c0,0.3-0.1,0.6-0.3,0.8c-0.2,0.2-0.5,0.3-0.8,0.3s-0.5-0.1-0.8-0.3c-0.2-0.2-0.3-0.5-0.3-0.8c0-0.3,0.1-0.5,0.3-0.8
				C89.5,149.6,89.7,149.5,90,149.5 M87.2,153.4c0.2,0.2,0.3,0.5,0.3,0.8c0,0.3-0.1,0.6-0.3,0.8c-0.2,0.2-0.5,0.3-0.8,0.3
				s-0.6-0.1-0.8-0.3c-0.2-0.2-0.3-0.5-0.3-0.8c0-0.3,0.1-0.5,0.3-0.8c0.2-0.2,0.4-0.3,0.8-0.3S87,153.2,87.2,153.4 M83.9,150.6
				c0,0.3-0.1,0.6-0.3,0.8c-0.2,0.2-0.5,0.3-0.8,0.3c-0.3,0-0.5-0.1-0.8-0.3c-0.2-0.2-0.3-0.5-0.3-0.8c0-0.3,0.1-0.5,0.3-0.8
				c0.2-0.2,0.5-0.3,0.8-0.3c0.3,0,0.6,0.1,0.8,0.3C83.8,150.1,83.9,150.3,83.9,150.6 M83.6,157c0.2,0.2,0.3,0.4,0.3,0.8
				c0,0.3-0.1,0.6-0.3,0.8c-0.2,0.2-0.5,0.3-0.8,0.3c-0.3,0-0.5-0.1-0.8-0.3c-0.2-0.2-0.3-0.5-0.3-0.8c0-0.3,0.1-0.6,0.3-0.8
				c0.2-0.2,0.5-0.3,0.8-0.3C83.1,156.7,83.4,156.8,83.6,157 M50.7,125.2c0.8-0.2,1.5-0.3,2.3-0.3c-1-0.1-1.9-0.1-2.7,0
				C50.5,124.9,50.6,125.1,50.7,125.2 M59.3,125.3c-0.1-0.1-0.3-0.2-0.4-0.4c0,0.1,0.1,0.2,0.1,0.3c-1.7-0.1-3.2-0.3-4.5-0.3
				c-0.5,0-1-0.1-1.5-0.1c-0.8,0.1-1.6,0.2-2.3,0.3c0.1,0.1,0.1,0.2,0.1,0.3c0.9,1.9,2,4,3.2,6.1c1.6,2.8,2.7,4.5,3.5,5.2
				c1,0.9,2.3,1.5,3.9,2.1c3.7,1.2,9.2,1.4,16.4,0.9v-0.1c-0.9-1.4-1.4-3.2-1.5-5.4c0-0.9,0-2.1,0-3.6c-2,1.1-3.8,1.7-5.5,1.8
				l0.1,1.8l0.2-0.2c0.3-0.1,0.6-0.1,0.9,0.1c0.3,0.1,0.5,0.4,0.5,0.7c0.1,0.4,0,0.6-0.3,0.9l-1.4,1.4c0,0-0.1,0-0.2,0l-1.4-1.4
				c-0.2-0.3-0.3-0.6-0.3-0.9c0.1-0.3,0.3-0.6,0.7-0.7c0.4-0.1,0.7,0,1,0.3l0.1,0.1l0.2-0.1l-0.1-1.8c-0.7,0-1.4-0.1-2.1-0.3
				c-1.6-0.4-3.5-1.5-5.5-3.2C61.7,127.5,60.4,126.3,59.3,125.3 M79,110.5c0,0,0-0.1,0-0.1c-2.7,4.8-6.2,7.1-10.5,7.1
				c-3.8,0-7.6-1.8-11.3-5.5l0.3,6.5c0.3,2.5,0.7,4.6,1.3,6.4c0.1,0.1,0.3,0.2,0.4,0.4c1.1,1,2.4,2.2,4,3.6c2,1.7,3.9,2.8,5.5,3.2
				c0.7,0.2,1.3,0.3,2.1,0.3c1.7-0.1,3.6-0.7,5.5-1.8c0-0.7,0.1-1.4,0.2-2.2c0.1-1.3-0.2-2.5-0.8-3.7c-1.1-2.1-1.1-4.4-0.2-6.7
				c1.3-2.3,2.1-3.8,2.4-4.6C78.4,112.4,78.8,111.5,79,110.5 M47.3,82.6c-0.8,0-1.4,0.6-1.8,1.7c-0.5,1.3-0.4,3.2,0.3,5.6
				c0.4,1.4,1.2,4,2.3,7.8c0.2,0.8,0.6,1.2,1.3,1.2c0.7,0,1-0.3,1-0.7c0-1.9-0.2-4.6-0.5-8.2c0-0.2-0.1-0.4-0.1-0.6c0,0,0-0.1,0-0.1
				l-0.9-5c0-0.2-0.1-0.4-0.1-0.6c0-0.1-0.1-0.2-0.1-0.3C48.4,82.9,48,82.6,47.3,82.6 M83.3,95.1c-0.7-3.7-1.1-8-1.5-12.8
				c-0.9-1-2.6-1.3-4.9-0.9c-2.3,0.3-3.3,0.7-3.2,1.2c-0.1-0.4,0.9-0.8,3.2-1.2c2.4-0.3,4,0,4.9,0.9c0-0.8-0.1-1.6-0.1-2.4
				c-0.4-8.3-3.7-14.9-9.8-20c-2.8-2.3-5.7-3.7-8.7-4.1c-3.2-0.4-6.1,0.3-8.7,2.2c0.1-0.2,0.2-0.4,0.3-0.7c-1.3,1.1-2.6,3.7-4.1,7.6
				c-2.1,5.4-2.9,10.7-2.4,15.8l0.3,2.5c0,0.2,0.1,0.4,0.1,0.6c0,0.2,0.1,0.4,0.1,0.6l0.9,5c0,0,0,0.1,0,0.1l0.2,0.9
				c0.5,2.7,0.7,5.9,0.7,9.6c0,2.3,1.1,5.1,3.4,8.2c1.1,1.5,2.2,2.9,3.3,4c3.7,3.7,7.4,5.5,11.3,5.5c4.3,0,7.8-2.3,10.5-7.1
				c0.3-1,0.6-1.9,1-2.8c0.5-1.2,0.9-2.3,1.3-3.4c0.5-1.5,1-3.1,1.4-4.7C83.2,97.8,83.4,96.3,83.3,95.1 M59.1,85.7
				c0.3-0.3,0.6-0.4,1-0.4c0.4,0,0.7,0.2,1,0.4c0.3,0.3,0.4,0.6,0.4,1s-0.1,0.7-0.4,1c-0.3,0.3-0.6,0.4-1,0.4c-0.4,0-0.7-0.1-1-0.4
				c-0.3-0.3-0.4-0.6-0.4-1S58.8,86,59.1,85.7 M57.2,81.4c-0.5-0.1-1.3,0.2-2.3,0.9c-1,0.6-1.5,1-1.4,1c-0.1-0.1,0.4-0.4,1.4-1
				C56,81.6,56.7,81.3,57.2,81.4c0.7-0.1,2,0.1,4,0.4c1.9,0.3,2.8,0.5,2.8,0.6c0-0.2-0.9-0.4-2.8-0.6C59.2,81.5,57.9,81.4,57.2,81.4
				 M78.5,85.7c0.2,0.2,0.3,0.4,0.3,0.6c0,0.1,0.1,0.3,0.1,0.4c0,0.4-0.1,0.7-0.4,1s-0.6,0.4-1,0.4s-0.7-0.1-1-0.4s-0.4-0.6-0.4-1
				s0.1-0.7,0.4-1c0,0,0.1-0.1,0.2-0.1c0.2-0.2,0.5-0.3,0.8-0.3C77.9,85.2,78.2,85.4,78.5,85.7 M67.8,94.8c0.6,0.3,1,0.5,1.3,0.5
				c0.3,0.1,1-0.3,2-1l1.6,0.2l-1.6-0.2c-1,0.7-1.7,1-2,1C68.8,95.3,68.4,95.1,67.8,94.8l-0.7-0.5l-1.4,0.2l1.4-0.2L67.8,94.8
				 M77.7,101.7c-1.1,1.3-2.1,2.4-3,3.3c-1.7,1.9-3.6,2.8-5.8,2.7c-1.7-0.1-3.4-1-5-2.7c-0.1-0.1-0.2-0.1-0.3-0.3
				c-1.2-1.7-2-2.6-2.5-2.9l4.4-0.3l1-0.2c0.2,0,0.3,0,0.5,0c0.8,0,1.6,0,2.5,0.2c0.5,0.1,1.1,0,1.8-0.1c0.8-0.1,1.4-0.2,1.9-0.1
				C74.8,101.6,76.3,101.7,77.7,101.7c0.1,0,0.2,0,0.3,0C77.8,101.7,77.8,101.7,77.7,101.7 M74.7,105.1c0.9-0.9,1.8-2.1,3-3.3
				c-1.4,0-2.8-0.1-4.3-0.3c-0.5-0.1-1.2,0-1.9,0.1c-0.8,0.1-1.4,0.2-1.8,0.1c-0.9-0.1-1.7-0.2-2.5-0.2c-0.2,0-0.3,0-0.5,0l-1,0.2
				l-4.4,0.3c0.4,0.3,1.2,1.3,2.5,2.9c0.1,0.1,0.1,0.2,0.3,0.3c1.6,1.7,3.3,2.6,5,2.7C71.1,107.9,73,107,74.7,105.1 M87.7,52.2
				c3.4,1.4,5.9,3.7,7.5,6.8c0.3,0.6,1,1.3,2.1,1.9c1.8,1.1,2.8,1.8,3,1.9c2.8,2.1,4.6,5.3,5.6,9.8c0.1,0.5,0.2,2,0.2,4.4
				c0,1.7,0.4,3.4,1.3,5.1c0.4,0.6,0.9,1.3,1.5,1.9c1.1,1.3,1.6,3,1.6,5.3c0,2.2-0.4,4.1-1.3,5.6c-1.2,2.1-1.3,4.1-0.5,6.1
				c1,2.3,1.4,3.8,1.2,4.4c-0.2,0.8-0.7,1.8-1.5,3.1c-0.9,1.3-1.4,2.4-1.6,3.1c-0.3,1.1-0.4,2.1-0.2,3c0.1,0.6,0.5,1.5,1.1,2.9
				c0.6,1.3,0.9,2.4,1,3.1c0.2,1.1,0.1,2.2-0.3,3.3c-0.1,0.2-0.7,1.2-1.7,2.9c-0.7,1-0.9,2-0.8,3.2c0,0.1,0,0.2,0,0.3
				c1.2,0.8,2.1,1.6,2.8,2.3c0.2,0.2,0.3,0.5,0.5,0.8c1.5,2.5,2.8,6.7,3.8,12.8c1-0.8,2-1.6,2.9-2.5c1-0.9,2-1.9,3-2.9
				c12.8-12.8,19.2-28.2,19.2-46.3s-6.4-33.5-19.2-46.3C106,35.4,90.6,29,72.5,29C54.4,29,39,35.4,26.2,48.2C13.4,61,7,76.4,7,94.5
				s6.4,33.5,19.2,46.3c2.5,2.5,5.1,4.7,7.8,6.7l0,0c0,0,0.1,0.1,0.1,0.1c0-0.5,0.1-0.9,0.2-1.4c0.2-1.3,0.4-2.5,0.6-3.6
				c0.5-2.1,1.1-4,1.8-5.8c0.5-1.1,1-2.1,1.5-3.1c-0.9-0.6-1.4-1.5-1.6-2.6c-0.1-0.9-0.1-2.1,0.2-3.3c0.4-1.5,0.7-2.6,0.8-3.3
				c0.2-1.1,0-2.2-0.6-3.3c-0.9-1.7-1.4-2.7-1.5-2.9c-0.6-1.8-0.2-3.9,1.1-6.4c0.6-1.2,1-2.2,1.2-3.1c0.2-1.1,0.1-2.2-0.3-3.3
				c-0.1-0.4-0.5-1.4-1.3-2.8c-0.6-1.2-0.9-2.2-1-2.9c-0.1-0.6,0.4-2.1,1.5-4.3c1-2,0.9-4-0.1-6.2c-0.8-1.6-1.1-3.6-0.9-5.8
				c0.2-2.3,1-4,2.2-5.2c0.5-0.5,1-1,1.3-1.5c1.2-1.8,2.2-3.5,2.9-5.1c0.7-1.8,1.3-3.3,1.8-4.4c1.7-3.9,3.8-6.8,6.3-8.6
				c1.5-1.1,3-1.7,4.5-1.8l0.3,0.3c1.1-2.1,3-3.9,5.8-5.4c4-2.2,8.8-3,14.5-2.3C80.7,50.2,84.9,51.1,87.7,52.2z"/>
		</g>
	</g>
	<g>
		<path id="Layer0_0_1_STROKES" class="st3" d="M54.8,57.3c1.1-2.1,3-3.9,5.8-5.4c4-2.2,8.8-3,14.5-2.3c5.6,0.6,9.8,1.5,12.6,2.7
			c3.4,1.4,5.9,3.7,7.5,6.8c0.3,0.6,1,1.3,2.1,1.9c1.8,1.1,2.8,1.8,3,1.9c2.8,2.1,4.6,5.3,5.6,9.8c0.1,0.5,0.2,2,0.2,4.4
			c0,1.7,0.4,3.4,1.3,5.1c0.4,0.6,0.9,1.3,1.5,1.9c1.1,1.3,1.6,3,1.6,5.3c0,2.2-0.4,4.1-1.3,5.6c-1.2,2.1-1.3,4.1-0.5,6.1
			c1,2.3,1.4,3.8,1.2,4.4c-0.2,0.8-0.7,1.8-1.5,3.1c-0.9,1.3-1.4,2.4-1.6,3.1c-0.3,1.1-0.4,2.1-0.2,3c0.1,0.6,0.5,1.5,1.1,2.9
			c0.6,1.3,0.9,2.4,1,3.1c0.2,1.1,0.1,2.2-0.3,3.3c-0.1,0.2-0.7,1.2-1.7,2.9c-0.7,1-0.9,2-0.8,3.2c0,0.1,0,0.2,0,0.3 M38.2,133.9
			c-0.9-0.7-1.4-1.6-1.6-2.7c-0.1-0.9-0.1-2.1,0.2-3.3c0.4-1.5,0.7-2.6,0.8-3.3c0.2-1.1,0-2.2-0.6-3.3c-0.9-1.7-1.4-2.7-1.5-2.9
			c-0.6-1.8-0.2-3.9,1.1-6.4c0.6-1.2,1-2.2,1.2-3.1c0.2-1.1,0.1-2.2-0.3-3.3c-0.1-0.4-0.5-1.4-1.3-2.8c-0.6-1.2-0.9-2.2-1-2.9
			c-0.1-0.6,0.4-2.1,1.5-4.3c1-2,0.9-4-0.1-6.2c-0.8-1.6-1.1-3.6-0.9-5.8c0.2-2.3,1-4,2.2-5.2c0.5-0.5,1-1,1.3-1.5
			c1.2-1.8,2.2-3.5,2.9-5.1c0.7-1.8,1.3-3.3,1.8-4.4c1.7-3.9,3.8-6.8,6.3-8.6c1.5-1.1,3-1.7,4.5-1.8 M54.8,57.3
			c-0.1,0.2-0.2,0.4-0.3,0.7c2.6-1.9,5.5-2.6,8.7-2.2c3,0.4,5.9,1.8,8.7,4.1c6.2,5.1,9.5,11.8,9.8,20c0,0.8,0.1,1.6,0.1,2.4
			c0.3,4.8,0.8,9,1.4,12.7c0.1,1.2-0.1,2.7-0.6,4.5c-0.4,1.5-0.9,3.1-1.4,4.6c-0.4,1.1-0.8,2.2-1.3,3.4c-0.4,0.9-0.7,1.8-1,2.8
			c0,0,0,0,0,0.1c-0.2,0.9-0.6,1.9-1,2.8c-0.3,0.8-1.2,2.3-2.4,4.6c-0.9,2.3-0.9,4.6,0.2,6.7c0.6,1.2,0.8,2.4,0.8,3.7
			c-0.1,0.8-0.1,1.5-0.2,2.2c-0.1,1.5-0.1,2.7,0,3.6c0.1,2.1,0.6,3.9,1.5,5.4l0,0.1c0.4,0.6,0.8,1.1,1.3,1.4
			c0.5,0.4,1.1,0.6,1.7,0.6l3.8-0.8c0.4-0.1,0.7-0.1,1.1-0.2c0.6-0.1,1.1-0.1,1.7-0.1c0.9,0,1.8,0.2,2.7,0.5c1.5,0.5,3.1,0.5,5,0.1
			c0.5-0.1,0.9-0.3,1.4-0.4c0.1,0,0.1-0.1,0.2-0.1c1.2-0.4,2.3-0.9,3.1-1.6h2.9c2-0.3,3.2-1.1,3.6-2.6c0.3-1,0.4-2.1,0.2-3.3
			c-0.3-1.2-0.5-2.1-0.6-2.8 M54.8,57.3c-1.3,1.1-2.6,3.7-4.1,7.6c-2.1,5.4-2.9,10.7-2.4,15.8l0.3,2.5c0,0.2,0,0.4,0.1,0.6
			 M49.7,89.4l0.2,0.9c0.5,2.7,0.7,5.9,0.7,9.6c0,2.3,1.1,5.1,3.4,8.2c1.1,1.5,2.2,2.9,3.3,4 M58.9,125c-0.6-1.8-1-4-1.3-6.4
			l-0.3-6.5 M59,125.3c0-0.1-0.1-0.2-0.1-0.3 M38.5,134.2c-0.1-0.1-0.2-0.2-0.3-0.3l0,0"/>
	</g>
	<g>
		<path id="Layer0_0_2_STROKES" class="st4" d="M58.4,124.5c-0.3-0.2-0.5-0.4-0.7-0.6 M70.8,132.3c-0.7,0-1.4-0.1-2.1-0.3
			c-1.6-0.4-3.5-1.5-5.5-3.2c-1.6-1.4-2.9-2.6-4-3.6c-0.1-0.1-0.3-0.2-0.4-0.3c-0.2-0.1-0.3-0.3-0.5-0.4 M76.3,130.5
			c-2,1.1-3.8,1.7-5.5,1.8"/>
	</g>
	<g>
		<path id="Layer0_0_3_STROKES" class="st5" d="M105.8,130.4c1.2,0.8,2.1,1.5,2.7,2.3c0.2,0.2,0.3,0.5,0.5,0.8
			c1.5,2.5,2.8,6.7,3.8,12.8 M34,147.7c0-0.5,0.1-0.9,0.2-1.4c0.2-1.3,0.4-2.5,0.6-3.6c0.5-2.1,1.1-4,1.8-5.8c0.5-1.1,1-2.1,1.5-3
			 M77.7,101.7c-1.4,0-2.8-0.1-4.3-0.3c-0.5-0.1-1.2,0-1.9,0.1c-0.8,0.1-1.4,0.2-1.8,0.1c-0.9-0.1-1.7-0.2-2.5-0.2
			c-0.2,0-0.3,0-0.5,0l-1,0.2l-4.4,0.3 M77.7,101.7c0.1,0,0.2,0,0.3,0 M50.7,125.2c0.8-0.2,1.5-0.3,2.3-0.3c1.6-0.2,3.4-0.3,5.4-0.3
			 M46.9,126.3c-1.9,0.7-3.5,1.7-5,3c-0.1,0.1-0.1,0.1-0.2,0.2c-1.4,1.2-2.6,2.7-3.6,4.4"/>
	</g>
	<g>
		<path id="Layer0_0_4_STROKES" class="st6" d="M71,134.6l-0.1-0.5l-0.1-1.8"/>
	</g>
	<g>
		<path id="Layer0_0_5_STROKES" class="st7" d="M70.9,134.1l0.2-0.2c0.3-0.1,0.6-0.1,0.9,0.1c0.3,0.1,0.5,0.4,0.5,0.7
			c0.1,0.4,0,0.6-0.3,0.9l-1.4,1.4c0,0-0.1,0-0.2,0l-1.4-1.4c-0.2-0.3-0.3-0.6-0.3-0.9c0.1-0.3,0.3-0.6,0.7-0.7c0.4-0.1,0.7,0,1,0.3
			l0.1,0.1L70.9,134.1z"/>
	</g>
	<g>
		<path id="Layer0_0_6_STROKES" class="st8" d="M64,82.4c0-0.2-0.9-0.4-2.8-0.6c-1.9-0.3-3.3-0.4-4-0.4c-0.5-0.1-1.3,0.2-2.3,0.9
			c-1,0.6-1.5,1-1.4,1 M81.9,82.4c-1-1-2.6-1.3-5-1c-2.3,0.3-3.3,0.7-3.2,1.2"/>
	</g>
	<g>
		<path id="Layer0_0_7_STROKES" class="st9" d="M48.7,83.8c0,0.2,0.1,0.4,0.1,0.6l0.9,4.9c0,0,0,0.1,0,0.1 M48.7,83.8
			c0-0.1-0.1-0.2-0.1-0.3c-0.2-0.5-0.6-0.8-1.3-0.8c-0.8,0-1.4,0.6-1.8,1.7c-0.5,1.3-0.4,3.2,0.3,5.6c0.4,1.4,1.2,4,2.3,7.8
			c0.2,0.8,0.6,1.2,1.3,1.2c0.7,0,1-0.3,1-0.7c0-1.9-0.2-4.6-0.5-8.2c0-0.2,0-0.4-0.1-0.6"/>
	</g>
	<g>
		<path id="Layer0_0_8_STROKES" class="st10" d="M57.3,112c3.7,3.7,7.4,5.5,11.3,5.5c4.3,0,7.8-2.3,10.5-7.1 M65.7,94.5l1.4-0.2
			l0.7,0.5c0.6,0.3,1,0.5,1.3,0.5c0.3,0.1,1-0.3,2-1l1.6,0.2 M61.2,101.9c0.4,0.3,1.2,1.3,2.5,2.9c0.1,0.1,0.1,0.2,0.3,0.3
			c1.6,1.7,3.3,2.6,5,2.7c2.2,0.1,4.1-0.8,5.8-2.7c0.9-0.9,1.8-2.1,3-3.3"/>
	</g>
</g>
</svg>
