<?xml version="1.0" encoding="utf-8"?>
<!-- Generator: Adobe Illustrator 23.0.3, SVG Export Plug-In . SVG Version: 6.00 Build 0)  -->
<svg version="1.1" id="Layer_1" xmlns="http://www.w3.org/2000/svg" xmlns:xlink="http://www.w3.org/1999/xlink" x="0px" y="0px"
	 viewBox="0 0 145 160" style="enable-background:new 0 0 145 160;" xml:space="preserve">
<style type="text/css">
	.st0{fill:#FFFFFF;}
	.st1{fill:#FBB348;}
	.st2{fill:#EEEEEE;}
	.st3{fill:none;stroke:#000000;stroke-width:1.35;stroke-linecap:round;stroke-linejoin:round;}
	.st4{fill:none;stroke:#000000;stroke-width:1.35;stroke-linecap:round;}
	.st5{fill:none;stroke:#000000;stroke-width:1.35;}
</style>
<g transform="matrix( 1, 0, 0, 1, 0,0) ">
	<g>
		<g id="Layer1_0_FILL">
			<path class="st0" d="M138,94.2c0-18.1-6.4-33.5-19.2-46.3C106,35.1,90.6,28.7,72.5,28.7S39,35.1,26.2,47.9
				C13.4,60.7,7,76.1,7,94.2s6.4,33.6,19.2,46.4c12.8,12.8,28.2,19.1,46.3,19.1s33.5-6.4,46.3-19.1C131.6,127.8,138,112.3,138,94.2z
				"/>
		</g>
	</g>
</g>
<g transform="matrix( 1, 0, 0, 1, 0,0) ">
	<g>
		<g id="Layer0_0_FILL">
			<path class="st1" d="M72.2,135.4c0,0.1,0,0.2,0,0.3c1.4-0.9,2.9-1.8,4.4-2.8c1.2-0.7,2.5-1.5,3.8-2.3c0.7-0.4,1.5-0.9,2.2-1.3
				l0.7-0.4c0.9-0.5,1.8-1,2.8-1.5l0.7-0.4c1.6-0.8,3.1-1.5,4.4-2c0.6-0.2,1.1-0.4,1.5-0.6c0.4-0.1,0.8-0.2,1.1-0.3
				c0.1,0,0.1,0,0.1-0.1c0.2,0,0.4-0.1,0.5-0.1c0.8-0.2,2.5-0.1,5.3,0.2c-0.2-3.2-2.4-5.1-6.5-5.7c-1.4-0.2-2.9-0.2-4.4,0
				c-0.9,0.1-1.5,0.2-1.9,0.3c-0.2,0.1-0.3,0.1-0.3,0.2c-0.1,0.2-0.3,0.3-0.5,0.5c-0.1,0.1-0.1,0.2-0.2,0.3
				c-0.1,0.1-0.8,0.9-2.3,2.5c-1.1,1.3-1.9,2.2-2.4,2.8c0,0.1-0.1,0.2-0.2,0.2l-8,9.2L72.2,135.4 M56,119.2
				c-0.2-0.2-0.9-0.4-2.1-0.5c-1.4-0.2-2.8-0.2-4.1,0c-3.7,0.5-5.8,2.3-6.2,5.3c0,0.1,0,0.3,0,0.4l2.2-0.2c1.5-0.1,2.5-0.1,3,0
				c0.8,0.2,1.8,0.5,3,0.9c2.8,1.1,6.4,3,11,5.6c1.3,0.8,2.5,1.5,3.8,2.3c1.5,0.9,2.8,1.8,4.1,2.7c0-0.1,0-0.1,0.1-0.2
				c-0.6-0.6-1.4-1.5-2.5-2.6C65.6,129.9,61.5,125.4,56,119.2z"/>
			<path d="M71.8,135.1c0.1,0.1,0.2,0.2,0.3,0.3l0.8-0.9C72.4,134.8,72.1,135,71.8,135.1 M93.7,124.3c-0.3,0.1-0.7,0.2-1.1,0.3
				c-0.5,0.2-1,0.4-1.5,0.6l9.9,0.3c8.3,0.6,13.8,1.7,16.5,3.4c0,0-0.1-0.1-0.1-0.1c-1.6-1.3-6.3-2.5-14-3.5L93.7,124.3
				 M121.8,137.5c0.2-0.2,0.3-0.4,0.5-0.6c-0.9-2.2-1.8-4-2.7-5.4C120.3,132.9,121,134.9,121.8,137.5 M22.1,136.2
				c0.1,0.1,0.1,0.1,0.1,0.2c0.2-0.9,0.5-1.6,0.7-2.4C22.7,134.7,22.4,135.4,22.1,136.2 M71.4,135c0,0,0.1,0,0.2,0
				c-0.2-0.4-1.3-1.1-3.3-2.3c1.1,1.1,1.9,2,2.5,2.6C70.9,135.2,71.1,135,71.4,135 M51.8,125c-3.1,0-6.4,0.2-9.7,0.4
				c-8.1,0.6-13.5,1.7-16,3.3c-1.1,1.2-2.1,2.9-3,5.3c-0.2,0.7-0.5,1.5-0.7,2.4c1.2,1.5,2.5,2.9,3.9,4.3
				c12.8,12.8,28.2,19.1,46.3,19.1s33.5-6.4,46.3-19.1c1-1,2-2,2.9-3.1c-0.8-2.6-1.5-4.6-2.2-6c-0.7-1.1-1.4-2-2.1-2.6
				c-2.7-1.7-8.2-2.9-16.5-3.4l-9.9-0.3c-1.3,0.5-2.7,1.1-4.4,2l-0.7,0.4c-1,0.5-1.9,1-2.8,1.5l-0.7,0.4c-0.7,0.4-1.4,0.8-2.2,1.3
				c-1.3,0.8-2.5,1.5-3.8,2.3c-0.2,4.6,0.4,7.4,1.8,8.4c0.7,0.5,1.4,0.6,2.2,0.2c-0.7,0.4-1.5,0.3-2.2-0.2c-1.4-1-2-3.8-1.8-8.4
				c-1.5,1-3,1.9-4.4,2.8v3h-1.5v-2.9c0-0.1,0-0.1,0-0.2c-1.3-0.9-2.7-1.7-4.1-2.7c0.2,4.6-0.3,7.4-1.8,8.4
				c-0.7,0.5-1.4,0.6-2.2,0.2c0.8,0.4,1.5,0.3,2.2-0.2c1.4-1,2-3.8,1.8-8.4c-1.2-0.7-2.5-1.5-3.8-2.3C58.2,128,54.6,126.1,51.8,125
				 M42.1,125.4c3.3-0.2,6.6-0.4,9.7-0.4c-1.2-0.4-2.2-0.7-3-0.9c-0.5-0.1-1.5-0.1-3,0l-2.2,0.2c0-0.1,0-0.3,0-0.4
				c-1.5,0.3-3.2,0.6-5.1,1c-7,1.5-11,2.6-11.9,3.3c-0.2,0.2-0.4,0.3-0.6,0.5C28.6,127.1,34,126,42.1,125.4 M46.2,82.5
				c0.1,0.6,0.2,0.9,0.3,1.1l0.5,0.3c0.2,0,0.3,0,0.4-0.2c-0.1-0.3-0.2-0.6-0.3-0.8C46.8,82.8,46.5,82.6,46.2,82.5 M81.2,52.3
				c4.5,2.1,7.9,5.6,10.1,10.4c1,2.3,1.6,5.3,1.7,9.2c0.1,3.5-0.2,7-0.8,10.6c-0.1,0.7,0.1,1.1,0.5,1.2c0.1,0,0.1,0,0.2,0.1
				c0.2-0.4,0.4-0.9,0.6-1.3c-0.2,0.4-0.4,0.8-0.6,1.3c0.3,0.1,0.6-0.1,0.8-0.4c0.4-0.2,0.5-0.3,0.5-0.4c0,0-0.1-0.1-0.3-0.1
				c-0.1,0-0.1,0-0.2,0c0.7-3.7,1-7.4,0.8-11.1c-0.1-4-0.8-7.2-1.8-9.6c-2.3-5.1-5.9-8.8-10.8-11.2c-4.5-2.2-9.5-3-15-2.3
				c-6.2,0.8-11.2,3.7-15.1,8.9c-3.5,4.6-5.3,10-5.4,16.1c0,0.8,0,2.3-0.2,4.4c-0.1,2-0.1,3.4-0.1,4.4c0,0,0,0.1,0,0.1
				c0.3,0.1,0.6,0.3,0.9,0.4c0.1,0.2,0.2,0.4,0.3,0.8c0.3-0.5,0.4-1.8,0.3-3.9c0-0.8,0-1.9,0.1-3.3c0.1-1.8,0.2-2.8,0.2-2.9
				c0.2-5.6,1.9-10.5,5.3-14.9c2.8-3.7,6.1-6.2,10.1-7.5c1.3-0.4,2.6-0.7,4-0.9c4-0.5,7.7-0.2,11,0.9C79.3,51.5,80.3,51.9,81.2,52.3
				 M79,85.5c0.3,0.3,0.6,0.4,0.9,0.4c0.4,0,0.7-0.1,1-0.4c0.3-0.3,0.4-0.6,0.4-0.9c0-0.4-0.1-0.7-0.4-1c-0.2-0.2-0.6-0.4-1-0.4
				c-0.4,0-0.7,0.1-0.9,0.4c-0.3,0.3-0.4,0.6-0.4,1C78.6,84.9,78.7,85.2,79,85.5 M59.8,83.2c-0.4,0-0.7,0.1-1,0.4
				c-0.3,0.3-0.4,0.6-0.4,1c0,0.4,0.1,0.7,0.4,0.9c0.3,0.3,0.6,0.4,1,0.4c0.4,0,0.7-0.1,1-0.4c0.3-0.3,0.4-0.6,0.4-0.9
				c0-0.4-0.1-0.7-0.4-1C60.5,83.3,60.2,83.2,59.8,83.2z"/>
			<path class="st0" d="M72.2,135.4c-0.1-0.1-0.2-0.3-0.3-0.3c-0.1,0-0.1,0-0.3-0.1c-0.1,0-0.1,0-0.2,0c-0.4,0-0.6,0.1-0.7,0.3
				c0,0.1,0,0.1-0.1,0.2c0,0.1,0,0.1,0,0.2v2.9h1.5v-3C72.2,135.7,72.2,135.6,72.2,135.4z"/>
			<path class="st2" d="M90.1,93.7l0.5-4.4c-0.4-0.2-1.1,2.1-2.2,7.1c-1.1,5.1-2.2,7.5-3.3,7.4c-0.6-0.1-2-0.8-4.2-2.3
				c-2-1.3-3.9-1.9-5.8-1.9c-0.6,0-1.7-0.1-3.3-0.2c-1.7-0.1-3-0.2-4.2-0.2c-0.5,0-2.5,0.6-6.2,1.8c-2.7,0.9-5,0.8-6.8-0.3
				c-1.1-0.7-2.3-2.9-3.6-6.8c-1.2-3.4-1.8-4.9-1.9-4.7c0-0.1,0.5,1.7,1.4,5.3c0.8,3.4,1.4,5.8,1.6,7.2c-0.1-0.4,0.2,0.2,0.7,1.8
				c0.9,2.2,2,4.3,3.2,6.1c4.2,6.4,9.7,9.4,16.3,8.9c6.9-0.5,12-5.5,15.4-15C88.7,100.5,89.5,97.2,90.1,93.7 M78.4,102.2
				c1.4,0.8,1.8,1.6,1.2,2.5c-0.5,0.7-1.1,1.6-1.9,2.7c-0.9,0.9-2.6,1.5-5.1,1.8c-3.2,0.4-5.9-0.2-8.1-1.7c-1.9-1.3-2.8-2.6-2.8-4
				c0-1,1-1.7,2.8-2.1c1.4-0.3,3.9-0.4,7.3-0.4C74.8,101.1,76.9,101.5,78.4,102.2z"/>
		</g>
	</g>
	<g>
		<path id="Layer0_0_1_STROKES" class="st3" d="M78.3,51.2c-1.5-0.2-2.8,0-3.8,0.6c-1.6,1.4-3.7,1.8-6.1,1.3c-2.5-0.9-4-1.5-4.8-1.8
			c-0.1,0-0.3-0.1-0.5-0.1 M47.3,83.7c0.4,1.9,1.2,5.9,2.5,12c0.1,0.4,0.2,0.9,0.3,1.4c0.1,0.4,0.2,0.8,0.3,1.3
			c0.2,3.3,1.4,6.5,3.5,9.7c0.9,1.4,2.1,2.9,3.4,4.3c4.8,5.3,9.8,7.7,15.1,7.2c3.4-0.3,6.3-1.6,8.6-3.8c1.7-1.7,3.9-4.8,6.4-9.2
			 M87.5,106.1c0.1-0.2,0.2-0.4,0.3-0.6c0.7-1.3,1.2-2.4,1.5-3.3c0.2-0.5,0.5-1.7,0.9-3.3c0.1-0.4,0.4-3.1,1-8.1
			c0.3-2.7,0.8-5,1.5-6.9c0.2-0.4,0.3-0.9,0.5-1.3 M93.8,82.8l1.7-0.4c1.2-0.1,1.7,0.5,1.5,1.6c0,0,0,0.1,0,0.2
			c-0.9,4.8-1.7,8.2-2.4,10.3c-0.7,2.3-1.4,3.6-2.1,3.8c-0.9,0.4-1.6,0.5-2,0.3l-0.3-0.2c0,0.1,0,0.2-0.1,0.3 M54.6,80.9l3.5-0.5
			c2.6-0.2,4.8,0,6.5,0.6 M49.8,95.7l-0.1,1.7c-0.3,1.2-0.9,1.6-1.9,1.2c-0.8-0.4-1.5-1.6-2.3-3.6c-0.8-2.3-1.6-6-2.4-11
			c-0.2-1.5,0.3-2.1,1.8-1.8c0.4,0.1,0.8,0.2,1.3,0.4c0.3,0.1,0.6,0.3,0.9,0.4c0.1,0.2,0.2,0.4,0.3,0.8 M64.4,103.8
			c1.1-0.1,2.1-0.3,2.9-0.8c0.7-0.4,1.1-0.6,1.3-0.6c0.6,0,1.1,0.2,1.7,0.4l0.7-0.2c0.5-0.2,1-0.3,1.5-0.3c0.1,0,0.7,0.3,1.9,0.8
			c1.3,0.5,2.2,0.7,2.7,0.5 M74.4,105.7c-2.1,1.3-4.6,1.2-7.3-0.2 M84.8,81c-5.5-0.8-8.8-0.8-9.9,0.1"/>
	</g>
	<g>
		<path id="Layer0_0_2_STROKES" class="st4" d="M65.8,94.9l1.6-0.3l0.8,0.8c0.7,0.6,1.3,0.8,2,0.7c1.1-0.1,1.9-0.7,2.5-1.6l1.6,0.3"
			/>
	</g>
	<g>
		<path id="Layer0_0_3_STROKES" class="st5" d="M87.5,106.1c-0.1,0.1-0.1,0.2-0.2,0.3 M53.8,118.7c1.2,0.1,1.9,0.3,2.1,0.5
			c5.5,6.2,9.6,10.7,12.3,13.6 M72.9,134.6l8-9.1c0.1-0.1,0.1-0.1,0.2-0.2c0.5-0.5,1.3-1.5,2.5-2.8c1.4-1.6,2.2-2.5,2.3-2.5
			c0.1-0.1,0.1-0.2,0.2-0.3c0.1-0.2,0.3-0.3,0.4-0.5c0.1-0.1,0.2-0.1,0.3-0.2l0.5-12.6 M43.6,124c0.3-3,2.4-4.8,6.1-5.3
			c1.3-0.2,2.7-0.2,4.1,0l0-10.7 M26.1,128.8c2.6-1.7,7.9-2.8,16-3.3c3.3-0.2,6.6-0.4,9.7-0.4c-1.2-0.4-2.2-0.8-3-0.9
			c-0.5-0.1-1.5-0.1-3,0l-2.2,0.2c0-0.1,0-0.3,0-0.4 M22.3,136.4c0.2-0.9,0.5-1.7,0.7-2.4 M121.8,137.5c-0.8-2.6-1.5-4.6-2.2-6
			 M117.4,128.9c-2.7-1.7-8.2-2.9-16.5-3.5l-9.9-0.3c-1.3,0.5-2.7,1.2-4.3,2l-0.7,0.4c-1,0.5-1.9,1-2.8,1.5l-0.7,0.4
			c-0.7,0.4-1.4,0.8-2.2,1.3c-1.3,0.8-2.5,1.5-3.7,2.3c-0.2,4.6,0.4,7.4,1.8,8.4c0.7,0.5,1.4,0.6,2.2,0.2 M72.2,135.8
			c1.4-0.9,2.9-1.9,4.4-2.8 M72.9,134.6l-0.8,0.9 M68.3,132.8c1,1.1,1.9,2,2.5,2.6 M70.7,135.6c-1.3-0.9-2.7-1.8-4.2-2.6
			c0.2,4.6-0.4,7.4-1.8,8.4c-0.7,0.5-1.4,0.6-2.2,0.2 M66.6,133c-1.2-0.8-2.5-1.5-3.8-2.3c-4.6-2.7-8.2-4.6-11-5.6 M23,134
			c0.7-2.3,1.4-3.7,2.1-4.4c0.3-0.3,0.6-0.5,1-0.8 M86.8,119c0.4-0.1,1-0.2,1.9-0.3c1.5-0.2,3-0.2,4.4,0c4.2,0.5,6.3,2.4,6.5,5.7
			c-2.7-0.3-4.5-0.4-5.3-0.2c-0.2,0-0.3,0.1-0.5,0.1c0,0-0.1,0-0.1,0 M117.4,128.9c0.3,0.2,0.6,0.4,0.8,0.6c0.4,0.4,0.9,1.1,1.3,2
			 M91.1,125.2c0.6-0.2,1.1-0.4,1.6-0.6c0.4-0.1,0.8-0.2,1.1-0.3"/>
	</g>
</g>
</svg>
