<?xml version="1.0" encoding="utf-8"?>
<!-- Generator: Adobe Illustrator 23.0.3, SVG Export Plug-In . SVG Version: 6.00 Build 0)  -->
<svg version="1.1" id="Layer_1" xmlns="http://www.w3.org/2000/svg" xmlns:xlink="http://www.w3.org/1999/xlink" x="0px" y="0px"
	 viewBox="0 0 145 160" style="enable-background:new 0 0 145 160;" xml:space="preserve">
<style type="text/css">
	.st0{fill:#FFFFFF;}
	.st1{fill:#FBB348;}
	.st2{fill:#E29F4D;}
	.st3{fill:#221F1F;}
	.st4{fill:#FEFEFE;}
	.st5{filter:url(#Adobe_OpacityMaskFilter);}
	.st6{mask:url(#Mask_Mask_1_1_);}
</style>
<g transform="matrix( 1, 0, 0, 1, 7,27.7) ">
	<g>
		<g id="Layer0_0_MEMBER_0_MEMBER_0_FILL">
			<path class="st0" d="M131,66.5c0-18.1-6.4-33.5-19.2-46.3C99,7.4,83.6,1,65.5,1S32,7.4,19.2,20.2C6.4,33,0,48.4,0,66.5
				s6.4,33.5,19.2,46.3C32,125.7,47.4,132,65.5,132s33.5-6.4,46.3-19.2C124.6,100.1,131,84.6,131,66.5z"/>
		</g>
	</g>
</g>
<g transform="matrix( 1, 0, 0, 1, 7,27.7) ">
	<g>
		<g id="Layer0_0_MEMBER_1_MEMBER_0_MEMBER_0_MEMBER_0_FILL">
			<path d="M96.5,74.3c-2.5-6-4.2-10.5-5.1-13.5c-1.3-4.1-2.2-8.5-2.7-13.1c-0.9-7.9-4.1-14.1-9.7-18.6c-5.5-4.5-12.1-6.4-19.8-5.8
				c-10,0.8-17.4,5.2-22.2,13.2c-4.4,7.2-6.4,16.8-6.1,28.9c0.1,3.5,0.5,8.5,1.3,15c0.7,6.3,1.1,11.3,1.1,14.9c0,1.3-0.3,5-0.8,11.3
				c-0.4,6-0.2,9.7,0.4,11.2c1,2.4,2.7,4.4,4.9,6.2c2.5,2,4.5,2.5,6.2,1.7c2.7-1.4,4.7-8.1,6.1-20.1c1.3-11.9,1-20.1-1-24.6
				c-1.8-4.1-3-7.9-3.7-11.4c-0.7-3.6-1.2-8.8-1.5-15.6c-0.2-5.7,3.3-10,10.8-12.8c3.6-1.4,5.6-2.3,6.1-2.7c1.3-1,1.2-2.3-0.4-3.9
				l6.9,4.8c4.5,1,7.6,2.2,9.2,3.5c2.8,2.2,4.5,6.1,5.3,11.8c0.4,3,0.6,6.3,0.5,9.8c-0.2,3.8-0.6,7.1-1.4,9.8
				c-0.7,2.3-1.7,4.5-3.1,6.8c-1,1.6-1.4,2.8-1.3,3.5c0.4,2.8,0.5,10.8,0.2,24c-0.2,11.2,0.4,18.3,1.8,21c0.6,1.2,6.1-2.6,16.6-11.2
				c2-2,2.6-4.7,1.6-8.1c-0.6-1.9-1.1-3.3-1.4-4.2c-0.5-1.6-0.7-2.9-0.7-4c0-0.8,0.4-2.3,1.3-4.4c1-2.7,1.6-4.7,2-6.1
				C99.3,85.8,98.9,80,96.5,74.3z"/>
		</g>
	</g>
</g>
<g transform="matrix( 1, 0, 0, 1, 7,27.7) ">
	<g>
		<g id="Layer0_0_MEMBER_1_MEMBER_0_MEMBER_1_MEMBER_0_FILL">
			<path class="st0" d="M92.7,92.4c-4.6-1-8-1-10.3-0.1l-15.2,19.6c-2.4-3.2-6.8-7.6-13.4-13.1c-6.1-4.8-9.2-7.3-9.2-7.3
				c-0.3-0.9-1.8-1.1-4.4-0.6c-2.9,0.8-4.6,1.3-5.1,1.4c-4.2,1-7.6,2.2-10.1,3.3c-3.7,1.8-6.1,3.8-7.1,6.3
				c-0.3,0.6-0.9,5.4-1.9,14.3c-1,8.9-1.3,13.4-1.1,13.4h52.9l0.1-13.4l0.3,13.4h43.1v-15.9c-0.2-2.7-0.8-5.5-1.6-8.4
				c-1.6-5.8-3.8-9.1-6.6-10C97.8,93.7,94.3,92.8,92.7,92.4z"/>
		</g>
	</g>
</g>
<g transform="matrix( 1, 0, 0, 1, 0,0) ">
	<g>
		<g id="Layer0_0_MEMBER_2_FILL">
			<path d="M89.2,156.7l-0.4-0.8l-0.4,0.8l-0.9,0.1l0.5,0.5h1.5l0.5-0.5L89.2,156.7 M83.8,157.3l0.4-0.5l-0.8-0.1l-0.4-0.8l-0.4,0.8
				l-0.8,0.1l0.5,0.5H83.8 M83,150.1l-0.4,0.8l-0.8,0.2l0.7,0.6l-0.2,0.9l0.8-0.4l0.8,0.4l-0.2-0.9l0.6-0.6l-0.8-0.2L83,150.1
				 M89.2,150.9l-0.4-0.8l-0.4,0.8l-0.9,0.2l0.6,0.6l-0.1,0.9l0.8-0.4l0.8,0.4l-0.2-0.9l0.7-0.6L89.2,150.9 M94.6,156.1
				c0.1,0,0.1,0,0.1,0l0-0.2L94.6,156.1 M94.7,150.1l-0.4,0.8l-0.9,0.2l0.7,0.6l-0.2,0.9l0.8-0.4l0.8,0.4l-0.2-0.9l0.7-0.6l-0.8-0.2
				L94.7,150.1 M106.3,150.1l-0.3,0.7c0.2-0.1,0.3-0.2,0.5-0.4L106.3,150.1 M105.2,151.2c0.2-0.1,0.3-0.2,0.5-0.3L105,151
				L105.2,151.2 M113.3,145.2l-0.9-0.1l-0.4-0.8l-0.4,0.8l-0.9,0.1l0.6,0.6l-0.1,0.9l0.8-0.4l0.2,0.1c0.2-0.1,0.3-0.2,0.5-0.3
				l-0.1-0.3L113.3,145.2 M112.7,140l0.7-0.6l-0.9-0.1l-0.4-0.8l-0.4,0.8l-0.9,0.1l0.6,0.6l-0.1,0.9l0.8-0.4l0.8,0.4L112.7,140
				 M105.8,145.1l-0.8,0.1l0.7,0.6l-0.2,0.9l0.8-0.4l0.8,0.4l-0.2-0.9l0.6-0.6l-0.8-0.1l-0.4-0.8L105.8,145.1 M102.9,146.2l-1.7,0.1
				l0.1,4.6l-0.5-0.1l-0.4-0.8l-0.4,0.8l-0.9,0.2l0.6,0.6l-0.2,0.9l0.8-0.4l0.8,0.4l-0.2-0.9l0.3-0.3v1.9c0.6-0.3,1.2-0.5,1.7-0.9
				L102.9,146.2 M107.5,139.3l-0.8-0.1l-0.4-0.8l-0.4,0.8l-0.8,0.1l0.7,0.6l-0.2,0.9l0.8-0.4l0.8,0.4l-0.2-0.9L107.5,139.3
				 M105.5,135l0.8-0.4l0.8,0.4l-0.2-0.9l0.6-0.6l-0.8-0.2l-0.4-0.8l-0.4,0.8l-0.8,0.2l0.7,0.6L105.5,135 M107.5,127.7l-0.8-0.1
				l-0.4-0.8l-0.4,0.8l-0.8,0.1l0.7,0.6l-0.2,0.9l0.8-0.4l0.8,0.4l-0.2-0.9L107.5,127.7 M112.8,135l-0.2-0.9l0.7-0.6l-0.9-0.2
				l-0.4-0.8l-0.4,0.8l-0.9,0.2l0.6,0.6l-0.1,0.9l0.8-0.4L112.8,135 M112.7,128.3l0.7-0.6l-0.9-0.1l-0.4-0.8l-0.4,0.8l-0.9,0.1
				l0.6,0.6l-0.1,0.9l0.8-0.4l0.8,0.4L112.7,128.3 M100.1,145.1l-0.9,0.1l0.6,0.6l-0.2,0.9l0.8-0.4l0.8,0.4l-0.2-0.9l0.6-0.6
				l-0.8-0.1l-0.4-0.8L100.1,145.1 M95.9,145.2l-0.8-0.1l-0.4-0.8l-0.4,0.8l-0.9,0.1l0.7,0.6l-0.2,0.9l0.8-0.4l0.8,0.4l-0.2-0.9
				L95.9,145.2 M93.8,140.8l0.8-0.4l0.8,0.4l-0.2-0.9l0.7-0.6l-0.8-0.1l-0.4-0.8l-0.4,0.8l-0.9,0.1L94,140L93.8,140.8 M100.1,139.2
				l-0.9,0.1l0.6,0.6l-0.2,0.9l0.8-0.4l0.8,0.4l-0.2-0.9l0.6-0.6l-0.8-0.1l-0.4-0.8L100.1,139.2 M89.2,145.1l-0.4-0.8l-0.4,0.8
				l-0.9,0.1l0.6,0.6l-0.1,0.9l0.8-0.4l0.8,0.4l-0.2-0.9l0.7-0.6L89.2,145.1 M82.6,145.1l-0.8,0.1l0.7,0.6l-0.2,0.9l0.8-0.4l0.8,0.4
				l-0.2-0.9l0.6-0.6l-0.8-0.1l-0.4-0.8L82.6,145.1 M82.3,140.8l0.8-0.4l0.8,0.4l-0.2-0.9l0.6-0.6l-0.8-0.1l-0.4-0.8l-0.4,0.8
				l-0.8,0.1l0.7,0.6L82.3,140.8 M88.2,140l-0.1,0.9l0.8-0.4l0.8,0.4l-0.2-0.9l0.7-0.6l-0.9-0.1l-0.4-0.8l-0.4,0.8l-0.9,0.1
				L88.2,140 M88.2,134.1l-0.1,0.9l0.8-0.4l0.8,0.4l-0.2-0.9l0.7-0.6l-0.9-0.2l-0.4-0.8l-0.4,0.8l-0.9,0.2L88.2,134.1 M82.3,135
				l0.8-0.4l0.8,0.4l-0.2-0.9l0.6-0.6l-0.8-0.2l-0.4-0.8l-0.4,0.8l-0.8,0.2l0.7,0.6L82.3,135 M88.2,128.3l-0.1,0.9l0.8-0.4l0.8,0.4
				l-0.2-0.9l0.7-0.6l-0.9-0.1l-0.4-0.8l-0.4,0.8l-0.9,0.1L88.2,128.3 M99.7,135l0.8-0.4l0.8,0.4l-0.2-0.9l0.6-0.6l-0.8-0.2
				l-0.4-0.8l-0.4,0.8l-0.9,0.2l0.6,0.6L99.7,135 M95.3,134.1l0.7-0.6l-0.8-0.2l-0.4-0.8l-0.4,0.8l-0.9,0.2l0.7,0.6l-0.2,0.9
				l0.8-0.4l0.8,0.4L95.3,134.1 M95.3,128.3l0.7-0.6l-0.8-0.1l-0.4-0.8l-0.4,0.8l-0.9,0.1l0.7,0.6l-0.2,0.9l0.8-0.4l0.8,0.4
				L95.3,128.3 M99.7,129.2l0.8-0.4l0.8,0.4l-0.2-0.9l0.6-0.6l-0.8-0.1l-0.4-0.8l-0.4,0.8l-0.9,0.1l0.6,0.6L99.7,129.2 M42,150.9
				L41,151l0.7,0.6l-0.1,0.6c0.1,0.1,0.1,0.1,0.2,0.2l0.5-0.3l0.8,0.4l-0.1-0.9l0.6-0.6l-0.9-0.2l-0.4-0.8L42,150.9 M48.5,150.9
				l-0.3-0.8l-0.4,0.8l-0.9,0.2l0.7,0.6l-0.2,0.9l0.8-0.4l0.8,0.4l-0.2-0.9l0.7-0.6L48.5,150.9 M60.2,156.7l-0.4-0.8l-0.4,0.8
				l-0.8,0.1l0.5,0.5h1.5l0.5-0.5L60.2,156.7 M54.8,157.3l0.5-0.5l-0.9-0.1l-0.4-0.8l-0.4,0.8l-0.8,0.1l0,0c0.5,0.2,1,0.3,1.5,0.5
				H54.8 M54,150.1l-0.4,0.8l-0.8,0.2l0.6,0.6l-0.1,0.9l0.8-0.4l0.8,0.4l-0.2-0.9l0.6-0.6l-0.9-0.2L54,150.1 M59.3,150.9l-0.8,0.2
				l0.7,0.6l-0.2,0.9l0.8-0.4l0.8,0.4l-0.1-0.9L61,151l-0.8-0.2l-0.4-0.8L59.3,150.9 M64.3,156.8l0.5,0.5h1.5l0.5-0.5l-0.9-0.1
				l-0.4-0.8l-0.4,0.8L64.3,156.8 M66.8,151l-0.9-0.2l-0.4-0.8l-0.4,0.8l-0.9,0.2l0.6,0.6l-0.1,0.9l0.8-0.4l0.8,0.4l-0.2-0.9
				L66.8,151 M75.9,156.8l0.5,0.5H78l0.4-0.5l-0.8-0.1l-0.4-0.8l-0.4,0.8L75.9,156.8 M76.8,150.9l-0.9,0.2l0.6,0.6l-0.2,0.9l0.8-0.4
				l0.8,0.4l-0.2-0.9l0.6-0.6l-0.8-0.2l-0.4-0.8L76.8,150.9 M37.3,146.7l-0.1-0.9l0.6-0.6l-0.8-0.1l-0.4-0.8l-0.4,0.8l-0.8,0.1
				l0.7,0.6l-0.2,0.9l0.8-0.4L37.3,146.7 M32,145.2l-0.9-0.1c0.2,0.1,0.3,0.3,0.5,0.4L32,145.2 M30.5,144.6c0.2,0.2,0.3,0.3,0.5,0.4
				l-0.3-0.8L30.5,144.6 M37.8,139.3l-0.8-0.1l-0.4-0.8l-0.4,0.8l-0.8,0.1l0.7,0.6l-0.2,0.9l0.8-0.4l0.8,0.4l-0.1-0.9L37.8,139.3
				 M30.3,139.2l-0.8,0.1L30,140l-0.1,0.9l0.8-0.4l0.8,0.4l-0.1-0.9l0.6-0.6l-0.9-0.1l-0.4-0.8L30.3,139.2 M25.5,139.9l0.6-0.6
				l-0.9-0.1l-0.4-0.8l-0.3,0.6C24.9,139.3,25.2,139.6,25.5,139.9 M37.8,133.5l-0.8-0.2l-0.4-0.8l-0.4,0.8l-0.8,0.2l0.7,0.6
				l-0.2,0.9l0.8-0.4l0.8,0.4l-0.1-0.9L37.8,133.5 M32,133.5l-0.9-0.2l-0.4-0.8l-0.4,0.8l-0.8,0.2l0.6,0.6l-0.1,0.9l0.8-0.4l0.8,0.4
				l-0.1-0.9L32,133.5 M32,127.7l-0.9-0.1l-0.4-0.8l-0.4,0.8l-0.8,0.1l0.6,0.6l-0.1,0.9l0.8-0.4l0.8,0.4l-0.1-0.9L32,127.7
				 M37.8,127.7l-0.8-0.1l-0.4-0.8l-0.4,0.8l-0.8,0.1l0.7,0.6l-0.2,0.9l0.8-0.4l0.8,0.4l-0.1-0.9L37.8,127.7 M76.8,145.1l-0.9,0.1
				l0.6,0.6l-0.2,0.9l0.8-0.4l0.8,0.4l-0.2-0.9l0.6-0.6l-0.8-0.1l-0.4-0.8L76.8,145.1 M76.4,140.8l0.8-0.4l0.8,0.4l-0.2-0.9l0.6-0.6
				l-0.8-0.1l-0.4-0.8l-0.4,0.8l-0.9,0.1l0.6,0.6L76.4,140.8 M65.2,145.1l-0.9,0.1l0.6,0.6l-0.1,0.9l0.8-0.4l0.8,0.4l-0.2-0.9
				l0.7-0.6l-0.9-0.1l-0.4-0.8L65.2,145.1 M66.2,140l0.7-0.6l-0.9-0.1l-0.4-0.8l-0.4,0.8l-0.9,0.1l0.6,0.6l-0.1,0.9l0.8-0.4l0.8,0.4
				L66.2,140 M59.3,145.1l-0.8,0.1l0.7,0.6l-0.2,0.9l0.8-0.4l0.8,0.4l-0.1-0.9l0.6-0.6l-0.8-0.1l-0.4-0.8L59.3,145.1 M55.2,145.2
				l-0.9-0.1l-0.4-0.8l-0.4,0.8l-0.8,0.1l0.6,0.6l-0.1,0.9l0.8-0.4l0.8,0.4l-0.2-0.9L55.2,145.2 M54,140.4l0.8,0.4l-0.2-0.9l0.6-0.6
				l-0.9-0.1l-0.4-0.8l-0.4,0.8l-0.8,0.1l0.6,0.6l-0.1,0.9L54,140.4 M60.2,139.2l-0.4-0.8l-0.4,0.8l-0.8,0.1l0.7,0.6l-0.2,0.9
				l0.8-0.4l0.8,0.4l-0.1-0.9l0.6-0.6L60.2,139.2 M49.4,145.2l-0.9-0.1l-0.3-0.8l-0.4,0.8l-0.9,0.1l0.7,0.6l-0.2,0.9l0.8-0.4
				l0.8,0.4l-0.2-0.9L49.4,145.2 M42,145.1l-0.9,0.1l0.7,0.6l-0.2,0.9l0.8-0.4l0.8,0.4l-0.1-0.9l0.6-0.6l-0.9-0.1l-0.4-0.8L42,145.1
				 M41.5,140.8l0.8-0.4l0.8,0.4L43,140l0.6-0.6l-0.9-0.1l-0.4-0.8l-0.3,0.8l-0.9,0.1l0.7,0.6L41.5,140.8 M47.5,140l-0.2,0.9
				l0.8-0.4l0.8,0.4l-0.2-0.9l0.7-0.6l-0.9-0.1l-0.3-0.8l-0.4,0.8l-0.9,0.1L47.5,140 M47.8,133.4l-0.9,0.2l0.7,0.6l-0.2,0.9l0.8-0.4
				l0.8,0.4l-0.2-0.9l0.7-0.6l-0.9-0.2l-0.3-0.8L47.8,133.4 M41.5,135l0.8-0.4l0.8,0.4l-0.1-0.9l0.6-0.6l-0.9-0.2l-0.4-0.8l-0.3,0.8
				l-0.9,0.2l0.7,0.6L41.5,135 M42,127.5l-0.9,0.1l0.7,0.6l-0.2,0.9l0.8-0.4l0.8,0.4l-0.1-0.9l0.6-0.6l-0.9-0.1l-0.4-0.8L42,127.5
				 M47.5,128.3l-0.2,0.9l0.8-0.4l0.8,0.4l-0.2-0.9l0.7-0.6l-0.9-0.1l-0.3-0.8l-0.4,0.8l-0.9,0.1L47.5,128.3 M60.5,135l-0.1-0.9
				l0.6-0.6l-0.8-0.2l-0.4-0.8l-0.4,0.8l-0.8,0.2l0.7,0.6L59,135l0.8-0.4L60.5,135 M54,134.6l0.8,0.4l-0.2-0.9l0.6-0.6l-0.9-0.2
				l-0.4-0.8l-0.4,0.8l-0.8,0.2l0.6,0.6l-0.1,0.9L54,134.6 M54.6,128.3l0.6-0.6l-0.9-0.1l-0.4-0.8l-0.4,0.8l-0.8,0.1l0.6,0.6
				l-0.1,0.9l0.8-0.4l0.8,0.4L54.6,128.3 M47.5,122.5l-0.2,0.8l0.8-0.4l0.8,0.4l-0.2-0.8l0.7-0.7l-0.9-0.1l-0.3-0.8l-0.4,0.8
				l-0.9,0.1L47.5,122.5 M55.8,108.4l-0.7-0.6l-9.8,0.5l-0.6,0.7l0.1,3.2l-4.6,7.7c-3.6,0.9-6.5,2-8.8,3.1c-3.7,1.8-6.1,4-7.1,6.4
				c-0.2,0.5-0.6,3.1-1.2,7.9c0.4,0.5,0.8,0.9,1.3,1.3c0.2-1.5,0.4-2.9,0.5-4l0.1,0l0.8,0.4l-0.1-0.9l0.6-0.6l-0.9-0.2l-0.3-0.5
				c0.2-1.7,0.4-2.6,0.5-3c1-2.2,3.3-4.2,6.9-5.9c1-0.5,2.2-0.9,3.4-1.4l-0.1,0.8l0.8-0.4l0.8,0.4l-0.1-0.8l0.4-0.5
				c0.7-0.2,1.5-0.5,2.4-0.7l0.3,0.5l1.9-0.5l-0.2,0.4l-0.9,0.1l0.7,0.7l-0.2,0.8l0.8-0.4l0.8,0.4l-0.1-0.8l0.6-0.7l-0.9-0.1
				l-0.3-0.5l2.7-0.8l0.8,0.5l0.1-0.1c0.8-0.3,1.7-0.3,3,0l10.1,7.8l0,0.5l0.5-0.3l5.7,4.4v0l-0.9,0.2l0.6,0.6l-0.1,0.9l0.8-0.4
				l0.8,0.4l-0.2-0.9v0l3,2.3l0,0v21v0.3h0.1v0.4h1.3v-0.7h-0.2v-5c0.1,0.2,0.3,0.5,0.4,0.7c0.4,0.5,1,0.7,1.6,0.7
				c0.6,0,1.2-0.2,1.6-0.7v4.3v0.7l1.7-0.1l-0.3-17.1l-0.1-3.6l0.1-0.1l2.3-2.2L78,135l-0.1-0.1l13.5-12.8l3-0.7l-0.2,0.3l-0.9,0.1
				l0.7,0.7l-0.2,0.8l0.8-0.4l0.8,0.4l-0.2-0.8l0.7-0.7l-0.8-0.1l-0.2-0.4l3.6-0.8c0.1,0,0.2,0,0.3,0c0.5,0.1,1.1,0.2,1.8,0.3
				l-0.4,0.8l-0.9,0.1l0.6,0.7l-0.2,0.8l0.8-0.4l0.8,0.4l-0.2-0.8l0.6-0.7l-0.8-0.1l-0.4-0.8c1.4,0.3,3.1,0.8,5,1.4l0.2,0.2
				l-0.2,0.8l0.8-0.4l0.8,0.4l-0.1-0.6c0.5,0.2,0.9,0.3,1.4,0.4l1.6,0.5c2.6,0.8,4.7,4,6.2,9.6c0.5,2,1,4,1.3,6l-0.8,0.1l0.7,0.6
				l-0.2,0.9l0.4-0.2c0,0.2,0.1,0.5,0.1,0.8v0.4c0.4-0.4,0.8-0.8,1.3-1.2v-0.1c-0.3-2.7-0.8-5.4-1.6-8.1c-1.7-5.8-4-9.1-6.9-10
				l-1.6-0.5c-3.5-1.1-6.4-1.9-8.6-2.4l0.2-0.4l-7.8-7.8h-0.1l-0.3-0.2l-8.1-1.3l-0.8,0.7l0.3,10.3l0.3,0.2l-10.3,13.2l-0.1,0.3
				l-0.1,0.2l-0.1,0.2l-0.1-0.2l-16.1-16.5L55.8,108.4 M46,109.6l0.3,0l-0.3,0.5V109.6 M48.1,118.6l-0.5-0.1l-6,1.5l6-9.8l26.3,26.9
				l0.1,1.1L48.1,118.6 M48.6,109.4l6-0.3l1,7.5L48.6,109.4 M74.6,136.1l0.2-1.2l17.3-22.1l6.4,6.4l-7.6,1.7l-0.3,0.2L74.6,136.1
				L74.6,136.1 M70.5,141.8v-4.4l3.7,2.8v1c-0.4-0.4-1-0.6-1.6-0.6c-0.2,0-0.3,0-0.5,0.1c-0.1,0-0.2,0-0.3,0.1
				c-0.3,0.1-0.6,0.3-0.8,0.5C70.8,141.3,70.6,141.6,70.5,141.8 M72.6,141.8c0.3,0,0.5,0.1,0.7,0.3c0.2,0.2,0.3,0.4,0.3,0.6
				c0,0.6-0.3,0.9-0.9,0.9c-0.3,0-0.5-0.1-0.7-0.3c-0.2-0.2-0.3-0.4-0.3-0.7c0-0.2,0.1-0.4,0.3-0.6S72.3,141.8,72.6,141.8
				 M70.9,144.3c0.1,0.1,0.2,0.2,0.3,0.3c0.1,0.1,0.3,0.2,0.4,0.3c0.3,0.1,0.6,0.2,0.9,0.2c0.6,0,1.2-0.2,1.6-0.7v5.5
				c-0.4-0.4-1-0.7-1.6-0.7c-0.6,0-1.2,0.2-1.6,0.7c-0.2,0.2-0.3,0.4-0.4,0.6v-6.8C70.6,143.9,70.8,144.2,70.9,144.3 M71.8,150.9
				C71.8,150.9,71.9,150.8,71.8,150.9c0.3-0.3,0.5-0.4,0.8-0.4c0.3,0,0.5,0.1,0.7,0.3c0.2,0.2,0.3,0.4,0.3,0.6
				c0,0.3-0.1,0.5-0.3,0.7c-0.2,0.2-0.4,0.3-0.7,0.3c-0.2,0-0.3,0-0.5-0.1c-0.1-0.1-0.1-0.1-0.2-0.2c-0.2-0.2-0.3-0.4-0.3-0.7
				C71.6,151.3,71.7,151.1,71.8,150.9 M90.9,112.2l-5.9,7.6l-0.3-8.5L90.9,112.2z"/>
			<path class="st1" d="M72.6,153.7c-0.6,0-1.2-0.2-1.6-0.7c-0.2-0.2-0.3-0.4-0.4-0.7v5h0.2h3.5V153
				C73.7,153.5,73.2,153.7,72.6,153.7 M75.6,137.1l-0.1,0.1l0.1,3.6V137.1 M69.2,136.4L69.2,136.4l0,21h0V136.4 M73.4,134.9l0.1-0.2
				h-0.2L73.4,134.9 M71.3,144.6c-0.1-0.1-0.2-0.2-0.3-0.3c-0.2-0.2-0.3-0.4-0.4-0.7v6.8c0.1-0.2,0.3-0.4,0.4-0.6
				c0.4-0.4,1-0.7,1.6-0.7c0.6,0,1.2,0.2,1.6,0.7v-5.5c-0.4,0.5-1,0.7-1.6,0.7c-0.3,0-0.6-0.1-0.9-0.2
				C71.5,144.8,71.4,144.7,71.3,144.6 M70.5,137.3v4.4c0.1-0.2,0.3-0.5,0.4-0.7c0.2-0.2,0.5-0.4,0.8-0.5c0.1,0,0.2,0,0.3-0.1
				c0.1,0,0.3-0.1,0.5-0.1c0.6,0,1.2,0.2,1.6,0.6v-1L70.5,137.3 M74.8,134.9l-0.2,1.2l0.1,0.1l16-15.1l0.3-0.2l7.6-1.7l-6.4-6.4
				L74.8,134.9 M54.5,109.2l-6,0.3l7,7.2L54.5,109.2 M47.5,118.5l0.5,0.1l25.8,19.7l-0.1-1.1l-26.3-26.9l-6,9.8L47.5,118.5
				 M46.3,109.5l-0.3,0v0.5L46.3,109.5z"/>
			<path class="st2" d="M85,119.8l5.9-7.6l-6.2-0.9L85,119.8z"/>
			<path class="st0" d="M71.9,150.8C71.9,150.8,71.8,150.9,71.9,150.8c-0.2,0.3-0.3,0.5-0.3,0.6c0,0.3,0.1,0.5,0.3,0.7
				c0.1,0.1,0.1,0.1,0.2,0.2c0.1,0.1,0.3,0.1,0.5,0.1c0.3,0,0.5-0.1,0.7-0.3c0.2-0.2,0.3-0.4,0.3-0.7c0-0.3-0.1-0.5-0.3-0.6
				c-0.2-0.2-0.4-0.3-0.7-0.3C72.3,150.5,72.1,150.6,71.9,150.8 M73.3,142.1c-0.2-0.2-0.4-0.3-0.7-0.3c-0.2,0-0.5,0.1-0.7,0.3
				s-0.3,0.4-0.3,0.6c0,0.3,0.1,0.5,0.3,0.7c0.2,0.2,0.4,0.3,0.7,0.3c0.6,0,0.9-0.3,0.9-0.9C73.5,142.5,73.4,142.3,73.3,142.1z"/>
		</g>
	</g>
</g>
<g transform="matrix( 1, 0, 0, 1, 69.9,97.05) ">
	<g transform="matrix( 1, 0, 0, 1, -1.1,0) ">
		<g transform="matrix( 1, 0, 0, 1, -61.8,-69.35) ">
			<g>
				<g id="Tween_1_0_Layer0_0_FILL">
					<path d="M82.5,68.5c0.1-3-0.1-7.4-0.7-13.2c-0.4-3.5-0.6-6-0.6-7.6c0-0.4-0.2-0.7-0.7-0.7c-0.4,0-0.7,0.2-0.7,0.7
						c0,1.7,0.2,4.3,0.5,7.8c0.6,5.7,0.8,10,0.7,12.8C81,73,80,76.5,78.3,78.7c-3.2,3.9-5.6,6.7-7.4,8.3c-2.2,2-4.2,3-6,3.2
						c-1.8,0.2-3.8-0.5-6.2-1.9c-2-1.2-4.9-3.5-8.7-6.9c-1.6-1.4-3.3-5.3-4.9-11.7c-1.4-5.5-2.3-10.4-2.7-14.8
						c0-0.4-0.3-0.7-0.8-0.7c-0.5,0.1-0.7,0.3-0.6,0.8c0.3,4.1,1.1,9,2.5,14.5c1.7,6.9,3.5,11.2,5.5,12.8c3.8,3.3,6.7,5.6,8.8,6.9
						c2.4,1.5,4.6,2.3,6.5,2.3l0.7-0.1c2.1-0.2,4.3-1.3,6.6-3.3c2-1.7,4.5-4.6,7.8-8.7C81.2,77.2,82.3,73.5,82.5,68.5z"/>
				</g>
			</g>
		</g>
	</g>
	<g transform="matrix( 1, 0, 0, 1, 1.65,2.45) ">
		<g transform="matrix( 1, 0, 0, 1, -64.55,-71.8) ">
			<g>
				<g id="_7____0_Layer0_0_FILL">
					<path d="M65.3,71.7c-0.7,0.4-1.2,0.4-1.6,0.2l-0.5-0.5c-0.6-0.6-1.1-1-1.4-1.1l-0.2,0c-1.1-0.2-1.8-0.1-2.1,0.1
						c-0.2,0.2-0.3,0.4-0.3,0.7c0,0.5,0.2,0.7,0.7,0.7c0.2,0,0.4,0,0.5-0.2l0.9,0.1l0.1,0.1c0.1,0,0.3,0.2,0.7,0.6
						c0.3,0.3,0.5,0.6,0.8,0.7c0.5,0.3,0.9,0.4,1.4,0.4c0.5,0,1.1-0.2,1.8-0.5l0.1-0.1c0.4-0.3,0.9-0.7,1.5-1.3h0.9
						c0.1,0.1,0.3,0.2,0.5,0.2c0.5,0,0.7-0.2,0.7-0.7c0-0.4-0.2-0.6-0.6-0.8c-0.3-0.1-0.7-0.2-1.1-0.2c-0.7,0-1.1,0.1-1.3,0.4
						L65.3,71.7z"/>
				</g>
			</g>
		</g>
	</g>
	<g transform="matrix( 1, 0, 0, 1, -20.55,-3.7) ">
		<g transform="matrix( 1, 0, 0, 1, -42.35,-65.65) ">
			<g>
				<g id="gyuvj__0_Layer0_0_FILL">
					<path class="st3" d="M39.7,60.2c-0.7,1.3-0.4,3.2,0.8,5.5c0.3,0.5,0.6,1.5,1,2.8c0.3,1.5,0.7,2.6,1.3,3.2
						c0.4,0.4,0.8,0.6,1.3,0.6c0.4,0,0.8-0.2,1.1-0.5c0.3-0.3,0.4-0.8,0.4-1.3c0-0.5-0.2-1.4-0.5-2.7l-0.8-4.6
						c-0.2-1.5-0.4-2.5-0.5-3c-0.4-0.9-1.1-1.3-2-1.3l-0.2,0C40.7,59,40.1,59.4,39.7,60.2 M40.7,61.6c0-0.9,0.4-1.3,1-1.4h0.1
						c0.4,0,0.7,0.5,0.9,1.4c0.1,0.6,0.3,1.8,0.4,3.5c0.1,0.5,0.3,1.8,0.8,3.9c0.3,1.3,0.3,2,0.2,2c-0.1,0-0.1-0.1-0.3-0.2
						c-0.4-0.4-0.7-1.3-1-2.5c-0.3-1.5-0.7-2.6-1.1-3.3C40.9,63.7,40.6,62.5,40.7,61.6z"/>
					<path class="st4" d="M41.7,60.2c-0.6,0.1-1,0.5-1,1.4c-0.1,0.9,0.3,2,1,3.4c0.4,0.8,0.8,1.9,1.1,3.3c0.3,1.2,0.6,2,1,2.5
						C43.9,71,43.9,71,44,71c0.2,0,0.1-0.7-0.2-2c-0.4-2.1-0.7-3.4-0.8-3.9c-0.2-1.7-0.3-2.9-0.4-3.5C42.5,60.7,42.2,60.2,41.7,60.2
						L41.7,60.2z"/>
				</g>
			</g>
		</g>
	</g>
	<g transform="matrix( 1, 0, 0, 1, 21.05,-3.6) ">
		<g transform="matrix( 1, 0, 0, 1, -21.05,3.6) ">
			<g>
				<g id="gu8vy_0_Layer0_0_FILL">
					<path class="st3" d="M19.1-9c-0.2,0.6-0.3,1.6-0.3,3.1l-0.2,4.7c-0.1,1.3-0.2,2.2-0.1,2.7c0,0.6,0.2,1,0.5,1.3
						c0.3,0.3,0.6,0.5,1,0.5c0.5,0,1-0.3,1.3-0.8c0.3-0.4,0.6-1,0.8-1.6c0.1-0.3,0.1-0.9,0.3-1.8c0.1-1.3,0.3-2.3,0.6-2.9
						c1-2.5,1-4.3,0.1-5.6c-0.5-0.7-1.1-1.1-1.9-1.1H21C20-10.4,19.4-9.9,19.1-9 M19.9-0.1c0.2-2.5,0.3-3.8,0.3-4c0-1.8,0-3,0-3.6
						c0.1-0.9,0.3-1.4,0.8-1.5h0.1c0.6,0,1,0.4,1.1,1.3c0.2,0.9,0,2.1-0.6,3.6c-0.3,0.8-0.5,1.9-0.7,3.4c-0.1,1.2-0.3,2.1-0.7,2.6
						c-0.1,0.1-0.2,0.2-0.3,0.2C19.8,1.9,19.8,1.2,19.9-0.1z"/>
					<path class="st4" d="M20.2-4.1c0,0.1-0.1,1.5-0.3,4c-0.1,1.3-0.1,2,0.1,2c0.1,0,0.1-0.1,0.3-0.2c0.4-0.5,0.6-1.3,0.7-2.6
						c0.2-1.5,0.4-2.6,0.7-3.4c0.6-1.5,0.8-2.7,0.6-3.6c-0.1-0.8-0.5-1.3-1.1-1.3H21c-0.5,0-0.8,0.5-0.8,1.5
						C20.2-7.1,20.2-5.9,20.2-4.1z"/>
				</g>
			</g>
		</g>
	</g>
	<g transform="matrix( 1, 0, 0, 1, 10.7,-11.4) ">
		<g transform="matrix( 1, 0, 0, 1, -73.6,-57.95) ">
			<g>
				<g id="FL_78i_0_Layer0_0_FILL">
					<path d="M75.8,57.4c1,0.5,1.9,1,2.8,1.5C78.8,59,79,59,79.3,59c0.2-0.1,0.3-0.2,0.4-0.3c0.1-0.2,0.2-0.4,0.1-0.6
						c-0.1-0.2-0.2-0.3-0.4-0.5c-0.9-0.6-2-1.1-3.3-1.7l-0.4-0.1c-2.9,0.4-5.6,1.3-8.1,2.7c-0.4,0.2-0.5,0.6-0.3,1
						c0.2,0.3,0.4,0.4,0.7,0.4l0.4-0.2C70.8,58.5,73.2,57.7,75.8,57.4z"/>
				</g>
			</g>
		</g>
	</g>
	<g transform="matrix( 1, 0, 0, 1, -10,-11.25) ">
		<g transform="matrix( 1, 0, 0, 1, -52.9,-58.1) ">
			<g>
				<g id="t7g8u_0_Layer0_0_FILL">
					<path d="M58.2,60c0.3,0,0.6-0.1,0.7-0.5c0.1-0.2,0.1-0.4,0.1-0.6c-0.1-0.2-0.2-0.3-0.4-0.5c-2.5-1.3-5.2-2.1-7.8-2.3h-0.3
						c-1,0.3-2,0.8-3.1,1.3c-0.5,0.2-0.6,0.6-0.3,1c0.3,0.5,0.6,0.6,1,0.4c0.9-0.4,1.8-0.8,2.7-1.2c2.6,0.3,4.9,1,7.1,2.2L58.2,60z"
						/>
				</g>
			</g>
		</g>
	</g>
	<g transform="matrix( 1, 0, 0, 1, 9.95,-7.1) ">
		<g transform="matrix( 1, 0, 0, 1, -72.85,-62.25) ">
			<g>
				<g id="fgyvu_0_Layer0_0_FILL">
					<path d="M73.9,61.2c-0.3-0.3-0.6-0.4-1-0.4c-0.4,0-0.8,0.1-1.1,0.4c-0.3,0.3-0.4,0.7-0.4,1s0.1,0.7,0.4,1
						c0.3,0.3,0.7,0.4,1.1,0.4c0.4,0,0.7-0.1,1-0.4c0.3-0.3,0.4-0.6,0.4-1S74.2,61.5,73.9,61.2z"/>
				</g>
			</g>
		</g>
	</g>
	<g transform="matrix( 1, 0, 0, 1, -9.7,-7.15) ">
		<g transform="matrix( 1, 0, 0, 1, -53.2,-62.2) ">
			<g>
				<g id="gfvyukj_0_Layer0_0_FILL">
					<path d="M54.2,61.1c-0.3-0.3-0.7-0.4-1-0.4c-0.4,0-0.7,0.1-1,0.4c-0.3,0.3-0.4,0.6-0.4,1c0,0.4,0.1,0.7,0.4,1
						c0.3,0.3,0.6,0.4,1,0.4c0.4,0,0.7-0.1,1-0.4c0.3-0.3,0.4-0.6,0.4-1C54.6,61.8,54.5,61.4,54.2,61.1z"/>
				</g>
			</g>
		</g>
	</g>
	<g transform="matrix( 1, 0, 0, 1, 1.45,10.05) ">
		<g transform="matrix( 1, 0, 0, 1, -64.35,-79.4) ">
			<g>
				<g id="guyvkj_0_Layer1_0_FILL">
					<path d="M57.6,78.7l0.8,0.7c1.8,1.5,2.9,2.3,3.3,2.5c1.3,0.4,2.3,0.6,3,0.6c2,0,4.1-1.2,6.3-3.7c0.3-0.3,0.3-0.7,0-1
						c-0.1-0.1-0.3-0.2-0.5-0.2c-0.2,0-0.4,0.1-0.5,0.2c-1.5,1.6-2.8,2.6-3.9,3c-1.1,0.4-2.4,0.3-4-0.3c-0.3-0.1-1.2-0.8-2.8-2.2
						c-0.6-0.5-1-0.8-1.1-0.8c-0.2-0.1-0.4-0.1-0.5-0.1c-0.4,0.2-0.6,0.5-0.5,1C57.3,78.4,57.4,78.6,57.6,78.7z"/>
				</g>
			</g>
		</g>
		<g transform="matrix( 1, 0, 0, 1, -64.35,-79.4) ">
			<g>
				<g id="guyvkj_0_Layer1_1_FILL">
					<path d="M60.2,77.1c-0.4,0.1-1.1,0.1-2,0c-0.8-0.1-1.4-0.3-2-0.5c-0.2-0.1-0.3-0.1-0.5,0c-0.2,0.1-0.3,0.3-0.4,0.5
						c-0.1,0.4,0,0.7,0.5,0.9c0.7,0.2,1.4,0.4,2.3,0.5c1.1,0.2,2,0.1,2.6-0.1c1.1-0.4,2.1-0.3,3.2,0.2l0.4,0.1h0
						c0.4,0,1.1-0.1,2.3-0.3c1-0.3,1.7-0.4,1.9-0.3c2.7,0.4,4.3,0.4,4.9-0.3c0.2-0.3,0.3-0.6,0.2-0.9c-0.2-0.4-0.5-0.6-0.9-0.5
						c-0.2,0.1-0.3,0.2-0.4,0.4c-0.8,0.2-1.9,0.1-3.5-0.2c-0.5-0.1-1.3,0-2.5,0.3c-0.9,0.2-1.5,0.3-1.8,0.3
						C62.9,76.7,61.5,76.7,60.2,77.1z"/>
				</g>
			</g>
		</g>
	</g>
	<defs>
		<filter id="Adobe_OpacityMaskFilter" filterUnits="userSpaceOnUse">
			<feColorMatrix  type="matrix" values="1 0 0 0 0  0 1 0 0 0  0 0 1 0 0  0 0 0 1 0"/>
		</filter>
	</defs>
	<mask maskUnits="userSpaceOnUse" id="Mask_Mask_1_1_">
		<g transform="matrix( 1, 0, 0, 1, 0,0) " class="st5">
			<g>
				<g id="Mask_gyvu8jh_0_2_MASK_0_FILL_1_">
					<path class="st0" d="M2.5,11.1c0-0.7-0.3-1.1-1.1-1.3C0.7,9.6,0.1,9.7-0.5,10c-0.5,0.3-0.7,0.7-0.7,1.1h-9.7v49.4h28.3V11.1
						H2.5z"/>
				</g>
			</g>
		</g>
	</mask>
	<g class="st6">
	</g>
</g>
<g transform="matrix( 1, 0, 0, 1, 45.9,125.15) ">
	<g transform="matrix( 1, 0, 0, 1, -38.9,-97.45) ">
		<g>
			<g id="gyuvkj_0_Layer0_0_FILL">
				<path d="M34.8,81c1.3,2.9,1.9,6.3,1.6,10.3c-0.2,2.7-0.8,6.5-1.9,11.6c-2.7,11.8-3.7,20.8-2.9,26.8c-0.2,0.6,0.9,0.5,3.3-0.1
					c2.5-0.7,5.1-1.7,7.8-3.2c7.8-4.2,12.1-9.3,12.8-15.4c1-4.1,1.5-7.9,1.4-11.4c-0.1-6.7-2.4-12.2-6.9-16.3l-10.4-10
					c-1.1-0.3-2.3,0.6-3.6,2.9C34.6,78.3,34.3,79.9,34.8,81z"/>
			</g>
		</g>
	</g>
	<g transform="matrix( 1, 0, 0, 1, -38.9,-97.45) ">
		<g>
			<g id="gyuvkj_0_Layer0_1_FILL">
				<path d="M36.3,69.1c-1.9-4.6-3.4-5.5-4.5-2.7L31.6,67c-0.9,2.8-0.9,7.1,0.1,12.8c1.1,6.7,1.6,11.1,1.4,13
					c-0.3,3.6-1.9,8.7-5,15.1c-4.7,9.6-7,14.5-7,14.6c2.8,0.3,5.6-0.3,8.4-1.8c3.1-1.7,5.7-4.2,7.7-7.4c5.2-8.3,6-19.9,2.3-34.6
					C38.3,74.7,37.3,71.6,36.3,69.1z"/>
			</g>
		</g>
	</g>
</g>
</svg>
