<?xml version="1.0" encoding="utf-8"?>
<!-- Generator: Adobe Illustrator 23.0.3, SVG Export Plug-In . SVG Version: 6.00 Build 0)  -->
<svg version="1.1" id="Layer_1" xmlns="http://www.w3.org/2000/svg" xmlns:xlink="http://www.w3.org/1999/xlink" x="0px" y="0px"
	 viewBox="0 0 145 160" style="enable-background:new 0 0 145 160;" xml:space="preserve">
<style type="text/css">
	.st0{fill:#FFFFFF;}
	.st1{fill:#221F1F;}
	.st2{fill:#FFB546;}
	.st3{fill:#FBB348;}
</style>
<g transform="matrix( 1, 0, 0, 1, 0,0) ">
	<g>
		<g id="Layer0_0_MEMBER_0_FILL">
			<path class="st0" d="M138.1,94.6c0-18.1-6.4-33.5-19.2-46.3S90.7,29,72.6,29C54.5,29,39,35.4,26.3,48.2S7.1,76.5,7.1,94.6
				c0,18.1,6.4,33.6,19.2,46.3c12.8,12.8,28.3,19.2,46.3,19.2c18.1,0,33.5-6.4,46.3-19.2C131.7,128.1,138.1,112.7,138.1,94.6z"/>
		</g>
	</g>
</g>
<g transform="matrix( 1, 0, 0, 1, 0,0) ">
	<g>
		<g id="Layer0_0_MEMBER_1_FILL">
			<path class="st1" d="M88.1,137.1h12.8v-1.6H88.8C88.5,136.1,88.3,136.6,88.1,137.1 M100.8,129.1l-0.1-1.6H90.5
				c-0.1,0.6-0.2,1.1-0.3,1.6H100.8 M44.8,152l-0.1,1.6h56.6l-0.1-1.6H44.8 M45.9,137.1h13.4c-0.3-0.5-0.7-1-1-1.6H46L45.9,137.1
				 M45.5,143.5l-0.1,1.6h55.8l0-1.6H78.8c-1.3,0.3-3.1,0.5-5.4,0.8c-2.1,0.2-4.1,0-6.2-0.8H45.5 M55.7,129.1
				c-0.2-0.5-0.3-1-0.5-1.6h-8.6l-0.2,1.6H55.7z"/>
			<path class="st2" d="M100.9,135.5l-0.2-6.4H90.3c-0.4,2.4-0.7,4.1-1.1,5.1c-0.1,0.4-0.3,0.8-0.4,1.3H100.9 M93.8,121.6
				c-0.6,0-1.2,0.2-1.7,0.6c-0.5,0.4-0.8,0.9-0.9,1.5l-0.5,2.8c0,0.3-0.1,0.6-0.2,0.9h10.2l-0.1-5c-0.1,0-0.3-0.1-0.4-0.1l-5.6-0.8
				C94.3,121.7,94,121.7,93.8,121.6 M45.3,145.1l-0.5,6.9h56.4l-0.2-6.9H45.3 M44.7,154.1c8.5,4,17.8,6,27.9,6
				c10.4,0,20-2.1,28.7-6.4v-0.1H44.7V154.1 M79.6,143.3c-0.2,0.1-0.4,0.1-0.7,0.1h22.2h0l-0.2-6.4h0H88.1c-0.8,1.5-1.7,2.7-2.9,3.6
				C83.8,141.9,81.9,142.8,79.6,143.3 M45.9,137.1l-0.5,6.4h21.8c-0.4-0.1-0.8-0.3-1.2-0.5c0,0-0.1,0-0.1-0.1c-1-0.4-2-1-2.8-1.7
				c-1.4-1-2.6-2.3-3.6-3.8c-0.1-0.1-0.2-0.3-0.3-0.4H45.9 M55.8,129.4c0-0.1-0.1-0.2-0.1-0.3h-9.2l-0.5,6.4h12.3
				c-0.8-1.5-1.6-3.2-2.3-5.1L55.8,129.4 M49.2,121.7l-2.2,0.1l-0.4,5.8h8.6c-0.1-0.3-0.2-0.7-0.3-1.1l-0.2-1l-0.3-1.2
				c-0.2-0.7-0.5-1.3-1.1-1.8c-0.5-0.4-1.2-0.7-1.9-0.7L49.2,121.7z"/>
			<path class="st3" d="M74.8,142.5l0.6,0.3l0.6,0.3l0.3-0.4l14.2-25.9l-1.2-0.6L74.8,142.5 M56.3,117l-1.2,0.6l13.5,24.8l0.3,0.5
				l0.6-0.3l0.6-0.3L56.3,117z"/>
			<path d="M45.3,121L45.3,121c0.3,0,0.4,0,0.5-0.1l-2.4,32.4c0.4,0.2,0.9,0.4,1.3,0.7v-0.5l0.1-1.6l0.5-6.9l0.1-1.6l0.5-6.4
				l0.1-1.6l0.5-6.4l0.2-1.6l0.4-5.8v-0.1l2.2,0l2.3,0.1c0.7,0,1.4,0.3,1.9,0.7c0.6,0.5,0.9,1,1.1,1.8l0.3,1.2l1,3.9l0.3,1
				c0.7,1.9,1.4,3.6,2.3,5.1c0.3,0.6,0.7,1.1,1,1.6c0.1,0.1,0.2,0.3,0.3,0.4c1,1.5,2.2,2.7,3.6,3.8c0.1,0.1,0.2,0.1,0.3,0.2l0.3,0.2
				c0.6,0.4,1.2,0.8,1.8,1.1c0.1,0.1,0.3,0.2,0.4,0.2c0,0,0.1,0,0.1,0.1c0.4,0.2,0.8,0.4,1.2,0.5c2,0.7,4.1,1,6.2,0.8
				c2.4-0.3,4.2-0.5,5.4-0.8c0.3-0.1,0.5-0.1,0.7-0.1c2.3-0.5,4.2-1.4,5.6-2.6c1.1-0.9,2.1-2.2,2.9-3.6c0.3-0.5,0.5-1,0.7-1.6
				c0.2-0.4,0.3-0.8,0.4-1.3c0.3-1,0.7-2.8,1.1-5.1c0.1-0.5,0.2-1,0.3-1.6c0.1-0.3,0.1-0.6,0.2-0.9l0.5-2.8c0.1-0.6,0.4-1.1,0.9-1.5
				c0.5-0.4,1-0.6,1.7-0.6c0.3,0,0.5,0,0.8,0l5.6,0.8c0.1,0,0.3,0.1,0.4,0.1l0.1,5l0.1,1.6l0.2,6.4v1.6h0l0.2,6.4h0l0,1.6l0.2,6.9
				l0.1,1.6v0.1c0.5-0.2,1-0.5,1.4-0.8c-0.4-14.3-0.7-24.4-0.8-30.2c0.4,0.1,0.7,0.1,1.1,0.2h0.1l3.3,0.7c2.1,0.5,3.7,1.1,4.6,1.8
				c2.1,1.5,3.9,5.8,5.3,13c0.3,1.5,0.6,2.9,0.8,4.3c0.4-0.4,0.8-0.8,1.3-1.2c-0.2-1.1-0.4-2.3-0.7-3.4c-1.6-7.7-3.5-12.3-6-13.9
				c-1-0.7-2.7-1.4-5-1.9l0,0l-3.3-0.7c-0.4-0.1-0.8-0.2-1.3-0.3l0,0.1c-0.1,0-0.1,0-0.2-0.1c0-0.3,0-0.7,0-0.9
				c-1.5-0.1-4.4-0.2-8.7-0.3l-0.7-0.1v0.1c-0.1,0-0.2,0-0.3,0c-0.4,0-0.8,0.1-1.2,0.4c-0.3,0.3-0.6,0.6-0.7,1
				c-1.1,4.8-1.7,7.6-1.8,8.3c-0.6,3.9-1.7,6.8-3.5,8.8c-2,2.1-4.8,3.5-8.6,4.1c-0.1,0-0.2,0-0.3,0.1l-0.3,0.4l-0.6-0.3l-2.2,0.1
				c-1.3,0-2.6-0.1-3.8-0.4l-0.6,0.3l-0.3-0.5c-0.1,0-0.3-0.1-0.4-0.2l-1.2-0.4c-3.8-1.6-6.8-5.2-9.1-10.8c-0.7-3-1.2-5.3-1.7-6.8
				l-1.3-2.6c-0.5-0.7-1.1-1.1-1.8-1.4l0.2-0.7c-0.3-0.1-0.6-0.2-0.9-0.3h-0.1c-1-0.1-2-0.1-3,0h0c-0.4,0-0.8,0-1.3,0.1h0
				c-0.2,0-0.5,0-0.8,0c0,0-0.1,0-0.1,0h0c-0.4,0-0.8,0.1-1.3,0.2c-0.2,0-0.4,0-0.6,0.1H45c-6.1,0.8-10.3,2.5-12.8,5.3
				c-1.4,1.4-2.9,6-4.5,13.6c-0.2,1.1-0.4,2.2-0.7,3.4c0.4,0.4,0.9,0.8,1.3,1.2c0.3-1.4,0.5-2.8,0.8-4.3c1.5-7.2,2.9-11.5,4.1-12.9
				l0,0C35.7,123.3,39.6,121.8,45.3,121z"/>
		</g>
	</g>
</g>
<path d="M102.9,76.4c-4.9-14-10.7-21.6-17.6-22.7c-2.2-0.4-4.4,0-6.6,1c0.3-1.1-0.1-2.1-1.3-3.2c-4.7-4.2-10.7-4.8-18.1-1.8
	c-7.6,3.1-13.8,8.9-18.5,17.6c-3.2,5.9-5.3,10.5-6.2,13.8c-1,3.7-1,7.1,0,10c1.2,3.6,1.6,6.2,1.2,7.6c0,0.1-1.1,1.7-3.1,4.8
	c-1.2,1.8-1.9,3.7-2.1,5.8c-0.2,2.9,0.6,5.5,2.6,7.9c1.2,1.5,3.4,2.7,6.6,3.5c2.8,0.7,5.7,1.1,8.6,1c2.9,0,5.4-0.9,7.5-2.7
	c2.1-1.7,3.3-3.9,3.7-6.4c0.3-1.9,0.1-4-0.5-6.4l2.3,2.8c0,0,0,0.1,0.1,0.1c4,4.1,7.6,6.1,11,6c3.5,0,6.3-0.7,8.4-2
	c1.7-1.1,4.2-3.5,7.4-7.3c-1.2,4.2-1.7,6.8-1.6,7.7c0.3,2.7,2.6,5.6,7,8.8c2.1,1.5,5,1.7,8.5,0.7c4.1-1.2,7.2-4,9.5-8.2
	c0.4-0.7,0.3-1.4-0.2-2c-0.3-0.4-1.6-1.4-3.9-3.1c-1-0.7-1.7-1.9-2.2-3.5c-0.5-1.6-0.5-3,0-4.2c0.8,2.1,1.8,3.5,3.1,4.3
	c1.7,1.1,2.9,1.4,3.7,1.1c0.6-0.3,0.8-0.9,0.6-1.7C109,94.2,105.7,84.6,102.9,76.4 M81.4,59.8c4.3,3.3,7.4,8,9.2,14.1
	c0.7,2.4,1.2,4.7,1.4,7c-2.6-0.5-5.1-0.8-7.6-0.9c-4.7,0-7.5,1-8.6,3L71.2,83v0.2c-0.4-0.8-1.1-1.5-2-2c-1.5-0.8-3.7-1.2-6.6-1.1
	c0,0-0.1,0-0.1,0l-6.8,0.8c0.1-0.4,0.2-0.8,0.3-1.2c0.8-4,1.9-7.7,3.2-11.1c3.5-9.1,7.2-12.3,11.2-9.6c1.2,0.8,3.2,0.2,6-1.7
	c0.1-0.1,0.3-0.2,0.4-0.3l0.6,0.2C78.7,57.9,80.1,58.8,81.4,59.8 M92.2,81.9L92.2,81.9c0,0,0,0.1,0,0.2L92.2,81.9 M90.7,86.5
	l0.4-3.4c0.3,0,0.7-0.1,1.2-0.2c0.1,1.3,0.1,2.6,0,4c-0.3,4.1-1.4,9.6-3.3,16.4c-0.1,0-0.1,0-0.2,0c-0.2,0-0.4,0.1-0.6,0.3
	c-0.1,0.1-0.1,0.1-0.2,0.2c0,0,0,0-0.1,0.1c-3.6,4.3-6.2,7-8,8.2c-1.8,1.2-4.4,1.8-7.5,1.8c-3,0-6.3-1.9-9.9-5.6l0,0.1l-3.5-4.3
	c-0.1-0.2-0.3-0.3-0.5-0.3c-0.1,0-0.2,0-0.3,0.1c-1.8-4.4-2.8-9.5-3.2-15.3c-0.1-1.4,0-3.4,0.5-5.9c0-0.2,0.1-0.4,0.1-0.6
	c0,0,0-0.1,0.1-0.1l0.1,0.8h0.1l0.5,4.1c0,0,0,0.1,0.1,0.1c1,3.4,3,5.3,6,5.6c2.6,0.3,4.9-0.3,6.7-1.8c1.7-1.4,2.6-3.1,2.6-5.1
	c0-0.2,0-0.5-0.1-0.8l3.8,0c0,0.2,0,0.5,0,0.7c0,2,0.9,3.7,2.5,5.1c1.8,1.5,4.1,2.1,6.7,1.8C87.6,91.9,89.6,90,90.7,86.5
	C90.7,86.6,90.7,86.5,90.7,86.5 M89.7,82l-0.6,4.1c-0.8,2.7-2.4,4.2-4.7,4.5c-2.2,0.3-4-0.2-5.5-1.5c-1.3-1.1-2-2.4-2-3.9
	c0-0.4,0.1-0.8,0.2-1.2c0.8-1.7,3.2-2.5,7.3-2.5C86.2,81.6,87.9,81.8,89.7,82 M57.9,86.2l-0.5-3.9l5.3-0.7c2.5,0,4.5,0.3,5.7,1
	c1.1,0.6,1.7,1.5,1.7,2.7c0,1.5-0.7,2.8-2,3.9c-1.5,1.3-3.3,1.7-5.5,1.5C60.3,90.4,58.7,88.9,57.9,86.2 M65.4,85.9
	c0-0.4-0.1-0.7-0.4-0.9c-0.2-0.3-0.5-0.4-0.9-0.4c-0.4,0-0.7,0.1-1,0.4c-0.2,0.3-0.3,0.6-0.3,0.9c0,0.4,0.1,0.7,0.3,1
	c0.3,0.3,0.6,0.4,1,0.4c0.4,0,0.7-0.1,0.9-0.4C65.3,86.6,65.4,86.3,65.4,85.9 M82.8,84.6c-0.4,0-0.7,0.1-0.9,0.4
	c-0.2,0.3-0.3,0.6-0.3,0.9c0,0.4,0.1,0.7,0.3,1c0.3,0.3,0.6,0.4,0.9,0.4c0.4,0,0.7-0.1,1-0.4c0.3-0.3,0.4-0.6,0.4-1
	c0-0.4-0.1-0.7-0.4-0.9C83.6,84.7,83.3,84.6,82.8,84.6 M80.8,99.9c-0.2-0.1-0.4-0.1-0.6,0c-0.2,0-0.3,0.1-0.4,0.3
	c-0.2,0-0.4,0-0.8,0c-0.7,0-1.5-0.1-2.4-0.3c-0.5-0.1-1.1,0-2,0.3c-0.7,0.2-1.2,0.2-1.6,0.3c-1.3-0.6-2.7-0.7-4.3-0.3
	c-0.3,0.1-0.8,0.2-1.3,0.3c-0.1,0-0.2,0-0.3,0l-1,0c-0.2,0-0.4,0.1-0.5,0.2c-0.1,0.2-0.2,0.3-0.2,0.6c0,0.2,0.1,0.4,0.2,0.5
	c0.2,0.2,0.3,0.2,0.5,0.2l0.7,0.1c0.1,0.2,0.3,0.4,0.5,0.7v0.1c0.5,0.7,1.3,1.4,2.3,2.3c1.3,1.2,3,1.5,5,1.1c2.2-0.5,4-1.8,5.5-4
	c0.1-0.1,0.1-0.2,0.1-0.3c0,0,0,0,0.1,0c0.3-0.1,0.5-0.1,0.5-0.3c0.3-0.2,0.4-0.5,0.3-0.9C81.1,100.2,81,100.1,80.8,99.9
	 M76.4,101.3c0.5,0.1,0.9,0.2,1.3,0.2c-1.3,0.6-2.8,0.9-4.6,0.8l0,0c-1.5,0-2.9-0.3-4.1-0.8c0.1,0,0.1,0,0.2-0.1
	c1.2-0.4,2.3-0.3,3.3,0.2c0.1,0.1,0.2,0.1,0.3,0.1c0.5,0,1.2-0.1,2.1-0.3h0.1C75.6,101.3,76.1,101.3,76.4,101.3 M73.2,103.2
	c1.7,0.1,3.3-0.2,4.7-0.8c-1,1.1-2.1,1.8-3.4,2.1c-1.5,0.3-2.8,0-3.8-0.8c-0.4-0.4-0.8-0.7-1.2-1.1C70.5,103,71.8,103.2,73.2,103.2
	 M64.2,98.7c-0.1,0-0.2,0.1-0.3,0.2c-0.7,0.7-1,1.3-0.9,1.9c0,0.6,0.4,1.2,1,1.8c0.1,0.1,0.2,0.1,0.4,0.1c0.1,0,0.2,0,0.3-0.2
	c0.1-0.1,0.1-0.2,0.1-0.3c0-0.1,0-0.2-0.1-0.3c-0.4-0.3-0.7-0.7-0.7-1.1c0-0.4,0.2-0.7,0.7-1.1c0.1-0.1,0.2-0.2,0.2-0.4
	c0-0.1,0-0.2-0.1-0.3C64.5,98.8,64.3,98.7,64.2,98.7 M69.8,92.3c-0.2,0-0.4,0.1-0.6,0.3c-0.1,0.2-0.2,0.3-0.2,0.6
	c0,0.2,0.1,0.4,0.3,0.6c0.2,0.1,0.3,0.2,0.6,0.2c0.5,0,0.9,0.1,1.2,0.5l0,0c0.7,0.7,1.5,1,2.3,1c1.1,0,2-0.4,2.7-1.2l0.1-0.1
	c0.3-0.3,0.6-0.4,0.8-0.4c0.2,0,0.4,0,0.6-0.2c0.2-0.1,0.3-0.3,0.3-0.5c0-0.2,0-0.4-0.2-0.6c-0.1-0.2-0.3-0.3-0.5-0.3
	c-0.8-0.1-1.5,0.2-2.3,1l0,0c-0.4,0.4-0.9,0.7-1.5,0.7c-0.4,0-0.8-0.2-1.2-0.6v0.1C71.5,92.6,70.7,92.3,69.8,92.3 M82.3,98.7
	c-0.1,0-0.2,0.1-0.3,0.2c-0.1,0.1-0.1,0.2-0.2,0.3c0,0.1,0.1,0.3,0.2,0.4c0.4,0.4,0.6,0.7,0.6,1v0.1c0,0.3-0.2,0.7-0.5,1.2
	c-0.1,0.1-0.1,0.2-0.1,0.3c0,0.1,0.1,0.2,0.2,0.3c0.1,0.1,0.2,0.1,0.3,0.1c0.1,0,0.2-0.1,0.3-0.2c0.5-0.7,0.8-1.3,0.8-1.8l0,0
	c0.1-0.6-0.2-1.2-0.9-1.8C82.6,98.8,82.4,98.7,82.3,98.7 M58.2,79.9c0.2,0.1,0.4,0.1,0.6,0c3-1,5.8-0.8,8.5,0.6
	c0.2,0.1,0.4,0.1,0.6,0c0.2,0,0.4-0.2,0.5-0.3c0.1-0.2,0.1-0.4,0-0.6c0-0.2-0.2-0.4-0.3-0.5c-3.1-1.6-6.3-1.8-9.8-0.7
	c-0.2,0.1-0.4,0.2-0.5,0.4c-0.1,0.2-0.1,0.4,0,0.6C57.9,79.7,58,79.8,58.2,79.9 M87.1,79.9c0.2,0.1,0.4,0.1,0.6,0
	c0.2-0.1,0.3-0.2,0.3-0.5c0.1-0.2,0.1-0.4,0-0.6c-0.1-0.2-0.2-0.3-0.4-0.4c-3.4-1.1-6.7-0.9-9.8,0.7c-0.2,0.1-0.3,0.2-0.4,0.5
	c-0.1,0.2,0,0.4,0,0.6c0.1,0.2,0.2,0.3,0.5,0.3c0.2,0.1,0.4,0.1,0.6,0C81.2,79.1,84.1,78.9,87.1,79.9z"/>
</svg>
