<?xml version="1.0" encoding="utf-8"?>
<!-- Generator: Adobe Illustrator 23.0.3, SVG Export Plug-In . SVG Version: 6.00 Build 0)  -->
<svg version="1.1" id="Layer_1" xmlns="http://www.w3.org/2000/svg" xmlns:xlink="http://www.w3.org/1999/xlink" x="0px" y="0px"
	 viewBox="0 0 145 160" style="enable-background:new 0 0 145 160;" xml:space="preserve">
<style type="text/css">
	.st0{fill:#FFFFFF;}
	.st1{fill:#231F20;}
	.st2{fill:#FBB348;}
	.st3{fill:#FEFEFE;}
	.st4{fill:#221F1F;}
</style>
<g transform="matrix( 1, 0, 0, 1, 0,0) ">
	<g>
		<g id="Layer1_0_FILL">
			<path class="st0" d="M138.1,94.6c0-18.1-6.4-33.5-19.2-46.3S90.7,29,72.6,29C54.5,29,39,35.4,26.3,48.2S7.1,76.5,7.1,94.6
				c0,18.1,6.4,33.6,19.2,46.3c12.8,12.8,28.3,19.2,46.3,19.2c18.1,0,33.5-6.4,46.3-19.2C131.7,128.1,138.1,112.7,138.1,94.6z"/>
		</g>
	</g>
</g>
<g transform="matrix( 1, 0, 0, 1, 0,0) ">
	<g>
		<g id="Layer0_0_FILL">
			<path class="st1" d="M93.7,156.8c-0.1-0.2-0.3-0.5-0.4-0.7c-0.4-0.4-1-0.6-1.6-0.6s-1.1,0.2-1.5,0.6c-0.4,0.4-0.6,0.9-0.6,1.5
				c0,0.1,0,0.2,0,0.4C91,157.7,92.3,157.3,93.7,156.8 M89.6,143.2c0,0.6,0.2,1.1,0.6,1.6c0.4,0.4,0.9,0.6,1.5,0.6
				c0.3,0,0.5,0,0.7-0.1c0.3-0.1,0.6-0.3,0.8-0.5c0.4-0.4,0.6-1,0.6-1.6s-0.2-1.1-0.6-1.5c-0.4-0.4-1-0.6-1.6-0.6
				c-0.1,0-0.2,0-0.3,0c-0.4,0.1-0.8,0.3-1.2,0.6C89.8,142.1,89.6,142.6,89.6,143.2 M48,155.5c0.8,0.3,1.5,0.6,2.3,0.8
				c-0.1-0.1-0.1-0.2-0.2-0.3c-0.4-0.4-0.9-0.6-1.5-0.6C48.3,155.5,48.2,155.5,48,155.5 M61.3,159.2L61.3,159.2
				c0.9,0.1,1.7,0.3,2.6,0.4c0.2-0.1,0.4-0.2,0.5-0.4c0.4-0.4,0.6-0.9,0.6-1.6c0-0.6-0.2-1.1-0.6-1.5c-0.4-0.4-0.9-0.6-1.5-0.6
				c-0.6,0-1.1,0.2-1.6,0.6c-0.4,0.4-0.6,0.9-0.6,1.5C60.7,158.2,60.9,158.8,61.3,159.2 M71.7,152c0,0,0-0.1,0-0.1h0.1l-1.9-3.6
				c-0.5,0.1-0.9,0.3-1.3,0.6c-0.4,0.4-0.7,0.9-0.7,1.5s0.2,1.1,0.7,1.6c0.4,0.4,0.9,0.6,1.5,0.6C70.7,152.6,71.2,152.4,71.7,152
				 M39.2,150.4c0,0.3,0,0.5,0.1,0.8c0.8,0.5,1.6,0.9,2.4,1.4c0.5-0.1,0.9-0.2,1.2-0.6c0.4-0.4,0.6-0.9,0.6-1.6s-0.2-1.1-0.6-1.5
				c-0.4-0.4-1-0.6-1.5-0.6s-1.1,0.2-1.5,0.6C39.4,149.3,39.2,149.8,39.2,150.4 M35.3,141.4c-0.3-0.2-0.7-0.3-1.2-0.3
				c-0.6,0-1.1,0.2-1.5,0.6c-0.4,0.4-0.6,0.9-0.6,1.5c0,0.6,0.2,1.1,0.6,1.6c0.4,0.4,0.9,0.6,1.5,0.6c0.5,0,1-0.1,1.4-0.4
				c0.1,0,0.1-0.1,0.2-0.1c0.4-0.4,0.6-1,0.6-1.6s-0.2-1.1-0.6-1.5C35.5,141.6,35.4,141.5,35.3,141.4 M36,129.9
				c0.2-0.3,0.3-0.7,0.3-1c0-0.1,0-0.2,0-0.4c0-0.4-0.1-0.7-0.4-0.9c-0.3,0.3-0.6,0.6-0.9,0.9l-1.2,1.4c-0.2,0.3-0.4,0.6-0.7,0.9
				c0.3,0.2,0.6,0.3,1,0.3c0.6,0,1.1-0.2,1.6-0.6C35.8,130.2,35.9,130.1,36,129.9 M49.7,141.4c-0.3-0.2-0.7-0.3-1.2-0.3
				c-0.6,0-1.1,0.2-1.5,0.6c-0.4,0.4-0.7,0.9-0.7,1.5c0,0.6,0.2,1.1,0.7,1.6c0.2,0.2,0.4,0.3,0.6,0.4c0.3,0.1,0.6,0.2,0.9,0.2
				c0.6,0,1.1-0.2,1.5-0.6c0.4-0.4,0.6-1,0.6-1.6c0-0.6-0.2-1.1-0.6-1.5C49.9,141.6,49.8,141.5,49.7,141.4 M83,152
				c0.4,0.4,0.9,0.6,1.5,0.6s1.1-0.2,1.6-0.6c0.4-0.4,0.6-0.9,0.6-1.6s-0.2-1.1-0.6-1.5c-0.4-0.4-1-0.6-1.6-0.6s-1.1,0.2-1.5,0.6
				c-0.4,0.4-0.7,0.9-0.7,1.5S82.6,151.6,83,152 M114.8,134.5c-0.4-0.4-0.9-0.7-1.5-0.7s-1.1,0.2-1.5,0.7c-0.4,0.4-0.7,0.9-0.7,1.5
				s0.2,1.1,0.7,1.6c0.4,0.4,0.9,0.6,1.5,0.6s1.1-0.2,1.5-0.6c0.4-0.4,0.6-0.9,0.6-1.6C115.4,135.4,115.3,134.9,114.8,134.5
				 M86.7,136c0-0.3,0-0.5-0.1-0.8l-1.1,2.8c0.2-0.1,0.4-0.3,0.6-0.4C86.5,137.2,86.7,136.6,86.7,136 M54.2,152
				c0.4,0.4,0.9,0.6,1.5,0.6s1.1-0.2,1.5-0.6c0.4-0.4,0.6-0.9,0.6-1.6c0-0.6-0.2-1.1-0.6-1.5c-0.4-0.4-1-0.6-1.5-0.6
				s-1.1,0.2-1.5,0.6c-0.4,0.4-0.7,0.9-0.7,1.5S53.8,151.6,54.2,152 M75.2,157.6c0,0.6,0.2,1.1,0.7,1.6c0.4,0.4,0.9,0.6,1.5,0.6
				s1.1-0.2,1.5-0.6c0.4-0.4,0.6-0.9,0.6-1.6c0-0.6-0.2-1.1-0.6-1.5c-0.4-0.4-0.9-0.6-1.5-0.6s-1.1,0.2-1.5,0.6
				C75.4,156.5,75.2,157,75.2,157.6 M62.9,141.1c-0.6,0-1.1,0.2-1.6,0.6c-0.4,0.4-0.6,0.9-0.6,1.5s0.2,1.1,0.6,1.6
				c0.4,0.4,1,0.6,1.6,0.6c0.6,0,1.1-0.2,1.5-0.6c0.4-0.4,0.6-1,0.6-1.6s-0.2-1.1-0.6-1.5C64,141.3,63.5,141.1,62.9,141.1
				 M57.3,134.5c-0.4-0.4-1-0.7-1.5-0.7s-1.1,0.2-1.5,0.7c-0.4,0.4-0.7,0.9-0.7,1.5s0.2,1.1,0.7,1.6c0.4,0.4,0.9,0.6,1.5,0.6
				s1.1-0.2,1.5-0.6c0.4-0.4,0.6-0.9,0.6-1.6C57.8,135.4,57.6,134.9,57.3,134.5 M97.4,152c0.4,0.4,0.9,0.6,1.5,0.6
				c0.6,0,1.1-0.2,1.5-0.6c0.4-0.4,0.6-0.9,0.6-1.6c0-0.6-0.2-1.1-0.6-1.5c-0.4-0.4-0.9-0.6-1.5-0.6c-0.6,0-1.1,0.2-1.5,0.6
				c-0.4,0.4-0.7,0.9-0.7,1.5S97,151.6,97.4,152 M103.9,143.2c0,0.6,0.2,1.1,0.7,1.6c0.4,0.4,0.9,0.6,1.5,0.6c0.6,0,1.1-0.2,1.6-0.6
				c0.4-0.4,0.6-1,0.6-1.6s-0.2-1.1-0.6-1.5c-0.4-0.4-0.9-0.6-1.6-0.6c-0.6,0-1.1,0.2-1.5,0.6C104.2,142.1,103.9,142.6,103.9,143.2
				 M106.1,131c0.6,0,1.1-0.2,1.6-0.6c0.4-0.4,0.6-0.9,0.6-1.5c0-0.6-0.2-1.1-0.6-1.5c-0.4-0.4-0.9-0.7-1.6-0.7
				c-0.6,0-1.1,0.2-1.5,0.7c-0.4,0.4-0.7,0.9-0.7,1.5c0,0.6,0.2,1.1,0.7,1.5C105,130.8,105.5,131,106.1,131 M101.1,136
				c0-0.6-0.2-1.1-0.6-1.5c-0.4-0.4-0.9-0.7-1.5-0.7c-0.6,0-1.1,0.2-1.5,0.7c-0.4,0.4-0.7,0.9-0.7,1.5s0.2,1.1,0.7,1.6
				c0.4,0.4,0.9,0.6,1.5,0.6c0.6,0,1.1-0.2,1.5-0.6C100.8,137.2,101.1,136.6,101.1,136 M91.7,131c0.6,0,1.1-0.2,1.6-0.6
				c0.4-0.4,0.6-0.9,0.6-1.5c0-0.6-0.2-1.1-0.6-1.5c-0.4-0.4-1-0.7-1.6-0.7c-0.6,0-1.1,0.2-1.5,0.7c-0.4,0.4-0.6,0.9-0.6,1.5
				c0,0.6,0.2,1.1,0.6,1.5C90.6,130.8,91.1,131,91.7,131 M100.5,120.9c-1.3-0.1-2.5-0.1-3.6-0.1c-0.1,0.3-0.2,0.5-0.2,0.8
				c0,0.6,0.2,1.1,0.7,1.5c0.4,0.4,0.9,0.6,1.5,0.6c0.6,0,1.1-0.2,1.5-0.6c0.4-0.4,0.6-0.9,0.6-1.5c0-0.3,0-0.5-0.1-0.7
				C100.8,120.9,100.6,120.9,100.5,120.9 M42.8,134.5c-0.4-0.4-1-0.7-1.5-0.7s-1.1,0.2-1.5,0.7c-0.4,0.4-0.6,0.9-0.6,1.5
				s0.2,1.1,0.6,1.6c0.4,0.4,0.9,0.6,1.5,0.6s1.1-0.2,1.5-0.6c0.4-0.4,0.6-0.9,0.6-1.6S43.3,134.9,42.8,134.5 M47,127.3
				c-0.4,0.4-0.7,0.9-0.7,1.5c0,0.6,0.2,1.1,0.7,1.5c0.4,0.4,0.9,0.6,1.5,0.6s1.1-0.2,1.5-0.6c0.4-0.4,0.6-0.9,0.6-1.5
				c0-0.6-0.2-1.1-0.6-1.5c-0.4-0.4-0.9-0.7-1.5-0.7C47.9,126.7,47.4,126.9,47,127.3 M53.5,121.9c0.1,0.5,0.3,0.9,0.7,1.3
				c0.4,0.4,0.9,0.6,1.5,0.6c0.5,0,0.9-0.1,1.3-0.4l-0.8-1.5L53.5,121.9 M42.8,123.2c0.2-0.2,0.3-0.3,0.4-0.5
				c-0.8,0.3-1.6,0.6-2.5,1.1c0.2,0,0.3,0.1,0.5,0.1C41.9,123.8,42.4,123.6,42.8,123.2z"/>
			<path class="st2" d="M88.2,131c-0.1,0.1-0.2,0.2-0.3,0.3l-3.3,8.7L88.2,131 M76.3,154.3c-0.1,0-0.2,0-0.3,0
				c-0.9,0.1-1.7-0.1-2.5-0.6c-0.5-0.3-1-0.7-1.3-1.2c0.8,1.3,1.9,1.9,3.4,1.8C75.8,154.4,76,154.4,76.3,154.3 M71.8,136.9
				c-2.5-0.2-4.9-0.8-7.3-1.8l8.4,16.2c0.6,1.2,1.6,1.8,3,1.7c1.3-0.1,2.3-0.7,2.8-1.9l7-18.2C81.2,135.8,76.6,137.2,71.8,136.9z"/>
			<path class="st0" d="M33.1,130.7c-0.1,0.1-0.1,0.1-0.1,0.2c-2.3,3.2-4.2,6.9-5.6,11.1c2.7,2.6,5.5,4.9,8.4,6.9
				c-0.2-1.3-0.3-2.6-0.4-4c-0.4,0.3-0.8,0.4-1.4,0.4c-0.6,0-1.1-0.2-1.5-0.6c-0.4-0.4-0.6-1-0.6-1.6c0-0.6,0.2-1.1,0.6-1.5
				c0.4-0.4,0.9-0.6,1.5-0.6c0.5,0,0.9,0.1,1.2,0.3c0-0.4,0-0.7,0-1.1c0-3.6,0.2-7.1,0.7-10.5c-0.1,0.2-0.2,0.3-0.3,0.5
				c-0.4,0.4-1,0.6-1.6,0.6C33.7,131,33.4,130.9,33.1,130.7 M36.2,128.5c0.1-0.6,0.2-1.1,0.3-1.7c-0.6,0.5-1.1,1.1-1.6,1.7
				c0.3-0.3,0.6-0.6,0.9-0.9C36.1,127.8,36.2,128.1,36.2,128.5 M50.3,140.4l-0.6,1.1c0.1,0.1,0.2,0.2,0.3,0.3
				c0.4,0.4,0.6,0.9,0.6,1.5c0,0.6-0.2,1.1-0.6,1.6c-0.4,0.4-0.9,0.6-1.5,0.6c-0.3,0-0.6-0.1-0.9-0.2l-4.5,8.1
				c1.6,0.8,3.3,1.6,5,2.3c0.2,0,0.3-0.1,0.5-0.1c0.6,0,1.1,0.2,1.5,0.6c0.1,0.1,0.1,0.2,0.2,0.3c3.6,1.3,7.3,2.2,11.1,2.8l0,0
				c-0.4-0.4-0.6-0.9-0.6-1.6c0-0.6,0.2-1.1,0.6-1.5c0.4-0.4,1-0.6,1.6-0.6c0.6,0,1.1,0.2,1.5,0.6c0.4,0.4,0.6,0.9,0.6,1.5
				c0,0.6-0.2,1.1-0.6,1.6c-0.2,0.2-0.4,0.3-0.5,0.4c2.8,0.4,5.7,0.6,8.7,0.6c5.9,0,11.6-0.7,17-2.1c0-0.1,0-0.2,0-0.4
				c0-0.6,0.2-1.1,0.6-1.5c0.4-0.4,0.9-0.6,1.5-0.6s1.1,0.2,1.6,0.6c0.2,0.2,0.3,0.4,0.4,0.7c9.3-3.1,17.7-8.4,25.2-15.9
				c0.4-0.4,0.9-0.9,1.3-1.3c-0.1-0.2-0.2-0.5-0.3-0.7c-2.5-5.6-4.5-9.3-5.9-11.1c-0.1-0.2-0.3-0.3-0.4-0.5
				c-1.9-1.7-3.3-2.9-4.3-3.7c-0.5-0.3-1-0.7-1.6-0.9c2.2,6.6,3.6,14,4.2,22.3c0.2,2.2-2.5,4.4-7.9,6.8l-8.3,2.9
				c-1.2-2.9-2.2-6-3.2-9.4c-0.2,0.1-0.4,0.1-0.7,0.1c-0.6,0-1.1-0.2-1.5-0.6c-0.4-0.4-0.6-1-0.6-1.6c0-0.6,0.2-1.1,0.6-1.5
				c0.3-0.3,0.7-0.6,1.2-0.6c-0.4-1.7-0.8-3.5-1.2-5.4c-0.5-2.3-0.9-4.6-1.2-6.8l-0.8,2l-3.6,8.9c-0.7,1.6-1.3,3.3-1.9,4.9l-2.6,6.6
				c-0.3,0.9-0.9,1.6-1.6,2.1c-0.7,0.5-1.4,0.7-2.2,0.8c-0.2,0-0.4,0-0.7,0c-1.5,0.1-2.7-0.6-3.4-1.8c-0.2-0.2-0.3-0.4-0.5-0.7
				c0,0,0,0.1,0,0.1c-0.4,0.4-0.9,0.6-1.6,0.6c-0.6,0-1.1-0.2-1.5-0.6c-0.4-0.4-0.7-0.9-0.7-1.6s0.2-1.1,0.7-1.5
				c0.3-0.4,0.8-0.6,1.3-0.6L57,123.5c-0.3,0.9-0.6,1.8-0.9,2.8C54.4,131,52.5,135.8,50.3,140.4 M55.7,133.9c0.6,0,1.1,0.2,1.5,0.7
				c0.4,0.4,0.6,0.9,0.6,1.5c0,0.6-0.2,1.1-0.6,1.6c-0.4,0.4-1,0.6-1.5,0.6s-1.1-0.2-1.5-0.6c-0.4-0.4-0.7-0.9-0.7-1.6
				s0.2-1.1,0.7-1.5C54.6,134.1,55.1,133.9,55.7,133.9 M61.3,141.7c0.4-0.4,1-0.6,1.6-0.6c0.6,0,1.1,0.2,1.5,0.6
				c0.4,0.4,0.6,0.9,0.6,1.5s-0.2,1.1-0.6,1.6c-0.4,0.4-0.9,0.6-1.5,0.6c-0.6,0-1.1-0.2-1.6-0.6c-0.4-0.4-0.6-1-0.6-1.6
				S60.9,142.1,61.3,141.7 M75.8,159.2c-0.4-0.4-0.7-0.9-0.7-1.6c0-0.6,0.2-1.1,0.7-1.5c0.4-0.4,0.9-0.6,1.5-0.6s1.1,0.2,1.5,0.6
				c0.4,0.4,0.6,0.9,0.6,1.5c0,0.6-0.2,1.1-0.6,1.6c-0.4,0.4-0.9,0.6-1.5,0.6S76.2,159.6,75.8,159.2 M55.7,152.6
				c-0.6,0-1.1-0.2-1.5-0.6c-0.4-0.4-0.7-0.9-0.7-1.6s0.2-1.1,0.7-1.5c0.4-0.4,0.9-0.6,1.5-0.6s1.1,0.2,1.5,0.6
				c0.4,0.4,0.6,0.9,0.6,1.5c0,0.6-0.2,1.1-0.6,1.6C56.8,152.4,56.3,152.6,55.7,152.6 M86.6,135.3c0.1,0.2,0.1,0.5,0.1,0.8
				c0,0.6-0.2,1.1-0.6,1.6c-0.2,0.2-0.4,0.3-0.6,0.4L86.6,135.3 M113.3,133.9c0.6,0,1.1,0.2,1.5,0.7c0.4,0.4,0.6,0.9,0.6,1.5
				c0,0.6-0.2,1.1-0.6,1.6c-0.4,0.4-0.9,0.6-1.5,0.6s-1.1-0.2-1.5-0.6c-0.4-0.4-0.7-0.9-0.7-1.6s0.2-1.1,0.7-1.5
				C112.2,134.1,112.7,133.9,113.3,133.9 M84.5,152.6c-0.6,0-1.1-0.2-1.5-0.6c-0.4-0.4-0.7-0.9-0.7-1.6s0.2-1.1,0.7-1.5
				c0.4-0.4,0.9-0.6,1.5-0.6s1.1,0.2,1.6,0.6c0.4,0.4,0.6,0.9,0.6,1.5s-0.2,1.1-0.6,1.6C85.6,152.4,85.1,152.6,84.5,152.6z"/>
			<path class="st3" d="M95.7,85.1c-0.2-0.5-0.8-1-1.7-1.3c0,0.2-0.1,0.5-0.2,0.8c0,0.2-0.1,0.5-0.1,0.7c-0.3,1.8-0.6,3.8-0.8,5.8
				c-0.3,2.6-0.6,4.7-0.8,6.1c-0.2,0.8-0.4,1.6-0.6,2.4c0,0,0.1-0.1,0.1-0.1c0.1-0.2,0.3-0.5,0.4-0.8c0.3-0.6,0.5-1.1,0.7-1.7
				c0.1-0.5,0.2-1.2,0.2-2c0.1-2.3,0.5-3.9,1.2-4.9C95.6,87.9,96.1,86.2,95.7,85.1 M88.9,128.6c0,0,0-0.1,0-0.1V128.6
				C88.9,128.6,88.9,128.6,88.9,128.6 M89.2,106c0,0.1-0.1,0.1-0.1,0.2c0,0.1,0,0.2,0,0.3C89.1,106.3,89.1,106.1,89.2,106 M60.2,113
				c-0.3-0.3-0.6-0.6-0.9-0.9c0.2,1.9-0.3,5-1.7,9.5l5.9,11.2c2.8,1.6,5.6,2.4,8.5,2.6c4.9,0.3,9.8-1.4,14.7-5.1l1.8-4.9
				c-0.2-1.7-0.3-3.4-0.3-5.1c-0.4-2.8-0.6-6.8-0.5-12.2c-1.1,1.4-2.5,3-4.2,4.7c-4.2,4.1-7.9,6.1-11.3,6.1
				C68.5,119,64.5,117,60.2,113 M54.9,87l1.5,5.9c5.4,0.2,8.6,0.1,9.5-0.2c0.7-0.2,1.4-0.8,1.9-1.8c0.6-1.3,0.9-2.6,0.8-4
				C63,86.4,58.4,86.5,54.9,87 M62.2,91.2c-0.3,0-0.6-0.1-0.9-0.4c-0.2-0.3-0.3-0.6-0.3-1c0-0.4,0.1-0.7,0.3-1
				c0.3-0.3,0.6-0.4,0.9-0.4c0.4,0,0.7,0.1,0.9,0.4c0.3,0.3,0.4,0.6,0.4,1c0,0.4-0.1,0.7-0.4,1C62.8,91.1,62.5,91.2,62.2,91.2
				 M49,83.8c0,0.1-0.1,0.1-0.1,0.2c-0.2,0.2-0.4,0.3-0.5,0.3l0.7,0.2l0-0.3C48.9,84.1,48.9,84,49,83.8L49,83.8 M47,85.3
				c-0.2,0.4-0.4,0.8-0.5,1.2c0,0.1,0,0.2,0,0.3c0.2,1.4,0.8,3.2,2,5.2c0.5,0.9,0.8,2.3,0.8,4.2c0,1.2,0.1,1.9,0.3,2.3
				c0.2,0.5,0.7,0.8,1.5,1c0.4,0.1,0.6,0.3,0.5,0.8c0,0,0,0.1,0,0.1c0.2,0.1,0.3,0.2,0.4,0.3c-0.9-3.4-1.7-6.9-2.3-10.7
				c-0.2-1.7-0.4-3-0.5-4L47,85.3 M47.8,84C47.8,84.1,47.8,84.1,47.8,84l0.2,0.1C48,84.1,47.9,84.1,47.8,84 M88.6,93.7
				c-0.1,0.3-0.3,0.5-0.7,0.5c-1.3,0.1-3.3,0.2-5.8,0.2c-2.4,0-4-0.1-4.8-0.4c-1.4-0.5-2.4-1.6-3.1-3.5c-0.3-0.9-0.5-1.7-0.5-2.5
				l-3.9,0.2c-0.1,0.7-0.2,1.5-0.5,2.3c-0.6,1.9-1.7,3-3.1,3.5c-0.7,0.3-2.3,0.4-4.7,0.4c-2.6,0-4.5-0.1-5.9-0.2
				c-0.3,0-0.5-0.2-0.6-0.5l-1.7-6.6l-2.8-0.8c0.1,0.9,0.3,2,0.5,3.3c0.7,4.6,1.7,8.8,3,12.8c0,0,0,0.1,0,0.1
				c0.2,0.3,0.3,0.5,0.4,0.9c0,0.1,0,0.1,0,0.1c1.1,2.5,3.3,5.3,6.5,8.3c4.1,3.8,7.8,5.7,11.1,5.7c3.1,0,6.6-1.9,10.4-5.8
				c2.3-2.3,4-4.4,5.1-6.2v-0.1c0-0.3,0.1-0.6,0.4-0.6c0.2-0.4,0.4-0.7,0.5-1.1c1-2.5,1.7-4.8,2.1-7c0.3-1.4,0.6-3.4,0.9-6
				c0.2-1.7,0.4-3.4,0.6-4.9l-1.8,0.8L88.6,93.7 M68.5,96.6c0.3-0.2,0.7-0.2,1.3,0l0.3,0.1c0.3,0.1,0.8,0.4,1.3,1.2
				c0.2,0.3,0.3,0.5,0.4,0.5c0.3,0.3,0.8,0.2,1.3-0.1l1.3-1.4c0.5-0.6,0.9-0.8,1.4-0.6c0.4,0.1,0.6,0.3,0.6,0.8
				c0,0.2-0.1,0.4-0.3,0.6c-0.2,0.2-0.4,0.2-0.6,0.2l-1.4,1.6l-0.2,0.1c-0.6,0.4-1.2,0.6-1.7,0.6c-0.5,0-1-0.2-1.3-0.5
				c-0.1-0.1-0.3-0.3-0.7-0.8L69.7,98l-0.3-0.1L68.8,98c-0.5,0-0.7-0.2-0.7-0.8C68.2,97.1,68.3,96.8,68.5,96.6 M77.4,103.9h2.4
				c0.5,0.1,0.7,0.3,0.6,0.8c0,0.3-0.2,0.5-0.5,0.6c-2,2.3-4.4,3.5-7.4,3.8h-0.3c-1.3,0-3.3-0.8-6-2.6l-1-0.6
				c-0.2-0.1-0.3-0.2-0.4-0.4c0-0.1,0-0.3,0-0.4c0-0.4,0.1-0.6,0.6-0.8h0.3l5.1-0.4c0.4,0.1,1,0.3,1.8,0.5c0.7-0.1,1.2-0.2,1.5-0.4
				l0.1-0.1C74.3,103.9,75.4,103.9,77.4,103.9 M74.7,105.3c-0.7,0.4-1.4,0.5-2.1,0.5h-0.1l-0.3,0c-0.6-0.3-1.1-0.5-1.4-0.5l-3.2,0.3
				c0,0-0.1,0-0.2,0c2.5,1.5,4.1,2.2,5,2.1c1.7-0.1,3.3-0.7,4.9-1.8c0.2-0.2,0.5-0.3,0.6-0.5c-0.2,0-0.4,0-0.5,0L74.7,105.3
				 M88.8,87.2c-0.1-0.1-0.2-0.1-0.3-0.3c-3.5-0.5-8-0.5-13.4,0c-0.1,1.4,0.2,2.7,0.8,4c0.5,1,1.1,1.6,1.8,1.8
				c0.9,0.3,4.1,0.3,9.6,0.2L88.8,87.2 M81.9,90.7c-0.3,0-0.6-0.1-0.9-0.4c-0.2-0.3-0.3-0.6-0.3-1s0.1-0.7,0.3-1
				c0.3-0.3,0.6-0.4,0.9-0.4c0.3,0,0.6,0.1,0.8,0.4c0.3,0.3,0.4,0.6,0.4,1s-0.1,0.7-0.4,1C82.5,90.6,82.2,90.7,81.9,90.7 M89.7,71.2
				c0.1-1.6-0.7-3.6-2.5-6.1c-1.9-2.6-3.7-3.9-5.5-4.1c-1.3-0.1-2.5-0.4-3.5-0.8c-0.7,0.8-2.1,1.4-4.3,1.7c-2.7,0.4-6.1,0.4-10.3,0
				c-6-0.6-9,4.5-9,15.2c0,3.8-0.8,6.3-2.4,7.6c-0.3,0.2-0.5,0.3-0.8,0.4l2.2,0.6c0.1,0,0.1,0,0.2-0.1c0.1,0,1.4-0.1,4-0.4
				c3.4-0.2,7.2-0.1,11.3,0.3c0.5,0,0.7,0.4,0.8,1.1c0,0.1,0,0.1,0,0.2l3.9-0.2l0,0c0.1-0.7,0.3-1.1,0.8-1.1
				c4.1-0.4,7.9-0.5,11.3-0.3c1.6,0.1,2.8,0.2,3.8,0.3l2.7-1.2c0.1,0,0.1-0.1,0.1-0.2c0-0.1,0.1-0.3,0.1-0.4c0-0.7-0.4-2.1-1.1-3.9
				C90.1,76.4,89.5,73.5,89.7,71.2 M86.9,81.1c0.2,0,0.4,0.1,0.5,0.3c0.2,0.2,0.2,0.4,0.3,0.6c0,0.2-0.1,0.4-0.3,0.5
				c-0.2,0.2-0.3,0.3-0.5,0.3l-6.3-0.1l-3.9,1.3l-0.3,0c-0.4,0-0.7-0.2-0.8-0.5c-0.1-0.2-0.1-0.4,0-0.6c0.1-0.2,0.2-0.3,0.5-0.4
				l4-1.4L86.9,81.1 M56.2,82.5c-0.1-0.5,0.2-0.8,0.7-0.9c2.8-0.4,4.6-0.6,5.3-0.4l4.6,1.1c0.5,0.1,0.7,0.4,0.6,0.9
				c-0.1,0.4-0.3,0.6-0.8,0.6h-0.2l-4.7-1.1c-0.5-0.1-2.1,0-4.8,0.4C56.6,83.3,56.3,83,56.2,82.5z"/>
			<path class="st4" d="M94.3,82.4C94.2,82.5,94.2,82.5,94.3,82.4c-0.2-0.1-0.4-0.1-0.6-0.1l-0.3-0.1c-0.2,0-0.3,0-0.5,0.1
				c0,0-0.1,0-0.1,0.1c0,0-0.1,0.1-0.1,0.1c-0.1,0.1-0.1,0.2-0.1,0.3c-0.1,0.3-0.1,0.5,0,0.7c0.1,0.1,0.2,0.2,0.4,0.3l0.3,0.1
				c0.2,0.1,0.5,0.1,0.7,0.2c0.9,0.3,1.4,0.8,1.7,1.3c0.4,1.1-0.1,2.8-1.6,5.1c-0.6,1-1,2.7-1.2,4.9c0,0.8-0.1,1.5-0.2,2
				c0,0.3-0.1,0.5-0.1,0.7c-0.2,0.7-0.5,1.3-1,1.7c0,0-0.1,0.1-0.1,0.1c0,0-0.1,0.1-0.2,0.1c-0.2,0.1-0.3,0.2-0.3,0.4
				c0,0.2,0,0.4,0.1,0.5c0.1,0.2,0.3,0.3,0.6,0.3l0.4-0.1c0.3-0.2,0.5-0.4,0.7-0.6c0.5-0.5,0.8-1.1,1.1-1.9c0.2-0.7,0.3-1.8,0.4-3.2
				c0.1-2.1,0.4-3.5,0.9-4.3c1.8-2.8,2.3-4.9,1.8-6.3C96.6,83.7,95.7,82.9,94.3,82.4z"/>
			<path d="M92.1,59.3c-1.4-2.1-3.4-3.8-6-5.3c-2.7-1.5-5.8-2.5-9.2-3c-0.9-0.1-1.6,0.1-2.1,0.7c-1.9-1.6-4.3-2.3-7.2-2.3
				c-5.5,0.1-10.3,2.1-14.5,6c-4.9,4.5-6.7,10-5.5,16.6c0.5,2.8,0.4,4.8-0.3,6.1c-0.5,0.9-0.4,1.8,0.3,2.7c0.1,0.2,0.3,0.7,0.6,1.5
				c0,0.1,0.1,0.2,0.1,0.3c-0.2-0.1-0.4-0.1-0.7-0.1c-0.5,0-1,0.2-1.4,0.5c-0.2,0.1-0.3,0.3-0.5,0.4c-0.4-0.1-0.6,0.1-0.7,0.5
				c-0.1,0.3-0.1,0.5,0.1,0.7c-0.1,0.3-0.1,0.6-0.2,1c-0.1,1.8,0.7,4.1,2.3,6.9c0.4,0.7,0.7,1.9,0.7,3.5c0,1.3,0.2,2.3,0.4,2.8
				c0.3,0.8,1,1.3,1.9,1.6c-6.6,6.9-11,14.9-13.3,24c-1.8,1.5-3.5,3.3-5.1,5.4c-2.3,3.2-4.2,6.9-5.6,11c0.4,0.4,0.7,0.7,1,1.1
				c1.4-4.2,3.2-7.9,5.6-11.1c0-0.1,0.1-0.1,0.1-0.2c0.2-0.3,0.4-0.6,0.7-0.9l1.2-1.4c0.5-0.6,1.1-1.2,1.6-1.7
				c-0.1,0.6-0.2,1.1-0.3,1.7c0,0.1,0,0.2,0,0.4c0,0.4-0.1,0.7-0.3,1c-0.5,3.4-0.7,6.8-0.7,10.5c0,0.4,0,0.7,0,1.1
				c0.1,0.1,0.2,0.2,0.4,0.3c0.4,0.4,0.6,0.9,0.6,1.5s-0.2,1.1-0.6,1.6c-0.1,0.1-0.1,0.1-0.2,0.1c0.1,1.4,0.2,2.7,0.4,4
				c1.1,0.8,2.3,1.5,3.4,2.3c-0.1-0.2-0.1-0.5-0.1-0.8c0-0.6,0.2-1.1,0.6-1.5c0.4-0.4,0.9-0.6,1.5-0.6s1.1,0.2,1.5,0.6
				c0.4,0.4,0.6,0.9,0.6,1.5s-0.2,1.1-0.6,1.6c-0.3,0.3-0.7,0.5-1.2,0.6c0.5,0.3,0.9,0.5,1.4,0.8l4.5-8.1c-0.2-0.1-0.4-0.2-0.6-0.4
				c-0.4-0.4-0.7-1-0.7-1.6c0-0.6,0.2-1.1,0.7-1.5c0.4-0.4,0.9-0.6,1.5-0.6c0.5,0,0.9,0.1,1.2,0.3l0.6-1.1c2.1-4.6,4-9.3,5.7-14.1
				c0.3-0.9,0.6-1.9,0.9-2.8l12.9,24.8l1.9,3.6h-0.1c0.1,0.3,0.3,0.5,0.5,0.7c0.4,0.5,0.8,0.9,1.3,1.2c0.8,0.5,1.6,0.7,2.5,0.6
				c0.1,0,0.2,0,0.3,0c0.8-0.1,1.5-0.3,2.2-0.8c0.7-0.5,1.3-1.2,1.6-2.1l2.6-6.6c0.6-1.7,1.3-3.3,1.9-4.9l3.3-8.7
				c0.1-0.1,0.2-0.2,0.3-0.3l0.8-2c0.3,2.2,0.7,4.4,1.2,6.8c0.4,1.9,0.8,3.6,1.2,5.4c0.1,0,0.2,0,0.3,0c0.6,0,1.1,0.2,1.6,0.6
				c0.4,0.4,0.6,0.9,0.6,1.5s-0.2,1.1-0.6,1.6c-0.2,0.2-0.5,0.4-0.8,0.5c1,3.4,2,6.6,3.2,9.4l8.3-2.9c5.5-2.4,8.1-4.6,7.9-6.8
				c-0.6-8.3-2-15.7-4.2-22.3c0-0.1,0-0.1-0.1-0.2c0.6,0.3,1.1,0.6,1.6,0.9c1.3,1,2.7,2.1,4.1,3.5l0.1,0.1c0.2,0.2,0.4,0.4,0.6,0.7
				c1.4,1.8,3.4,5.5,5.9,11.1c0.1,0.2,0.2,0.5,0.3,0.7c0.4-0.4,0.7-0.7,1-1.1c-0.1-0.1-0.1-0.3-0.2-0.4c-2.9-6.4-5.1-10.4-6.7-11.9
				l-0.1-0.2c-1.3-1.3-2.7-2.5-4.3-3.7c-0.8-0.6-1.8-1.1-3-1.5c-1.7-4.5-3.7-8.6-6.2-12.3c-2.2-3.3-4.4-5.7-6.6-7.3
				c-0.5-0.4-1-0.6-1.3-0.8c-0.2,0.2-0.4,0.4-0.7,0.6l-0.4,0.1c-0.3,0-0.5-0.1-0.6-0.3c-0.1-0.1-0.2-0.3-0.1-0.5
				c0-0.2,0.1-0.3,0.3-0.4c0.1,0,0.1-0.1,0.2-0.1c0.2-0.8,0.4-1.7,0.6-2.4c0.3-1.4,0.6-3.5,0.8-6.1c0.2-2.1,0.5-4,0.8-5.8
				c0-0.2,0.1-0.5,0.1-0.7c0.1-0.3,0.1-0.5,0.2-0.8c-0.2-0.1-0.4-0.1-0.7-0.2L93,83.5c-0.2-0.1-0.3-0.1-0.4-0.3
				c-0.1-0.2-0.2-0.4,0-0.7c0-0.1,0.1-0.2,0.1-0.3c0,0,0.1-0.1,0.1-0.1c0,0,0.1,0,0.1-0.1c0.2-0.1,0.3-0.1,0.5-0.1l0.3,0.1
				c0.2,0,0.3,0.1,0.5,0.1c0,0,0.1,0,0.1,0c0-0.1,0-0.2,0.1-0.4c0.3-0.8,0.3-1.5,0-2.3c-0.6-1.8-0.8-3.5-0.5-5.2
				c0.5-1.8,0.9-3.2,1.1-4.1C95.8,67.1,94.9,63.4,92.1,59.3 M87.2,65.2c1.8,2.5,2.6,4.5,2.5,6.1c-0.2,2.3,0.4,5.2,1.8,8.7
				c0.7,1.9,1.1,3.2,1.1,3.9c0,0.1-0.1,0.3-0.1,0.4c0,0.1,0,0.2-0.1,0.2l-2.7,1.2c-0.9-0.1-2.2-0.3-3.8-0.3
				c-3.4-0.2-7.2-0.1-11.3,0.3c-0.5,0-0.7,0.4-0.8,1.1l0,0l-3.9,0.2c0-0.1,0-0.1,0-0.2c-0.1-0.7-0.3-1.1-0.8-1.1
				c-4.1-0.4-7.9-0.5-11.3-0.3c-2.6,0.3-3.9,0.4-4,0.4c-0.1,0-0.1,0-0.2,0.1l-2.2-0.6c0.3-0.1,0.5-0.2,0.8-0.4
				c1.6-1.2,2.4-3.7,2.4-7.6c0-10.7,3-15.8,9-15.2c4.2,0.4,7.6,0.4,10.3,0c2.1-0.3,3.5-0.9,4.3-1.7c1,0.4,2.2,0.7,3.5,0.8
				C83.5,61.3,85.3,62.6,87.2,65.2 M88.6,86.9c0.1,0.1,0.2,0.2,0.3,0.3l-1.4,5.7c-5.4,0.2-8.6,0.1-9.6-0.2c-0.7-0.2-1.3-0.8-1.8-1.8
				c-0.6-1.3-0.9-2.6-0.8-4C80.6,86.4,85.1,86.5,88.6,86.9 M87.9,94.2c0.4,0,0.6-0.2,0.7-0.5l1.8-6.8l1.8-0.8
				c-0.2,1.6-0.4,3.2-0.6,4.9c-0.3,2.6-0.6,4.6-0.9,6c-0.4,2.2-1.1,4.5-2.1,7c-0.1,0.3-0.3,0.7-0.5,1.1c-0.3,0.1-0.4,0.3-0.4,0.6
				v0.1c-1.1,1.8-2.8,3.8-5.1,6.2c-3.9,3.8-7.4,5.8-10.4,5.8c-3.3,0-7-1.9-11.1-5.7c-3.2-3-5.4-5.8-6.5-8.3c-0.1-0.3-0.3-0.7-0.4-1
				c0,0,0-0.1,0-0.1c-1.3-4-2.3-8.3-3-12.8c-0.2-1.4-0.4-2.5-0.5-3.3l2.8,0.8l1.7,6.6c0.1,0.3,0.3,0.5,0.6,0.5
				c1.3,0.1,3.3,0.2,5.9,0.2c2.4,0,4-0.1,4.7-0.4c1.4-0.5,2.5-1.6,3.1-3.5c0.3-0.8,0.4-1.6,0.5-2.3l3.9-0.2c0.1,0.8,0.3,1.6,0.5,2.5
				c0.6,1.9,1.7,3,3.1,3.5c0.8,0.3,2.3,0.4,4.8,0.4C84.7,94.4,86.6,94.4,87.9,94.2 M47.8,84.1l-0.3,0C47.7,84,47.8,84,47.8,84.1
				L47.8,84.1c0.1,0,0.2,0,0.3,0.1L47.8,84.1 M46.5,86.5c0-0.5,0-0.9,0-1.3l0.5,0.2l2.2,0.6c0.1,1,0.3,2.3,0.5,4
				c0.6,3.7,1.4,7.3,2.3,10.7c-0.1-0.1-0.3-0.2-0.4-0.3c0,0,0-0.1,0-0.1c0.1-0.5-0.1-0.7-0.5-0.8c-0.8-0.1-1.3-0.5-1.5-1
				c-0.2-0.4-0.3-1.1-0.3-2.3c0-1.9-0.3-3.3-0.8-4.2c-1.2-2-1.8-3.8-2-5.2C46.6,86.7,46.6,86.6,46.5,86.5 M48.8,84
				c0,0,0.1-0.1,0.1-0.2v0.1c0,0.1,0,0.2,0,0.3l0,0.3l-0.7-0.2C48.5,84.3,48.7,84.2,48.8,84 M56.4,92.9L54.9,87
				c3.5-0.5,8.1-0.6,13.7-0.1c0.1,1.4-0.2,2.7-0.8,4c-0.5,1-1.1,1.6-1.9,1.8C65,93,61.8,93.1,56.4,92.9 M43.3,122.7
				c-0.1,0.2-0.2,0.3-0.4,0.5c-0.4,0.4-1,0.6-1.5,0.6c-0.2,0-0.3,0-0.5-0.1C41.6,123.3,42.4,123,43.3,122.7 M54.2,123.2
				c-0.4-0.4-0.6-0.8-0.7-1.3l2.6,0l0.8,1.5c-0.4,0.2-0.8,0.4-1.3,0.4C55.1,123.8,54.6,123.6,54.2,123.2 M59.3,112.2
				c0.3,0.3,0.6,0.6,0.9,0.9c4.4,4,8.4,6,12,6c3.4,0,7.1-2,11.3-6.1c1.7-1.7,3.1-3.3,4.2-4.7c-0.1,5.4,0.1,9.4,0.5,12.2
				c0.1,1.6,0.2,3.3,0.3,5.1l-1.8,4.9c-4.9,3.7-9.8,5.3-14.7,5.1c-2.9-0.2-5.8-1-8.5-2.6l-5.9-11.2
				C58.9,117.2,59.5,114.1,59.3,112.2 M46.3,128.8c0-0.6,0.2-1.1,0.7-1.5c0.4-0.4,0.9-0.7,1.5-0.7c0.6,0,1.1,0.2,1.5,0.7
				c0.4,0.4,0.6,0.9,0.6,1.5c0,0.6-0.2,1.1-0.6,1.5c-0.4,0.4-0.9,0.6-1.5,0.6s-1.1-0.2-1.5-0.6C46.6,130,46.3,129.4,46.3,128.8
				 M41.3,133.9c0.6,0,1.1,0.2,1.5,0.7c0.4,0.4,0.6,0.9,0.6,1.5s-0.2,1.1-0.6,1.6c-0.4,0.4-1,0.6-1.5,0.6s-1.1-0.2-1.5-0.6
				c-0.4-0.4-0.6-0.9-0.6-1.6s0.2-1.1,0.6-1.5C40.2,134.1,40.7,133.9,41.3,133.9 M64.5,135c2.4,1.1,4.9,1.7,7.3,1.8
				c4.7,0.3,9.3-1.1,13.9-4.1l-7,18.2c-0.5,1.2-1.5,1.9-2.8,1.9c-1.4,0.1-2.4-0.5-3-1.7L64.5,135 M89.1,106.1c0,0,0.1-0.1,0.1-0.2
				c0,0.1-0.1,0.3-0.1,0.4C89.1,106.3,89.1,106.2,89.1,106.1 M96.9,120.8c1.1,0,2.3,0,3.6,0.1c0.1,0,0.3,0,0.4,0
				c0.1,0.2,0.1,0.4,0.1,0.7c0,0.6-0.2,1.1-0.6,1.5c-0.4,0.4-0.9,0.6-1.5,0.6c-0.6,0-1.1-0.2-1.5-0.6c-0.4-0.4-0.7-0.9-0.7-1.5
				C96.8,121.3,96.8,121.1,96.9,120.8 M93.3,130.4c-0.4,0.4-1,0.6-1.6,0.6s-1.1-0.2-1.5-0.6c-0.4-0.4-0.6-0.9-0.6-1.5
				c0-0.6,0.2-1.1,0.6-1.5c0.4-0.4,0.9-0.7,1.5-0.7c0.6,0,1.1,0.2,1.6,0.7c0.4,0.4,0.6,0.9,0.6,1.5C93.8,129.4,93.7,130,93.3,130.4
				 M100.4,134.5c0.4,0.4,0.6,0.9,0.6,1.5c0,0.6-0.2,1.1-0.6,1.6c-0.4,0.4-0.9,0.6-1.5,0.6c-0.6,0-1.1-0.2-1.5-0.6
				c-0.4-0.4-0.7-0.9-0.7-1.6s0.2-1.1,0.7-1.5c0.4-0.4,0.9-0.7,1.5-0.7C99.5,133.9,100,134.1,100.4,134.5 M88.9,128.5
				c0,0,0,0.1,0,0.1c0,0,0,0-0.1,0L88.9,128.5 M107.7,130.4c-0.4,0.4-0.9,0.6-1.6,0.6c-0.6,0-1.1-0.2-1.5-0.6
				c-0.4-0.4-0.7-0.9-0.7-1.5c0-0.6,0.2-1.1,0.7-1.5c0.4-0.4,0.9-0.7,1.5-0.7c0.6,0,1.1,0.2,1.6,0.7c0.4,0.4,0.6,0.9,0.6,1.5
				C108.3,129.4,108,130,107.7,130.4 M104.6,144.8c-0.4-0.4-0.7-1-0.7-1.6c0-0.6,0.2-1.1,0.7-1.5c0.4-0.4,0.9-0.6,1.5-0.6
				c0.6,0,1.1,0.2,1.6,0.6c0.4,0.4,0.6,0.9,0.6,1.5s-0.2,1.1-0.6,1.6c-0.4,0.4-0.9,0.6-1.6,0.6C105.5,145.4,105,145.2,104.6,144.8
				 M98.9,152.6c-0.6,0-1.1-0.2-1.5-0.6c-0.4-0.4-0.7-0.9-0.7-1.6s0.2-1.1,0.7-1.5c0.4-0.4,0.9-0.6,1.5-0.6c0.6,0,1.1,0.2,1.5,0.6
				c0.4,0.4,0.6,0.9,0.6,1.5c0,0.6-0.2,1.1-0.6,1.6C100,152.4,99.5,152.6,98.9,152.6 M61.3,90.8c0.3,0.3,0.6,0.4,0.9,0.4
				c0.4,0,0.7-0.1,0.9-0.4c0.3-0.3,0.4-0.6,0.4-1c0-0.4-0.1-0.7-0.4-1c-0.2-0.3-0.5-0.4-0.9-0.4c-0.3,0-0.6,0.1-0.9,0.4
				c-0.2,0.3-0.3,0.6-0.3,1C60.9,90.2,61,90.6,61.3,90.8 M79.8,103.9h-2.4c-2,0-3.1,0-3.2,0.1l-0.1,0.1c-0.3,0.2-0.8,0.3-1.5,0.4
				c-0.8-0.3-1.3-0.5-1.8-0.5l-5.1,0.4h-0.3c-0.4,0.1-0.6,0.4-0.6,0.8c0,0.2,0,0.3,0,0.4c0.1,0.2,0.2,0.3,0.4,0.4l1,0.6
				c2.7,1.7,4.7,2.6,6,2.6h0.3c3-0.2,5.4-1.5,7.4-3.8c0.3,0,0.4-0.2,0.5-0.6C80.5,104.3,80.3,104,79.8,103.9 M72.6,105.8
				c0.7,0,1.4-0.2,2.1-0.5l2.8,0c0.2,0,0.4,0,0.5,0c-0.2,0.2-0.4,0.3-0.6,0.5c-1.5,1.1-3.2,1.7-4.9,1.8c-0.9,0.1-2.6-0.6-5-2.1
				c0.1,0,0.1,0,0.2,0l3.2-0.3c0.3,0,0.8,0.2,1.4,0.5L72.6,105.8L72.6,105.8 M69.8,96.5c-0.6-0.2-1-0.2-1.3,0
				c-0.2,0.2-0.3,0.5-0.3,0.7c0,0.5,0.2,0.8,0.7,0.8l0.5-0.2l0.3,0.1l0.5,0.7c0.4,0.5,0.6,0.7,0.7,0.8c0.4,0.3,0.8,0.5,1.3,0.5
				c0.5,0,1-0.2,1.7-0.6l0.2-0.1l1.4-1.6c0.2,0.1,0.4,0,0.6-0.2c0.2-0.1,0.3-0.3,0.3-0.6c0-0.4-0.2-0.7-0.6-0.8
				c-0.5-0.2-1,0-1.4,0.6l-1.3,1.4c-0.5,0.3-1,0.4-1.3,0.1c-0.1,0-0.2-0.2-0.4-0.5c-0.6-0.7-1-1.1-1.3-1.2L69.8,96.5 M81,90.3
				c0.3,0.3,0.6,0.4,0.9,0.4c0.3,0,0.6-0.1,0.8-0.4c0.3-0.3,0.4-0.6,0.4-1s-0.1-0.7-0.4-1c-0.2-0.3-0.5-0.4-0.8-0.4
				c-0.3,0-0.6,0.1-0.9,0.4c-0.2,0.3-0.3,0.6-0.3,1S80.8,90,81,90.3 M56.9,81.6c-0.5,0.1-0.8,0.4-0.7,0.9c0.1,0.5,0.4,0.8,0.9,0.7
				c2.7-0.4,4.2-0.5,4.8-0.4l4.7,1.1h0.2c0.4,0,0.7-0.2,0.8-0.6c0.1-0.5-0.1-0.8-0.6-0.9l-4.6-1.1C61.5,81,59.7,81.2,56.9,81.6
				 M87.4,81.3c-0.1-0.2-0.3-0.3-0.5-0.3l-6.7-0.2l-4,1.4c-0.2,0.1-0.4,0.2-0.5,0.4c-0.1,0.2-0.1,0.4,0,0.6c0.1,0.4,0.3,0.5,0.8,0.5
				l0.3,0l3.9-1.3l6.3,0.1c0.2,0,0.4-0.1,0.5-0.3c0.2-0.1,0.2-0.3,0.3-0.5C87.7,81.7,87.6,81.5,87.4,81.3z"/>
		</g>
	</g>
</g>
</svg>
