<?xml version="1.0" encoding="utf-8"?>
<!-- Generator: Adobe Illustrator 23.0.3, SVG Export Plug-In . SVG Version: 6.00 Build 0)  -->
<svg version="1.1" id="Layer_1" xmlns="http://www.w3.org/2000/svg" xmlns:xlink="http://www.w3.org/1999/xlink" x="0px" y="0px"
	 viewBox="0 0 145 160" style="enable-background:new 0 0 145 160;" xml:space="preserve">
<style type="text/css">
	.st0{fill:#FFFFFF;}
	.st1{fill:#504B46;}
	.st2{fill:#FBB348;}
	.st3{fill:#FEFEFE;}
	.st4{fill:none;stroke:#000000;stroke-width:1.6;stroke-linecap:round;stroke-linejoin:round;}
	.st5{fill:none;stroke:#000000;stroke-width:1.4;stroke-linecap:round;}
	.st6{fill:none;stroke:#000000;stroke-width:1.4;stroke-linejoin:round;}
	.st7{fill:none;stroke:#000000;stroke-width:1.35;stroke-linecap:round;stroke-linejoin:round;}
	.st8{fill:none;stroke:#000000;stroke-width:1.4;stroke-linecap:round;stroke-linejoin:round;}
	.st9{fill:none;stroke:#231F20;stroke-width:1.4;}
	.st10{fill:none;stroke:#000000;stroke-width:1.45;}
</style>
<g transform="matrix( 1, 0, 0, 1, 7,28.05) ">
	<g>
		<g id="Layer1_0_MEMBER_0_FILL">
			<path class="st0" d="M131,66.5c0-18.1-6.4-33.5-19.2-46.3C99,7.4,83.6,1,65.5,1S32,7.4,19.2,20.2C6.4,33,0,48.4,0,66.5
				s6.4,33.5,19.2,46.3C32,125.7,47.4,132,65.5,132s33.5-6.4,46.3-19.2C124.6,100.1,131,84.6,131,66.5z"/>
		</g>
	</g>
</g>
<g transform="matrix( 1, 0, 0, 1, 0,0) ">
	<g>
		<g id="Layer0_0_FILL">
			<path class="st1" d="M44.3,146.4c-0.5,0-1,0-1.5,0c-0.1,1.8-0.3,4-0.4,6.6c9,4.7,19,7.1,30,7.1c12.4,0,23.6-3,33.4-9
				c-0.1-1.6-0.2-2.9-0.4-3.8c-0.5,0.1-0.9,0.1-1.4,0.2c-4.8,0.5-8.4,0.5-10.8,0.1c-4.1-0.7-6.5-1.3-7.4-1.8c-2-1-2.9-2.9-2.8-5.8
				c0-2,0.1-4.2,0.2-6.4c0,0.1-0.1,0.1-0.2,0.2l-10.8,4.3c0,0-0.1,0-0.2,0c-1.7-0.7-3.6-2.1-5.5-4.3c-0.1-0.1-1.1-1.4-3.1-3.9
				c0.4,2.6,0.6,4.4,0.7,5.1c0.5,6.4-4.3,10.1-14.4,11.1c-0.4,0-0.8,0.1-1.2,0.1L44.3,146.4z"/>
			<path class="st2" d="M42.8,146.4c0.5,0,1,0,1.5,0c-0.9,0-1.7,0-2.6-0.1C42.1,146.4,42.5,146.5,42.8,146.4 M73.6,56.5
				c-0.2,0.1-0.5,0.2-1,0.2c-3.4,0-6.7,4.3-10.1,12.9c-0.5,1.2-0.9,2.4-1.3,3.6l3.5-2.7c2.5-1.8,5.3-3.8,8.3-5.9
				c1.5-1.1,3.1-2.2,4.8-3.4l0.1-0.5c0-0.2,0-0.5-0.1-0.7h0.1c-0.1-0.6-0.4-1.2-0.8-1.8c-0.7-0.9-1.7-1.5-3.1-1.8H73.6 M72.6,56.6
				c0.5,0,0.8,0,1-0.2c0.2-0.1,0.1-0.2-0.1-0.4c-0.4-0.3-1.3-0.6-2.6-0.7c-3.8-0.3-7.3,0.9-10.5,3.5c-7.5,6.2-12.5,13.2-15,21.1
				c-1.1,3.6-2.5,12.1-4,25.5c-0.7,6.3-1.6,12.7-2.7,19.3c-0.5,2.9-1,5.8-1.5,8.8c-0.9,4.9-1.6,8.9-2.3,12c0.2,0,0.4,0.1,0.5,0.1
				c0.1,0,0.2,0,0.3,0l6.2,0.6c0.9,0.1,1.7,0.1,2.6,0.1l4.4-0.1c0.4,0,0.8-0.1,1.2-0.1c10-0.9,14.8-4.6,14.4-11.1
				c-0.1-0.8-0.3-2.5-0.7-5.1c-0.5-3.7-1.4-9.1-2.5-16.3c-0.1-0.5-0.2-1-0.3-1.4c-1.8-11.4-2.7-17.7-2.8-18.9
				c-0.2-2.6-0.1-5.2,0.2-8l-0.6,0.1l0.6-0.1c0.5-3.9,1.4-8,2.8-12.2c0.4-1.2,0.8-2.4,1.3-3.6C65.8,61,69.2,56.6,72.6,56.6
				 M95.4,87.5h0.3c0.8,0.2,1.5,0.6,1.9,1.3c0.8,1.5,0.4,3.9-1.2,7.4c-0.4,1-0.7,2.2-0.7,3.6c0,0.9-0.1,1.5-0.2,1.9
				c-0.2,0.7-0.5,1.3-0.9,1.8c-0.5,0.5-1,0.8-1.4,0.8c-0.2,0-0.4,0-0.6-0.1c-1.2,2.1-3.4,5.5-6.5,10c-1,0.9-1.6,3-1.8,6.1
				c-0.2,1.7-0.3,3.8-0.4,6.5c-0.2,2.3-0.4,4.6-0.6,6.8c-0.1,2.3-0.2,4.4-0.2,6.4c-0.1,2.9,0.9,4.8,2.8,5.8c0.9,0.4,3.3,1,7.4,1.8
				c2.4,0.4,5.9,0.4,10.8-0.1c0.5-0.1,0.9-0.1,1.4-0.2c1.9-0.2,3.6-0.4,5.1-0.7c-0.8-8-1.5-15.1-2.3-21.3
				c-1.4-12.9-2.7-22.1-3.9-27.6c-2.8-13.6-5.6-22.9-8.3-27.9C91.6,61.4,84.8,57,75.7,56.6c-0.3,0-0.6,0-0.6,0.1
				c-0.3-0.1-0.7-0.2-1.1-0.3c1.4,0.3,2.4,0.9,3.1,1.8c0.4,0.6,0.7,1.2,0.8,1.8c0.9,0.7,1.8,1.4,2.8,2c0.1,0,0.1,0.1,0.1,0.1
				c5.6,3.3,9.3,6.5,11.3,9.6c1.8,2.9,2.6,6.6,2.4,11.3c0,1.8-0.1,3.4-0.1,4.9C94.5,87.6,94.9,87.5,95.4,87.5z"/>
			<path class="st3" d="M60.9,112.2c0.1,0.5,0.2,1,0.3,1.4c1.1,7.2,2,12.6,2.5,16.3c2,2.5,3,3.7,3.1,3.9c1.9,2.1,3.8,3.6,5.5,4.3
				c0.1,0,0.1,0,0.2,0l10.8-4.3c0.1-0.1,0.1-0.1,0.2-0.2c0.2-2.2,0.4-4.4,0.6-6.8c0.1-2.7,0.2-4.9,0.4-6.5c0.3-3.1,0.9-5.2,1.8-6.1
				c3.1-4.5,5.3-7.9,6.5-10c-0.3-0.1-0.5-0.2-0.6-0.4c-0.1-0.1-0.2-0.2-0.3-0.4c-1.3,4.3-3.4,8-6.2,11.1c-3.5,3.9-7.3,5.8-11.3,5.6
				C70.3,119.8,65.9,117.2,60.9,112.2 M77.8,60c0.1,0.2,0.1,0.5,0.1,0.7C77.8,60.5,77.8,60.3,77.8,60L77.8,60 M93.2,89.5
				c0.2-0.8,0.6-1.3,1-1.7c0-1.5,0.1-3.1,0.1-4.9c0.2-4.6-0.6-8.4-2.4-11.3c-1.9-3.1-5.7-6.3-11.3-9.6c0,0-0.1-0.1-0.1-0.1
				c-1-0.6-1.9-1.2-2.8-2c0,0.2,0,0.5,0,0.7l-0.1,0.5c-1.6,1.2-3.2,2.3-4.8,3.4c-3,2.1-5.8,4.1-8.3,5.9l-3.5,2.7
				c-1.4,4.2-2.3,8.3-2.8,12.2l4.9-0.4c1.4-0.1,3,0.3,4.7,1.3c-1.7-0.9-3.3-1.3-4.7-1.3l-4.9,0.4c-0.3,2.8-0.4,5.4-0.2,8
				c0.1,1.2,1,7.5,2.8,18.9c5,4.9,9.4,7.5,13.3,7.8c4.1,0.2,7.8-1.7,11.3-5.6c2.8-3.1,4.9-6.8,6.2-11.1c-0.2-0.3-0.2-0.7-0.3-1.3
				c0-0.5,0.2-1.8,0.4-3.8l0.4-2.9C92.7,92.3,92.9,90.4,93.2,89.5 M83.8,84.6c0.8,0,2.7,0.3,5.7,0.9C86.6,85,84.7,84.7,83.8,84.6
				c-2.4-0.1-4.3,0.4-5.4,1.5C79.6,85,81.4,84.5,83.8,84.6 M84.4,89.3c0.4,0,0.8,0.1,1.2,0.4c0.3,0.3,0.5,0.6,0.5,1
				c0,0.4-0.2,0.8-0.5,1.1c-0.3,0.3-0.7,0.4-1.2,0.4c-0.4,0-0.8-0.1-1.1-0.4c-0.3-0.3-0.4-0.7-0.4-1.1c0-0.4,0.1-0.7,0.4-1
				C83.7,89.4,84,89.3,84.4,89.3 M64.8,90.7c0,0.4-0.2,0.8-0.4,1.1c-0.3,0.3-0.7,0.4-1.1,0.4c-0.4,0-0.8-0.1-1.1-0.4
				c-0.3-0.3-0.4-0.7-0.4-1.1c0-0.4,0.1-0.7,0.4-1c0.3-0.3,0.7-0.4,1.1-0.4c0.4,0,0.8,0.1,1.1,0.4C64.6,90,64.8,90.3,64.8,90.7
				 M78.4,108.8c-1.9,0.6-3.1,0.9-3.6,1c-1.3,0.1-2.7-0.2-4.2-0.9c1.5,0.7,2.9,1,4.2,0.9C75.3,109.8,76.5,109.4,78.4,108.8
				 M71.6,99.1c1.7,1.8,3.2,1.8,4.6,0l1.8,0.4l-1.8-0.4C74.8,100.9,73.2,100.9,71.6,99.1l-1.3,0.2L71.6,99.1 M77.8,106.3
				c-1.2-0.4-2.1-0.3-2.7,0.2c-0.6,0.4-1.3,0.5-2.2,0.1c-1-0.4-1.6-0.5-1.9-0.3c-1.3,0.5-2.5,0.5-3.6,0c1.1,0.5,2.3,0.5,3.6,0
				c0.3-0.1,1,0,1.9,0.3c0.9,0.4,1.6,0.3,2.2-0.1C75.8,106,76.6,106,77.8,106.3c1.4,0.4,2.5,0.5,3.2,0.3
				C80.3,106.8,79.2,106.7,77.8,106.3 M95.4,88.9c-0.4,0-0.8,0.6-1.1,1.8c-0.2,0.8-0.4,2.4-0.6,4.7c-0.1,1.2-0.3,2.8-0.6,5
				c-0.2,1.6-0.2,2.4,0.1,2.4c0.1,0,0.2-0.1,0.3-0.3c0.4-0.5,0.7-1.5,0.7-2.9c0-1.6,0.3-3,0.8-4.1c0.9-2,1.4-3.6,1.5-4.8
				C96.6,89.7,96.2,89,95.4,88.9L95.4,88.9z"/>
			<path d="M64.3,91.7c0.3-0.3,0.4-0.7,0.4-1.1c0-0.4-0.2-0.7-0.4-1c-0.3-0.3-0.7-0.4-1.1-0.4c-0.4,0-0.8,0.1-1.1,0.4
				c-0.3,0.3-0.4,0.6-0.4,1c0,0.4,0.1,0.8,0.4,1.1c0.3,0.3,0.7,0.4,1.1,0.4C63.6,92.1,64,92,64.3,91.7 M85.6,89.7
				c-0.3-0.3-0.7-0.4-1.2-0.4c-0.4,0-0.8,0.1-1.1,0.4c-0.3,0.3-0.4,0.6-0.4,1c0,0.4,0.1,0.8,0.4,1.1c0.3,0.3,0.7,0.4,1.1,0.4
				c0.4,0,0.8-0.1,1.2-0.4c0.3-0.3,0.5-0.7,0.5-1.1C86.1,90.3,85.9,90,85.6,89.7 M94.2,87.8c-0.4,0.3-0.8,0.9-1,1.7
				c-0.3,0.9-0.5,2.8-0.8,5.8l-0.4,2.9c-0.2,2-0.4,3.3-0.4,3.8c0,0.5,0.1,0.9,0.3,1.3c0.1,0.2,0.1,0.3,0.3,0.4
				c0.2,0.2,0.4,0.4,0.6,0.4c0.2,0.1,0.4,0.1,0.6,0.1c0.4,0,0.9-0.3,1.4-0.8c0.4-0.5,0.7-1.2,0.9-1.8c0.1-0.4,0.1-1,0.2-1.9
				c0-1.4,0.2-2.6,0.7-3.6c1.6-3.5,1.9-5.9,1.2-7.4c-0.4-0.7-1-1.1-1.9-1.3h-0.3C94.9,87.5,94.5,87.6,94.2,87.8 M94.3,90.7
				c0.3-1.2,0.6-1.8,1.1-1.8h0.1c0.7,0.1,1.1,0.7,1.1,1.9c-0.1,1.2-0.6,2.8-1.5,4.8c-0.5,1.1-0.8,2.5-0.8,4.1c0,1.4-0.3,2.4-0.7,2.9
				c-0.1,0.2-0.3,0.3-0.3,0.3c-0.3,0-0.3-0.8-0.1-2.4c0.3-2.2,0.5-3.8,0.6-5C94,93.1,94.2,91.5,94.3,90.7z"/>
		</g>
	</g>
	<g>
		<path id="Layer0_0_1_STROKES" class="st4" d="M78.4,86.2c1.2-1.2,3-1.7,5.4-1.5c0.8,0,2.7,0.3,5.7,0.9 M58.4,85.3l4.8-0.4
			c1.4-0.1,3,0.3,4.7,1.3 M58.4,85.3l-0.6,0.1"/>
	</g>
	<g>
		<path id="Layer0_0_2_STROKES" class="st5" d="M94.2,87.9c0-1.5,0.1-3.2,0.1-4.9c0.2-4.6-0.6-8.4-2.4-11.3
			c-1.9-3.1-5.7-6.3-11.3-9.6c0,0-0.1,0-0.1-0.1c-1-0.6-1.9-1.2-2.8-2 M75.1,56.8c0.1-0.1,0.3-0.2,0.6-0.2
			c9.1,0.4,15.9,4.8,20.5,13.1c2.7,5.1,5.5,14.4,8.3,27.9c1.2,5.5,2.5,14.7,3.9,27.6 M77.8,60L77.8,60 M105.6,147.3
			c-0.5,0.1-0.9,0.1-1.4,0.2c-4.8,0.5-8.4,0.5-10.8,0.1c-4.1-0.7-6.5-1.3-7.4-1.8c-2-1-2.9-2.9-2.8-5.8c0-2,0.1-4.2,0.2-6.4
			c0.1-2.2,0.3-4.4,0.6-6.8c0.1-2.7,0.2-4.9,0.4-6.5c0.3-3.1,0.9-5.2,1.8-6.1c3.1-4.5,5.3-7.9,6.5-10 M108.4,125.3
			c0.7,6.2,1.5,13.3,2.2,21.3c-1.5,0.3-3.2,0.5-5.1,0.7"/>
	</g>
	<g>
		<path id="Layer0_0_3_STROKES" class="st6" d="M77.8,60c0,0.2,0,0.5,0,0.7l-0.1,0.4c-1.6,1.2-3.2,2.3-4.8,3.4
			c-3,2.1-5.8,4.1-8.3,5.9l-3.5,2.7c-1.4,4.2-2.4,8.3-2.8,12.2 M61.2,73.1c0.4-1.2,0.8-2.4,1.3-3.6c3.4-8.6,6.7-12.9,10.1-12.9
			c0.5,0,0.8,0,1-0.1c0.2-0.1,0.1-0.2-0.1-0.4c-0.4-0.3-1.3-0.6-2.6-0.7c-3.8-0.3-7.3,0.9-10.5,3.5c-7.5,6.2-12.5,13.2-15,21.1
			c-1.1,3.6-2.5,12.1-4,25.5c-0.7,6.3-1.6,12.7-2.7,19.4c-0.5,2.9-1,5.8-1.5,8.7c-0.9,4.9-1.6,8.9-2.3,12 M35.6,145.8l6.2,0.6
			c0.9,0,1.7,0.1,2.6,0.1l4.4-0.2c0.4,0,0.8-0.1,1.2-0.1c10-0.9,14.8-4.6,14.4-11.1c-0.1-0.8-0.3-2.5-0.7-5.1
			c-0.5-3.7-1.4-9.1-2.5-16.3c-0.1-0.5-0.2-1-0.2-1.4c-1.8-11.4-2.7-17.7-2.8-18.9c-0.2-2.6-0.1-5.2,0.2-8 M73.6,56.5h0.4 M77.8,60
			c-0.1-0.6-0.4-1.2-0.8-1.8c-0.7-0.9-1.7-1.5-3.1-1.7"/>
	</g>
	<g>
		<path id="Layer0_0_4_STROKES" class="st7" d="M78.4,108.8c-1.9,0.6-3.1,0.9-3.6,1c-1.3,0.1-2.7-0.2-4.2-0.9 M81,106.6
			c-0.7,0.2-1.8,0.1-3.2-0.3c-1.2-0.4-2.1-0.3-2.7,0.2c-0.6,0.4-1.3,0.5-2.2,0.1c-1-0.4-1.6-0.5-1.9-0.3c-1.3,0.5-2.5,0.5-3.6,0"/>
	</g>
	<g>
		<path id="Layer0_0_5_STROKES" class="st8" d="M70.3,99.3l1.3-0.2c1.7,1.8,3.2,1.8,4.6,0l1.8,0.4 M60.9,112.3
			c5,4.9,9.4,7.5,13.3,7.7c4.1,0.2,7.8-1.7,11.3-5.6c2.8-3.1,4.9-6.8,6.2-11.1"/>
	</g>
	<g>
		<path id="Layer0_0_6_STROKES" class="st9" d="M42.5,153c0.1-2.6,0.3-4.8,0.4-6.5 M105.6,147.3c0.1,0.9,0.3,2.1,0.4,3.8
			 M83.4,133.6c-0.1,0.1-0.1,0.1-0.2,0.2l-10.8,4.4c0,0-0.1-0.1-0.2-0.1c-1.7-0.7-3.6-2.1-5.5-4.3c-0.1-0.1-1.1-1.4-3.1-3.9"/>
	</g>
	<g>
		<path id="Layer0_0_7_STROKES" class="st10" d="M108.4,125.3c5.2,0.1,8.7,0.8,10.3,1.9c1.5,1.1,2.8,4.3,3.9,9.7 M26.3,141.1
			c1.2-7.1,2.4-11.3,3.6-12.6c1.8-1.8,4.7-3,8.6-3.5"/>
	</g>
</g>
</svg>
