<?xml version="1.0" encoding="utf-8"?>
<!-- Generator: Adobe Illustrator 23.0.3, SVG Export Plug-In . SVG Version: 6.00 Build 0)  -->
<svg version="1.1" id="Layer_1" xmlns="http://www.w3.org/2000/svg" xmlns:xlink="http://www.w3.org/1999/xlink" x="0px" y="0px"
	 viewBox="0 0 145 160" style="enable-background:new 0 0 145 160;" xml:space="preserve">
<style type="text/css">
	.st0{fill:#FFFFFF;}
	.st1{fill:#FEFEFE;}
	.st2{fill:#FBB348;}
	.st3{fill:none;stroke:#000000;stroke-width:1.6;stroke-linecap:round;stroke-linejoin:round;}
	.st4{fill:none;stroke:#000000;stroke-width:1.45;}
	.st5{fill:none;stroke:#000000;stroke-width:1.45;stroke-linecap:round;stroke-linejoin:round;}
</style>
<g transform="matrix( 1, 0, 0, 1, 7,28) ">
	<g>
		<g id="Layer1_0_MEMBER_0_FILL">
			<path class="st0" d="M131,66.5c0-18.1-6.4-33.5-19.2-46.3C99,7.4,83.6,1,65.5,1S32,7.4,19.2,20.2C6.4,33,0,48.4,0,66.5
				s6.4,33.5,19.2,46.3C32,125.7,47.4,132,65.5,132s33.5-6.4,46.3-19.2C124.6,100.1,131,84.6,131,66.5z"/>
		</g>
	</g>
</g>
<g transform="matrix( 1, 0, 0, 1, 0,0) ">
	<g>
		<g id="Layer0_0_FILL">
			<path class="st1" d="M84.1,105.5c-0.3,0.5-0.5,0.9-0.8,1.3l0.3,0C83.8,106.3,83.9,105.9,84.1,105.5 M73.8,107.3
				c1.4-0.8,2.9-2,4.5-3.8c-3.1,0.3-5.7,0.4-7.6,0.3c-0.9,0-2.4,0-4.6,0c-1.2,0-2.1,0-2.6-0.2c1.9,1.9,3.4,3.2,4.7,3.9L73.8,107.3
				 M86.1,88.1v-7.5c-2.9-2.7-6-5.4-9.5-8c-6.9-5.3-11.8-7.9-14.8-7.6c-1,0.1-1.8-0.3-2.6-1.2c-0.7-0.7-1.2-1.6-1.5-2.8
				c-0.6-1.9-0.9-3.1-1-3.5c-0.2,0.1-0.4,0.2-0.5,0.3l1.3,7.1c0.2,0.9,0.1,1.8-0.3,2.6c-0.7,1.7-1.3,3.7-1.6,5.9c-0.3,2-0.7,3.4-1,4
				c-2.6,5.1-3.6,9.3-2.9,12.5c0.7,3.3,1.6,7.4,2.8,12.4c0.1,0.1,0.1,0.3,0.2,0.4c1,2.3,2.4,4,4.3,5.3l9.1-0.5
				c-1.3-0.7-2.8-2-4.7-3.9c0.5,0.1,1.4,0.2,2.6,0.2c2.2,0,3.7,0,4.6,0c1.9,0.1,4.5,0,7.6-0.3c0.1,0,0.3-0.1,0.4-0.1
				c-0.1,0-0.3,0-0.4,0.1c-1.6,1.8-3.1,3-4.5,3.8l9.6-0.5c0.3-0.4,0.5-0.9,0.8-1.3c0.8-1.8,1.2-2.9,1.3-3.1
				C85.7,98.6,86,93.9,86.1,88.1 M81.8,84.5c1.1,0.3,1.6,0.6,1.6,0.7C83.4,85.1,82.8,84.8,81.8,84.5c-1.1-0.3-1.8-0.4-1.8-0.3
				c-0.2-0.1-1.1,0.1-2.7,0.7s-2.4,0.8-2.3,0.9c-0.1-0.1,0.7-0.4,2.3-0.9s2.5-0.8,2.7-0.7C80,84.1,80.6,84.2,81.8,84.5 M60.5,84.1
				c-0.1-0.1-0.7,0.1-1.9,0.3c-1.1,0.3-1.7,0.6-1.6,0.7c0-0.1,0.5-0.4,1.6-0.7C59.7,84.2,60.4,84.1,60.5,84.1
				c0.2-0.1,1.1,0.1,2.7,0.7c1.6,0.5,2.4,0.8,2.3,0.9c0.1-0.1-0.7-0.4-2.3-0.9C61.5,84.3,60.6,84,60.5,84.1 M59.8,89.6
				c0-0.4,0.1-0.7,0.4-1c0.3-0.3,0.6-0.4,1-0.4s0.7,0.1,1,0.4c0.3,0.3,0.4,0.6,0.4,1c0,0.4-0.1,0.7-0.4,1c-0.3,0.3-0.6,0.4-1,0.4
				c-0.4,0-0.7-0.1-1-0.4C60,90.4,59.8,90,59.8,89.6 M67.3,96.8l1,0.8c0.8,0.6,1.5,0.9,2,0.9c0.8,0.1,1.8-0.6,3.3-1.9
				c-1.4,1.4-2.5,2-3.3,1.9c-0.5,0-1.2-0.3-2-0.9L67.3,96.8 M79.1,87.9c0.4,0,0.7,0.1,1,0.4c0.3,0.3,0.4,0.6,0.4,1s-0.1,0.7-0.4,1
				c-0.3,0.3-0.6,0.4-1,0.4c-0.4,0-0.7-0.1-1-0.4c-0.3-0.3-0.4-0.6-0.4-1s0.1-0.7,0.4-1C78.3,88,78.7,87.9,79.1,87.9z"/>
			<path class="st2" d="M57.2,119.5c-0.1,0.2-0.2,0.2-0.4-0.1H40.2l0.7,5.8l0.1,0.2l1.6,12.7l-2.8,13.4c9.7,5.7,20.7,8.6,32.8,8.6
				c9.9,0,19.1-1.9,27.4-5.8l-1.3-6.9c-1.1-0.3-2.2-0.6-3.3-1c-1.2-0.4-2.6-1.6-4.3-3.6c-1.7-2-2.9-3.1-3.6-3.3
				c-3.2-0.8-5.9-2.3-8.1-4.3c-1.2-1.1-2.1-2.3-2.7-3.6c-1.3,0.3-2.6,0.3-4.1,0.3c-4.8-0.3-8.5-2.5-11.2-6.5L57.2,119.5 M57.2,119.5
				c0.2-0.3,0.1-1.4-0.2-3.3c-0.3-2.4-1-5.9-2-10.6l1.8,13.8C57,119.7,57.1,119.7,57.2,119.5z"/>
			<path d="M56.2,57.8l-0.1-0.5c-8.2,4.9-13,13.9-14.3,27c-0.4,3.3-0.6,9.1-0.8,17.2c-0.2,6.8-0.5,12.4-1.1,16.8c1,0,2,0.1,2.8,0.3
				c-0.8-0.2-1.7-0.3-2.8-0.3c0,0.4-0.1,0.9-0.1,1.3c-0.4,3.3-0.1,5.1,1.1,5.5l-0.7-5.8h16.6L55,105.5c1,4.7,1.7,8.2,2,10.6
				c-0.2-2.4-0.6-5.2-1.2-8.5c-0.3-1.4-0.6-2.7-0.9-4c-0.6-0.9-1.2-1.8-1.9-2.8c0.7,1,1.3,2,1.9,2.8c-0.1-0.4-0.2-0.9-0.3-1.3
				c-1.1-5-2.1-9.1-2.8-12.4c-0.7-3.2,0.2-7.4,2.9-12.5c0.3-0.6,0.7-2,1-4c0.3-2.2,0.9-4.2,1.6-5.9c0.4-0.8,0.5-1.7,0.3-2.6
				L56.2,57.8 M47.2,84.4c0.5-0.2,1.1-0.2,1.8,0c0.6,0.2,0.9,0.4,0.9,0.7c0.6,3.1,1.3,6.4,2,9.8c0.3,1.9,0.2,2.9-0.3,3
				c-0.9,0.3-1.6-0.4-2.1-1.9c-0.9-3.1-1.6-5.1-2-6.1C45.9,86.7,45.8,84.9,47.2,84.4 M80.1,88.3c-0.3-0.3-0.6-0.4-1-0.4
				s-0.7,0.1-1,0.4c-0.3,0.3-0.4,0.6-0.4,1s0.1,0.7,0.4,1c0.3,0.3,0.6,0.4,1,0.4c0.4,0,0.7-0.1,1-0.4c0.3-0.3,0.4-0.6,0.4-1
				S80.3,88.6,80.1,88.3 M60.3,88.6c-0.3,0.3-0.4,0.6-0.4,1c0,0.4,0.1,0.7,0.4,1c0.3,0.3,0.6,0.4,1,0.4c0.4,0,0.7-0.1,1-0.4
				c0.3-0.3,0.4-0.6,0.4-1c0-0.4-0.1-0.7-0.4-1c-0.3-0.3-0.6-0.4-1-0.4S60.5,88.4,60.3,88.6 M100.8,78c-0.8-2.2-1.9-4.5-3.2-6.8
				c-7.3-13-15.9-19.6-25.9-19.8c-3.5-0.1-6.8,0.7-10,2.2c-2.5,1.2-4.2,2.5-5,3.8c0,0,0,0.1,0,0.1c0.1,0.5,0.4,1.6,1,3.5
				c0.3,1.1,0.8,2,1.5,2.8c0.8,0.9,1.6,1.3,2.6,1.2c2.9-0.3,7.8,2.3,14.8,7.6c3.5,2.7,6.6,5.3,9.5,8v7.5c-0.1,5.7-0.3,10.5-0.7,14.3
				c0,0.2-0.4,1.3-1.3,3.1c-0.2,0.4-0.3,0.8-0.5,1.3c0,0.1,0,0.1-0.1,0.1c-1.4,3.1-2.4,6.6-3.2,10.4c-0.2,1.1-1,2.9-2.4,5.4
				c-1.3,2.4-2,4-2.1,5c-0.1,1.4,0.1,2.7,0.7,3.9c0.6,1.3,1.5,2.5,2.7,3.6c2.2,2,4.8,3.4,8.1,4.3c0.8,0.2,2,1.3,3.6,3.3
				c1.7,2,3.1,3.2,4.3,3.6c1.2,0.4,2.3,0.7,3.3,1c4.6,1.2,8.5,1.5,11.7,0.8c2.9-2.1,5.7-4.5,8.4-7.1c0.1-0.3,0.2-0.7,0.3-1.1
				c0.7-3.3,0.3-7-1.1-11c-1.4-3.9-3.4-6.9-5.9-8.9c-1.6-1.3-2.3-2.9-2.1-4.8c0.8-2.5,1.4-4.6,1.8-6.3c1.7-7.1-0.7-15.3-7.1-24.6
				C102.7,81.6,101.4,79.4,100.8,78z"/>
			<path class="st0" d="M48.9,84.4c-0.7-0.2-1.2-0.2-1.8,0c-1.4,0.5-1.3,2.3,0.3,5.5c0.5,0.9,1.2,3,2,6.1c0.5,1.5,1.2,2.2,2.1,1.9
				c0.5-0.1,0.6-1.1,0.3-3c-0.7-3.4-1.4-6.7-2-9.8C49.8,84.9,49.5,84.6,48.9,84.4z"/>
		</g>
	</g>
	<g>
		<path id="Layer0_0_1_STROKES" class="st3" d="M74.9,85.7c-0.1-0.1,0.7-0.4,2.3-0.9s2.5-0.8,2.7-0.7c0.1-0.1,0.7,0.1,1.8,0.3
			c1.1,0.3,1.6,0.6,1.6,0.7 M65.4,85.7c0.1-0.1-0.7-0.4-2.3-0.9c-1.6-0.5-2.5-0.8-2.7-0.7c-0.1-0.1-0.7,0.1-1.9,0.3
			c-1.1,0.3-1.7,0.6-1.6,0.7"/>
	</g>
	<g>
		<path id="Layer0_0_2_STROKES" class="st4" d="M39.9,118.4c-0.5,0-1,0-1.6,0.1c-3.4,0.4-6.4,2-8.9,4.7c-1.3,1.5-2.3,6.3-3,14.5
			c-0.1,1.1-0.2,2.1-0.3,3.2 M39.9,118.4c1,0,1.9,0.1,2.7,0.3 M47.2,84.4c-1.4,0.5-1.3,2.3,0.3,5.5c0.5,0.9,1.2,3,2,6.1
			c0.5,1.5,1.2,2.2,2.1,1.9c0.5-0.1,0.6-1.1,0.3-3c-0.7-3.4-1.4-6.7-2-9.8c0-0.2-0.3-0.4-0.9-0.7C48.2,84.2,47.7,84.2,47.2,84.4z
			 M73.8,107.3c1.4-0.8,2.9-2.1,4.5-3.8 M63.5,103.6c1.9,1.9,3.4,3.2,4.7,3.9 M84.1,105.5c-0.3,0.5-0.6,0.9-0.8,1.3 M68.2,107.6
			c0.6,0.3,1.1,0.5,1.6,0.6c1.2,0.2,2.6-0.1,4-0.9 M83.3,106.8c-1.6,2.5-3.1,4.5-4.5,6c-2.3,2.4-4.6,3.6-7,3.6
			c-3.6,0-6.3-0.7-8.2-2.2c-2.1-1.6-5-5.1-8.7-10.5c-0.6-0.9-1.3-1.8-1.9-2.8"/>
	</g>
	<g>
		<path id="Layer0_0_3_STROKES" class="st5" d="M98.6,147.4l1.3,6.9 M39.7,151.4l2.8-13.4l-1.6-12.6 M67.3,96.8l1,0.8
			c0.8,0.6,1.5,0.9,2,0.9c0.8,0.1,1.8-0.6,3.3-1.9 M78.3,103.5c-3.1,0.3-5.7,0.4-7.6,0.3c-0.9,0-2.4,0-4.6,0c-1.2,0-2.1,0-2.6-0.2
			 M78.3,103.5c0.1,0,0.3-0.1,0.4-0.1 M57,116.1c0.3,1.9,0.3,3,0.2,3.4l4.1,5.8c2.6,4,6.4,6.2,11.2,6.5c1.4,0.1,2.8,0,4.1-0.2
			 M56.8,119.4c0.2,0.3,0.3,0.3,0.4,0.1 M57,116.1c-0.3-2.4-1-5.9-2-10.6 M40.2,119.4h16.6"/>
	</g>
</g>
</svg>
