<?xml version="1.0" encoding="utf-8"?>
<!-- Generator: Adobe Illustrator 23.0.3, SVG Export Plug-In . SVG Version: 6.00 Build 0)  -->
<svg version="1.1" id="Layer_1" xmlns="http://www.w3.org/2000/svg" xmlns:xlink="http://www.w3.org/1999/xlink" x="0px" y="0px"
	 viewBox="0 0 145 160" style="enable-background:new 0 0 145 160;" xml:space="preserve">
<style type="text/css">
	.st0{fill:#FFFFFF;}
	.st1{fill:#FEFEFE;}
	.st2{fill:#030303;}
	.st3{fill:#211F1F;}
	.st4{fill:#E9B75B;}
</style>
<g transform="matrix( 1, 0, 0, 1, 6.1,28) ">
	<g>
		<g id="Layer1_0_FILL">
			<path class="st0" d="M131.9,66.5c0-18.1-6.4-33.5-19.1-46.3C100,7.4,84.5,1,66.4,1S32.9,7.4,20.1,20.2C7.3,33,0.9,48.4,0.9,66.5
				c0,18.1,6.4,33.5,19.2,46.3C32.9,125.7,48.3,132,66.4,132s33.6-6.4,46.3-19.2C125.5,100.1,131.9,84.6,131.9,66.5z"/>
		</g>
	</g>
</g>
<g transform="matrix( 1, 0, 0, 1, 0,0) ">
	<g>
		<g id="Layer0_0_MEMBER_0_FILL">
			<path d="M86.6,119.6c-0.4-1.9-0.5-3.9-0.4-5.8v0c0-0.4-0.1-0.6-0.4-0.7c-0.1,0-0.2-0.1-0.3-0.1c-0.2,0-0.3,0-0.5,0.2
				c-0.1,0.1-0.2,0.3-0.3,0.5c-0.1,2,0,3.9,0.4,5.9c0.6,3.4,1.8,5.4,3.7,5.8h0.1c0.2,0,0.4,0,0.6-0.1c0,0,0-0.1,0.1-0.1
				c0-0.1,0.1-0.2,0.1-0.3c0.1-0.4-0.1-0.7-0.6-0.8C87.9,123.8,87.1,122.3,86.6,119.6 M60,120.5c0.1-1.8-0.1-4-0.7-6.8l-0.1-0.9
				c0-0.2-0.1-0.4-0.3-0.5c-0.2-0.1-0.3-0.2-0.5-0.2c-0.1,0-0.3,0.1-0.4,0.2c-0.1,0-0.1,0.1-0.1,0.1c-0.1,0.1-0.2,0.3-0.2,0.5
				l0.2,1.1c1.3,6.5,0.5,10.3-2.4,11.6c-0.4,0.2-0.5,0.5-0.3,0.9c0.1,0.3,0.3,0.5,0.7,0.5l0.3-0.1C58.5,125.8,59.7,123.7,60,120.5z"
				/>
			<path class="st1" d="M59.3,113.6c0.6,2.8,0.8,5.1,0.7,6.8c-0.3,3.2-1.5,5.3-3.8,6.3l-0.3,0.1l-2.4,11.2l12.3,7.5l24.8-6.6
				l4.2-10.4l-5.3-3.4c0,0-0.1,0.1-0.1,0.1c-0.1,0.1-0.3,0.1-0.6,0.1h-0.1c-1.8-0.4-3-2.4-3.7-5.8c-0.4-2-0.5-3.9-0.4-5.9
				c0-0.2,0.1-0.4,0.3-0.5c0.2-0.1,0.3-0.2,0.5-0.2c0.1,0,0.2,0,0.3,0.1V99.4H56.1l2,12.8c0.1-0.1,0.2-0.2,0.4-0.2
				c0.2,0,0.3,0,0.5,0.2c0.1,0.1,0.2,0.3,0.3,0.5L59.3,113.6z"/>
		</g>
	</g>
</g>
<g transform="matrix( 1, 0, 0, 1, 0,0) ">
	<g>
		<g id="Layer0_0_MEMBER_1_FILL">
			<path d="M58.3,45.6c-2,0-4,0.5-6,1.7c-3.5,1.9-5.6,4.3-6.4,7.3c-0.7,2.6-0.3,5.5,1.3,8.7c0.8,1.6,0.2,3-1.8,4.1
				c-1.1,0.6-3.2,1.4-6.5,2.3c-2.7,0.8-4.3,1.5-4.6,2c-0.6,0.9,0.6,2,3.6,3.3c1.3,0.6,2.7,0.9,4.2,0.9c1.4,0,2.8-0.3,4-0.8
				c1.7-0.7,3.4-1.4,5.1-2.1c1.7-0.7,2.7-1.1,2.9-1c0.2,0.1,2.6-1.2,7.1-3.8c4.5-2.6,7.1-6,7.8-10c0.1-2.7-0.1-4.5-0.4-5.4
				c-0.4-0.9-1-1.9-1.8-2.9C64.3,47,61.5,45.6,58.3,45.6z"/>
		</g>
	</g>
</g>
<g transform="matrix( 1, 0, 0, 1, 0,0) ">
	<g>
		<g id="Layer0_0_MEMBER_2_FILL">
			<path d="M94.1,66.9c-1.6-5.1-4.6-8.7-8.9-11c-4.1-2.2-9.7-3.2-16.6-3v-0.1c-0.4-0.9-1-1.9-1.8-2.9c-2.4-2.9-5.2-4.3-8.5-4.3
				c-2,0-4,0.5-6,1.7c-3.5,1.9-5.6,4.3-6.3,7.3c-0.7,2.6-0.3,5.5,1.3,8.7c0.8,1.6,0.1,3-1.9,4.1c-1.1,0.6-3.2,1.4-6.5,2.3
				c-2.7,0.8-4.3,1.5-4.6,2c-0.6,0.9,0.6,2,3.6,3.3c1.3,0.6,2.7,0.9,4.2,0.9c1.4,0,2.8-0.3,4-0.8c0.8-0.3,1.5-0.6,2.3-0.9
				c0,0.5,0,1,0,1.5c0,2.4,0.1,4.7,0.3,6.8c0.1,0.5,0.3,0.7,0.8,0.7c0.1,0,0.1,0,0.2,0c0.1,1.2,0.3,2.5,0.5,3.9l-0.2,0.1
				c-0.3-0.2-0.7-0.3-1.1-0.3L48.2,87c-0.9,0.2-1.5,0.7-1.8,1.6c-0.6,1.5-0.1,3.3,1.4,5.6c0.5,0.7,0.9,1.7,1.3,2.9
				c0.5,1.6,1.1,2.6,1.8,3.1c0.2,0.3,0.6,0.5,1.1,0.5c0.2,0,0.5,0,0.7-0.1c0.7,2.7,1.6,5.5,2.5,8.5c0.7,2.3,2.7,4.7,5.9,7.3
				c3.4,2.7,6.6,4.3,9.7,4.8l1.3,0.1c2.9,0,6.2-1.3,9.9-3.9c3.3-2.3,5.2-4.2,5.7-5.7c1.2-3.7,2.3-7.4,3.3-11
				c0.2,0.1,0.4,0.1,0.6,0.1c0.5,0,0.9-0.2,1.2-0.5c0.7-0.5,1.3-1.6,1.8-3.1c0.4-1.2,0.8-2.1,1.3-2.9c1.5-2.3,2-4.2,1.4-5.6
				c-0.3-0.8-0.9-1.3-1.8-1.6l-0.3-0.1c0-0.1-0.1-0.2-0.2-0.3l1.1-0.8l0.6-3c0.6-2.6,0.4-5.8-0.5-9.5C95,69.8,94.3,67.6,94.1,66.9
				 M87.3,68.8c1.1,0.7,2,2.3,2.5,4.9c0,0.1,0.3,2.7,0.9,7.6c1,1.3,1.7,2.1,2.1,2.6c-0.1,1.2-0.3,2.5-0.5,3.8l-1.2,0.9
				c-0.1-0.1-0.1-0.1-0.2-0.2c-0.1-0.1-0.2-0.2-0.3-0.2c-1.2-0.4-2.8-0.7-4.6-0.9c-3.7-0.3-7.4,0-11.2,1.1c-0.5,0.1-0.7,0.6-0.7,1.5
				c0,0.2,0,0.5,0,0.7h-4.1c0-0.2,0-0.5,0-0.7c0-0.9-0.2-1.4-0.7-1.5c-3.8-1.1-7.5-1.4-11.2-1.1c-3,0.6-4.5,0.9-4.7,0.9l-0.3,0.2
				c-0.1,0.1-0.1,0.1-0.2,0.2l-1.8-1.4c-0.2-1.4-0.3-2.8-0.4-4.1c2.8,0.1,6.8,0,11.9-0.1c8.9-0.2,14.6-0.8,16.9-1.8
				c1.4-0.6,2.9-2.5,4.6-5.8C84.6,75.1,85.6,72.8,87.3,68.8 M90.1,89.6c0.2,0.4,0.2,0.9,0.1,1.6c-0.1,0.9-0.3,1.8-0.6,2.8
				c-0.3,0.9-0.6,1.4-0.9,1.6c-0.6,0.4-2.3,0.6-5.2,0.6c-2.7,0-4.5-0.1-5.4-0.4c-0.9-0.3-1.6-1.2-2.1-2.8c-0.4-1.2-0.5-2.3-0.4-3.1
				c3.2-0.9,6.4-1.2,9.7-1C87.2,88.9,88.8,89.2,90.1,89.6 M89.4,96.7c0.5-0.4,1-1.1,1.4-2.3c0.1-0.3,0.2-0.6,0.3-0.9
				c-0.2,0.9-0.4,1.9-0.7,2.9c-0.2,0.7-0.4,1.4-0.6,2.2c-1.1,4.1-2.3,8.3-3.7,12.5c-0.4,1.3-2.3,3.1-5.7,5.3c-3.8,2.6-7,3.7-9.5,3.3
				c-2.8-0.5-5.8-1.9-9-4.4c-3-2.4-4.8-4.6-5.5-6.7c-2.3-7.4-4-13.8-4.9-19.4l1,0.8l0-0.1c0,0.4,0,0.9,0,1.4c0.1,1,0.3,2,0.8,3.1
				c0.4,1.1,0.9,1.9,1.4,2.3c0.8,0.6,2.9,0.9,6.1,0.9c2.9,0,4.8-0.2,5.8-0.5c1.3-0.4,2.2-1.5,2.8-3.3c0.2-0.5,0.3-1.1,0.4-1.7h4.4
				c0.1,0.5,0.3,1.1,0.5,1.7c0.6,1.8,1.5,2.9,2.8,3.3c0.9,0.3,2.9,0.5,5.8,0.5C86.6,97.6,88.6,97.3,89.4,96.7 M93.8,89.7
				c0.3-0.9,0.6-1.4,1-1.4l0.2,0c0.6,0.2,0.9,0.7,0.9,1.6c0,1-0.5,2.2-1.5,3.5c-0.5,0.7-0.9,1.8-1.4,3.3c-0.4,1.2-0.9,2-1.3,2.4
				l-0.3,0.2c-0.1,0-0.1-0.2-0.1-0.6c0.1-0.3,0.2-0.7,0.3-1c0-0.1,0.1-0.3,0.2-0.4c0.7-2.2,1.1-3.6,1.2-4.1
				C93.3,91.5,93.6,90.3,93.8,89.7 M91.6,91.3c0-0.5,0-0.9,0-1.3c0,0,0.1,0,0.1,0l0.3-0.2c-0.1,0.6-0.2,1.2-0.4,1.9
				C91.6,91.6,91.6,91.5,91.6,91.3 M47.6,89.9c0-0.9,0.3-1.4,0.9-1.6l0.2,0c0.4,0,0.7,0.5,1,1.4c0.2,0.6,0.5,1.8,0.8,3.5
				c0.1,0.5,0.5,1.8,1.2,4.1c0.4,1.4,0.5,2.1,0.3,2.1l-0.3-0.2c-0.5-0.4-0.9-1.2-1.3-2.4c-0.5-1.5-1-2.7-1.5-3.3
				C48.1,92.1,47.6,90.9,47.6,89.9 M54.1,91.2c-0.1-0.8,0-1.3,0.2-1.6c1.2-0.4,2.8-0.7,4.8-0.8c3.2-0.2,6.4,0.1,9.6,1
				c0.1,0.8,0,1.9-0.3,3.1c-0.5,1.6-1.1,2.5-2,2.8c-0.9,0.3-2.7,0.5-5.5,0.4c-2.8,0-4.5-0.2-5.1-0.6c-0.3-0.2-0.6-0.7-0.9-1.6
				C54.4,93,54.2,92.1,54.1,91.2 M60.3,91.5c-0.3,0.3-0.4,0.6-0.4,1c0,0.4,0.1,0.7,0.4,1s0.6,0.4,1,0.4s0.7-0.1,1-0.4s0.4-0.6,0.4-1
				c0-0.4-0.1-0.7-0.4-1s-0.6-0.4-1-0.4S60.5,91.2,60.3,91.5 M75,110.4c-0.3-0.3-0.7-0.3-1,0c-0.4,0.4-1.3,0.7-2.7,0.8
				c-0.5,0-1.2-0.2-2-0.6c-0.2-0.2-0.4-0.3-0.6-0.3c-0.5-0.1-0.8,0-0.9,0.5c-0.1,0.2-0.1,0.3,0.1,0.5c0.1,0.2,0.3,0.3,0.4,0.3
				l0.2,0.1c1,0.6,1.9,0.9,2.6,0.9h0.3c1.7-0.1,2.9-0.5,3.6-1.2C75.3,111.1,75.3,110.7,75,110.4 M72.7,107.1
				c-0.2,0.2-0.6,0.3-1.2,0.3c-0.5-0.3-1-0.4-1.5-0.4c-0.2,0-0.5,0-0.9,0.1c-0.8,0.2-1.5,0.2-2.1-0.1c-0.4-0.2-0.7,0-0.9,0.4
				c-0.2,0.4,0,0.7,0.4,0.9c0.7,0.3,1.6,0.3,2.8,0.1l0.6-0.1c0.4,0.1,0.8,0.2,1.1,0.5l0.3,0h0.1c0.1,0.1,0.1,0.1,0.2,0
				c0.6,0,1.2-0.1,1.8-0.4l0.3,0c0.8,0.3,1.6,0.5,2.3,0.5c0.6,0,1.2-0.1,1.6-0.4c0.4-0.2,0.4-0.5,0.2-0.9s-0.5-0.5-0.9-0.3
				c-0.5,0.3-1.4,0.2-2.7-0.2C73.3,106.9,72.8,106.9,72.7,107.1 M74.9,101.3c-0.5-0.2-0.9-0.1-1.2,0.3l-1.2,1.3
				c-0.5,0.3-0.9,0.3-1.2,0.1c0,0-0.2-0.2-0.4-0.5c-0.5-0.7-0.9-1-1.3-1.1l-0.3-0.1c-0.5-0.2-0.9-0.2-1.2,0
				c-0.2,0.2-0.3,0.4-0.3,0.8c0,0.5,0.2,0.7,0.7,0.7c0.1,0,0.3-0.1,0.4-0.2l0.3,0.1l0.5,0.6c0.2,0.3,0.5,0.6,0.7,0.8
				c0.3,0.3,0.8,0.5,1.3,0.5c0.5,0,1.1-0.2,1.6-0.6l1.2-1.3c0.2,0.1,0.4,0,0.7-0.1c0.2-0.1,0.3-0.3,0.3-0.6
				C75.6,101.7,75.3,101.4,74.9,101.3 M81.7,91.5c-0.3,0.3-0.4,0.6-0.4,1s0.1,0.7,0.4,1c0.3,0.3,0.6,0.4,1,0.4c0.4,0,0.7-0.1,1-0.4
				c0.3-0.3,0.4-0.6,0.4-1s-0.1-0.7-0.4-1c-0.3-0.3-0.6-0.4-1-0.4C82.3,91.1,81.9,91.2,81.7,91.5 M57,84.9c-0.8,0.2-1.4,0.3-1.6,0.4
				c-0.2,0.1-0.3,0.2-0.4,0.3c-0.1,0.2-0.1,0.3,0,0.6c0.1,0.4,0.4,0.6,0.9,0.4l1.4-0.3c1.2-0.3,2.4-0.4,3.6-0.5l4.7,0.9l0.2,0.1
				c0.4,0,0.6-0.2,0.7-0.6c0-0.2,0-0.3-0.1-0.5c-0.1-0.2-0.3-0.3-0.4-0.3l-4.8-0.9L61,84.4C59.5,84.5,58.2,84.6,57,84.9 M88.3,86.2
				c0.2-0.5,0-0.8-0.4-0.9c-1.5-0.5-3.3-0.8-5.5-0.9l-0.1,0.1l-5.3,0.9c-0.5,0.1-0.7,0.3-0.6,0.8c0.1,0.4,0.3,0.6,0.7,0.6l0.2-0.1
				l5.2-0.9c2,0.1,3.6,0.3,4.9,0.8c0.2,0.1,0.3,0.1,0.5,0C88.2,86.5,88.3,86.4,88.3,86.2z"/>
			<path class="st1" d="M54.3,89.6c-0.2,0.3-0.3,0.8-0.2,1.6c0.1,0.9,0.3,1.8,0.7,2.8c0.3,0.9,0.6,1.4,0.9,1.6
				c0.6,0.4,2.3,0.6,5.1,0.6c2.8,0,4.6-0.1,5.5-0.4c0.9-0.3,1.6-1.2,2-2.8c0.3-1.3,0.4-2.3,0.3-3.1c-3.2-0.9-6.4-1.2-9.6-1
				C57.1,88.9,55.5,89.2,54.3,89.6 M59.8,92.5c0-0.4,0.1-0.7,0.4-1s0.6-0.4,1-0.4s0.7,0.1,1,0.4s0.4,0.6,0.4,1c0,0.4-0.1,0.7-0.4,1
				s-0.6,0.4-1,0.4s-0.7-0.1-1-0.4S59.8,92.9,59.8,92.5 M91.6,90.1c0,0.4,0,0.8,0,1.3c0,0.1,0,0.3,0,0.4c0.2-0.7,0.3-1.3,0.4-1.9
				L91.6,90.1C91.7,90.1,91.6,90.1,91.6,90.1 M90.8,94.4c-0.4,1.1-0.9,1.9-1.4,2.3c-0.8,0.6-2.9,0.9-6.1,0.9c-2.9,0-4.8-0.2-5.8-0.5
				c-1.3-0.4-2.2-1.5-2.8-3.3c-0.2-0.6-0.3-1.1-0.5-1.7h-4.4c-0.1,0.6-0.2,1.1-0.4,1.7c-0.6,1.8-1.5,2.9-2.8,3.3
				c-1,0.3-2.9,0.5-5.8,0.5c-3.2,0-5.3-0.3-6.1-0.9c-0.5-0.4-1-1.1-1.4-2.3c-0.4-1.1-0.7-2.1-0.8-3.1c0-0.5,0-1,0-1.4l0,0.1l-1-0.8
				c0.9,5.6,2.6,12,4.9,19.4c0.7,2,2.5,4.3,5.5,6.7c3.1,2.5,6.1,3.9,9,4.4c2.5,0.4,5.7-0.7,9.5-3.3c3.4-2.3,5.3-4.1,5.7-5.3
				c1.4-4.2,2.6-8.4,3.7-12.5c0.2-0.7,0.4-1.4,0.6-2.2c0.2-1,0.5-2,0.7-2.9C91.1,93.8,91,94.1,90.8,94.4 M73.8,101.6
				c0.3-0.4,0.7-0.5,1.2-0.3c0.4,0.1,0.7,0.4,0.7,0.9c0,0.2-0.1,0.4-0.3,0.6c-0.2,0.1-0.5,0.2-0.7,0.1l-1.2,1.3
				c-0.5,0.4-1.1,0.6-1.6,0.6c-0.5,0-0.9-0.2-1.3-0.5c-0.2-0.2-0.4-0.4-0.7-0.8l-0.5-0.6l-0.3-0.1c-0.1,0.1-0.3,0.2-0.4,0.2
				c-0.5,0-0.7-0.2-0.7-0.7c0-0.3,0.1-0.6,0.3-0.8c0.3-0.2,0.7-0.2,1.2,0l0.3,0.1c0.4,0.1,0.8,0.4,1.3,1.1c0.2,0.3,0.4,0.5,0.4,0.5
				c0.3,0.2,0.7,0.2,1.2-0.1L73.8,101.6 M71.4,107.4c0.6-0.1,1-0.2,1.2-0.3c0.2-0.2,0.6-0.2,1.2,0c1.3,0.4,2.2,0.5,2.7,0.2
				c0.4-0.2,0.7-0.2,0.9,0.3s0.2,0.7-0.2,0.9c-0.4,0.3-0.9,0.4-1.6,0.4c-0.7,0-1.5-0.2-2.3-0.5l-0.3,0c-0.5,0.3-1.1,0.4-1.8,0.4
				c-0.1,0.1-0.1,0.1-0.2,0h-0.1l-0.3,0c-0.4-0.2-0.7-0.4-1.1-0.5l-0.6,0.1c-1.2,0.2-2.1,0.1-2.8-0.1c-0.4-0.2-0.6-0.5-0.4-0.9
				c0.2-0.4,0.5-0.6,0.9-0.4c0.6,0.2,1.3,0.3,2.1,0.1c0.4-0.1,0.8-0.1,0.9-0.1C70.4,107,70.9,107.2,71.4,107.4 M74,110.4
				c0.3-0.3,0.7-0.3,1,0c0.3,0.3,0.3,0.7,0.1,1c-0.7,0.7-1.9,1.1-3.6,1.2h-0.3c-0.8,0-1.6-0.3-2.6-0.9l-0.2-0.1
				c-0.2,0-0.3-0.1-0.4-0.3c-0.1-0.2-0.1-0.3-0.1-0.5c0.1-0.5,0.4-0.6,0.9-0.5c0.2,0,0.3,0.1,0.6,0.3c0.8,0.5,1.5,0.7,2,0.6
				C72.7,111.1,73.6,110.9,74,110.4 M90.2,91.2c0.1-0.7,0-1.2-0.1-1.6c-1.3-0.4-2.9-0.7-4.8-0.8c-3.2-0.2-6.4,0.1-9.7,1
				c-0.1,0.9,0,1.9,0.4,3.1c0.4,1.6,1.1,2.5,2.1,2.8c0.9,0.3,2.7,0.5,5.4,0.4c2.9,0,4.6-0.2,5.2-0.6c0.3-0.2,0.6-0.7,0.9-1.6
				C89.9,93,90.1,92.1,90.2,91.2 M81.3,92.5c0-0.4,0.1-0.7,0.4-1c0.3-0.3,0.6-0.4,1-0.4c0.4,0,0.7,0.1,1,0.4c0.3,0.3,0.4,0.6,0.4,1
				s-0.1,0.7-0.4,1c-0.3,0.3-0.6,0.4-1,0.4c-0.4,0-0.7-0.1-1-0.4C81.4,93.2,81.3,92.9,81.3,92.5 M89.8,73.7
				c-0.5-2.6-1.3-4.2-2.5-4.9c-1.8,4-2.8,6.2-3,6.7c-1.7,3.2-3.2,5.2-4.6,5.8c-2.3,1-8,1.6-16.9,1.8c-5.2,0.1-9.1,0.2-11.9,0.1
				c0.1,1.3,0.3,2.6,0.4,4.1l1.8,1.4c0.1-0.1,0.1-0.1,0.2-0.2l0.3-0.2c0.1,0,1.7-0.3,4.7-0.9c3.7-0.3,7.4,0,11.2,1.1
				c0.4,0.1,0.7,0.6,0.7,1.5c0,0.2,0,0.5,0,0.7h4.1c0-0.2,0-0.5,0-0.7c0-0.9,0.2-1.4,0.7-1.5c3.8-1.1,7.5-1.4,11.2-1.1
				c1.8,0.2,3.4,0.5,4.6,0.9c0.1,0,0.2,0.1,0.3,0.2c0.1,0.1,0.1,0.1,0.2,0.2l1.2-0.9c0.2-1.4,0.4-2.7,0.5-3.8
				c-0.4-0.5-1-1.3-2.1-2.6C90.2,76.4,89.8,73.9,89.8,73.7 M87.9,85.3c0.4,0.1,0.6,0.4,0.4,0.9c0,0.2-0.2,0.3-0.4,0.4
				c-0.2,0.1-0.3,0.1-0.5,0c-1.3-0.5-3-0.7-4.9-0.8l-5.2,0.9l-0.2,0.1c-0.4,0-0.6-0.2-0.7-0.6c-0.1-0.5,0.1-0.7,0.6-0.8l5.3-0.9
				l0.1-0.1C84.6,84.5,86.4,84.8,87.9,85.3 M55.4,85.3c0.2-0.1,0.8-0.3,1.6-0.4c1.2-0.3,2.5-0.4,4-0.5l0.1,0.1l4.8,0.9
				c0.2,0,0.3,0.1,0.4,0.3c0.1,0.2,0.1,0.3,0.1,0.5c-0.1,0.4-0.3,0.6-0.7,0.6l-0.2-0.1l-4.7-0.9c-1.2,0-2.4,0.2-3.6,0.5l-1.4,0.3
				c-0.5,0.2-0.8,0-0.9-0.4c-0.1-0.2-0.1-0.4,0-0.6C55.1,85.5,55.2,85.4,55.4,85.3z"/>
		</g>
	</g>
</g>
<g transform="matrix( 1, 0, 0, 1, 0,0) ">
	<g>
		<g id="Layer0_0_MEMBER_3_FILL">
			<path class="st2" d="M89.8,141.2l0.6,0.1l0.1-2.5l-0.7,0.1l-0.6-0.1l-0.2-2.9c0.1,5-0.1,12.4-0.6,22.2l0.9-0.3l0.3-4.6h0.5
				l0.1-2.4l-0.3,0.1l0-1.2l-0.5-8.4L89.8,141.2 M57.5,129.8l-0.6-0.7l1.5,28.9h-0.7l0,0.3l1.4,0.3l-1.4-26.5
				c4.1,3.9,8.7,6.1,13.7,6.3c5.9,0.4,11.7-2,17.3-7.1l-0.1-1.8l-0.2,0.1c-5.6,5.2-11.2,7.7-16.8,7.3c-3.5-0.2-6.9-1.5-10.2-3.8
				C58.9,131,57.6,129.8,57.5,129.8z"/>
			<path class="st3" d="M99,124.5l-1.4-0.3c-1.5-0.2-2.6-0.3-3.3-0.3h-0.7c-2.1-0.1-3.8,0.2-5.1,0.7c0.1,0.7,0.3,1.5,0.6,2.3
				l0.8,0.1c0.4,0,0.9-0.1,1.4-0.3c-0.1,0.6-0.2,1.1-0.2,1.5c0,0.4,0.1,0.9,0.2,1.4c-0.5-0.1-0.8-0.2-1.1-0.2
				c0.1,0.1,0.2,0.3,0.2,0.5c0,0.2-0.1,0.3-0.3,0.4c-0.1,0.1-0.3,0.2-0.4,0.2c-0.2,0-0.4-0.1-0.6-0.2l-0.4-0.6l0.1,1.8l0.3,4.5
				l0.2,2.9l0.6,0.1l0.7-0.1l0.8-0.2c-0.1,0.6-0.2,1.1-0.2,1.4c0,0.4,0.1,0.9,0.2,1.4l-0.8-0.2l-0.6-0.1l-0.4,0.1l0.5,8.4l0,1.2
				l1.3-0.3c-0.1,0.6-0.2,1.1-0.2,1.4c0,0.4,0.1,0.9,0.2,1.4c-0.2-0.1-0.6-0.2-1.1-0.3h-0.5l-0.3,4.6c4.1-1.1,8.1-2.6,12.1-4.6
				c-0.5,0.1-0.8,0.2-1.2,0.3c0.2-0.5,0.3-1,0.3-1.4c0-0.5-0.1-0.9-0.3-1.4c0.6,0.2,1.1,0.3,1.5,0.3c0.5,0,0.9-0.1,1.4-0.3
				c-0.2,0.5-0.3,1-0.3,1.4l0.1,0.4c5.1-2.7,9.6-5.9,13.6-9.6l-1.6-3.5L115,140c0,0.5,0.1,0.9,0.3,1.4c-0.5-0.2-1-0.3-1.4-0.3
				c-0.5,0-1,0.1-1.5,0.3c0.2-0.5,0.3-1,0.3-1.4c0-0.5-0.1-0.9-0.3-1.4c0.5,0.2,1,0.3,1.5,0.3l0.9-0.1c-1.1-2.2-1.9-3.8-2.4-4.7
				l-1.4-2.4l-0.7-0.8l-0.4-0.4c-1-1.1-2.3-2.3-3.9-3.4l-1.6-0.9l-2.5-1C101.2,125,100.3,124.8,99,124.5 M100.6,128
				c0-0.5-0.1-1-0.3-1.5c0.6,0.2,1.1,0.3,1.5,0.3c0.5,0,0.9-0.1,1.4-0.3c-0.2,0.5-0.3,1-0.3,1.5c0,0.5,0.1,0.9,0.3,1.4
				c-0.5-0.2-1-0.3-1.4-0.3c-0.4,0-0.9,0.1-1.5,0.3C100.5,129,100.6,128.5,100.6,128 M94.6,134c0-0.4-0.1-0.9-0.2-1.4
				c0.5,0.2,1,0.3,1.4,0.3c0.5,0,0.9-0.1,1.4-0.3c-0.2,0.5-0.3,1-0.3,1.4c0,0.5,0.1,0.9,0.3,1.4c-0.5-0.2-1-0.3-1.4-0.3
				c-0.4,0-0.9,0.1-1.4,0.3C94.5,134.9,94.6,134.4,94.6,134 M100.6,140c0-0.5-0.1-0.9-0.3-1.4c0.6,0.2,1.1,0.3,1.5,0.3
				c0.5,0,0.9-0.1,1.4-0.3c-0.2,0.5-0.3,1-0.3,1.4c0,0.5,0.1,0.9,0.3,1.4c-0.5-0.2-1-0.3-1.4-0.3c-0.4,0-0.9,0.1-1.5,0.3
				C100.5,141,100.6,140.5,100.6,140 M94.6,146c0-0.4-0.1-0.9-0.2-1.4c0.5,0.2,1,0.3,1.4,0.3c0.5,0,0.9-0.1,1.4-0.3
				c-0.2,0.5-0.3,1-0.3,1.4c0,0.5,0.1,0.9,0.3,1.4c-0.5-0.2-1-0.3-1.4-0.3c-0.4,0-0.9,0.1-1.4,0.3C94.5,146.9,94.6,146.4,94.6,146
				 M106.3,132.6c0.6,0.2,1.1,0.3,1.5,0.3c0.5,0,0.9-0.1,1.4-0.3c-0.2,0.5-0.3,1-0.3,1.4c0,0.5,0.1,0.9,0.3,1.4
				c-0.5-0.2-1-0.3-1.4-0.3c-0.4,0-0.9,0.1-1.5,0.3c0.2-0.5,0.3-1,0.3-1.4C106.6,133.6,106.5,133.1,106.3,132.6 M106.6,146
				c0-0.5-0.1-0.9-0.3-1.4c0.6,0.2,1.1,0.3,1.5,0.3c0.5,0,0.9-0.1,1.4-0.3c-0.2,0.5-0.3,1-0.3,1.4c0,0.5,0.1,0.9,0.3,1.4
				c-0.5-0.2-1-0.3-1.4-0.3c-0.4,0-0.9,0.1-1.5,0.3C106.5,147,106.6,146.5,106.6,146 M56.9,129.1l-0.1-2.7l-0.6,0.4l-0.3,0
				c-0.3,0-0.5-0.1-0.7-0.4c-0.1-0.2-0.1-0.3,0-0.5s0.2-0.3,0.3-0.4l0.1-0.1l-7.2-0.2c-1.5,0.1-3,0.5-4.5,1.1l-0.7,0.3h0
				c-0.2,0.5-0.3,1-0.3,1.5c0,0.5,0.1,0.9,0.3,1.4c-0.5-0.2-1-0.3-1.5-0.3c-0.5,0-0.9,0.1-1.4,0.3c0.2-0.5,0.3-1,0.3-1.4V128
				c-1.9,1.2-3.6,2.8-5.3,4.8l0.5,0.1c0.5,0,1-0.1,1.5-0.3c-0.2,0.5-0.3,1-0.3,1.4c0,0.5,0.1,0.9,0.3,1.4c-0.5-0.2-1-0.3-1.5-0.3
				c-0.4,0-0.9,0.1-1.4,0.3c0.2-0.5,0.3-1,0.3-1.4v-0.4l-0.3,0.4c-0.6,0.8-1.1,1.5-1.5,2.3c-0.5,0.8-0.9,1.5-1.1,2.1l-0.5,1.1
				L31,140c0,0.5,0.1,0.9,0.3,1.4l-0.9-0.2l-1,2.6c3.5,3,7.3,5.7,11.3,7.9c-0.1-0.5-0.2-0.9-0.3-1.1c0.5,0.2,1,0.3,1.4,0.3
				c0.5,0,1-0.1,1.5-0.3c-0.2,0.5-0.3,1-0.3,1.4c0,0.4,0.1,0.7,0.2,1.1c4.2,2.1,8.6,3.7,13.2,4.9h1.3h0.7L56.9,129.1 M52.4,129.5
				c0.2-0.5,0.3-1,0.3-1.4c0-0.5-0.1-1-0.3-1.5c0.5,0.2,1,0.3,1.4,0.3s1-0.1,1.5-0.3c-0.2,0.5-0.3,1-0.3,1.5c0,0.5,0.1,0.9,0.3,1.4
				c-0.5-0.2-1-0.3-1.5-0.3S52.9,129.3,52.4,129.5 M46.4,132.6c0.5,0.2,1,0.3,1.4,0.3s1-0.1,1.5-0.3c-0.2,0.5-0.3,1-0.3,1.4
				c0,0.5,0.1,0.9,0.3,1.4c-0.5-0.2-1-0.3-1.5-0.3s-0.9,0.1-1.4,0.3c0.2-0.5,0.3-1,0.3-1.4C46.7,133.6,46.6,133.1,46.4,132.6
				 M43.3,138.6c-0.2,0.5-0.3,1-0.3,1.4c0,0.5,0.1,0.9,0.3,1.4c-0.5-0.2-1-0.3-1.5-0.3c-0.5,0-0.9,0.1-1.4,0.3
				c0.2-0.5,0.3-1,0.3-1.4c0-0.5-0.1-0.9-0.3-1.4c0.5,0.2,1,0.3,1.4,0.3C42.3,138.8,42.8,138.8,43.3,138.6 M46.4,144.6
				c0.5,0.2,1,0.3,1.4,0.3s1-0.1,1.5-0.3c-0.2,0.5-0.3,1-0.3,1.4c0,0.5,0.1,0.9,0.3,1.4c-0.5-0.2-1-0.3-1.5-0.3s-0.9,0.1-1.4,0.3
				c0.2-0.5,0.3-1,0.3-1.4C46.7,145.6,46.6,145.1,46.4,144.6 M53.8,138.8c0.5,0,1-0.1,1.5-0.3c-0.2,0.5-0.3,1-0.3,1.4
				c0,0.5,0.1,0.9,0.3,1.4c-0.5-0.2-1-0.3-1.5-0.3s-0.9,0.1-1.4,0.3c0.2-0.5,0.3-1,0.3-1.4c0-0.5-0.1-0.9-0.3-1.4
				C52.9,138.8,53.4,138.8,53.8,138.8 M34.4,147.5c0.2-0.5,0.3-1,0.3-1.4c0-0.5-0.1-0.9-0.3-1.4c0.6,0.2,1,0.3,1.4,0.3
				c0.5,0,1-0.1,1.5-0.3c-0.2,0.5-0.3,1-0.3,1.4c0,0.5,0.1,0.9,0.3,1.4c-0.5-0.2-1-0.3-1.5-0.3C35.5,147.2,35,147.3,34.4,147.5
				 M55,152c0,0.5,0.1,0.9,0.3,1.4c-0.5-0.2-1-0.3-1.5-0.3s-0.9,0.1-1.4,0.3c0.2-0.5,0.3-1,0.3-1.4c0-0.5-0.1-0.9-0.3-1.4
				c0.5,0.2,1,0.3,1.4,0.3s1-0.1,1.5-0.3C55.1,151.1,55,151.6,55,152z"/>
			<path class="st4" d="M71.5,138.4c-5-0.3-9.6-2.4-13.7-6.3l1.4,26.5c4.5,0.9,8.9,1.4,13.3,1.4c5.4,0,10.8-0.7,16-2
				c0.5-9.8,0.7-17.2,0.6-22.2l-0.3-4.5C83.2,136.4,77.4,138.8,71.5,138.4z"/>
		</g>
	</g>
</g>
</svg>
