<?xml version="1.0" encoding="utf-8"?>
<!-- Generator: Adobe Illustrator 23.0.3, SVG Export Plug-In . SVG Version: 6.00 Build 0)  -->
<svg version="1.1" id="Layer_1" xmlns="http://www.w3.org/2000/svg" xmlns:xlink="http://www.w3.org/1999/xlink" x="0px" y="0px"
	 viewBox="0 0 145 160" style="enable-background:new 0 0 145 160;" xml:space="preserve">
<style type="text/css">
	.st0{fill:#FFFFFF;}
	.st1{fill:#7C7C7C;}
	.st2{fill:#FBB348;}
	.st3{fill:#D6D6D6;}
	.st4{fill:#FEFEFE;}
	.st5{fill:#5A5A5A;}
	.st6{fill:none;stroke:#221F1F;stroke-width:1.35;stroke-linecap:round;stroke-linejoin:round;}
	.st7{fill:none;stroke:#000000;stroke-width:1.35;stroke-linecap:round;stroke-linejoin:round;}
	.st8{fill:none;stroke:#000000;stroke-width:1.6;stroke-linecap:round;stroke-linejoin:round;}
	.st9{fill:none;stroke:#000000;stroke-width:1.35;stroke-linecap:round;}
	.st10{fill:none;stroke:#000000;stroke-width:1.35;stroke-linecap:square;stroke-linejoin:bevel;}
	.st11{fill:none;stroke:#000000;stroke-width:1.35;}
	.st12{fill:none;stroke:#000000;stroke-width:1.35;stroke-linejoin:round;}
</style>
<g transform="matrix( 1, 0, 0, 1, 0,0) ">
	<g>
		<g id="Layer1_0_FILL">
			<path class="st0" d="M137.9,94.5c0-18.1-6.4-33.5-19.1-46.3C106,35.4,90.5,29,72.4,29c-18.1,0-33.5,6.4-46.3,19.2
				C13.3,61,6.9,76.4,6.9,94.5c0,18.1,6.4,33.5,19.2,46.3C38.9,153.7,54.3,160,72.4,160s33.6-6.4,46.4-19.2
				C131.6,128.1,137.9,112.6,137.9,94.5z"/>
		</g>
	</g>
</g>
<g transform="matrix( 1, 0, 0, 1, 0,0) ">
	<g>
		<g id="Layer0_0_FILL">
			<path class="st1" d="M99.8,114.9l-0.2-0.3l-0.8-2.3l-8.2,7.9l-8.8,8.6l0.6,0.8l2.8,4.2l13.8-11.5l4,1.5L99.8,114.9 M89.8,117.6
				L89.8,117.6l-0.2,2.2l1,0.4l8.2-7.9l-8.2-3.5L89.8,117.6 M110.2,120.6c-2.7-1.9-5.7-3.6-8.9-5.1l-1.4-0.6l3.3,8.9l-4-1.5
				l-13.8,11.5l-2.8-4.2l-0.2,0.2l0.8,5.1l3.7,23.6c12-2.5,22.7-8.4,32-17.7c1.4-1.4,2.7-2.8,3.9-4.3
				C121.5,130.9,117.3,125.6,110.2,120.6 M43.7,122.3l2.5-6.2l-0.5-0.3c-3.2,0.9-6.4,2.2-9.7,3.8c-6.6,3.3-10.2,6.7-10.8,10.2
				c-0.6,3.3-1,6.2-1.4,8.7c0.8,0.8,1.5,1.6,2.3,2.4c11,11,24,17.3,39,18.8l-0.2-3.2c-0.1,0-0.2,0.1-0.3,0.1c-0.4,0-0.7-0.1-1-0.4
				c-0.3-0.3-0.5-0.6-0.5-1c0-0.4,0.2-0.7,0.5-1c0.3-0.3,0.6-0.5,1-0.5h0.1c0,0,0.1,0,0.1,0l-0.2-3.9c0,0-0.1-0.1-0.1-0.1h-0.1
				l-0.3-0.3l0,0c-0.3-0.3-0.5-0.6-0.5-1.1c0-0.4,0.2-0.7,0.5-1c0.2-0.2,0.4-0.4,0.7-0.4l0.9-4.2c-0.1,0-0.2-0.1-0.3-0.1l-0.2-0.2
				c-0.3-0.3-0.4-0.7-0.4-1.1s0.2-0.7,0.4-1c0.3-0.3,0.6-0.4,1-0.4c0.1,0,0.1,0,0.2,0l1.1-5.1l0.9-3.9l-2-1.3l1.2,1.3l-2.8,4.5
				l-16.2-14.5L43.7,122.3 M49.3,110.9l-0.5-0.6l-2.5,5.8l-2.5,6.2l5-1.5l16.2,14.5l2.8-4.5l-1.2-1.3L56,118.2L49.3,110.9
				 M49.2,109.3l0,1.6l6.8,7.3c0.2-0.1,0.4-0.3,0.7-0.4l0-1.1l-0.5-8.9L49.2,109.3z"/>
			<path class="st0" d="M65.2,153.7c-0.1,0-0.3,0-0.4-0.1h-0.1c-0.4,0-0.7,0.2-1,0.5c-0.3,0.3-0.5,0.6-0.5,1c0,0.4,0.2,0.7,0.5,1
				c0.3,0.3,0.6,0.4,1,0.4c0.1,0,0.2,0,0.3-0.1c0.3,0,0.6-0.1,0.8-0.4c0.3-0.3,0.4-0.6,0.4-1c0-0.4-0.1-0.7-0.4-1c0,0,0,0-0.1-0.1
				L65.2,153.7 M64.8,153.6c0.1,0,0.3,0,0.4,0.1C65.1,153.7,65,153.7,64.8,153.6C64.9,153.6,64.8,153.6,64.8,153.6 M65.1,149.8
				c-0.2,0-0.4-0.1-0.5-0.2c0.1,0,0.1,0.1,0.1,0.1c0,0,0.1,0,0.1,0c0.1,0,0.1,0,0.1,0.1l0,0H65.1 M64.8,146.8
				c-0.3,0.1-0.5,0.2-0.7,0.4c-0.3,0.3-0.5,0.6-0.5,1c0,0.4,0.2,0.8,0.5,1.1l0,0l0.3,0.3h0.1c0.2,0.1,0.4,0.1,0.5,0.2h0.1
				c0.4,0,0.8-0.1,1-0.4c0.3-0.3,0.5-0.6,0.5-1.1c0-0.4-0.2-0.7-0.5-1c-0.3-0.3-0.6-0.4-1-0.4C65,146.8,64.9,146.8,64.8,146.8
				 M67.2,140.2C67.2,140.2,67.1,140.2,67.2,140.2c-0.1,0-0.1-0.1-0.2-0.1c0,0-0.1-0.1-0.1-0.1c0,0-0.1,0-0.1,0c0,0-0.1-0.1-0.2-0.1
				c-0.1,0-0.1,0-0.2,0c-0.1,0-0.1,0-0.2,0c-0.4,0-0.7,0.1-1,0.4c-0.3,0.3-0.4,0.6-0.4,1s0.2,0.8,0.4,1.1l0.2,0.2
				c0.1,0.1,0.2,0.1,0.3,0.1c0.1,0,0.3,0.1,0.4,0.1c0.4,0,0.8-0.1,1.1-0.4c0.3-0.3,0.4-0.7,0.4-1.1s-0.1-0.7-0.4-1
				C67.2,140.3,67.2,140.2,67.2,140.2z"/>
			<path class="st2" d="M67.1,140.2C67.1,140.2,67.2,140.2,67.1,140.2c0.1,0,0.1,0.1,0.2,0.1c0.3,0.3,0.4,0.6,0.4,1
				s-0.1,0.8-0.4,1.1c-0.3,0.3-0.7,0.4-1.1,0.4c-0.2,0-0.3,0-0.4-0.1l-0.9,4.2c0.1,0,0.2,0,0.3,0c0.4,0,0.8,0.1,1,0.4
				c0.3,0.3,0.5,0.6,0.5,1c0,0.4-0.2,0.8-0.5,1.1c-0.3,0.3-0.6,0.4-1,0.4h-0.1h-0.2l0,0c0,0-0.1,0-0.1-0.1c0,0-0.1,0-0.1,0l0.2,3.9
				c0.1,0,0.2,0,0.3,0.1l0.6,0.4c0,0,0,0,0.1,0.1c0.3,0.3,0.4,0.6,0.4,1c0,0.4-0.1,0.7-0.4,1c-0.2,0.2-0.5,0.3-0.8,0.4l0.2,3.2
				c2.4,0.2,4.8,0.4,7.3,0.4c5,0,9.8-0.5,14.4-1.5l-3.7-23.6c-2.8,1.4-5.9,2-9.3,1.9c-2.2-0.1-4.4-0.8-6.4-2.1l-1.1,5.1
				c0.1,0,0.1,0,0.2,0c0.1,0,0.1,0.1,0.2,0.1c0,0,0.1,0,0.1,0c0,0,0.1,0.1,0.1,0.1C67,140.1,67.1,140.2,67.1,140.2z"/>
			<path class="st3" d="M56.3,102c0,0.1,0.1,0.3,0.2,0.4c0.1,0.3,0.2,0.5,0.3,0.8l-0.3-0.8C56.3,101.8,56.2,101.7,56.3,102
				 M92.3,85.5C92.4,85.5,92.3,85.6,92.3,85.5c-0.5,0.8-1.1,3-1.9,6.6c-0.4,1.9-0.9,3.4-1.3,4.5c-0.7,1.8-1.3,2.6-1.9,2.6
				c-0.4,0-1.7-0.4-3.9-1c-1.8-0.5-3.6-0.7-5.4-0.7c-1.1,0.3-1.9,0.5-2.6,0.7c-1.3,0.3-2.8,0.2-4.6-0.4c-0.6-0.2-2.9,0-7.1,0.6
				c-3.2,0.4-5.1-0.2-5.9-1.9c-0.1-0.3-0.3-0.7-0.4-1c-0.9-2.2-1.6-4-2.2-5.6c-0.5-1.3-0.9-2.3-1.3-3c0,0,0-0.1,0-0.1
				c0,0,0-0.1,0-0.1c-0.4-0.8-0.6-1.2-0.8-1.2c0,0-0.1,0.1-0.1,0.1l0.1,0.3c0.1,0.4,0.3,1.2,0.5,2.3c0.3,1.4,0.7,3.4,1.2,5.9
				c0.4,1.8,0.8,3.8,1.2,6.1c0,0.1,0,0.1,0,0.1c0,0,0,0,0,0l0.7,2l0.3,0.8c0.7,1.5,1.5,3,2.4,4.3c3.1,4.5,7,7.1,11.8,7.8l0.7,0.1
				c0.3,0,0.7,0,1,0.1h0.1c0.7,0,1.5,0,2.2,0c6.9-0.4,11.9-5.6,15.1-15.4c0.5-1.5,0.9-3.2,1.3-4.8c0.4-1.7,0.7-3.4,0.9-5.3l0.4-4.6
				C92.6,85.3,92.5,85.4,92.3,85.5 M80.9,106.1c-0.8,0.3-2.9,0.7-6.3,1.1c-3.2,0.4-5.9-0.2-8.3-1.8c-2-1.3-2.9-2.5-2.9-3.8
				c0-0.9,1.1-1.6,3.3-1.9c1.6-0.3,4.3-0.4,7.8-0.4c3.4,0,5.9,0.1,7.5,0.4c2,0.4,2.8,1,2.4,1.9C83.6,104,82.4,105.5,80.9,106.1
				 M72.4,109.9c0,0.1,0.3,0.1,0.8,0.1c0.7-0.1,1.4,0,2,0.2c-0.6-0.2-1.3-0.3-2-0.2C72.7,110.1,72.4,110,72.4,109.9z"/>
			<path class="st4" d="M63,112.3c1.9,1.6,4.6,2.5,8,2.9c-4.8-0.7-8.7-3.3-11.8-7.8c-0.9-1.3-1.7-2.8-2.4-4.3l0.1,0.3
				C58.4,107.3,60.4,110.2,63,112.3 M52.9,85.9l-0.1-0.3c0,0,0.1-0.1,0.1-0.1c0.2,0,0.4,0.4,0.8,1.2c-0.3-1.2-0.6-2.2-0.8-3.1
				c-0.4-1.6-0.7-2.9-0.8-3.9c-0.5-0.3-1-0.5-1.3-0.8c-0.7-0.4-1.3-0.4-1.9-0.1c-1.4,0.7-1.6,2.9-0.6,6.6c0.6,2.1,1.7,5.6,3.3,10.6
				c0.3,1.3,0.9,1.7,1.7,1.2c0.4-0.2,0.8-0.6,1.1-1.1l1.5,4.2C55.4,98,55,96,54.6,94.2c-0.5-2.6-0.9-4.5-1.2-5.9
				C53.2,87.1,53,86.3,52.9,85.9 M74.6,107.2c3.5-0.4,5.6-0.8,6.3-1.1c1.5-0.7,2.7-2.2,3.6-4.5c0.3-0.9-0.5-1.5-2.4-1.9
				c-1.5-0.3-4-0.4-7.5-0.4c-3.6,0-6.2,0.1-7.8,0.4c-2.2,0.3-3.3,1-3.3,1.9c0,1.3,1,2.6,2.9,3.8C68.7,107,71.4,107.6,74.6,107.2
				 M78.1,103.8c-1.7,0.8-3.2,1.2-4.5,1.2c-1.1,0-2.5-0.3-4.1-0.9c1.6,0.6,2.9,0.9,4.1,0.9C74.9,105,76.4,104.6,78.1,103.8
				 M76.9,101.3c0.3,0,1.1,0.2,2.4,0.6c1.1,0.3,1.9,0.3,2.6,0c-0.7,0.2-1.6,0.2-2.6,0C78,101.5,77.3,101.3,76.9,101.3
				c-0.6,0-1.2,0.1-2,0.3c-0.8,0.2-1.3,0.3-1.3,0.3c-0.4,0-1-0.1-1.8-0.3c-0.8-0.2-1.4-0.3-1.8-0.3c-0.4,0-1.1,0.2-2.2,0.5
				c-0.9,0.3-1.6,0.4-2.1,0.3c0.5,0.1,1.2,0,2.1-0.3c1.1-0.3,1.8-0.5,2.2-0.5c0.5,0,1.1,0.1,1.8,0.3c0.8,0.2,1.4,0.3,1.8,0.3
				c0.1,0,0.5-0.1,1.3-0.3C75.7,101.5,76.4,101.3,76.9,101.3 M94.1,79.9c0,0-0.1,0.1-0.1,0.2c-0.1,0.4-0.2,0.9-0.3,1.3
				c-0.3,1.3-0.6,2.6-1,3.9l-0.4,4.6c-0.2,1.8-0.5,3.6-0.9,5.3c-0.4,1.7-0.8,3.3-1.3,4.8c-3.1,9.8-8.2,15-15.1,15.4
				c-0.7,0-1.5,0-2.2,0c0.2,0,0.3,0,0.5,0c4.8,0.2,8.3-0.8,10.5-3.1c2.4-2.5,4.3-5.4,5.6-8.9c0.2-0.4,0.5-1.7,1.1-3.9
				c0.3-1,0.5-2.1,0.8-3.4c1.6,0.6,2.4,0.8,2.5,0.6c1.5-4,2.7-7.6,3.4-10.9c1.2-5.2,0.8-7.6-1.1-7.2C95.6,78.8,94.8,79.2,94.1,79.9
				 M89.2,62.1c-0.1-0.1-0.5-0.1-1.1,0c-3.2,0.5-5.9,0.9-8.2,1.3c-3.1,0.5-5.4,0.7-6.7,0.8c-2.7,0.1-5.3,0-7.8-0.3
				c-2.5-0.3-4.9-0.7-7.3-1.4c-0.8-0.2-1.4-0.1-1.8,0.3c-0.4,0.3-0.6,0.9-0.5,1.7c0.1,1.7,0.1,3.4-0.2,5.2c-0.2,2-0.6,3.2-1.2,3.8
				c-0.3,0.3-0.7,0.8-1.2,1.7l0.6,11.8c0.4,0.7,0.8,1.7,1.3,3c0.6,1.5,1.3,3.4,2.2,5.6c0.1,0.3,0.3,0.7,0.4,1
				c0.8,1.7,2.7,2.4,5.9,1.9c4.1-0.6,6.4-0.8,7.1-0.6c1.8,0.6,3.3,0.7,4.6,0.4c0.7-0.2,1.5-0.4,2.6-0.7c1.8,0,3.6,0.2,5.4,0.7
				c2.2,0.6,3.5,0.9,3.9,1c0.6,0.1,1.3-0.8,1.9-2.6c0.4-1.1,0.9-2.6,1.3-4.5c0.9-3.6,1.5-5.8,1.9-6.5l1.3-9.8l-3.4-6.2l-0.9-6.3
				C89.4,62.6,89.3,62.2,89.2,62.1 M82.1,83.2c0.4,0,0.7,0.1,1,0.4c0.3,0.3,0.4,0.6,0.4,1c0,0.4-0.1,0.7-0.4,1
				c-0.3,0.3-0.6,0.4-1,0.4c-0.4,0-0.7-0.1-1-0.4c-0.3-0.3-0.4-0.6-0.4-1c0-0.4,0.1-0.7,0.4-1C81.4,83.4,81.7,83.2,82.1,83.2
				 M83.9,79.8c1.6,0,3.1,0.3,4.3,0.8C87,80.1,85.6,79.8,83.9,79.8c-0.4,0-0.7,0.1-1.1,0.1c-3.3,0.3-5.2,0.4-5.8,0.4
				c0.5,0,2.4-0.1,5.8-0.4C83.2,79.9,83.6,79.8,83.9,79.8 M63.9,83.1c0.4,0,0.7,0.1,1,0.4c0.3,0.3,0.4,0.6,0.4,1s-0.1,0.7-0.4,1
				c-0.3,0.3-0.6,0.4-1,0.4c-0.4,0-0.7-0.1-1-0.4c-0.3-0.3-0.5-0.6-0.5-1s0.2-0.7,0.5-1C63.2,83.2,63.5,83.1,63.9,83.1 M61.8,80.6
				c0.4,0,0.8,0,1.3,0c3.7,0,5.8,0,6.3-0.1c-0.5,0.1-2.6,0.1-6.3,0.1C62.6,80.6,62.2,80.6,61.8,80.6c-2.1,0.1-3.4,0.4-3.8,0.9
				C58.4,81,59.7,80.7,61.8,80.6 M68.6,93.3c0.5-0.1,1-0.1,1.5,0c0.9,1.2,2.1,1.7,3.5,1.5c0.8-0.1,1.6-0.6,2.4-1.5h1.4H76
				c-0.8,0.9-1.6,1.4-2.4,1.5c-1.4,0.2-2.6-0.3-3.5-1.5C69.6,93.3,69.1,93.3,68.6,93.3z"/>
			<path d="M64.9,83.5c-0.3-0.3-0.6-0.4-1-0.4c-0.4,0-0.7,0.1-1,0.4c-0.3,0.3-0.5,0.6-0.5,1s0.2,0.7,0.5,1c0.3,0.3,0.6,0.4,1,0.4
				c0.4,0,0.7-0.1,1-0.4c0.3-0.3,0.4-0.6,0.4-1S65.2,83.8,64.9,83.5 M83.1,83.6c-0.3-0.3-0.6-0.4-1-0.4c-0.4,0-0.7,0.1-1,0.4
				c-0.3,0.3-0.4,0.6-0.4,1c0,0.4,0.1,0.7,0.4,1c0.3,0.3,0.6,0.4,1,0.4c0.4,0,0.7-0.1,1-0.4c0.3-0.3,0.4-0.6,0.4-1
				C83.5,84.2,83.4,83.9,83.1,83.6z"/>
			<path class="st5" d="M94.8,74.1c0.8-9.4-1.5-16.4-6.8-21c-4.5-3.9-10.5-5.5-17.9-4.9C61.1,49.1,55.4,53.4,53,61
				c-1.3,4.1-1.7,10-1,17.8c0,0.2,0.1,0.5,0.1,0.8c0.1,1,0.4,2.3,0.8,3.9c0.2,0.9,0.5,2,0.8,3.1c0,0,0,0.1,0,0.1c0,0.1,0,0.1,0,0.1
				l-0.6-11.8c0.5-0.9,0.9-1.4,1.2-1.7c0.6-0.6,1-1.8,1.2-3.8c0.2-1.8,0.3-3.5,0.2-5.2c-0.1-0.8,0.1-1.4,0.5-1.7
				c0.4-0.4,1-0.5,1.8-0.3c2.4,0.7,4.8,1.1,7.3,1.4c2.6,0.3,5.2,0.4,7.8,0.3c1.3-0.1,3.6-0.3,6.7-0.8c2.3-0.3,5-0.7,8.2-1.3
				c0.6-0.1,1-0.1,1.1,0c0.1,0.1,0.2,0.5,0.1,1.2l0.9,6.3l3.4,6.2l-1.3,9.8c0,0,0.1-0.1,0-0.1c0.1-0.1,0.2-0.2,0.3-0.2
				c0.4-1.4,0.7-2.7,1-3.9c0.1-0.4,0.2-0.9,0.3-1.3c0-0.1,0-0.1,0-0.2C94.4,77.8,94.7,75.9,94.8,74.1z"/>
		</g>
	</g>
	<g>
		<path id="Layer0_0_1_STROKES" class="st6" d="M93.9,80.1c0-0.1,0-0.1,0-0.2c0.4-2.1,0.7-4,0.9-5.8c0.8-9.4-1.5-16.4-6.8-21
			c-4.5-3.9-10.5-5.5-17.9-4.9C61.1,49.1,55.4,53.4,53,61c-1.3,4.1-1.7,10-1,17.8c0,0.2,0.1,0.5,0.1,0.8c0.1,1,0.4,2.3,0.8,3.9
			c0.2,0.9,0.5,2,0.8,3.1 M53.8,86.9l-0.7-11.8c0.5-0.9,0.9-1.4,1.2-1.7c0.6-0.6,1-1.8,1.2-3.8c0.2-1.8,0.3-3.5,0.2-5.2
			c-0.1-0.8,0.1-1.4,0.5-1.7c0.4-0.4,1-0.5,1.8-0.3c2.4,0.7,4.8,1.1,7.3,1.4c2.6,0.3,5.2,0.4,7.8,0.3c1.3-0.1,3.6-0.3,6.7-0.8
			c2.2-0.3,5-0.7,8.1-1.3c0.6-0.1,1-0.1,1.1,0c0.1,0.1,0.2,0.5,0.1,1.2l0.9,6.3l3.4,6.2l-1.3,9.8 M92.7,85.3c0.4-1.4,0.7-2.7,1-3.9
			c0.1-0.4,0.2-0.9,0.3-1.3"/>
	</g>
	<g>
		<path id="Layer0_0_2_STROKES" class="st7" d="M94.1,79.9c0.8-0.7,1.5-1.1,2.1-1.3c1.9-0.4,2.2,2,1.1,7.2
			c-0.7,3.3-1.9,6.9-3.4,10.9c-0.1,0.2-0.9,0-2.5-0.6c-0.3,1.3-0.6,2.4-0.8,3.4 M56.5,102.4l-0.7-2 M55.8,100.3l-1.5-4.2
			c-0.4,0.5-0.7,0.9-1.1,1.1c-0.8,0.5-1.4,0.1-1.7-1.2c-1.6-5-2.6-8.5-3.3-10.6c-1-3.6-0.8-5.8,0.6-6.6c0.6-0.3,1.2-0.3,1.9,0.1
			c0.4,0.2,0.8,0.5,1.3,0.8 M78.1,103.8c-1.7,0.8-3.2,1.2-4.5,1.2c-1.1,0-2.5-0.3-4.1-0.9 M65.6,102.1c0.5,0.1,1.2,0,2.1-0.3
			c1.1-0.3,1.8-0.5,2.2-0.5c0.5,0,1.1,0.1,1.8,0.3c0.8,0.2,1.4,0.3,1.8,0.3c0.1,0,0.5-0.1,1.3-0.3c0.8-0.2,1.5-0.3,2-0.3
			c0.3,0,1.1,0.2,2.4,0.6c1.1,0.3,1.9,0.3,2.6,0 M72.4,109.9c0,0.1,0.3,0.1,0.8,0.1c0.7-0.1,1.4,0,2,0.2 M72.8,115.4L72.8,115.4
			c-0.4,0-0.8,0-1.1-0.1l-0.7-0.1c-3.4-0.4-6.1-1.4-8-3c-2.6-2.1-4.6-5-6.1-8.9l-0.1-0.2 M90.5,99.5c-0.6,2.2-0.9,3.5-1.1,3.9
			c-1.3,3.4-3.2,6.4-5.6,8.9c-2.2,2.3-5.7,3.3-10.5,3.1c-0.2,0-0.3,0-0.5,0 M56.8,103.2l-0.3-0.8"/>
	</g>
	<g>
		<path id="Layer0_0_3_STROKES" class="st8" d="M77.1,80.3c0.5,0,2.4-0.1,5.8-0.4c0.4,0,0.8-0.1,1.1-0.1c1.6,0,3,0.2,4.3,0.8
			 M58,81.5c0.4-0.5,1.6-0.8,3.8-0.9c0.4,0,0.8,0,1.3,0c3.7,0,5.8,0,6.3-0.1"/>
	</g>
	<g>
		<path id="Layer0_0_4_STROKES" class="st9" d="M68.6,93.3c0.5-0.1,1-0.1,1.5,0c0.9,1.2,2.1,1.7,3.5,1.5c0.8-0.1,1.6-0.6,2.4-1.5
			h1.4"/>
	</g>
	<g>
		<path id="Layer0_0_5_STROKES" class="st10" d="M89.8,117.7l0.8-8.9l8.2,3.5l0.9,2.3 M99.8,114.9l1.4,0.6c3.2,1.5,6.2,3.2,8.9,5.1
			c7.1,4.9,11.3,10.3,12.6,16 M23.9,138.5c0.3-2.6,0.8-5.5,1.3-8.7c0.6-3.5,4.2-6.9,10.8-10.2c3.3-1.6,6.5-2.9,9.7-3.8l0.5,0.4
			l2.5-5.9l0.5,0.6l0-1.6l7-1.5l0.5,8.9 M66.5,129.5l1.2,1.3l-2.8,4.5l-16.2-14.5l-5,1.5l2.5-6.1 M56.7,116.7l0,1.1
			c-0.2,0.2-0.4,0.3-0.7,0.5l10.4,11.2l1.9,1.3l-0.9,4 M83.2,135l-0.8-5.2l0.2-0.2l-0.6-0.8l8.8-8.6l-1-0.4l0.2-2.1v0 M49.3,110.9
			l6.8,7.4 M66.4,139.9c0.1,0,0.2,0,0.2,0.1c0,0,0.1,0,0.2,0.1c0,0,0.1,0,0.1,0c0,0,0.1,0,0.1,0.1c0.1,0,0.1,0.1,0.2,0.1
			c0,0,0,0,0.1,0c0,0,0.1,0.1,0.1,0.1c0.3,0.3,0.4,0.6,0.4,1s-0.1,0.8-0.4,1.1c-0.3,0.3-0.7,0.4-1.1,0.4 M65.8,142.7l-0.9,4.2
			c0.1,0,0.2,0,0.3,0c0.4,0,0.8,0.1,1,0.4c0.3,0.3,0.5,0.6,0.5,1c0,0.4-0.2,0.8-0.5,1.1c-0.3,0.3-0.6,0.4-1,0.4h-0.1H65 M64.7,149.7
			l0.2,3.9 M65.2,153.7l0.5,0.3c0,0,0,0,0.1,0.1c0.3,0.3,0.4,0.6,0.4,1c0,0.4-0.1,0.7-0.4,1c-0.2,0.2-0.5,0.3-0.8,0.4l0.1,3.2
			 M65.4,142.5l-0.2-0.2c-0.3-0.3-0.4-0.7-0.4-1.1s0.2-0.7,0.4-1c0.3-0.3,0.6-0.4,1-0.4c0.1,0,0.1,0,0.2,0l1.1-5.1 M64.6,149.7
			L64.6,149.7l-0.4-0.3l0,0c-0.3-0.3-0.5-0.6-0.5-1.1c0-0.4,0.2-0.7,0.5-1c0.2-0.2,0.4-0.4,0.7-0.4 M65.1,149.8
			c-0.2,0-0.4,0-0.5-0.1 M64.8,153.6c0.1,0,0.3,0,0.4,0.1 M65,156.5c-0.1,0-0.2,0-0.3,0c-0.4,0-0.7-0.1-1-0.4
			c-0.3-0.3-0.5-0.6-0.5-1c0-0.4,0.2-0.7,0.5-1c0.3-0.3,0.6-0.5,1-0.5h0.1 M98.8,112.3l-8.2,7.9 M82.5,129.6l2.8,4.2l13.8-11.5
			l4,1.5l-3.3-8.9 M86.9,158.6L83.2,135"/>
	</g>
	<g>
		<path id="Layer0_0_6_STROKES" class="st11" d="M90.5,99.5l-0.8,17.8c0,0.1,0,0.3,0.1,0.4 M56.7,116.7l-0.2-14.3"/>
	</g>
	<g>
		<path id="Layer0_0_7_STROKES" class="st12" d="M67.5,134.8c2,1.3,4.1,1.9,6.4,2c3.4,0.2,6.5-0.5,9.3-1.8"/>
	</g>
</g>
</svg>
