<?xml version="1.0" encoding="utf-8"?>
<!-- Generator: Adobe Illustrator 23.0.3, SVG Export Plug-In . SVG Version: 6.00 Build 0)  -->
<svg version="1.1" id="Layer_1" xmlns="http://www.w3.org/2000/svg" xmlns:xlink="http://www.w3.org/1999/xlink" x="0px" y="0px"
	 viewBox="0 0 145 160" style="enable-background:new 0 0 145 160;" xml:space="preserve">
<style type="text/css">
	.st0{fill:#FFFFFF;}
	.st1{fill:#FBB348;}
	.st2{fill:#5A5A5A;}
	.st3{fill:none;stroke:#221F1F;stroke-width:1.35;stroke-linecap:round;stroke-linejoin:round;}
	.st4{fill:none;stroke:#000000;stroke-width:1.35;stroke-linecap:round;stroke-linejoin:round;}
	.st5{fill:none;stroke:#000000;stroke-width:1.35;stroke-linecap:round;}
	.st6{fill:none;stroke:#000000;stroke-width:1.35;stroke-linejoin:round;}
	.st7{fill:none;stroke:#000000;stroke-width:1.35;}
</style>
<g transform="matrix( 1, 0, 0, 1, 0,0) ">
	<g>
		<g id="Layer1_0_FILL">
			<path class="st0" d="M138,94.5c0-18.1-6.4-33.5-19.2-46.3C106,35.4,90.6,29,72.5,29C54.4,29,39,35.4,26.2,48.2
				C13.4,61,7,76.4,7,94.5s6.4,33.5,19.2,46.3C39,153.7,54.4,160,72.5,160s33.5-6.4,46.3-19.2C131.6,128.1,138,112.6,138,94.5z"/>
		</g>
	</g>
</g>
<g transform="matrix( 1, 0, 0, 1, 0,0) ">
	<g>
		<g id="Layer0_0_FILL">
			<path d="M89.1,114.9l-0.5,8l-0.1,1h0.1l1.4,0.5l5.1-4.4l-0.1-0.8L89.1,114.9 M47.3,119.7l-0.7-0.5l-2.1,6.2l-0.1,0.9
				c-0.1,0.4,0,0.8,0.3,1.1L47.3,119.7 M45.9,117.9c-0.4,0.3-0.7,0.6-0.7,1.1l-0.5,4.8l-0.2,1.5l2.1-6.2l0.7,0.5l0.2-0.5l7,6.1h0
				c0.6-0.3,1-0.7,1-1.4l-0.6-8.9c0-0.5-0.3-0.9-0.8-1.2l0,0c-0.2-0.1-0.4-0.2-0.6-0.2c-0.2,0-0.5,0.1-0.7,0.3L45.9,117.9
				 M60.4,85.5c-0.3,0.3-0.4,0.6-0.4,1.1c0,0.4,0.1,0.7,0.4,1c0.3,0.3,0.6,0.4,1,0.4c0.4,0,0.7-0.1,1-0.4c0.3-0.3,0.4-0.6,0.4-1
				c0-0.4-0.1-0.8-0.4-1.1c-0.3-0.3-0.6-0.4-1-0.4C61,85.1,60.7,85.2,60.4,85.5 M81.8,86.2c0-0.4-0.1-0.7-0.4-1
				c-0.3-0.3-0.7-0.4-1.1-0.4c-0.4,0-0.7,0.2-1,0.4c-0.3,0.3-0.4,0.6-0.4,1s0.1,0.7,0.4,1c0.3,0.3,0.6,0.5,1,0.5
				c0.4,0,0.8-0.2,1.1-0.5C81.7,86.9,81.8,86.6,81.8,86.2z"/>
			<path class="st1" d="M72.3,140l0.9-0.4l12.4-5.7l0.3-2.3l12.2,1.1l-1.7-8.2l-1-5l-0.4,0.3l-5.1,4.4l-1.5,1.3l-15.9,14L72.3,140
				L72.3,140 M57.1,131.7L57.1,131.7L43,132.2v0.1L57.1,131.7 M57.1,131.7H58l0.3,2.3l11.6,5.3l-22.6-19.6l-2.6,7.6l-1.7,4.9
				L57.1,131.7L57.1,131.7 M47.5,119.1l-0.2,0.5l22.6,19.6l1.8,0.9l-0.6-0.5l-16.6-14.3l0-0.1L47.5,119.1z"/>
			<path class="st0" d="M67.1,120.2c-1.3,0-2.5-0.4-3.6-1.1c-2.2-1.5-4.2-3.1-5.9-4.7c-1.5-1.4-2.7-2.8-3.5-4.2l0,3.5
				c0.5,0.2,0.7,0.6,0.8,1.2l0.6,8.9c0,0.7-0.3,1.2-1,1.4v0.1l16.6,14.3c0.4,0.2,0.7,0.3,1.1,0.5l0.4-0.4l15.9-14l0.1-1.8h-0.1
				l0.1-1l0.1-13.6c-1.3,2.2-4.2,5.3-8.8,9.3c-1.2,1-2.6,1.6-4.1,1.6L67.1,120.2 M84.1,56.8L84.1,56.8c-0.3,0.5-0.5,0.8-0.7,1.1
				l-0.5,0.5c-5,2.2-10.5,2.9-16.5,2c-3.6-0.5-6.9-1.5-9.9-3c-0.2-0.1-0.3-0.2-0.5-0.3l-2.8,3c-1.9,2-2.7,4.3-2.5,6.9
				c0.1,1.5,0.3,3.3,0.8,5.5c-0.1,1.2-0.7,3.3-1.7,6.3L50,86l0,0.6l0.1,3.1c-0.4-2.8-0.7-5.5-1-7.9c0-0.1,0-0.2,0-0.3
				c-0.4-0.1-0.7-0.2-1.1-0.2c-0.6,0-1.1,0.2-1.7,0.8c-0.6,0.6-0.8,1.9-0.7,4c0.1,1.6,0.5,4.1,1.1,7.6c0.5,2.5,1.4,4.3,2.8,5.4
				c0.7,0.5,1.5,0.8,2.5,1v-0.1l-0.1-0.8l0.1,0.8v0.1l0,2.3c0.1,2.3,0.4,4.1,0.8,5.2c0.3,0.9,0.7,1.7,1.3,2.6c0.9,1.3,2,2.7,3.5,4.2
				c1.7,1.6,3.7,3.2,5.9,4.7c1.1,0.7,2.3,1.1,3.6,1.1l8.7,0c1.6,0,2.9-0.5,4.1-1.6c4.5-4,7.4-7.1,8.8-9.3c0.3-0.4,0.5-0.7,0.6-1.1
				c0.7-1.7,1.4-4.6,2-8.5c0-0.1,0-0.2,0-0.3v-0.1l0.2-0.9l-0.2,0.9h1.2c0.9-0.4,1.5-0.7,2-1c0.6-0.3,1.2-2.7,2-7.1
				c0.7-4.2,1-7,0.9-8.4c0-0.3-0.1-0.6-0.2-0.9c-0.2-0.6-0.6-1.1-1.1-1.4l-1-0.4c-0.1,0.1-0.2,0.1-0.3,0.2c-0.2,0.1-0.4,0.2-0.6,0.3
				c-0.3,0.2-0.6,0.5-1.1,0.8c0,0.1,0,0.1,0,0.2c-0.1,1.8-0.3,3.8-0.4,5.9l-1.2-11.3c-0.9-1.9-1.4-3.3-1.6-4c0-2.9-0.2-5.4-0.4-7.5
				c-0.4-3.9-1.9-6.4-4.6-7.5L84.1,56.8 M84.4,82.3c-0.8-0.2-1.6-0.3-2.6-0.4c-2.2-0.4-4.3-0.3-6.4,0.2c2.1-0.5,4.3-0.6,6.4-0.2
				C82.8,82,83.6,82.1,84.4,82.3 M81.4,85.2c0.3,0.3,0.4,0.6,0.4,1s-0.1,0.7-0.4,1c-0.3,0.3-0.7,0.5-1.1,0.5c-0.4,0-0.7-0.2-1-0.5
				c-0.3-0.3-0.4-0.6-0.4-1s0.1-0.7,0.4-1c0.3-0.3,0.6-0.4,1-0.4C80.8,84.7,81.1,84.9,81.4,85.2 M86.2,88.4l1.2,0.5L86.2,88.4
				 M56.8,82.7c0.9-0.2,1.7-0.3,2.6-0.3c2.2-0.4,4.3-0.3,6.4,0.2c-2.1-0.5-4.2-0.6-6.4-0.2C58.5,82.5,57.6,82.6,56.8,82.7 M60,86.5
				c0-0.4,0.1-0.8,0.4-1.1c0.3-0.3,0.6-0.4,1-0.4c0.4,0,0.7,0.1,1,0.4c0.3,0.3,0.4,0.6,0.4,1.1c0,0.4-0.1,0.7-0.4,1
				c-0.3,0.3-0.6,0.4-1,0.4c-0.4,0-0.8-0.1-1-0.4C60.1,87.3,60,86.9,60,86.5 M55.8,89.2l-0.7,1.1L55.8,89.2 M68.5,96.7l0.8,1
				c0.7,0.6,1.3,0.9,2.1,0.8c1.1-0.1,1.9-0.7,2.2-1.8h1.9h-1.9c-0.3,1.1-1.1,1.7-2.2,1.8c-0.7,0.1-1.4-0.2-2.1-0.8L68.5,96.7h-1.4
				H68.5 M71.4,106l3.1-0.8c0.2,0,0.7,0.1,1.4,0.4c0.4,0.2,0.8,0.3,1.2,0.5c0.8,0.2,1.7,0.1,2.6-0.3c-0.9,0.4-1.8,0.5-2.6,0.3
				c-0.4-0.2-0.8-0.3-1.2-0.5c-0.8-0.3-1.3-0.5-1.4-0.4L71.4,106c-0.9-0.4-1.7-0.6-2.5-0.6c-0.5,0-1.2,0.2-2,0.6l-1,0.5
				c-1.2-0.3-2-0.6-2.5-0.8c0.4,0.2,1.3,0.4,2.5,0.8l1-0.5c0.8-0.4,1.5-0.6,2-0.6C69.7,105.4,70.5,105.6,71.4,106 M68.7,109.6
				c1.9,0.6,3.8,0.6,5.8,0.2C72.5,110.2,70.6,110.2,68.7,109.6z"/>
			<path class="st2" d="M84.1,56.8l0.8,0.6c2.7,1.1,4.2,3.6,4.6,7.5c0.2,2.1,0.4,4.6,0.4,7.5c0.2,0.7,0.8,2.1,1.6,4l1.2,11.3
				c0.2-2.1,0.3-4.1,0.4-5.9c0,0,0-0.1,0-0.2c0.6-9.7,0.7-16.1,0.3-19.2c-0.9-6-3.8-9.5-8.7-10.3c-0.4-0.5-1-0.9-2-1.1
				c-5.5-1.1-9.9-1.5-13.1-1.4c-2.8,0.1-6,0.7-9.5,1.8c-0.6,0.2-1.2,0.5-1.7,0.8c-5.9,1-9.4,4.2-10.3,9.5
				c-0.6,3.4-0.3,10.1,0.8,19.8c0,0.1,0,0.2,0,0.3c0.3,2.4,0.7,5.1,1,7.9L50,86.6l0-0.6l-0.3-7.2c1-3.1,1.6-5.2,1.7-6.3
				c-0.4-2.2-0.7-4-0.8-5.5c-0.2-2.7,0.6-5,2.5-6.9l2.8-3c0.2,0.1,0.3,0.1,0.5,0.3c3,1.5,6.3,2.5,9.9,3c6,0.9,11.5,0.3,16.5-2
				l0.5-0.5C83.6,57.7,83.8,57.3,84.1,56.8C84,56.9,84,56.9,84.1,56.8 M84.1,56.9L84.1,56.9C84,56.9,84,56.9,84.1,56.9L84.1,56.9z"
				/>
		</g>
	</g>
	<g>
		<path id="Layer0_0_1_STROKES" class="st3" d="M56,57.1l-2.8,3c-1.9,2-2.7,4.3-2.5,6.9c0.1,1.5,0.3,3.3,0.8,5.5
			c-0.1,1.2-0.7,3.3-1.7,6.3L50,86 M50,86.6l0.1,3.1c-0.4-2.8-0.7-5.5-1-7.9c0-0.1,0-0.2,0-0.3 M84.1,56.8l0.8,0.6
			c2.7,1.1,4.2,3.6,4.6,7.5c0.2,2.1,0.4,4.6,0.4,7.5c0.2,0.7,0.8,2.1,1.6,4l1.2,11.3c0.2-2.1,0.3-4.1,0.4-5.9c0,0,0-0.1,0-0.1
			c0.6-9.7,0.7-16.1,0.3-19.2c-0.9-6-3.8-9.5-8.7-10.3c-0.4-0.5-1-0.9-2-1.1c-5.5-1.1-9.9-1.5-13.1-1.4c-2.8,0.1-6,0.7-9.5,1.8
			c-0.6,0.2-1.2,0.5-1.7,0.8c-5.9,1-9.4,4.2-10.3,9.5c-0.6,3.4-0.3,10.1,0.9,19.8 M84,56.9C84,56.9,84,56.9,84,56.9 M83.4,57.9
			l-0.5,0.5c-5,2.2-10.5,2.9-16.5,2c-3.6-0.5-6.9-1.5-9.9-3c-0.2-0.1-0.3-0.2-0.5-0.3 M84,56.9c-0.2,0.4-0.5,0.8-0.6,1"/>
	</g>
	<g>
		<path id="Layer0_0_2_STROKES" class="st4" d="M49,81.6c-0.4-0.1-0.8-0.2-1.1-0.2c-0.6,0-1.1,0.2-1.7,0.8c-0.6,0.6-0.8,1.9-0.7,4
			c0.1,1.6,0.5,4.1,1.1,7.6c0.5,2.5,1.4,4.3,2.8,5.4c0.7,0.5,1.5,0.8,2.5,1v-0.1l-0.1-0.8 M91.4,99.3h1.1c0.9-0.4,1.5-0.7,2-1
			c0.6-0.3,1.2-2.7,2-7.1c0.7-4.2,1-7,0.9-8.4c0-0.3-0.1-0.6-0.2-0.9c-0.2-0.6-0.6-1.1-1.1-1.4l-1-0.4c-0.1,0.1-0.2,0.1-0.3,0.2
			c-0.2,0.1-0.4,0.2-0.6,0.3c-0.3,0.2-0.6,0.5-1.1,0.9 M84.4,82.3c-0.8-0.2-1.6-0.3-2.6-0.4c-2.2-0.4-4.3-0.3-6.4,0.2 M86.2,88.4
			l1.2,0.5 M56.8,82.7c0.9-0.2,1.7-0.3,2.6-0.3c2.2-0.4,4.3-0.3,6.4,0.2 M55.8,89.2l-0.7,1.1 M88.7,109.3c-1.3,2.1-4.3,5.2-8.8,9.3
			c-1.2,1-2.6,1.6-4.1,1.6l-8.7,0c-1.3,0-2.5-0.4-3.6-1.1c-2.2-1.5-4.2-3.1-5.9-4.7c-1.5-1.4-2.7-2.8-3.5-4.1 M88.7,109.3
			c0.2-0.4,0.4-0.7,0.6-1.1c0.7-1.7,1.4-4.6,2-8.5c0-0.1,0-0.2,0-0.3l0-0.1l0.1-0.9 M54,110.3c-0.6-0.9-1.1-1.8-1.3-2.6
			c-0.4-1.1-0.6-2.9-0.8-5.2l0-2.3 M20.6,134.6c1.5-2.8,2.9-4.6,4.3-5.4c1.9-1.1,6.2-2.4,13-3.9c2.4-0.5,4.6-1,6.8-1.4 M120.6,139.1
			c-2.8-5.4-5.1-8.8-7.1-9.9c-1.8-1.1-6.4-2.4-13.6-3.9l-3.5-0.7"/>
	</g>
	<g>
		<path id="Layer0_0_3_STROKES" class="st5" d="M67.1,96.7h1.4l0.8,1c0.7,0.6,1.3,0.9,2.1,0.8c1.1-0.1,1.9-0.7,2.2-1.8h1.9
			 M63.5,105.8c0.4,0.2,1.3,0.4,2.5,0.8l1-0.5c0.8-0.4,1.5-0.6,2-0.6c0.8,0,1.6,0.2,2.5,0.6l3.1-0.8c0.2,0,0.7,0.1,1.4,0.4
			c0.4,0.2,0.8,0.3,1.2,0.5c0.8,0.2,1.7,0.1,2.6-0.3 M68.7,109.6c1.9,0.6,3.8,0.6,5.8,0.2"/>
	</g>
	<g>
		<path id="Layer0_0_4_STROKES" class="st6" d="M72.6,139.8l15.9-14 M88.6,123.9L88.6,123.9v-1 M44.5,125.3l2.1-6.2l0.7,0.6
			 M57.1,131.7l0.3,2.2l13.4,6.2l-1-0.8l-22.6-19.5 M43,132.3l14.1-0.6v0 M43,132.3l-0.8,0l2.3-7 M72.3,140.1L72.3,140.1L72.3,140.1
			 M72.6,139.8l-0.3,0.3 M72.3,140.1l1-0.4 M77.2,146.9c-0.4,0-0.7-0.1-1-0.4c-0.3-0.3-0.5-0.6-0.5-1.1c0-0.4,0.2-0.7,0.5-1
			c0.3-0.3,0.6-0.4,1-0.4c0.4,0,0.8,0.1,1,0.4c0.3,0.3,0.4,0.6,0.4,1c0,0.4-0.1,0.8-0.4,1.1C77.9,146.7,77.5,146.9,77.2,146.9z
			 M72.3,140.1l0,12.5 M95.1,120l-0.1-0.8l-5.8-4.2l-0.5,8 M73.3,139.6l12.4-5.7l0.3-2.3l12.2,1.1l-1.7-8.2l-1-5l-0.4,0.3l-5,4.4
			l-1.5,1.3 M88.6,123.9l1.5,0.5"/>
	</g>
	<g>
		<path id="Layer0_0_5_STROKES" class="st7" d="M54,110.3l0.1,3.5 M54.5,125.2L54.5,125.2 M71.1,139.6c0.4,0.2,0.7,0.3,1.1,0.5
			l0.4-0.3 M88.5,125.7l0-1.8 M88.6,123l0.2-13.7"/>
	</g>
</g>
</svg>
