<?xml version="1.0" encoding="utf-8"?>
<!-- Generator: Adobe Illustrator 23.0.3, SVG Export Plug-In . SVG Version: 6.00 Build 0)  -->
<svg version="1.1" id="Layer_1" xmlns="http://www.w3.org/2000/svg" xmlns:xlink="http://www.w3.org/1999/xlink" x="0px" y="0px"
	 viewBox="0 0 145 160" style="enable-background:new 0 0 145 160;" xml:space="preserve">
<style type="text/css">
	.st0{fill:#FFFFFF;}
	.st1{fill:#FBB348;}
	.st2{fill:#FEFEFE;}
	.st3{fill:none;stroke:#000000;stroke-width:1.35;stroke-linecap:round;stroke-linejoin:round;}
	.st4{fill:none;stroke:#000000;stroke-width:5.000000e-02;}
	.st5{fill:#D1D1D1;}
	.st6{fill:none;stroke:#000000;stroke-width:1.35;stroke-linecap:round;}
	.st7{fill:none;stroke:#221F1F;stroke-width:1.35;stroke-linecap:round;stroke-linejoin:round;}
</style>
<g transform="matrix( 1, 0, 0, 1, 0,0) ">
	<g>
		<g id="Layer0_0_MEMBER_0_FILL">
			<path class="st0" d="M118.8,48.2c-4.4-4.4-9-8-14-10.8C95.2,31.8,84.4,29,72.5,29c-11.9,0-22.7,2.8-32.3,8.4
				c-5,2.9-9.6,6.5-14,10.8C14.1,60.3,7.7,74.8,7,91.6c0,1-0.1,1.9-0.1,2.9c0,18.1,6.4,33.5,19.2,46.3s28.2,19.2,46.3,19.2
				s33.5-6.4,46.3-19.2c12.8-12.8,19.2-28.2,19.2-46.3c0-1,0-2-0.1-2.9C137.3,74.8,130.9,60.3,118.8,48.2z"/>
		</g>
	</g>
</g>
<g transform="matrix( 1, 0, 0, 1, 0,0) ">
	<g>
		<g id="Layer0_0_MEMBER_1_FILL">
			<path class="st1" d="M50.4,130.2c-2.1-1.4-4-3-5.9-4.7l-1.8-1.8c-0.6,0.2-1.2,0.5-1.8,0.7c-3.5,1.3-7.3,3-11.3,4.9
				c-1.9,1-3.7,4.3-5.3,9.8c0.6,0.7,1.2,1.3,1.8,1.9c12.8,12.8,28.2,19.2,46.3,19.2s33.5-6.4,46.3-19.2c0.7-0.7,1.4-1.4,2.1-2.1
				c-1.6-6.2-3.3-10-5-11.3c-1.6-1.1-5.2-2.3-10.8-3.4l0,0l-7.8-1.3c-0.1,0.1-0.2,0.3-0.3,0.3v0.1l-7.1,6.7c0,0,0,0-0.1,0
				c-6.4,5-12.6,7.5-18.7,7.3C64.1,137.1,57.2,134.8,50.4,130.2z"/>
			<path d="M55.7,108.9h-0.8l-0.5,0l-0.5,9.2c-0.4,0.8-2.4,1.8-5.9,2.8h0c-2.2,0.5-3.9,0.9-5.2,1.3c0,0,0,0,0,0.1h0
				c0,0-0.1,0-0.2,0.1c-0.7,0.3-1.4,0.5-2.1,0.8c-3.5,1.4-7.3,3-11.4,5c-2.1,1-4.1,4.3-5.8,9.8c0.4,0.4,0.7,0.8,1.1,1.1
				c1.6-5.5,3.4-8.7,5.3-9.8c4-1.9,7.8-3.6,11.3-4.9c0.6-0.2,1.2-0.5,1.8-0.7l1.8,1.8c1.9,1.7,3.8,3.3,5.9,4.7
				c6.8,4.6,13.7,6.9,20.8,7c6,0.1,12.3-2.3,18.7-7.3c0,0,0,0,0.1,0l7.1-6.7v-0.1c0.1-0.1,0.3-0.2,0.3-0.3l7.8,1.3l0,0
				c5.6,1.1,9.2,2.3,10.8,3.4c1.7,1.3,3.3,5,5,11.3c0.4-0.4,0.7-0.8,1-1.1c-1.6-6.2-3.4-9.9-5.2-11.2c-1.6-1.2-5.4-2.4-11.3-3.6
				v-0.1l-8.2-1.4c-0.1,0-0.3,0-0.4,0c-0.1,0.1-0.2,0.1-0.3,0.2c-0.7,0.1-2.1-0.3-4.1-1.1c-2.2-0.9-3.4-1.7-3.5-2.4l-0.5-12.2
				l-0.6,0.1h-0.8l0.5,12.2c0,1.2,1.4,2.5,4.4,3.6c1.4,0.6,2.5,0.9,3.4,1.1l-6.4,6.1l0.1-0.1c-6.1,4.8-12,7.2-17.8,7.1
				c-6.8-0.1-13.5-2.3-20-6.8c-2-1.4-3.9-2.9-5.8-4.6l-1.2-1.3c1.1-0.3,2.5-0.6,4.1-1h0c4.3-1.3,6.5-2.5,6.9-3.8v-0.1L55.7,108.9z"
				/>
			<path class="st0" d="M54.8,108.9h0.8l-0.5,9.4v0.1c-0.3,1.3-2.6,2.5-6.9,3.8h0c-1.6,0.4-3,0.7-4.1,1l1.2,1.3
				c1.8,1.7,3.7,3.2,5.8,4.6c6.5,4.4,13.2,6.7,20,6.8c5.8,0.1,11.7-2.2,17.8-7.1l-0.1,0.1l6.4-6.1c-0.9-0.2-2-0.5-3.4-1.1
				c-3-1.2-4.4-2.4-4.4-3.6l-0.5-12.2h0.8l-0.3-11.1l-32.4,7.1L54.8,108.9z"/>
		</g>
	</g>
</g>
<g transform="matrix( 1, 0, 0, 1, 71.4,85.3) ">
	<g transform="matrix( 1, 0, 0, 1, 0,0) ">
		<g transform="matrix( 1, 0, 0, 1, 0,0) ">
			<g>
				<g id="fcyh_0_Layer0_0_FILL">
					<path class="st2" d="M23.5-3.3l-1-0.2l-3-22.8l0,0l-37.8,0.3c-1.6,13.8-2.6,22.6-2.9,26.6c0.2,0.7,0.2,1.2,0.1,1.6
						c-0.3,1.5-0.4,1-0.1-1.6c-0.2-0.6-0.4-1.3-0.7-2.1c-0.7-1.9-1.3-2.5-1.8-2c-0.8,0.9-1.1,2.1-0.9,3.6c0.1,1.1,0.6,3.4,1.4,6.9
						c0.5,2.4,0.9,4.1,1.3,4.9c0.7,1.6,1.6,2.5,2.9,2.6l1.7,6.7c0.6,2.8,2.2,5.5,4.6,8c2.6,2.6,5.5,4.1,8.5,4.6
						c10.2,1.7,17-2.3,20.4-12.1c0.6-1.9,1.1-3.5,1.5-5l0.4-1.6l0.7-0.2c0.5-0.2,1-0.4,1.5-0.6c0.5-0.3,1.4-2.7,2.7-7.2
						c1.2-4.4,1.7-7.3,1.6-8.4C24.5-2.3,24.1-3,23.5-3.3z"/>
				</g>
			</g>
			<g>
				<path id="fcyh_0_Layer0_0_1_STROKES" class="st3" d="M19.6-26.3L19.6-26.3l-37.8,0.2c-1.6,13.8-2.6,22.6-2.9,26.6
					c0.2,0.7,0.2,1.2,0.1,1.6c-0.3,1.5-0.4,1-0.1-1.6c-0.2-0.6-0.4-1.3-0.7-2.1c-0.7-1.9-1.3-2.5-1.8-2c-0.8,0.9-1.1,2.1-0.9,3.6
					c0.1,1.1,0.6,3.4,1.4,6.9c0.5,2.4,0.9,4.1,1.3,4.9c0.7,1.6,1.6,2.5,2.9,2.6l1.7,6.7c0.6,2.8,2.2,5.5,4.6,8
					c2.6,2.6,5.5,4.1,8.5,4.6c10.2,1.7,17-2.3,20.4-12.1c0.6-1.9,1.1-3.5,1.5-5l0.4-1.6l0.7-0.2c0.5-0.2,1-0.4,1.5-0.6
					c0.5-0.3,1.4-2.7,2.7-7.2c1.2-4.4,1.7-7.3,1.6-8.4c-0.1-1-0.5-1.6-1.1-1.9l-0.9-0.2"/>
			</g>
			<g>
				<path id="fcyh_0_Layer0_0_2_STROKES" class="st4" d="M19.6-26.3l-0.1-0.6"/>
			</g>
		</g>
		<g transform="matrix( 1, 0, 0, 1, 0,0) ">
			<g>
				<g id="fcyh_0_Layer0_1_MEMBER_0_MEMBER_0_MEMBER_0_FILL">
					<path class="st5" d="M15.9-18.4c0.6,0,1.2,0.2,1.7,0.6c0.5,0.4,0.7,1,0.8,1.6c0.1,1.2,0.2,3,0.3,5.5c0.1,2.2,0.5,3.9,1.1,5.2
						c0.2,0.4,0.5,1,0.9,1.7C20.9-3,21.1-2.5,21.2-2c0.1,0.6,0,1.5-0.2,2.7c-0.2,1.3-0.3,2.2-0.3,2.7c1.6-6.8,1.8-14.6,0.5-23.5
						c-0.2-1.9-0.4-3.3-0.5-4.3c-0.3-1.7-0.8-3-1.5-3.9C16-32.7,9-34.7-1.7-34.2C-5-34-7.8-33.6-9.9-33.1c-3,0.7-5.5,1.9-7.3,3.5
						c-1.8,1.6-3,4.3-3.5,8.1c-0.2,1.7-0.4,4.9-0.5,9.5c-0.1,3.9,0,6.9,0.3,9.1c0.1-1,0.6-2.4,1.5-4.3c1-1.9,1.6-4,1.8-6.2
						c0.1-1.3,0.5-2.6,1.2-3.6c0.3-0.5,0.7-0.9,1-1.3c0.9-0.4,2.8-0.5,5.9-0.3c1.6,0.1,3.6,0.2,6,0.4c1.8,0,5.1,0,9.8-0.1
						C10.4-18.4,13.7-18.5,15.9-18.4z"/>
				</g>
			</g>
		</g>
		<g transform="matrix( 1, 0, 0, 1, -64.4,-56.3) ">
			<g>
				<path id="fcyh_0_Layer0_1_MEMBER_1_MEMBER_0_MEMBER_0_1_STROKES" class="st3" d="M83.7,28.1c-3.3-4.5-10.2-6.5-20.9-6
					c-3.4,0.2-6.1,0.6-8.3,1.1c-3,0.7-5.5,1.9-7.3,3.4c-1.8,1.6-3,4.3-3.5,8.1c-0.2,1.7-0.4,4.9-0.5,9.5c-0.1,3.9,0,6.9,0.3,9
					c0.1-1,0.6-2.4,1.5-4.3c1-1.9,1.6-4,1.8-6.1c0.1-1.3,0.5-2.6,1.1-3.7c0.3-0.5,0.7-0.9,1-1.3c0.9-0.4,2.8-0.5,5.9-0.3
					c1.6,0.1,3.6,0.2,6,0.4c1.8,0,5,0,9.8-0.2c4.3-0.1,7.5-0.2,9.8-0.1c0.6,0,1.2,0.2,1.7,0.6c0.5,0.4,0.7,1,0.8,1.7
					c0.1,1.2,0.2,3,0.3,5.5c0.1,2.2,0.5,3.9,1.2,5.2c0.2,0.4,0.5,1,0.9,1.7c0.3,0.7,0.5,1.2,0.5,1.8c0.1,0.6,0.1,1.5-0.2,2.7
					c-0.2,1.3-0.3,2.2-0.3,2.7c1.6-6.8,1.8-14.6,0.5-23.5c-0.2-1.9-0.4-3.3-0.5-4.3C84.8,30.4,84.3,29.1,83.7,28.1z"/>
			</g>
		</g>
	</g>
	<g transform="matrix( 1, 0, 0, 1, -9.9,1.7) ">
		<g transform="matrix( 1, 0, 0, 1, -54.5,-58) ">
			<g>
				<g id="fuyjf_0_Layer0_0_MEMBER_0_FILL">
					<path d="M55.5,57c-0.3-0.2-0.6-0.3-1-0.3s-0.7,0.1-1,0.3c-0.3,0.3-0.4,0.6-0.4,1c0,0.4,0.1,0.7,0.4,1c0.3,0.3,0.6,0.4,1,0.4
						c0.4,0,0.7-0.1,1-0.4c0.3-0.2,0.4-0.6,0.4-1C55.8,57.6,55.7,57.3,55.5,57z"/>
				</g>
			</g>
		</g>
	</g>
	<g transform="matrix( 1, 0, 0, 1, 9.15,1.7) ">
		<g transform="matrix( 1, 0, 0, 1, -73.55,-58) ">
			<g>
				<g id="fcyuhfm_0_Layer0_0_MEMBER_0_FILL">
					<path d="M74.5,57c-0.3-0.2-0.6-0.3-0.9-0.3c-0.4,0-0.7,0.1-1,0.3c-0.2,0.3-0.4,0.6-0.4,1c0,0.4,0.1,0.7,0.4,1
						c0.3,0.3,0.6,0.4,1,0.4c0.4,0,0.7-0.1,0.9-0.4c0.3-0.2,0.4-0.6,0.4-1C74.9,57.6,74.8,57.3,74.5,57z"/>
				</g>
			</g>
		</g>
	</g>
	<g transform="matrix( 1, 0, 0, 1, -0.45,10.25) ">
		<g transform="matrix( 1, 0, 0, 1, -63.95,-66.55) ">
			<g>
				<path id="fjy_0_Layer0_0_MEMBER_0_1_STROKES" class="st6" d="M59.9,65.8l1.6,0.3c0,0,0.4,0.3,1,0.8c0.5,0.3,1,0.5,1.6,0.4
					c0.6-0.1,1.2-0.3,1.6-0.7c0.5-0.4,0.8-0.6,0.8-0.7c0.2,0,0.6,0,1.4,0"/>
			</g>
		</g>
	</g>
	<g transform="matrix( 1, 0, 0, 1, -0.55,19.9) ">
		<g transform="matrix( 1, 0, 0, 1, -63.85,-76.2) ">
			<g>
				<path id="dxrthdr_0_Layer0_0_MEMBER_0_1_STROKES" class="st6" d="M56,75.3c0.4,0.2,1.2,0.3,2.3,0.4l1-0.5
					c0.8-0.4,1.4-0.6,1.9-0.6c0.8,0,1.6,0.2,2.5,0.5l2.9-0.7c0.2,0,0.7,0.1,1.5,0.4c0.4,0.2,0.7,0.3,1.1,0.5c0.8,0.4,1.6,0.4,2.5,0"
					/>
			</g>
		</g>
		<g transform="matrix( 1, 0, 0, 1, -63.85,-76.2) ">
			<g>
				<path id="dxrthdr_0_Layer0_1_MEMBER_0_1_STROKES" class="st6" d="M61.1,78h6.2"/>
			</g>
		</g>
	</g>
	<g transform="matrix( 0.9962615966796875, -0.074951171875, 0.074951171875, 0.9962615966796875, 9.5,-2.2) ">
		<g transform="matrix( 1, 0, 0, 1, -73.9,-52.1) ">
			<g>
				<path id="tf7ufy_0_Layer0_0_MEMBER_0_1_STROKES" class="st3" d="M77.9,52.8l-8-1.5"/>
			</g>
		</g>
	</g>
	<g transform="matrix( 0.998443603515625, 0.0427093505859375, -0.0427093505859375, 0.998443603515625, -10.3,-2.1) ">
		<g transform="matrix( 1, 0, 0, 1, -54.1,-52.25) ">
			<g>
				<path id="tyg78uk_0_Layer0_0_MEMBER_0_1_STROKES" class="st3" d="M49.5,52.8l9.2-1.2"/>
			</g>
		</g>
	</g>
	<g transform="matrix( 1, 0, 0, 1, -64.4,-56.3) ">
		<g>
			<g id="of_head_0_Layer1_0_MEMBER_0_FILL">
				<path class="st0" d="M43.4,53.3c-0.2,2.4,0,4.5,0.6,6.4c-0.2-0.8-0.4-1.9-0.5-3.3C43.5,54.5,43.4,53.4,43.4,53.3z"/>
			</g>
		</g>
	</g>
	<g transform="matrix( 1, 0, 0, 1, -64.4,-56.3) ">
		<g>
			<path id="of_head_0_Layer0_0_MEMBER_0_1_STROKES" class="st7" d="M44,59.7c-0.2-0.8-0.4-1.9-0.5-3.3c-0.1-2-0.1-3-0.1-3.1
				C43.2,55.8,43.4,57.9,44,59.7z"/>
		</g>
	</g>
</g>
</svg>
