<?xml version="1.0" encoding="utf-8"?>
<!-- Generator: Adobe Illustrator 23.0.3, SVG Export Plug-In . SVG Version: 6.00 Build 0)  -->
<svg version="1.1" id="Layer_1" xmlns="http://www.w3.org/2000/svg" xmlns:xlink="http://www.w3.org/1999/xlink" x="0px" y="0px"
	 viewBox="0 0 145 160" style="enable-background:new 0 0 145 160;" xml:space="preserve">
<style type="text/css">
	.st0{fill:#FFFFFF;}
	.st1{fill:#231F20;}
	.st2{fill:#FEFEFE;}
	.st3{fill:#221F1F;}
	.st4{fill:#FBB348;}
</style>
<g transform="matrix( 1, 0, 0, 1, 0,0) ">
	<g>
		<g id="Layer0_0_FILL">
			<path class="st0" d="M118.8,48.2c-4.4-4.4-9-8-14-10.8C95.2,31.8,84.4,29,72.5,29c-11.9,0-22.7,2.8-32.3,8.4
				c-5,2.9-9.6,6.5-14,10.8C14.1,60.3,7.7,74.8,7,91.6c0,1-0.1,1.9-0.1,2.9c0,18.1,6.4,33.5,19.2,46.3s28.2,19.2,46.3,19.2
				s33.5-6.4,46.3-19.2c12.8-12.8,19.2-28.2,19.2-46.3c0-1,0-2-0.1-2.9C137.3,74.8,130.9,60.3,118.8,48.2z"/>
		</g>
	</g>
</g>
<g transform="matrix( 1, 0, 0, 1, 0,0) ">
	<g>
		<g id="Layer0_1_FILL">
			<path class="st1" d="M107.5,145.2c0.1,0.2,0.1,0.4,0.2,0.7l1.2,3.3c2.2-1.5,4.2-3.1,6.3-4.8l-1.9-2.9c-1-0.7-3.6-1.7-7.6-3
				l-0.2-0.1l0,0c0.2,0.7,0.4,1.4,0.6,2.1c0,0,0,0.1,0.1,0.1C106.5,142.1,107,143.6,107.5,145.2 M85.5,146.3
				c-0.2,0.3-0.4,0.6-0.7,0.8c0.1,1.1,0.1,2.3,0.2,3.6c0,0.2,0.1,0.3,0.1,0.4v0.1h0.1l1.4,0.6c0.2-0.1,0.3-0.2,0.5-0.3
				c1.1,2.8,1.8,5,1.9,6.6c5.4-1.3,10.5-3.4,15.3-6.1c-0.7-1.8-1.7-3.7-2.9-5.8c-0.1-0.2-0.2-0.4-0.3-0.6l-2.3-4.1
				c-0.1-0.2-0.2-0.4-0.3-0.6c0,0,0-0.1-0.1-0.1v0c-0.7-1.3-1.4-2.8-2-4.5l-3.5-0.9c-1,1.6-2,3.1-3,4.6L85.5,146.3 M79.6,153
				c-0.4,0.4-0.7,0.7-1.1,1c-1.9,1.7-3.5,2.7-4.9,3.1c-0.1,1-0.2,2-0.3,3c2.2,0,4.4-0.2,6.6-0.4c0-0.5,0-0.9,0-1.4L79.6,153
				 M52.3,136.6c-1.2,1.7-1.6,3.3-1.2,4.7c0,0,0,0.1,0,0.1l0.6,2.8c0.7,2.9,1.5,6.1,2.5,9.6c0.4,1.2,0.6,2.5,0.6,4
				c2.8,0.7,5.6,1.3,8.5,1.6c0-0.3-0.1-0.6-0.1-0.9c-0.1-2.2-0.2-4-0.3-5.3c-0.2-2.2-0.7-3.8-1.4-4.8c-0.1-0.1-0.1-0.1-0.1-0.2
				c0,0-0.1-0.1-0.1-0.1l0-0.1c0-0.1-0.1-0.1-0.1-0.1c0,0,0-0.1,0-0.1c0,0,0-0.1-0.1-0.1v0c0,0,0-0.1,0-0.1
				c-0.1-0.2-0.2-0.4-0.3-0.6c-0.1-0.4-0.3-0.8-0.3-1.3v-0.1c0,0,0-0.1,0-0.1c0,0,0-0.1,0-0.1v-0.1v-0.1c-0.3-0.4-0.7-0.8-1-1.3
				l-1-1.3c-1.6-2.2-3.4-4.6-5.3-7.2C52.8,136.1,52.5,136.3,52.3,136.6 M40.5,141.4C40.5,141.4,40.5,141.3,40.5,141.4
				c0-0.1,0-0.2,0-0.2c0,0,0-0.1,0-0.1c0-0.1,0-0.1,0-0.2c0,0,0-0.1,0-0.1c0-0.3,0.1-0.5,0.1-0.8l0.6-1.9l-0.6,0.1
				c-3,1-5.4,2.1-7.1,3.3c-0.7,0.4-1.3,1.3-1.9,2.6c-0.1,0.3-0.2,0.5-0.4,0.8c0,0.2,0,0.3,0,0.5v0.1c2.8,2.3,5.7,4.4,8.8,6.1
				c0-0.5,0-1.1,0-1.6C40.3,146.2,40.4,143.3,40.5,141.4z"/>
			<path class="st0" d="M96.6,136.3c0.6,1.7,1.3,3.2,2,4.5v0c0,0,0.1,0.1,0.1,0.1c0.1,0.2,0.1,0.3,0.3,0.6l2.3,4.1
				c0.1,0.2,0.2,0.4,0.3,0.6c1.2,2.1,2.2,4,2.9,5.8c1.5-0.9,3-1.8,4.5-2.8l-1.2-3.3c-0.1-0.2-0.1-0.4-0.2-0.7
				c-0.5-1.6-1-3.1-1.4-4.6c0,0-0.1-0.1-0.1-0.1c-0.2-0.7-0.4-1.4-0.6-2.1L96.6,136.3 M79.8,158.3c0,0.5,0,0.9,0,1.4
				c3.2-0.3,6.3-0.8,9.3-1.6c-0.2-1.6-0.8-3.8-1.9-6.6c-0.2,0.1-0.3,0.2-0.5,0.3l-1.4-0.6h-0.1v-0.1c-0.1-0.1-0.1-0.3-0.1-0.4
				c-0.1-1.2-0.1-2.4-0.2-3.6c0.2-0.3,0.4-0.6,0.7-0.8c-0.3,0.4-0.7,0.8-1,1.3c-1.8,2.2-3.4,4-4.9,5.5L79.8,158.3 M31.2,145.5v-0.1
				c0-0.2,0-0.3,0-0.5c-0.1,0.2-0.1,0.3-0.2,0.5C31.1,145.4,31.2,145.5,31.2,145.5 M60.5,145.8L60.5,145.8c0.1,0.5,0.2,0.9,0.3,1.3
				c0.1,0.2,0.2,0.4,0.3,0.6c0,0,0,0.1,0,0.1v0c0,0,0.1,0.1,0.1,0.1c0,0,0,0.1,0,0.1c0,0,0.1,0.1,0.1,0.1l0,0.1c0,0,0,0.1,0.1,0.1
				c0,0,0,0.1,0.1,0.2c0.7,1,1.2,2.6,1.4,4.8c0.1,1.3,0.2,3,0.3,5.3c0,0.3,0.1,0.6,0.1,0.9c3,0.4,6,0.6,9.2,0.6c0.3,0,0.5,0,0.8,0
				c0.2-1,0.3-2,0.3-3c-0.4,0.1-0.8,0.1-1.1,0.1h-0.2c-1.9-0.1-5.8-4-11.9-11.7v0.1c0,0,0,0.1,0,0.1
				C60.4,145.7,60.4,145.8,60.5,145.8 M53.1,135.8c-0.1-0.1-0.2-0.3-0.3-0.4l-12.2,2.9l0.6-0.1l-0.6,1.9c0,0.2-0.1,0.5-0.1,0.8
				c0,0,0,0.1,0,0.1c0,0.1,0,0.1,0,0.2c0,0,0,0.1,0,0.1c0,0,0,0.1,0,0.1c0,0,0,0.1,0,0.1c-0.1,1.9-0.2,4.8-0.5,8.6
				c0,0.6,0,1.1,0,1.6c4.7,2.7,9.6,4.8,14.8,6.2c-0.1-1.5-0.3-2.8-0.6-4c-1-3.5-1.8-6.7-2.5-9.6l-0.6-2.8c0,0,0-0.1,0-0.1
				c-0.4-1.4,0-3,1.2-4.7C52.5,136.3,52.8,136.1,53.1,135.8z"/>
			<path class="st2" d="M54.5,135.3L54.5,135.3c4.6,6.6,8.7,11.8,12.2,15.6c3,3.3,4.9,4.9,5.7,5c2.2,0.1,5.7-2.8,10.4-8.6
				c3.2-3.8,6.1-7.9,8.8-12.3l-0.1-0.1h0l-2.3-0.8c-1-0.3-1.8-0.9-2.5-1.7c0,0-0.1-0.1-0.1-0.1c-0.7-0.9-1-2-0.9-3.1l0.6-18.4
				l-26.1,2l-0.8,16.7c0,1.3-0.4,2.4-1.2,3.4c-0.8,1-1.8,1.6-3,1.9l-1,0.3v0.1C54.4,135.3,54.5,135.3,54.5,135.3z"/>
			<path d="M60.3,112h-1.5l-0.6,17.4c0,1-0.3,1.8-0.9,2.6c-0.6,0.7-1.4,1.2-2.3,1.4l-2.5,0.5v0.1c-2.4,0.4-4.9,0.9-7.5,1.6
				c-1.6,0.4-3.1,0.8-4.5,1.3l-0.3,0v0.1c-3.2,1-5.7,2.2-7.5,3.4c-1,0.7-1.9,2-2.8,4c0.4,0.3,0.7,0.7,1.1,1c0.1-0.1,0.1-0.3,0.2-0.5
				c0.1-0.3,0.2-0.6,0.4-0.8c0.6-1.3,1.2-2.1,1.9-2.6c1.7-1.2,4.1-2.3,7.1-3.3l12.2-2.9c0.1,0.1,0.2,0.3,0.3,0.4
				c1.9,2.6,3.7,5,5.3,7.2l1,1.3c0.3,0.4,0.7,0.9,1,1.3v0.1c6.1,7.7,10,11.6,11.9,11.7h0.2c0.3,0,0.7-0.1,1.1-0.1
				c1.4-0.4,3-1.4,4.9-3.1c0.4-0.3,0.7-0.6,1.1-1c1.5-1.5,3.1-3.3,4.9-5.5c0.3-0.4,0.7-0.8,1-1.3l4.6-6.3c1-1.5,2-3,3-4.6l3.5,0.9
				l8.8,2.1l0,0l0.2,0.1c4.1,1.3,6.6,2.3,7.6,3l1.9,2.9c0.5-0.4,1-0.9,1.5-1.3c-0.8-1.1-1.6-2-2.6-2.7c-1.4-1-5.2-2.4-11.4-4.2
				c-4.6-1.3-7.7-2.2-9.4-2.5c-0.3-0.1-0.5,0-0.7,0.2l-2.8-0.9c-0.3-0.1-0.5-0.2-0.8-0.4c-0.4-0.2-0.8-0.6-1-0.9
				c-0.5-0.6-0.7-1.4-0.7-2.2l0.5-18.9h-1.3v0.4l-0.6,18.4c0,1.1,0.3,2.2,0.9,3.1c0,0.1,0.1,0.1,0.1,0.1c0.6,0.8,1.5,1.4,2.5,1.7
				l2.3,0.8h0l0.1,0.1c-2.7,4.3-5.7,8.4-8.8,12.3c-4.7,5.8-8.2,8.6-10.4,8.6c-0.8,0-2.7-1.7-5.7-5c-3.5-3.8-7.6-9-12.2-15.6h0
				c0,0-0.1,0-0.3-0.1v-0.1l1-0.3c1.2-0.3,2.3-0.9,3-1.9c0.8-1,1.2-2.1,1.2-3.4l0.8-16.7V112z"/>
		</g>
	</g>
</g>
<g transform="matrix( 1, 0, 0, 1, 0,0) ">
	<g>
		<g id="Layer0_2_MEMBER_0_FILL">
			<path d="M94.3,109.9c0-0.2,0-0.3-0.1-0.5c0,0,0,0-0.1,0c-0.2-0.2-0.3-0.3-0.5-0.3h0c-0.4,0-0.6,0.2-0.7,0.7l0,1.3l-0.1,1.5
				l-0.3,7c0,0.4,0.2,0.7,0.7,0.8c0.5,0,0.7-0.2,0.7-0.7l0.3-7.2L94.3,109.9 M53.4,112.5c-0.2,0-0.5,0-0.7,0c-0.3,0-0.5,0-0.7-0.1
				l-0.3,7.1c0,0.4,0.2,0.7,0.7,0.8c0.5,0,0.7-0.2,0.7-0.7L53.4,112.5 M70.4,113.3c-0.3,0-0.8,0.2-1.5,0.4c-0.7,0.3-1.2,0.4-1.6,0.4
				c-0.7,0-1.3-0.2-2-0.6c-0.4-0.3-0.7-0.2-0.9,0.2c-0.1,0.1-0.2,0.3-0.2,0.5c0,0.2,0.1,0.3,0.3,0.4c0.9,0.6,1.8,0.9,2.8,0.8
				c0.5,0,1.3-0.2,2.2-0.5c0.4-0.2,0.8-0.3,1.1-0.4c0,0,0.3,0.1,0.8,0.3c0.6,0.3,1.1,0.4,1.4,0.4c0.4,0,0.9-0.2,1.5-0.6l0.7-0.3
				c0.3-0.1,0.8,0.1,1.6,0.4c1.1,0.5,2,0.8,2.8,0.8c0.8,0,1.5-0.2,2.3-0.7c0.4-0.2,0.5-0.5,0.2-0.9c-0.2-0.4-0.5-0.5-0.9-0.2
				c-0.6,0.4-1.2,0.5-1.9,0.4c-0.4-0.1-1-0.3-1.8-0.7c-1.1-0.5-2-0.7-2.6-0.5l-0.9,0.4c-0.4,0.3-0.7,0.4-0.9,0.4l-0.8-0.3
				C71.2,113.3,70.7,113.2,70.4,113.3 M68.8,116.6c-0.4-0.2-0.7,0-1,0.4c-0.2,0.4-0.1,0.7,0.4,0.9c1.2,0.5,2.7,0.8,4.4,0.8
				c1.7,0,3.1-0.3,4.2-0.8c0.2-0.1,0.3-0.2,0.3-0.4c0.1-0.2,0.1-0.4-0.1-0.6c-0.1-0.2-0.2-0.3-0.3-0.3c-0.2-0.1-0.4-0.1-0.6,0
				c-1.1,0.5-2.5,0.8-4.1,0.7C70.8,117.3,69.7,117,68.8,116.6 M74.7,107.5l1-0.1c0.2,0,0.3-0.1,0.4-0.3c0.1-0.2,0.2-0.3,0.1-0.5
				c-0.1-0.5-0.3-0.7-0.8-0.6l-0.5,0.1c-0.7-0.1-1.2,0.1-1.5,0.8c-0.2,0.4-0.6,0.7-1.2,0.8c-0.5,0.1-0.9,0-1.2-0.3
				c-0.2-0.2-0.3-0.4-0.4-0.7c-0.1-0.3-0.4-0.5-0.7-0.5h-1.5c-0.2,0-0.3,0.1-0.5,0.3c-0.1,0.1-0.2,0.3-0.2,0.5
				c0,0.2,0.1,0.3,0.2,0.5c0.2,0.1,0.3,0.2,0.5,0.2h1.1c0.5,1,1.3,1.5,2.4,1.5l0.6,0C73.6,108.9,74.3,108.4,74.7,107.5 M84.7,65.4
				c-0.5-0.1-1-0.2-1.5-0.3c0-0.1,0.1-0.1,0.1-0.2c0.1-0.1,0.1-0.2,0.2-0.3c0.7-1.8,0.8-3.6,0.4-5.5c-0.4-2.1-1.4-3.7-3-5
				c-0.9-0.8-2-1.4-3.5-2c-1.2-0.5-2.3-0.7-3.2-0.8c-2.5-0.2-4.8,0.4-7,1.8c-1.9,1.2-3.4,2.7-4.4,4.7c-0.9,1.7-1.3,3.3-1.2,5
				c0,0.6,0.1,1.1,0.3,1.6c-2.5,0.7-4.6,1.8-6.4,3.3c-4.5,3.6-6.8,9.3-6.7,17.1c0,0.4,0,0.8,0,1.2c0.1,1.6,0.3,3.3,0.5,5.2
				c0.3,1.9,0.5,3,0.7,3.4c0.1,0.3,0.3,0.4,0.5,0.5c-0.1,0.1-0.2,0.3-0.2,0.4c0,0.3,0.2,0.6,0.5,0.7c0.3,0.2,0.7,0.3,1,0.3
				c0.4,0.1,0.8,0.2,1.1,0.2c0.1,2.4,0.6,4.4,1.5,6.2c1.3,2.3,3.1,3.6,5.6,3.9l1.3,0c2.4,0,4.4-0.7,6.1-2.2c1.7-1.5,2.5-3.2,2.5-5.2
				l4.4,0.1c0.1,1.9,0.9,3.6,2.6,5.1c1.7,1.5,3.7,2.2,6.1,2.2l1.3,0c2.5-0.3,4.3-1.6,5.6-4c0.9-1.8,1.4-3.8,1.5-6.2
				c1.3,0.2,2.4,0.1,3.4-0.2c0.2,0,0.5-0.1,0.7-0.2c0.3-0.1,0.5-0.4,0.5-0.7c0-0.1,0-0.2-0.1-0.3c0.4-0.7,0.8-1.9,1.3-3.6
				c0.1-0.5,0.3-1.1,0.3-1.6c0.5-2.1,0.8-3.9,0.7-5.3C97.8,78,96.1,73,93,69.8C90.9,67.6,88.2,66.1,84.7,65.4 M82.1,63.9
				c0,0.2-0.1,0.3-0.2,0.4c-0.1,0.2-0.2,0.4-0.3,0.7c-0.3,0.5-0.6,1-1.1,1.3c-0.3,0.3-0.7,0.6-1.1,0.8c-1.1,0.6-2.3,0.8-3.8,0.6
				h-0.1c-0.6-0.1-1.8,0-3.6,0.1c0,0-0.1,0-0.1,0c-1.9,0.2-3.3,0.2-4.2,0.1c-1.5-0.2-2.7-0.8-3.5-1.8c-0.2-0.2-0.3-0.4-0.5-0.7
				c-0.2-0.4-0.4-0.8-0.5-1.3c-0.2-0.5-0.2-1-0.3-1.6c0-1.3,0.3-2.7,1.1-4.2c0.8-1.6,2-2.9,3.5-4c1.7-1.2,3.6-1.8,5.6-1.8
				c0.4,0,0.6,0,0.8,0.1c0.8,0.1,1.7,0.3,2.8,0.7c1.3,0.5,2.4,1.1,3.2,1.8c1.3,1.1,2.1,2.5,2.5,4.3C82.8,61,82.7,62.5,82.1,63.9
				 M82.3,66.4c3.3,0.4,6,1.3,8.1,2.9c3.9,2.9,6,8,6.3,15.3c0.1,1.7-0.3,3.9-1.1,6.7c-0.1-7-2.1-12.3-6-15.8c-3.8-3.3-9.2-5-16.3-5
				c-0.3,0-0.6,0-1,0l1.3-1.4c1,0,1.6,0,2,0c1.7,0.2,3.3,0,4.6-0.8C81,67.8,81.7,67.2,82.3,66.4 M89.9,95.3v0.2
				c0,0.1-0.2,1.7-0.6,4.7c-0.9,3-2.7,4.7-5.3,5c-2.5,0.3-4.6-0.3-6.3-1.8c-1.4-1.2-2.1-2.7-2.1-4.3c0-1,0.4-1.8,1.2-2.4
				c1.4-1.2,4-1.8,7.8-1.8C86.3,95,88,95.1,89.9,95.3 M94.1,93.8c0,0.3,0,0.5,0,0.7c-2.2-0.4-4.5-0.7-6.9-0.8
				c-3.2-0.2-5.8,0-7.8,0.5c-0.1-0.1-0.2-0.1-0.4-0.1l-13.8,0c-1.8-0.5-4.2-0.6-7.1-0.4c-3.5,0.5-5.8,0.8-6.7,0.9c0,0,0,0,0,0
				c0.1-0.2,0.3-0.8,0.5-1.7C53.3,87.4,55,83,57,79.8c2.3-3.7,4.9-6.1,8-7.3c10.9-1.6,18.7-0.3,23.6,4c2.6,2.3,4.3,5.4,5.1,9.3
				C94.1,88,94.2,90.7,94.1,93.8 M62.5,66c0.2,0.3,0.4,0.6,0.7,0.8c1.3,1.5,3.1,2.3,5.5,2.3c0.2,0,0.4,0.1,0.6,0.1
				c0.8,0,1.6,0,2.3-0.1l-0.9,1.2c-0.3,0-0.5,0-0.8,0c-1.8,0-3.5,0.3-5.1,0.8c-6.1,2.2-10.8,9-14,20.3c-0.3-2.1-0.6-3.9-0.6-5.5
				c0-0.5,0-0.9,0-1.3c0-2.3,0.2-4.4,0.5-6.3c0.9-4.1,2.7-7.3,5.6-9.6c0.8-0.6,1.6-1.2,2.5-1.7c1.1-0.5,2.3-1,3.5-1.3
				C62.4,65.8,62.5,65.9,62.5,66 M64.3,95.3c0.1,0.1,0.3,0.2,0.5,0.2H65c0.9,0.3,1.7,0.6,2.3,1.1c0.8,0.7,1.2,1.5,1.2,2.6
				c0,1.6-0.7,3-2.1,4.3c-1.7,1.5-3.8,2.1-6.3,1.8c-2.6-0.3-4.3-2-5.3-5c-0.4-3-0.5-4.6-0.5-4.7C58.6,94.9,61.9,94.8,64.3,95.3
				 M69.7,97.9c-0.2-1-0.8-1.8-1.6-2.4l8.1-0.1c-0.1,0.1-0.2,0.2-0.3,0.3c-0.8,0.6-1.3,1.4-1.5,2.3L69.7,97.9 M60.7,97.3
				c-0.4,0-0.8,0.2-1.1,0.4c-0.3,0.3-0.4,0.6-0.4,1.1c0,0.4,0.1,0.7,0.4,1c0.3,0.3,0.7,0.4,1.1,0.4c0.4,0,0.8-0.1,1-0.4
				c0.3-0.3,0.5-0.6,0.5-1c0-0.4-0.2-0.8-0.5-1.1C61.4,97.4,61.1,97.3,60.7,97.3 M56.5,92.6c1.2-0.3,2.5-0.4,3.9-0.4l5,1.5l0.3,0
				c0.4,0,0.6-0.2,0.8-0.5c0.1-0.2,0.1-0.4,0-0.7c-0.1-0.2-0.3-0.3-0.5-0.3l-5.2-1.6l-0.3,0c-1.5,0-2.9,0.2-4.3,0.5
				c-0.9,0.2-1.5,0.3-1.7,0.4C54,91.7,53.9,92,54,92.5c0.2,0.5,0.5,0.6,1,0.4C55.1,93,55.6,92.9,56.5,92.6 M90.7,92.4
				c0.1-0.2,0.1-0.4,0-0.6c-0.1-0.2-0.3-0.3-0.5-0.4c-1.6-0.6-3.6-0.9-5.9-1l-0.3,0.1l-5.3,1.4c-0.5,0.2-0.7,0.5-0.6,1
				c0.1,0.4,0.4,0.6,0.8,0.6l5.4-1.5c2.1,0.1,3.8,0.3,5.3,0.8C90.2,93.1,90.5,92.9,90.7,92.4 M82.8,97.9c-0.4,0-0.8,0.1-1,0.4
				c-0.3,0.3-0.5,0.6-0.5,1.1c0,0.4,0.2,0.8,0.5,1c0.3,0.3,0.6,0.4,1,0.4c0.4,0,0.8-0.1,1.1-0.4c0.3-0.3,0.4-0.7,0.4-1
				c0-0.4-0.1-0.8-0.4-1.1C83.6,98,83.3,97.9,82.8,97.9z"/>
			<path class="st0" d="M98.3,95.1c-0.4-0.3-1-0.4-1.8-0.3l-4,16.2c0.1,0,0.3,0.1,0.4,0.1l0-1.3c0.1-0.5,0.3-0.7,0.7-0.7h0
				c0.2,0,0.3,0.1,0.5,0.3c0,0,0,0,0.1,0c0.1-0.9,0.4-1.9,0.8-2.8c0.3-0.7,0.9-1.9,1.8-3.5c0.7-1.3,1.2-2.3,1.5-2.8
				c0.4-1.1,0.7-2,0.7-2.9C99,96.2,98.8,95.5,98.3,95.1 M94.7,96.2c-1,0.3-2.1,0.4-3.4,0.2c-0.1,2.4-0.6,4.4-1.5,6.2
				c-1.3,2.4-3.1,3.7-5.6,4l-1.3,0c-2.4,0-4.4-0.7-6.1-2.2c-1.6-1.5-2.5-3.2-2.6-5.1l-4.4-0.1c0,1.9-0.9,3.7-2.5,5.2
				c-1.7,1.5-3.7,2.2-6.1,2.2l-1.3,0c-2.4-0.3-4.3-1.6-5.6-3.9c-0.9-1.7-1.5-3.8-1.5-6.2c-0.3,0-0.7-0.1-1.1-0.2l2.6,11
				c1.8,4.9,3.8,8.9,6,12c3.6,5.1,7.7,7.7,12.3,7.7c5.9,0,11.5-4.5,16.6-13.4c0.8-1.5,1.6-2.9,2.3-4.3L94.7,96.2 M75.7,107.5l-1,0.1
				c-0.3,0.9-1,1.4-2.2,1.6l-0.6,0c-1.1,0-1.9-0.5-2.4-1.5h-1.1c-0.2,0-0.3-0.1-0.5-0.2c-0.1-0.2-0.2-0.3-0.2-0.5
				c0-0.2,0.1-0.4,0.2-0.5c0.2-0.2,0.3-0.3,0.5-0.3h1.5c0.3,0,0.6,0.2,0.7,0.5c0.1,0.3,0.2,0.5,0.4,0.7c0.3,0.3,0.7,0.4,1.2,0.3
				c0.6-0.1,1-0.4,1.2-0.8c0.3-0.7,0.8-0.9,1.5-0.8l0.5-0.1c0.4-0.1,0.7,0.1,0.8,0.6c0.1,0.2,0,0.3-0.1,0.5
				C76,107.4,75.8,107.5,75.7,107.5 M67.8,117c0.2-0.4,0.6-0.6,1-0.4c0.9,0.4,1.9,0.6,3.3,0.7c1.6,0.1,3-0.1,4.1-0.7
				c0.2-0.1,0.3-0.1,0.6,0c0.2,0.1,0.3,0.2,0.3,0.3c0.1,0.2,0.1,0.3,0.1,0.6c-0.1,0.2-0.2,0.3-0.3,0.4c-1.1,0.5-2.5,0.8-4.2,0.8
				c-1.7,0-3.2-0.3-4.4-0.8C67.8,117.8,67.7,117.5,67.8,117 M68.9,113.7c0.7-0.3,1.2-0.4,1.5-0.4c0.3-0.1,0.8,0,1.5,0.3l0.8,0.3
				c0.2,0,0.5-0.1,0.9-0.4l0.9-0.4c0.6-0.2,1.5,0,2.6,0.5c0.7,0.4,1.3,0.6,1.8,0.7c0.7,0.1,1.3-0.1,1.9-0.4c0.4-0.3,0.7-0.2,0.9,0.2
				c0.3,0.4,0.2,0.7-0.2,0.9c-0.7,0.5-1.5,0.7-2.3,0.7c-0.7,0-1.6-0.3-2.8-0.8c-0.8-0.4-1.3-0.5-1.6-0.4l-0.7,0.3
				c-0.7,0.4-1.2,0.6-1.5,0.6c-0.3,0-0.8-0.1-1.4-0.4c-0.5-0.2-0.8-0.3-0.8-0.3c-0.3,0.1-0.7,0.2-1.1,0.4c-0.9,0.3-1.6,0.5-2.2,0.5
				c-1,0.1-1.9-0.2-2.8-0.8c-0.2-0.1-0.3-0.3-0.3-0.4c0-0.2,0-0.4,0.2-0.5c0.2-0.4,0.6-0.5,0.9-0.2c0.6,0.4,1.3,0.6,2,0.6
				C67.7,114.2,68.3,114,68.9,113.7 M53.8,111l-0.3-1.3c0,0.1,0,0.1,0,0.2l0,1.2C53.6,111,53.7,111,53.8,111 M48.2,95.1
				c-0.5,0.4-0.8,1.1-0.8,2.2c0,0.9,0.3,1.9,0.7,2.9c0.3,0.6,0.7,1.6,1.4,2.8c0.9,1.5,1.5,2.7,1.8,3.5c0.4,1.1,0.7,2.1,0.8,3.2
				c0.1-0.4,0.3-0.6,0.7-0.6h0c0.2,0,0.4,0.1,0.5,0.3c0,0,0.1,0.1,0.1,0.1l-3.5-14.7l-0.6,0C48.8,94.8,48.4,94.9,48.2,95.1
				 M68.1,95.5c0.8,0.6,1.4,1.5,1.6,2.4l4.7,0.1c0.2-0.9,0.7-1.7,1.5-2.3c0.1-0.1,0.2-0.2,0.3-0.3L68.1,95.5 M64.8,95.5
				c-0.2,0-0.4-0.1-0.5-0.2c-2.4-0.5-5.7-0.4-10.1,0.3c0,0.1,0.2,1.7,0.5,4.7c0.9,3,2.7,4.7,5.3,5c2.5,0.3,4.6-0.3,6.3-1.8
				c1.4-1.2,2.1-2.7,2.1-4.3c0-1.1-0.4-1.9-1.2-2.6c-0.6-0.5-1.3-0.8-2.3-1.1H64.8 M59.6,97.7c0.3-0.3,0.7-0.4,1.1-0.4
				c0.4,0,0.8,0.2,1,0.4c0.3,0.3,0.5,0.6,0.5,1.1c0,0.4-0.2,0.7-0.5,1c-0.3,0.3-0.6,0.4-1,0.4c-0.4,0-0.8-0.1-1.1-0.4
				c-0.3-0.3-0.4-0.6-0.4-1C59.2,98.4,59.3,98,59.6,97.7 M94.1,94.5c0-0.2,0-0.4,0-0.7c0.1-3.1,0-5.8-0.4-8c-0.8-3.9-2.5-7-5.1-9.3
				c-4.9-4.3-12.7-5.6-23.6-4c-3.1,1.2-5.7,3.6-8,7.3c-2,3.2-3.7,7.5-5.2,13.1c-0.2,0.9-0.4,1.4-0.5,1.7c0,0,0,0,0,0
				c0.9-0.1,3.1-0.4,6.7-0.9c2.9-0.2,5.3-0.1,7.1,0.4l13.8,0c0.2,0,0.3,0,0.4,0.1c2-0.5,4.7-0.6,7.8-0.5
				C89.5,93.8,91.8,94.1,94.1,94.5 M90.7,91.8c0.1,0.2,0.1,0.4,0,0.6c-0.2,0.5-0.5,0.7-1,0.5c-1.4-0.5-3.2-0.8-5.3-0.8L79,93.5
				c-0.4,0-0.7-0.2-0.8-0.6c-0.1-0.5,0.1-0.8,0.6-1l5.3-1.4l0.3-0.1c2.3,0.1,4.3,0.4,5.9,1C90.4,91.5,90.5,91.6,90.7,91.8
				 M60.4,92.1c-1.3,0-2.6,0.2-3.9,0.4c-1,0.3-1.5,0.4-1.5,0.4c-0.5,0.2-0.8,0-1-0.4c-0.2-0.5,0-0.9,0.5-1.1
				c0.2-0.1,0.8-0.3,1.7-0.4c1.4-0.3,2.8-0.5,4.3-0.5l0.3,0l5.2,1.6c0.2,0.1,0.4,0.2,0.5,0.3c0.1,0.2,0.1,0.4,0,0.7
				c-0.1,0.4-0.4,0.5-0.8,0.5l-0.3,0L60.4,92.1 M89.9,95.5v-0.2C88,95.1,86.3,95,84.7,95c-3.8,0-6.4,0.6-7.8,1.8
				c-0.8,0.7-1.2,1.5-1.2,2.4c0,1.6,0.7,3,2.1,4.3c1.7,1.5,3.8,2.1,6.3,1.8c2.6-0.3,4.3-2,5.3-5C89.7,97.2,89.9,95.7,89.9,95.5
				 M81.8,98.3c0.3-0.3,0.6-0.4,1-0.4c0.4,0,0.8,0.1,1.1,0.4c0.3,0.3,0.4,0.6,0.4,1.1c0,0.4-0.1,0.8-0.4,1c-0.3,0.3-0.7,0.4-1.1,0.4
				c-0.4,0-0.8-0.1-1-0.4c-0.3-0.3-0.5-0.7-0.5-1C81.3,99,81.5,98.6,81.8,98.3z"/>
			<path class="st3" d="M97.3,89.8c-0.1,0.5-0.2,1-0.3,1.6c-0.5,1.7-0.9,2.9-1.3,3.6c0.1,0.1,0.1,0.2,0.1,0.3c0,0.3-0.2,0.6-0.5,0.7
				c-0.2,0.1-0.4,0.2-0.7,0.2l-3.3,13.1c-0.7,1.4-1.5,2.9-2.3,4.3c-5.1,8.9-10.7,13.4-16.6,13.4c-4.6,0-8.7-2.6-12.3-7.7
				c-2.1-3.1-4.1-7.1-6-12l-2.6-11c-0.3-0.1-0.6-0.2-1-0.3c-0.3-0.1-0.5-0.4-0.5-0.7c0-0.2,0.1-0.3,0.2-0.4c-0.2,0-0.4-0.2-0.5-0.5
				c-0.2-0.4-0.4-1.6-0.7-3.4c-0.3-1.9-0.5-3.6-0.5-5.2c-0.3,2.5-0.2,5.1,0.2,7.6c-0.6,0.1-1.1,0.2-1.6,0.5
				c-0.9,0.7-1.3,1.8-1.3,3.4c0,1.1,0.3,2.2,0.8,3.4c0.3,0.7,0.8,1.8,1.5,3.1c0.8,1.4,1.4,2.5,1.7,3.2c0.5,1.3,0.8,2.5,0.8,3.7
				c0,0.8,0.3,1.3,0.8,1.6c0.2,0.1,0.3,0.2,0.5,0.3c0.2,0.1,0.4,0.1,0.7,0.1c0.2,0,0.5,0,0.7,0c0.5-0.1,1-0.2,1.3-0.5
				c1.5,3.3,3,6.1,4.7,8.4c3.8,5.3,8.2,8,13.2,8c6.5,0,12.4-4.7,17.8-14.2c0.4-0.7,0.8-1.5,1.2-2.2c0.4,0.2,0.8,0.3,1.3,0.4l0.1-1.5
				c-0.1,0-0.3-0.1-0.4-0.1l4-16.2c0.7-0.2,1.3-0.1,1.8,0.3c0.5,0.4,0.8,1.1,0.8,2.2c0,0.9-0.3,1.9-0.7,2.9
				c-0.3,0.6-0.8,1.5-1.5,2.8c-0.9,1.6-1.5,2.8-1.8,3.5c-0.4,1-0.7,1.9-0.8,2.8c0.1,0.1,0.1,0.3,0.1,0.5l-0.1,2.6
				c0.2,0,0.4-0.1,0.6-0.3c0.5-0.3,0.8-0.8,0.8-1.6c0-1.2,0.3-2.4,0.8-3.7c0.3-0.8,0.8-1.8,1.7-3.2c0.7-1.3,1.3-2.3,1.6-3.1
				c0.5-1.2,0.7-2.3,0.8-3.4c0-1.5-0.4-2.7-1.3-3.4c-0.4-0.3-1-0.5-1.7-0.5C97.5,92.2,97.4,91,97.3,89.8 M47.5,97.3
				c0-1.1,0.3-1.8,0.8-2.2c0.2-0.2,0.6-0.3,1.1-0.3l0.6,0l3.5,14.7c0,0-0.1-0.1-0.1-0.1c-0.1-0.2-0.3-0.3-0.5-0.3h0
				c-0.4,0-0.6,0.2-0.7,0.6c-0.1-1-0.3-2.1-0.8-3.2c-0.3-0.8-0.9-2-1.8-3.5c-0.7-1.3-1.2-2.2-1.4-2.8C47.7,99.2,47.5,98.2,47.5,97.3
				 M53.5,109.7l0.3,1.3c-0.1,0-0.2,0-0.3,0.1l0-1.2C53.5,109.9,53.5,109.8,53.5,109.7 M83.2,65.1c0.5,0.1,1,0.2,1.5,0.3
				c-0.4-0.3-0.9-0.5-1.3-0.8c0,0.1-0.1,0.2-0.2,0.3C83.2,65,83.2,65.1,83.2,65.1z"/>
			<path class="st4" d="M63.2,66.9c-0.2-0.3-0.4-0.6-0.7-0.8c-0.1-0.1-0.1-0.3-0.2-0.5c-1.2,0.4-2.4,0.8-3.5,1.3
				c-0.9,0.5-1.8,1.1-2.5,1.7c-2.9,2.3-4.7,5.5-5.6,9.6c-0.4,1.9-0.6,4-0.5,6.3c0,0.4,0,0.9,0,1.3c0.1,1.6,0.3,3.4,0.6,5.5
				c3.2-11.3,7.8-18.1,14-20.3c1.6-0.6,3.3-0.9,5.1-0.8c0.3,0,0.5,0,0.8,0l0.9-1.2c-0.7,0.1-1.5,0.1-2.3,0.1c-0.2,0-0.4,0-0.6-0.1
				C66.3,69.2,64.5,68.4,63.2,66.9 M90.4,69.3c-2.1-1.5-4.8-2.5-8.1-2.9c-0.6,0.8-1.3,1.4-2.2,1.9c-1.3,0.7-2.9,1-4.6,0.8
				c-0.3,0-1,0-2,0l-1.3,1.4c0.3,0,0.6,0,1,0c7,0,12.4,1.7,16.3,5c3.9,3.5,5.9,8.8,6,15.8c0.8-2.8,1.2-5,1.1-6.7
				C96.4,77.3,94.3,72.2,90.4,69.3 M81.9,64.3c0.1-0.1,0.1-0.3,0.2-0.4c0.6-1.4,0.7-2.9,0.3-4.5c-0.4-1.8-1.2-3.2-2.5-4.3
				c-0.8-0.7-1.9-1.3-3.2-1.8c-1.1-0.4-2-0.6-2.8-0.7c-0.2,0-0.5-0.1-0.8-0.1c-2,0-3.8,0.6-5.6,1.8c-1.5,1.1-2.7,2.4-3.5,4
				c-0.7,1.4-1.1,2.8-1.1,4.2c0,0.6,0.1,1.1,0.3,1.6c0.1,0.5,0.3,0.9,0.5,1.3c0.2,0.3,0.3,0.5,0.5,0.7c0.8,1,2,1.7,3.5,1.8
				c0.9,0.1,2.2,0.1,4.2-0.1c0,0,0.1,0,0.1,0c1.8-0.1,3-0.2,3.6-0.1h0.1c1.4,0.2,2.7,0,3.8-0.6c0.4-0.2,0.8-0.5,1.1-0.8
				c0.4-0.3,0.8-0.8,1.1-1.3C81.8,64.8,81.9,64.6,81.9,64.3z"/>
		</g>
	</g>
</g>
</svg>
