<?xml version="1.0" encoding="UTF-8"?>
<svg width="149px" height="31px" viewBox="0 0 149 31" version="1.1" xmlns="http://www.w3.org/2000/svg" xmlns:xlink="http://www.w3.org/1999/xlink">
    <title>logo-555</title>
    <g id="Page-1" stroke="none" stroke-width="1" fill="none" fill-rule="evenodd">
        <g id="ביטוח-ישיר-2" transform="translate(-218.000000, -147.000000)">
            <g id="Group-2" transform="translate(0.000000, 147.000000)">
                <g id="logo-555" transform="translate(218.000000, 0.000000)">
                    <g id="Group">
                        <path d="M2.80496346,4.14068345 C1.28758401,5.50710899 0,7.82965598 0,11.7821265 L0,21.1325426 C0,21.1325426 0,30.7389282 7.61607763,30.7389282 L24.8033179,30.7389282 C26.8690964,30.6375096 28.8150303,29.7083635 30.22722,28.149119 C29.9677661,28.1925127 29.7057553,28.2176657 29.4429974,28.2244041 L9.46173629,28.2244041 C1.84930621,28.2319326 1.84930621,18.6180185 1.84930621,18.6180185 L1.84930621,9.20737429 C1.80429934,7.46661751 2.1305468,5.7369231 2.80496346,4.14068345" id="Path" fill="#D2232A"></path>
                        <path d="M11.6721496,0 C11.6721496,0 3.7059075,0 3.7059075,8.23243155 L3.7059075,18.2566498 C3.7059075,18.2566498 3.7059075,26.4928456 11.6830923,26.4928456 L27.2763546,26.4928456 C27.2763546,26.4928456 35.2535394,26.4928456 35.2535394,18.2566498 L35.2535394,8.23243155 C35.2535394,8.23243155 35.2535394,0 27.2763546,0 L11.6721496,0 Z" id="Path" fill="#D2232A"></path>
                        <path d="M147.802242,14.9365745 L145.398509,14.9365745 C146.016602,14.4034407 146.500851,13.7242021 146.810109,12.9565749 C147.244589,12.080005 147.482679,11.1138947 147.506791,10.1296174 C147.571761,8.52316806 146.950394,6.96820911 145.807034,5.87600624 C144.676295,4.80444756 143.192959,4.26741346 141.357027,4.26490395 C138.716203,4.26490395 136.576309,4.67144378 134.937345,5.48452344 C134.803297,5.53948441 134.713224,5.67080303 134.707549,5.81954238 C134.719055,5.95290797 134.760248,6.08173014 134.827918,6.19596815 L136.173863,8.85729833 C136.286937,9.09821082 136.476609,9.13961765 136.735585,8.98151883 C138.009795,8.14836313 139.129592,7.73304003 140.094976,7.73554954 C140.810937,7.71157845 141.501701,8.0096364 141.988053,8.55239346 C142.538624,9.2395661 142.816259,10.1166087 142.76498,11.0066895 C142.812467,12.0817872 142.48362,13.1386396 141.838503,13.9842173 C141.454489,14.5481445 140.841973,14.9002434 140.175222,14.9403387 L135.768985,14.9403387 C135.404231,14.9403387 135.218206,15.0871448 135.218206,15.3732284 L135.218206,17.9479806 C135.201429,18.0642072 135.238209,18.1818512 135.317643,18.266043 C135.397078,18.3502348 135.510053,18.3913144 135.623084,18.377106 L146.266625,18.377106 C146.454428,18.4024237 146.638995,18.3108788 146.737158,18.143722 L148.108636,15.4146352 L148.108636,15.3431143 C148.108636,15.075852 148.002857,14.9403387 147.798595,14.9403387 L147.802242,14.9365745 Z M133.75554,7.61885755 C133.792521,6.61355893 133.560302,5.61718941 133.084391,4.73920042 C132.894719,4.41547426 132.697751,4.25361118 132.493488,4.25361118 C132.466874,4.24969868 132.439857,4.24969868 132.413242,4.25361118 L128.765696,5.0441053 C128.561433,5.09304065 128.455654,5.20220412 128.455654,5.37912423 C128.459004,5.44896415 128.483212,5.51602348 128.524958,5.57110137 C129.049895,6.46793057 129.303878,7.50588579 129.254467,8.55239346 L129.254467,12.2526588 C129.254467,12.6667271 129.466025,12.8775255 129.885492,12.8775255 L132.748817,12.9038753 C133.121534,12.9449189 133.463735,12.6877861 133.540334,12.3091226 C133.67088,11.7286043 133.742998,11.1357271 133.75554,10.5399215 L133.75554,7.61885755 Z M126.420323,6.67779313 C125.544742,5.21718593 123.976273,4.35466985 122.313185,4.41923852 C121.034112,4.41923852 120.026174,4.73794567 119.289369,5.37535997 C119.063199,5.52842395 118.978187,5.82831066 119.088754,6.08304042 L119.975108,8.24372433 C120.084534,8.48463682 120.245026,8.52227939 120.460232,8.35665206 C120.675194,8.17069911 120.945749,8.06699186 121.226216,8.06303996 C121.751787,8.09709952 122.21879,8.42079428 122.448145,8.90999794 C122.832678,9.63948634 123.018004,10.463059 122.984334,11.292773 C122.984334,12.6780199 122.766697,13.74205 122.331423,14.4848636 C122.00041,15.1714738 121.323694,15.6079547 120.580601,15.6141409 C119.085107,15.6141409 118.337359,14.1774492 118.337359,11.3040658 L118.337359,8.51851514 C118.374903,7.11868841 118.040637,5.73493685 117.37076,4.51710922 C117.261333,4.3138393 117.057071,4.2611397 116.754324,4.36277465 L113.471532,5.51463751 C113.150548,5.62380098 113.063007,5.80072109 113.216204,6.04163358 C113.653909,6.74178551 113.87641,7.72802102 113.87641,8.9928116 L113.87641,11.292773 C113.87641,13.8800728 114.534184,15.8199203 115.849733,17.1123154 C117.019379,18.2691973 118.640106,18.8463835 120.711912,18.8438821 C122.90044,18.8438821 124.641536,18.016992 125.935199,16.3632281 C127.060886,14.9315779 127.661456,13.1361979 127.631309,11.292773 C127.680887,9.66918166 127.259183,8.06734227 126.420323,6.69285016 L126.420323,6.67779313 Z M111.852021,7.63391458 C111.891022,6.62980836 111.662687,5.63386732 111.191815,4.75425745 C111.007006,4.43053129 110.810039,4.26866821 110.600913,4.26866821 C110.569435,4.26440908 110.537554,4.26440908 110.506077,4.26866821 L106.85853,5.11562619 C106.643325,5.17209006 106.533898,5.28125353 106.533898,5.44688087 C106.534902,5.51833538 106.559331,5.58733179 106.603202,5.64262227 C107.128139,6.53945146 107.382122,7.57740669 107.332711,8.62391435 L107.332711,17.8915168 C107.332711,18.2152429 107.511441,18.3733418 107.8689,18.3733418 L111.36325,18.3733418 C111.492461,18.3938582 111.623443,18.3498988 111.716243,18.2548715 C111.809043,18.1598442 111.852658,18.0250182 111.833784,17.8915168 L111.852021,7.63391458 Z M105.308322,10.4759291 C105.308322,8.39805889 104.68216,6.81330641 103.429836,5.72167168 C102.263681,4.75918322 100.800139,4.26330033 99.308108,4.32513208 C96.3900706,4.32513208 94.0349712,4.78688102 92.2428099,5.71037891 C91.9291209,5.87600624 91.8269896,6.08680467 91.9327685,6.33148142 C92.4564058,7.67866136 92.704764,9.12293972 92.6622778,10.5737998 L92.6622778,17.8087031 C92.6390365,17.9625229 92.6875446,18.118636 92.79313,18.2298236 C92.8987154,18.3410112 93.0489775,18.3942147 93.1984672,18.3733418 L96.5833906,18.3733418 C96.7328802,18.3942147 96.8831423,18.3410112 96.9887278,18.2298236 C97.0943132,18.118636 97.1428213,17.9625229 97.1195799,17.8087031 L97.1195799,10.4909862 C97.1600816,9.61111133 96.9896955,8.73450741 96.6235136,7.93881945 C97.0778529,7.7439125 97.5568958,7.61715075 98.0460568,7.56239369 C98.7995423,7.52258555 99.5327267,7.82194751 100.055855,8.38300186 C100.562155,8.98381678 100.823573,9.76348785 100.785364,10.5587428 L100.785364,17.8087031 C100.766291,17.9671019 100.820441,18.1255452 100.931586,18.2365465 C101.042731,18.3475477 101.197954,18.3982071 101.350734,18.3733418 L104.76119,18.3733418 C104.91068,18.3942147 105.060942,18.3410112 105.166528,18.2298236 C105.272113,18.118636 105.320621,17.9625229 105.29738,17.8087031 L105.308322,10.4759291 Z M84.1051331,7.63391458 C84.1421147,6.62861596 83.9098954,5.63224644 83.4339845,4.75425745 C83.2443121,4.43053129 83.0473446,4.26866821 82.8430819,4.26866821 C82.81523,4.26500648 82.7870403,4.26500648 82.7591884,4.26866821 L79.1116416,5.05916233 C78.907379,5.10809768 78.8016001,5.21726115 78.8016001,5.39418126 C78.803137,5.46439322 78.8275513,5.53202316 78.8709035,5.5861584 C79.3958412,6.4829876 79.6498244,7.52094282 79.6004129,8.56745049 L79.6004129,12.2677158 C79.6004129,12.6817841 79.8119706,12.8925826 80.2314385,12.8925826 L83.0947627,12.9189324 C83.4712613,12.9638639 83.8183879,12.7037765 83.8935754,12.3204154 C84.0246206,11.7374398 84.0967413,11.1420131 84.1087807,10.5436858 L84.1051331,7.63391458 Z M76.6094245,4.62250843 C76.5347242,4.41618581 76.3412973,4.28159626 76.1279484,4.2874895 C76.0129772,4.29158443 75.899511,4.31576746 75.7923741,4.3590104 L72.4731065,5.4882877 C72.3126145,5.54475157 72.2323684,5.63132949 72.2323684,5.75178574 C72.2402652,5.8378762 72.2624754,5.92191906 72.2980243,6.00022675 C72.8097767,7.32492189 73.0746055,8.73741075 73.0785993,10.1634957 C73.1281101,11.5067338 72.7116446,12.824137 71.9040892,13.8788181 C71.1912827,14.8174154 70.0940366,15.3578259 68.9386337,15.3393501 C67.2510354,15.3393501 66.1567714,14.5074491 65.6558416,12.8436472 C66.011011,12.9090124 66.3710951,12.9417641 66.7318679,12.9415179 C67.9990569,12.9895388 69.2313878,12.507708 70.1496192,11.6052064 C71.0519361,10.6896767 71.5391512,9.42446757 71.4919164,8.11950382 C71.4853999,6.90290966 71.1615932,5.71056843 70.5544969,4.66767953 C70.4183218,4.41672901 70.2614773,4.29125376 70.0839634,4.29125376 C69.9777495,4.29641826 69.873047,4.3193 69.7739219,4.3590104 L66.7938762,5.4882877 C66.5421955,5.58239414 66.4291215,5.72543594 66.4291215,5.92117734 C66.4288931,5.9789768 66.4426866,6.03591607 66.4692445,6.08680467 C66.7994711,6.79181921 66.9774366,7.56242005 66.9908437,8.34535928 C66.9908437,9.71554908 66.5166627,10.4420508 65.5683005,10.5361573 L65.5683005,8.95140477 C65.5683005,6.91870562 65.2412371,5.41300255 64.5871104,4.43429555 C64.5223528,4.31926004 64.4087802,4.24251763 64.2807165,4.22726138 C64.1745483,4.23541013 64.0701006,4.25950429 63.970675,4.29878227 L60.6878829,5.42805958 C60.4799728,5.49958047 60.3778415,5.61250821 60.3778415,5.75931425 C60.3812694,5.82803208 60.3999913,5.89501121 60.4325547,5.95505565 C60.8897139,6.76813531 61.1182935,7.87608183 61.1182935,9.27889519 L61.1182935,10.7356629 C61.1182935,13.4158144 61.9499341,15.4849014 63.6132154,16.9429238 C65.1204146,18.2417039 67.0381805,18.9224063 69.000642,18.8551667 C71.4882689,18.8551667 73.555212,18.0747106 75.2014715,16.5137985 C76.8623211,14.9077152 77.6927459,12.8298449 77.6927459,10.2801877 C77.7417563,8.33729 77.3678215,6.40779199 76.5984819,4.63380121 L76.6094245,4.62250843 Z M59.1121427,7.64520735 C59.1508393,6.63973365 58.9185096,5.64289035 58.4409941,4.76555023 C58.2561851,4.44182407 58.0592176,4.27996099 57.8500916,4.27996099 L57.7698455,4.27996099 L54.1222988,5.0704551 C53.9143886,5.11939045 53.8122573,5.22855392 53.8122573,5.40547403 C53.814073,5.47499232 53.8370434,5.5421577 53.8779131,5.59745117 C54.4028508,6.49428037 54.656834,7.5322356 54.6074225,8.57874326 L54.6074225,12.2790086 C54.6074225,12.6930769 54.8189802,12.9038753 55.2384481,12.9038753 L58.0981247,12.9302251 C58.470842,12.9712687 58.8130433,12.7141359 58.8896424,12.3354724 C59.0224438,11.7528208 59.0945877,11.1572022 59.1048476,10.5587428 L59.1121427,7.64520735 Z M52.7435261,8.92505497 C52.7435261,5.82079713 50.8455859,4.26741346 47.0497056,4.26477163 C44.9661267,4.25464561 42.920625,4.84102111 41.1406799,5.95881991 C41.0282012,5.99957801 40.9421196,6.09448702 40.9101386,6.21300267 C40.8781575,6.33151833 40.9043131,6.45868335 40.9801878,6.55357263 L42.5376903,9.188553 C42.6908872,9.43950352 42.869617,9.48091035 43.0738797,9.31277351 C44.3894282,8.21361026 45.6563428,7.66402864 46.8746234,7.66402864 C47.779215,7.66402864 48.2315108,8.07935174 48.2315108,8.90999794 L48.2315108,17.8915168 C48.2315108,18.1023152 48.2606911,18.2378285 48.3190519,18.2905281 C48.448161,18.3633107 48.5962012,18.3922856 48.7421673,18.3733418 L52.2729926,18.3733418 C52.402204,18.3938582 52.5331851,18.3498988 52.6259855,18.2548715 C52.7187858,18.1598442 52.7624003,18.0250182 52.7435261,17.8915168 L52.7435261,8.92505497 Z" id="Shape" fill="#006595" fill-rule="nonzero"></path>
                        <path d="M125.676224,23.1501848 C125.697409,22.7684103 125.52994,22.4015071 125.231223,22.175242 C124.921154,21.9513364 124.54778,21.8401097 124.169787,21.8590444 C123.616962,21.8511904 123.067238,21.94553 122.546628,22.1375994 C122.512127,22.1458269 122.48693,22.1764192 122.48462,22.2128846 C122.481487,22.2328305 122.481487,22.2531668 122.48462,22.2731127 C122.603773,22.5844812 122.662037,22.9171068 122.656055,23.2518197 L122.656055,25.6684731 C122.656055,25.7437583 122.70712,25.7814009 122.809252,25.7814009 L123.130236,25.7814009 C123.232367,25.7814009 123.283433,25.739994 123.283433,25.6571804 L123.283433,23.5529603 C123.296425,23.1948383 123.255825,22.8367903 123.163064,22.4914397 C123.462313,22.3801721 123.778823,22.3265832 124.096836,22.3333408 C124.363329,22.3150325 124.625894,22.407161 124.826345,22.5893104 C124.980643,22.7487129 125.064997,22.9663447 125.059788,23.1915916 L125.059788,25.6458876 C125.059788,25.7023515 125.059788,25.739994 125.085321,25.7550511 C125.110854,25.7701081 125.140034,25.7814009 125.20569,25.7814009 L125.548559,25.7814009 C125.584663,25.7864398 125.620976,25.7737925 125.646737,25.7472068 C125.672499,25.720621 125.684754,25.6831463 125.679871,25.6458876 L125.676224,23.1501848 Z M119.95687,25.3786253 C119.95687,25.3108687 119.920395,25.2769903 119.851091,25.2769903 L118.972033,25.2769903 C119.210159,25.1317809 119.399743,24.9151206 119.515517,24.6558878 C119.667819,24.357739 119.746735,24.0255118 119.745312,23.6884736 C119.745312,22.4688541 119.19818,21.8552801 118.107564,21.8552801 C117.682973,21.8349913 117.261249,21.936629 116.889283,22.1488922 C116.865149,22.1588268 116.846838,22.1797412 116.8397,22.2055241 C116.832561,22.231307 116.837402,22.2590481 116.852808,22.2806412 L117.046128,22.5968389 C117.055588,22.6258382 117.078629,22.6479247 117.10735,22.6555247 C117.136071,22.6631246 117.166568,22.655205 117.188382,22.6344814 C117.445114,22.4371702 117.754737,22.3267152 118.074736,22.3182838 C118.745885,22.3182838 119.081459,22.8026183 119.081459,23.7712873 C119.105379,24.1704043 119.002968,24.566734 118.789655,24.9005646 C118.61418,25.1476723 118.331255,25.2887244 118.034613,25.2769903 L117.086251,25.2769903 C117.006005,25.2769903 116.965882,25.3108687 116.965882,25.3786253 L116.965882,25.6910587 C116.965882,25.7512868 117.006005,25.7814009 117.086251,25.7814009 L119.869329,25.7814009 C119.938632,25.7814009 119.975108,25.7475226 119.975108,25.6797659 L119.95687,25.3786253 Z M114.215632,23.0259642 C114.236099,22.69804 114.111338,22.3782333 113.87641,22.1564207 C113.604589,21.9409602 113.266528,21.8340243 112.9244,21.8552801 C112.407415,21.8194748 111.890136,21.9205398 111.421611,22.1488922 C111.396964,22.1583318 111.37836,22.1796318 111.371813,22.2059077 C111.365266,22.2321836 111.371606,22.2601027 111.388783,22.2806412 L111.58575,22.5968389 C111.596443,22.6238381 111.619108,22.643849 111.64661,22.6505711 C111.674112,22.6572931 111.703066,22.6498991 111.724357,22.6307172 C112.057897,22.4164312 112.444002,22.3053853 112.836859,22.3107553 C113.039279,22.3006528 113.23733,22.3737451 113.387638,22.5140252 C113.52799,22.6637644 113.601943,22.8668282 113.591901,23.0748996 L113.591901,25.6458876 C113.591901,25.7023515 113.591901,25.739994 113.617434,25.7550511 C113.642967,25.7701081 113.672147,25.7814009 113.734155,25.7814009 L114.080672,25.7814009 C114.117034,25.7861714 114.153521,25.7735834 114.179793,25.7472042 C114.206064,25.7208251 114.219256,25.6835296 114.215632,25.6458876 L114.215632,23.0259642 Z M106.508365,24.5655456 C106.523273,24.2365942 106.486317,23.9073274 106.398939,23.5906029 C106.377054,23.5228463 106.344226,23.4889679 106.304103,23.4889679 C106.268792,23.4912887 106.234186,23.5002172 106.201971,23.5153177 L105.990414,23.5943672 C105.919431,23.6142887 105.873027,23.6845255 105.880987,23.7599945 L105.880987,25.6684731 C105.880987,25.7437583 105.932053,25.7814009 106.034184,25.7814009 L106.355168,25.7814009 C106.4573,25.7814009 106.508365,25.739994 106.508365,25.6571804 L106.508365,24.5655456 Z M108.762549,23.1087779 C108.778904,22.763052 108.645206,22.4277706 108.397795,22.1940633 C108.113282,21.9532081 107.751087,21.8321986 107.383777,21.8552801 C107.087143,21.8579517 106.791484,21.8907332 106.50107,21.9531508 C106.246727,21.9977882 106.000632,22.0828679 105.771561,22.2053561 C105.747576,22.2143435 105.729163,22.2345669 105.721964,22.2598299 C105.714764,22.2850929 105.719635,22.3123838 105.735085,22.3333408 L105.942996,22.672124 C105.954004,22.6929958 105.973526,22.7076498 105.996158,22.7120291 C106.01879,22.7164084 106.04213,22.7100483 106.059717,22.6947096 C106.425707,22.4678959 106.840596,22.3385411 107.267055,22.3182838 C107.850663,22.3182838 108.142466,22.5930746 108.142466,23.1464205 L108.142466,25.6383591 C108.142466,25.6948229 108.142466,25.7324655 108.167999,25.7475226 C108.203953,25.7704307 108.246499,25.7797443 108.288368,25.7738724 L108.634885,25.7738724 C108.671565,25.7802421 108.708991,25.7681888 108.73565,25.7414202 C108.762309,25.7146516 108.775009,25.6763731 108.769844,25.6383591 L108.762549,23.1087779 Z M97.1742931,22.4010975 C96.976384,22.1049628 96.6432631,21.9366391 96.2952344,21.9569151 L95.2009704,21.9569151 L95.2009704,21.1400711 C95.2009704,21.0685503 95.17179,21.0309077 95.1097817,21.0309077 L94.6793712,21.0309077 C94.6100678,21.0309077 94.5735923,21.064786 94.5735923,21.1287784 L94.5735923,22.3634549 C94.5735923,22.4161545 94.5991251,22.43874 94.6428957,22.43874 L96.0472012,22.43874 C96.5359725,22.43874 96.7767106,22.788816 96.7767106,23.4927322 C96.7574092,23.9231755 96.6053266,24.3359905 96.3426525,24.6709449 C96.1200889,25.0195436 95.8011027,25.2910293 95.4271183,25.4501462 C95.372405,25.4501462 95.3432247,25.491553 95.3432247,25.5254313 C95.3457596,25.5476763 95.3546472,25.5686408 95.3687575,25.5856595 L95.5365447,25.826572 C95.5495843,25.8533952 95.5768149,25.8696647 95.605848,25.8679788 C95.6312356,25.8719538 95.657059,25.8719538 95.6824465,25.8679788 C96.1607676,25.6910908 96.5746841,25.3664488 96.8678992,24.9382071 C97.218879,24.527014 97.4257105,24.0059852 97.4551542,23.4588539 C97.4746552,23.0922428 97.3814667,22.7286402 97.1888833,22.4199188 L97.1742931,22.4010975 Z M92.1735065,25.3786253 C92.1735065,25.3108687 92.1406786,25.2769903 92.0713752,25.2769903 L91.1886689,25.2769903 C91.4255893,25.1313755 91.6138959,24.9147218 91.7285058,24.6558878 C91.8819348,24.3580196 91.9620988,24.0258109 91.9619488,23.6884736 C91.9619488,22.4688541 91.4148168,21.8552801 90.3242003,21.8552801 C89.8985081,21.8356661 89.4757869,21.9372401 89.1022722,22.1488922 C89.0787483,22.1596 89.061281,22.1808483 89.054878,22.2065455 C89.048475,22.2322427 89.0538435,22.2595509 89.0694443,22.2806412 L89.2591167,22.5968389 C89.2992397,22.6645955 89.3466578,22.6758883 89.401371,22.6344814 C89.6596731,22.4375342 89.9703332,22.3271635 90.2913724,22.3182838 C90.9576576,22.3182838 91.2920161,22.8026183 91.2944478,23.7712873 C91.3199879,24.1705693 91.2174413,24.5674232 91.002644,24.9005646 C90.829188,25.1481294 90.5470319,25.289481 90.2512494,25.2769903 L89.2846495,25.2769903 C89.2044035,25.2769903 89.1642805,25.3108687 89.1642805,25.3786253 L89.1642805,25.6910587 C89.1642805,25.7512868 89.2044035,25.7814009 89.2846495,25.7814009 L92.0677277,25.7814009 C92.1370311,25.7814009 92.169859,25.7475226 92.169859,25.6797659 L92.1735065,25.3786253 Z M85.8085375,23.8126941 C85.8085375,23.9557359 85.8668982,24.0272568 85.965382,24.0272568 L86.198825,24.0272568 C86.3009563,24.0272568 86.3520219,23.9557359 86.359317,23.8126941 L86.39944,22.8979795 C86.423962,22.5524092 86.3367303,22.2082041 86.1514068,21.9192725 C86.1328229,21.8839821 86.0988517,21.8601425 86.0602182,21.8552801 C86.0300893,21.8581384 86.0005647,21.8657558 85.9726771,21.8778657 L85.658988,21.9983219 C85.6006273,22.0246717 85.5714469,22.0547858 85.5714469,22.0924283 C85.5708694,22.1128824 85.5773307,22.1328865 85.5896846,22.1488922 C85.7123459,22.396882 85.7737414,22.6723039 85.7684144,22.9506791 L85.8085375,23.8126941 Z M82.4126714,22.2091203 C82.191333,21.9897696 81.8909169,21.8764111 81.5846783,21.8966869 C81.3264645,21.8848308 81.0711994,21.9572749 80.855169,22.1037211 C80.8041033,22.1451279 80.7785705,22.1790063 80.7785705,22.2015918 C80.7809317,22.2232256 80.7884509,22.2439183 80.8004558,22.2618199 L80.9609478,22.5290822 C80.9753838,22.5596365 81.0046645,22.5797815 81.0375463,22.5817818 C81.0618311,22.581653 81.0852135,22.5722689 81.1032021,22.555432 C81.2083227,22.444221 81.350409,22.3783035 81.5007847,22.3709834 C81.7721847,22.3721857 82.0074325,22.5651608 82.069802,22.8377514 C82.1674782,23.1834231 82.2093767,23.5433251 82.1938186,23.9030363 C82.2329118,24.3479368 82.1020215,24.7909938 81.8290639,25.1377128 C81.6624956,25.3163781 81.4309185,25.4147042 81.1907433,25.4087394 C80.5195947,25.4087394 80.1840204,24.9231501 80.1840204,23.9595002 L80.1840204,22.8979795 C80.2040957,22.5533611 80.1185971,22.2109593 79.9396347,21.9192725 C79.9104543,21.8778657 79.8849215,21.8552801 79.8557411,21.8552801 C79.8254806,21.8573047 79.7958237,21.8649561 79.7682,21.8778657 L79.4508635,21.9983219 C79.3925027,22.0246717 79.3633223,22.0547858 79.3633223,22.0924283 C79.3600392,22.1110971 79.3600392,22.1302234 79.3633223,22.1488922 C79.5057797,22.4194275 79.570324,22.7263538 79.5493472,23.0334928 L79.5493472,23.9331503 C79.5172845,24.4584802 79.6803177,24.9766894 80.0052906,25.3823896 C80.3146672,25.7079542 80.737946,25.8913925 81.1798006,25.8913925 C81.6216552,25.8913925 82.0449341,25.7079542 82.3543107,25.3823896 C82.6988538,24.964257 82.8727644,24.424482 82.8394344,23.8766865 C82.8394344,23.0711353 82.6935325,22.5140252 82.4053763,22.2091203 L82.4126714,22.2091203 Z M75.9601612,25.6383591 C75.9560944,25.6767051 75.9651247,25.7153135 75.985694,25.7475226 C75.985694,25.7475226 76.0404072,25.7738724 76.1024155,25.7738724 L76.4671702,25.7738724 C76.5038503,25.7802421 76.5412759,25.7681888 76.5679351,25.7414202 C76.5945943,25.7146516 76.6072946,25.6763731 76.6021294,25.6383591 L76.6021294,22.890451 C76.62158,22.5464034 76.5374955,22.2045624 76.3613914,21.911744 C76.3428074,21.8764536 76.3088362,21.8526139 76.2702027,21.8477516 C76.2400739,21.8506099 76.2105492,21.8582273 76.1826616,21.8703371 L75.8689725,21.9907934 C75.8106118,22.0171432 75.7814314,22.0472572 75.7814314,22.0848998 C75.7808539,22.1053539 75.7873152,22.125358 75.7996692,22.1413637 C75.9382792,22.4131625 76.0002031,22.7196472 75.9783989,23.0259642 L75.9601612,25.6383591 Z M72.9655253,23.1426562 C72.9867105,22.7608818 72.8192421,22.3939786 72.5205246,22.1677135 C72.2090919,21.943785 71.8345676,21.8325978 71.455441,21.8515158 C70.9038267,21.8439495 70.3553496,21.9382873 69.8359302,22.1300709 C69.7921596,22.1300709 69.7702744,22.1714778 69.7702744,22.2053561 C69.7671416,22.225302 69.7671416,22.2456383 69.7702744,22.2655842 C69.892395,22.5761758 69.9519655,22.9091737 69.9453566,23.2442912 L69.9453566,25.6609446 C69.9453566,25.7362298 69.9964223,25.7738724 70.0985536,25.7738724 L70.4158901,25.7738724 C70.5180214,25.7738724 70.5690871,25.7324655 70.5690871,25.6496519 L70.5690871,23.5529603 C70.5829765,23.1950434 70.5436121,22.8370445 70.4523656,22.4914397 C70.751615,22.3801721 71.068125,22.3265832 71.3861376,22.3333408 C71.6527927,22.3137516 71.9158243,22.4060439 72.1156469,22.5893104 C72.2723912,22.7473136 72.3582978,22.9655423 72.3527375,23.1915916 L72.3527375,25.6458876 C72.348173,25.6837702 72.355867,25.7221477 72.3746227,25.7550511 C72.4118166,25.778235 72.4555962,25.7875368 72.4986393,25.7814009 L72.8378612,25.7814009 C72.8745413,25.7877706 72.9119669,25.7757174 72.9386261,25.7489487 C72.9652853,25.7221801 72.9779856,25.6839016 72.9728204,25.6458876 L72.9655253,23.1426562 Z M61.6435402,25.3786253 C61.6435402,25.3108687 61.6107123,25.2769903 61.5414089,25.2769903 L60.6623501,25.2769903 C60.8992705,25.1313755 61.087577,24.9147218 61.202187,24.6558878 C61.3544895,24.357739 61.4334053,24.0255118 61.4319825,23.6884736 C61.4319825,22.4688541 60.888498,21.8552801 59.7978815,21.8552801 C59.372137,21.8350795 58.9492639,21.9366899 58.5759534,22.1488922 C58.5513064,22.1583318 58.5327029,22.1796318 58.5261558,22.2059077 C58.5196086,22.2321836 58.5259482,22.2601027 58.5431254,22.2806412 L58.7255028,22.5855461 C58.7656258,22.6533027 58.8130439,22.6645955 58.8677571,22.6231887 C59.1248248,22.4265345 59.4342408,22.3161535 59.754111,22.306991 C60.4252596,22.306991 60.7608339,22.7913255 60.7608339,23.7599945 C60.7847543,24.1591115 60.6823432,24.5554413 60.4690301,24.8892718 C60.2942899,25.1352527 60.0130064,25.2761671 59.7176355,25.2656976 L58.7473881,25.2656976 C58.6707896,25.2656976 58.6306666,25.2995759 58.6306666,25.3673325 L58.6306666,25.6797659 C58.6306666,25.739994 58.6707896,25.7701081 58.7473881,25.7701081 L61.5341138,25.7701081 C61.6034172,25.7701081 61.6362451,25.7362298 61.6362451,25.6684731 L61.6435402,25.3786253 Z M55.7454571,21.9682078 C55.7235718,21.8966869 55.6834488,21.8590444 55.6287356,21.8590444 L55.5411945,21.8590444 L55.1764398,21.9644436 C55.1253741,21.9644436 55.0998413,22.0058504 55.0998413,22.0397287 C55.0967611,22.0571515 55.0967611,22.0750056 55.0998413,22.0924283 C55.2361452,22.6163738 55.3012079,23.1573306 55.2931613,23.6997664 C55.2931613,24.6358118 54.99771,25.1941767 54.4068074,25.374861 L53.5204536,21.9682078 C53.5095147,21.9118139 53.4592546,21.8729127 53.4037321,21.8778657 C53.3807638,21.87425 53.357397,21.87425 53.3344287,21.8778657 L52.9879117,21.9606793 C52.9113133,21.9832649 52.8748378,22.0209074 52.8748378,22.0811356 C52.8731201,22.0948809 52.8731201,22.108797 52.8748378,22.1225424 L53.8961509,25.4463819 C53.6155688,25.4402392 53.3390107,25.3762466 53.082748,25.2581691 C53.0596741,25.2430822 53.03338,25.2340371 53.0061495,25.2318192 C52.9660265,25.2318192 52.9368461,25.2581691 52.9113133,25.3108687 L52.8055344,25.5593097 C52.7877239,25.5901362 52.777691,25.6250809 52.776354,25.6609446 C52.776354,25.7061157 52.8055344,25.7362298 52.8638951,25.7550511 C53.2464329,25.8547465 53.640324,25.9003347 54.0347577,25.8905643 C54.5957591,25.9317974 55.1394653,25.6802197 55.4828337,25.2205265 C55.8005808,24.7505603 55.9595312,24.1856932 55.9351295,23.6131884 C55.9524093,23.0601204 55.885954,22.507657 55.738162,21.9757364 L55.7454571,21.9682078 Z M49.4169635,21.1438354 C49.4215861,21.10631 49.4093884,21.0686556 49.3838271,21.0415437 C49.3582658,21.0144317 49.3221267,21.000817 49.2856518,21.0045579 L48.9208971,21.0045579 C48.8855026,20.9997596 48.8499266,21.0119406 48.8243309,21.0376216 C48.7987352,21.0633025 48.7859346,21.0996592 48.7895854,21.1363069 L48.7895854,21.3019342 C48.7862017,21.4516253 48.7616247,21.6000011 48.7166345,21.7423524 C48.6755608,21.9185426 48.5970715,22.0831155 48.486839,22.2241774 C48.4634357,22.2498918 48.4492752,22.2831045 48.446716,22.3182838 C48.451726,22.3609975 48.4760933,22.3987178 48.5123719,22.4199188 L48.599913,22.4876754 C48.624022,22.5108296 48.6547195,22.5253495 48.6874541,22.5290822 C48.7110486,22.5285766 48.7339404,22.5207018 48.75311,22.5064967 C48.9599762,22.3643192 49.1282189,22.1699618 49.2418812,21.941858 C49.3574985,21.7464562 49.4216256,21.5232646 49.4279061,21.2944057 L49.4169635,21.1438354 Z M50.434629,21.1438354 C50.4392517,21.10631 50.4270539,21.0686556 50.4014926,21.0415437 C50.3759314,21.0144317 50.3397923,21.000817 50.3033173,21.0045579 L49.9385626,21.0045579 C49.9031682,20.9997596 49.8675921,21.0119406 49.8419964,21.0376216 C49.8164008,21.0633025 49.8036001,21.0996592 49.807251,21.1363069 L49.807251,21.3019342 C49.8035044,21.4512942 49.7801918,21.5994442 49.7379476,21.7423524 C49.6968739,21.9185426 49.6183846,22.0831155 49.5081521,22.2241774 C49.4847488,22.2498918 49.4705883,22.2831045 49.4680291,22.3182838 C49.471396,22.3595907 49.4928974,22.3970353 49.5263899,22.4199188 L49.6212261,22.4876754 C49.6444798,22.5121173 49.6756458,22.5268588 49.7087672,22.5290822 C49.730993,22.5272706 49.7523717,22.5194838 49.7707755,22.5064967 C49.9737717,22.3640264 50.1402414,22.1728547 50.2558992,21.9493865 C50.3715165,21.7539847 50.4356436,21.5307931 50.4419241,21.3019342 L50.434629,21.1438354 Z M45.7292937,22.5328465 C45.540098,22.1257682 45.1341405,21.8741039 44.697038,21.8929227 C44.1530773,21.8642633 43.6294821,22.1098764 43.2927325,22.5516678 C43.256067,22.3135318 43.1702353,22.0863098 43.0410517,21.8853942 C43.0160863,21.877538 42.9894187,21.877538 42.9644532,21.8853942 L42.9462155,21.8853942 L42.5814608,22.0096147 C42.5267476,22.0322002 42.4975673,22.0547858 42.4975673,22.0811356 C42.4940981,22.1023161 42.4940981,22.1239474 42.4975673,22.1451279 C42.6226145,22.4932137 42.6856368,22.8617671 42.6835921,23.2329984 L42.6835921,25.6722374 C42.678427,25.7102514 42.6911273,25.7485299 42.7177865,25.7752985 C42.7444457,25.8020672 42.7818713,25.8141204 42.8185514,25.8077507 L43.1614208,25.8077507 C43.2044639,25.8138866 43.2482435,25.8045848 43.2854374,25.7814009 C43.3041931,25.7484975 43.3118871,25.71012 43.3073226,25.6722374 L43.3073226,23.1125422 C43.5227384,22.6690527 43.9541462,22.3808898 44.4344146,22.3596906 C45.0180221,22.3596906 45.3098258,22.8615917 45.3098258,23.8653937 C45.3555349,24.3540358 45.2257303,24.8429827 44.9450711,25.2393478 C44.8385708,25.3495734 44.6905528,25.4059961 44.5401934,25.3936823 C44.3851926,25.3919842 44.2332149,25.3492096 44.0988403,25.2694618 C44.0844348,25.2660735 44.0694752,25.2660735 44.0550697,25.2694618 C44.0215873,25.2664492 43.9908364,25.2886636 43.9821188,25.3221614 L43.8945777,25.6157735 C43.8913839,25.6382388 43.8913839,25.6610649 43.8945777,25.6835302 C43.8945777,25.7136442 43.9201105,25.739994 43.9675286,25.7588153 C44.1903384,25.8442337 44.4265448,25.8863501 44.66421,25.8830358 C45.1138558,25.899997 45.5277302,25.631182 45.7074084,25.2054694 C45.8979185,24.7961487 45.9904821,24.34563 45.9773269,23.8917435 C45.9959842,23.428901 45.9032494,22.9684969 45.7074084,22.5516678 L45.7292937,22.5328465 Z" id="Shape" fill="#006595" fill-rule="nonzero"></path>
                    </g>
                    <polygon id="Path" fill="#006595" points="134.145827 22.4425043 134.145827 21.9945576 132.810825 21.9945576 132.810825 22.4425043 133.150047 22.4425043 133.150047 25.2807546 132.810825 25.2807546 132.810825 25.7287013 134.145827 25.7287013 134.145827 25.2807546 133.810253 25.2807546 133.810253 22.4425043"></polygon>
                    <polygon id="Path" fill="#006595" points="146.901298 22.4425043 146.901298 21.9945576 145.569944 21.9945576 145.569944 22.4425043 145.905518 22.4425043 145.905518 25.2807546 145.569944 25.2807546 145.569944 25.7287013 146.901298 25.7287013 146.901298 25.2807546 146.565724 25.2807546 146.565724 22.4425043"></polygon>
                    <g id="Group" transform="translate(13.131168, 4.140683)">
                        <path d="M126.070159,20.9669153 C127.193603,20.9669153 127.631309,20.5904895 127.631309,19.7247103 C127.631309,18.858931 127.175365,18.5050908 126.070159,18.5050908 L125.840363,18.5050908 L125.840363,20.9669153 L126.070159,20.9669153 Z M125.161919,17.8839883 L126.369257,17.8839883 C127.434341,17.8839883 128.291515,18.377106 128.291515,19.7134175 C128.291515,20.9782081 127.51094,21.5955463 126.39479,21.5955463 L125.161919,21.5955463 L125.161919,17.8839883 Z" id="Shape" fill="#006595" fill-rule="nonzero"></path>
                        <path d="M11.0046486,7.30642416 C9.88854075,6.18143326 8.37246766,5.5809275 6.81361734,5.64638652 C6.201961,5.61118412 5.59296266,5.75331029 5.0554998,6.05669061 L5.60627937,3.42171023 L10.4028034,3.42171023 C10.5975125,3.44958157 10.7936238,3.38166139 10.932622,3.2382156 C11.0716203,3.09476982 11.1374346,2.89238348 11.1104274,2.69144424 L11.1104274,0.880836298 C11.1104274,0.395247057 10.8842795,0.150570307 10.4356313,0.150570307 L2.41102841,0.150570307 C2.2242106,0.138203216 2.04061476,0.205193597 1.90284717,0.335995286 C1.76507959,0.466796976 1.68511811,0.650037747 1.68151905,0.843193721 L0.481476172,8.71425654 C0.442244695,8.90669359 0.483681358,9.10727793 0.595552445,9.26647073 C0.707423532,9.42566354 0.879299313,9.52862328 1.0687312,9.54992174 L3.19160341,9.99410415 C3.29329947,10.0183518 3.39727254,10.0309753 3.50164489,10.0317467 C3.81374827,9.95283325 4.0996606,9.78905507 4.329638,9.55745026 C4.71315555,9.24677992 5.18806462,9.08075526 5.67558275,9.08691805 C6.35485246,9.06175912 7.01428844,9.3258071 7.49935613,9.81718404 C7.97408697,10.3347511 8.22542529,11.0286956 8.19603756,11.7407197 C8.19603756,13.5676394 7.35102256,14.4810993 5.66099257,14.4810993 C4.84394209,14.4810993 4.04999275,14.0532287 3.27914453,13.1974874 C3.07123437,12.9753962 2.91438986,12.8624685 2.8159061,12.8624685 C2.6867022,12.8744751 2.56190282,12.9169766 2.45115142,12.986689 L0.452295798,14.0707952 C0.211557712,14.2025442 0.0875411222,14.3493503 0.0875411222,14.5149776 C0.109299714,14.6545771 0.168712245,14.7850315 0.25897582,14.8914034 C0.741766256,15.6822987 1.35971614,16.3761408 2.0827492,16.9391596 C3.12594757,17.6920111 4.53025307,18.0684369 6.2956657,18.0684369 C8.27263604,18.0684369 9.81919587,17.5037982 10.9353452,16.3745209 C12.0514945,15.2452436 12.6095691,13.6642554 12.6095691,11.6315562 C12.6739655,10.0233786 12.0934268,8.45887334 11.0046486,7.30642416" id="Path" fill="#FFFFFF"></path>
                    </g>
                </g>
            </g>
        </g>
    </g>
</svg>