<?xml version="1.0" encoding="UTF-8"?>
<svg width="150px" height="50px" viewBox="0 0 150 50" version="1.1" xmlns="http://www.w3.org/2000/svg" xmlns:xlink="http://www.w3.org/1999/xlink">
    <title>shomera_new_black</title>
    <defs>
        <filter id="filter-1">
            <feColorMatrix in="SourceGraphic" type="matrix" values="0 0 0 0 0.000000 0 0 0 0 0.000000 0 0 0 0 0.000000 0 0 0 1.000000 0"></feColorMatrix>
        </filter>
        <polygon id="path-2" points="0.0226378381 0.00112330732 1.2487646 0.00112330732 1.2487646 2.59374353 0.0226378381 2.59374353"></polygon>
    </defs>
    <g id="shomera_new_black" stroke="none" stroke-width="1" fill="none" fill-rule="evenodd">
        <g filter="url(#filter-1)" id="Group-86">
            <g transform="translate(35.000000, 4.000000)">
                <path d="M74.5260819,35.7416998 C75.8490624,35.7407114 77.1721063,35.7398825 78.4950868,35.7421142 C78.7617072,35.7425606 78.856165,35.8996125 78.8547054,36.1516097 C78.8503268,36.9156039 78.8531507,37.67963 78.8531507,38.4436561 C78.8531507,39.1855558 78.8454723,39.9275194 78.8579101,40.669196 C78.8615907,40.8865054 78.8249752,40.999241 78.5779634,40.9699731 C78.2851664,40.9352852 77.893057,41.0951746 77.7225761,40.9016494 C77.5779227,40.7373284 77.674316,40.35404 77.6735228,40.0676418 C77.670921,39.0932249 77.6627348,38.1186804 77.6791071,37.1445503 C77.6834223,36.887962 77.6063203,36.8285654 77.3642266,36.8375881 C76.8577652,36.8564624 76.3492414,36.8611809 75.8433194,36.8362171 C75.5662918,36.8225397 75.522918,36.9278148 75.5253294,37.1731806 C75.5366568,38.3357028 75.5220613,39.4985119 75.5369106,40.6609385 C75.5401787,40.914753 75.4692639,40.9936616 75.224029,40.9711846 C75.0053514,40.9510988 74.7826759,40.9555942 74.5631734,40.9704194 C74.3802228,40.9827897 74.3452255,40.9075795 74.3463108,40.7401978 C74.3531578,39.6994338 74.3521742,38.6585424 74.3478908,37.6177466 C74.3469389,37.3923072 74.5006351,37.2322584 74.5624119,37.0342378 C74.5811004,36.9742673 74.6490008,36.9091318 74.5731046,36.8611172 C74.4946383,36.8114446 74.3413228,36.8865592 74.3477639,36.6987409 C74.3579807,36.4001318 74.3457649,36.1006619 74.3596623,35.8023398 C74.3634698,35.7199242 74.4640196,35.7417316 74.5260819,35.7416998 Z M33.2804972,36.7094725 C33.2732947,37.2964883 33.2791963,37.8836317 33.2791963,38.4707432 C33.2791963,39.2018349 33.2719938,39.9330223 33.2836384,40.6639227 C33.2870652,40.8795423 33.2534322,40.9976979 33.0028033,40.9701835 C32.7091813,40.9380462 32.3158345,41.0922925 32.1457661,40.9067378 C32.0004781,40.7482831 32.100076,40.3590966 32.0994414,40.071997 C32.0972204,39.0971655 32.0916995,38.1223022 32.1038835,37.147662 C32.1065805,36.9288223 32.0453114,36.8440793 31.8308855,36.8806801 C31.6219805,36.9163245 31.5529061,36.8401897 31.5534423,36.6163444 C31.5555396,35.7876931 31.5463699,35.7864178 32.3678387,35.7880119 C33.2697093,35.7897654 33.2932523,35.6660304 33.2804972,36.7094725 Z M25.6450381,35.7422481 C26.2849525,35.73957 26.9248669,35.7407815 27.5647812,35.7407815 C28.1936538,35.7407815 28.8226534,35.7475725 29.4513674,35.7377527 C29.7441644,35.7331936 29.8747934,35.8532621 29.8757771,36.1490337 C29.8809806,37.6663096 29.8893889,39.1836174 29.9054756,40.7008296 C29.9075697,40.8978299 29.8600711,40.9884712 29.6499921,40.9670463 C29.3469783,40.9361843 28.9612148,41.0939376 28.7611305,40.9014964 C28.5898563,40.7367609 28.7155356,40.354429 28.7139174,40.0687003 C28.7085235,39.0936457 28.7060169,38.1184636 28.7163289,37.1434727 C28.7186768,36.9245692 28.6779048,36.8271371 28.4318449,36.8358409 C27.9138975,36.8541095 27.3940147,36.8599758 26.8767337,36.8340555 C26.5905046,36.8196766 26.5561736,36.9380554 26.5582678,37.1795953 C26.5682624,38.3319152 26.5554439,39.4844264 26.5684211,40.6366825 C26.5712767,40.8902739 26.5141324,40.9759733 26.2451958,40.9720837 C25.3832405,40.9594902 25.3830501,40.9713823 25.3830501,40.1201583 C25.3830501,39.3555583 25.3958687,38.5906715 25.3766091,37.8265816 C25.3691528,37.5308101 25.4751283,37.2904817 25.6025527,37.0445102 C25.6543665,36.9444956 25.7144933,36.8299746 25.5087295,36.8363829 C25.4729707,36.8374669 25.4048481,36.8017269 25.4043722,36.7817049 C25.3962495,36.4506397 25.3826059,36.1183948 25.4048798,35.7887962 C25.410369,35.7074327 25.5607336,35.7425988 25.6450381,35.7422481 Z M61.6796295,35.7622574 C62.1377356,35.7630864 62.2395228,35.867692 62.2399353,36.3268919 L62.240094,38.4864994 L62.240094,38.4864994 C62.2400622,39.2285267 62.2323203,39.9707135 62.2450437,40.7124857 C62.2486291,40.9209637 62.185488,40.983708 61.9844836,40.9684045 C61.7011419,40.9467883 61.3285459,41.0548372 61.1555267,40.9112396 C60.9714021,40.7583961 61.1003813,40.3708994 61.0983189,40.0865735 C61.0912116,39.1230922 61.0843898,38.159292 61.102761,37.1961294 C61.1079646,36.9240463 61.0209314,36.8711856 60.7713496,36.8752346 C59.8783632,36.8897092 58.9849325,36.8755216 58.0918509,36.88515 C57.8983663,36.8872224 57.8288793,36.8492825 57.8269121,36.6346512 C57.8193162,35.8052713 57.8111761,35.7638599 58.546734,35.7617922 L58.6691636,35.7616835 C59.6726628,35.7616835 60.6761303,35.760472 61.6796295,35.7622574 Z M49.9830811,34.7194658 C50.2910129,34.7347374 50.6005312,34.7317723 50.908812,34.7203585 C51.0755489,34.7141414 51.1249513,34.7829114 51.1057234,34.9341289 C51.1015669,34.9668082 51.1049619,35.0004759 51.1051523,35.0336972 C51.1086761,35.6991883 51.1088834,35.7383349 51.6846415,35.7406376 L53.0893374,35.7408772 L53.0893374,35.7408772 C53.6003678,35.7415467 53.6497701,35.792654 53.6503413,36.3204326 L53.6504365,37.5826506 L53.6504365,37.5826506 C53.6504365,37.9701474 53.6517374,38.3577079 53.6502144,38.7452366 C53.6450108,40.0473074 52.743045,40.9590438 51.4533484,40.9668869 C51.3541313,40.9674926 51.2533593,40.95576 51.1560142,40.969278 C50.9472361,40.998259 50.8727994,40.9115393 50.9052901,40.7100754 C50.9122388,40.6669069 50.9056708,40.6216341 50.9064323,40.5773815 C50.9097322,40.3787551 50.8438306,40.1345372 50.9354645,39.9937133 C51.0386479,39.8350673 51.3002551,39.9515012 51.4914552,39.9299488 C52.0396405,39.8681292 52.4912104,39.3968777 52.5032675,38.8386834 C52.5164351,38.2299876 52.4996503,37.6206542 52.5114219,37.0119266 C52.5151024,36.8220678 52.4347641,36.7987619 52.2769114,36.8000691 C51.5272775,36.8062223 50.7774849,36.7956693 50.0280096,36.8074976 C49.825736,36.810654 49.7611988,36.7563585 49.7665928,36.5492196 C49.7804902,36.0181252 49.7759846,35.4863612 49.7683696,34.9549799 C49.7660534,34.7933369 49.7935943,34.7100924 49.9830811,34.7194658 Z M4.87879171,37.6690642 C4.88773934,38.677659 4.87412752,39.6865406 4.88555003,40.6951035 C4.8880249,40.9127636 4.82869131,40.9743282 4.61153671,40.9701835 C3.89439348,40.9564423 3.1767743,40.9590885 2.45950415,40.968972 C2.27236537,40.9715544 2.22121791,40.9148997 2.21734695,40.7274002 C2.20043687,39.90744 2.1940647,39.866557 2.93572591,39.8645186 L3.05915418,39.8644117 C3.74526627,39.8644117 3.745298,39.8644117 3.74526627,39.1754045 C3.74523454,38.7098281 3.75434082,38.2440605 3.74282312,37.778771 C3.72749792,37.1588846 3.279799,36.6927024 2.71698656,36.6910127 C2.14509957,36.689291 1.70346093,37.1755271 1.70222349,37.8141284 C1.70035147,38.7785025 1.69629013,39.7429403 1.70622137,40.7072188 C1.70825203,40.9055263 1.66386289,40.9688126 1.45400601,40.9709168 C0.54883557,40.9799395 0.548899029,40.9878463 0.548899029,40.0960362 C0.548899029,39.7080612 0.535192017,39.3195123 0.551849844,38.9322706 C0.557090449,38.8105867 0.556216133,38.6881704 0.553169837,38.5654766 L0.541457945,38.1970176 C0.527668673,37.7058422 0.542214745,37.2175054 0.837444316,36.7611217 C0.217614518,36.700673 0.238999995,36.6996209 0.209555303,36.1051446 C0.192611914,35.7621873 0.285641909,35.6316295 0.634663039,35.6782095 C0.851595536,35.7071266 1.07550846,35.6867539 1.29615327,35.6822266 C1.40044713,35.6800586 1.5248573,35.6872002 1.56499473,35.7740475 C1.68226583,36.0275432 1.82028782,35.9320878 1.99701943,35.8498953 C3.31768365,35.2358752 4.86581447,36.2128109 4.87879171,37.6690642 Z M66.5108275,35.7505407 C67.1962099,35.7524536 67.5528143,36.1060915 67.5551622,36.7861078 C67.5573833,37.4284075 67.5556382,38.0707071 67.5556064,38.7130068 C67.5556064,39.3774965 67.5483405,40.0420819 67.5599533,40.7063165 C67.563507,40.9083543 67.5087741,40.9851267 67.3012018,40.9688349 C67.0820165,40.9516504 66.8591189,40.9497693 66.6402827,40.9693131 C66.4237309,40.9886338 66.3882577,40.8972593 66.3895586,40.7035746 C66.3975226,39.5076079 66.3875596,38.3114818 66.3987283,37.1155789 C66.4008542,36.8854848 66.3427897,36.8133671 66.1070101,36.8180538 C65.3464613,36.8331979 64.5853097,36.8159815 63.8246657,36.8286706 C63.6116042,36.8322414 63.5472891,36.7777547 63.5495736,36.5569383 C63.5579819,35.7501581 63.5493833,35.7500943 64.360667,35.7500943 C65.0773978,35.7500943 65.7940968,35.7485321 66.5108275,35.7505407 Z M45.0797721,35.7627293 C45.9073963,35.7598599 46.7350841,35.7600831 47.5627084,35.7623786 C47.9855316,35.7635263 48.1120994,35.8916292 48.1128291,36.3192019 C48.1146694,37.4274925 48.1166366,38.5358149 48.1104812,39.6441054 C48.1093707,39.8365785 48.1243786,39.9757764 48.3694866,39.9320658 C48.5203272,39.9051572 48.565573,39.9894857 48.5511679,40.1252403 C48.5500257,40.1361759 48.5507237,40.1473985 48.5511679,40.1584935 C48.5829923,40.9220484 48.5847603,40.9644681 47.9117068,40.9668248 L46.3622343,40.9669634 C45.7332348,40.9669634 45.1040766,40.9597261 44.4752675,40.9712356 C44.2795618,40.9748064 44.2126767,40.9312872 44.2115661,40.7179631 L44.211021,40.4890967 C44.2145011,39.9112913 44.2839488,39.9113423 45.0124744,39.9113423 C45.5642768,39.9113423 46.1162062,39.903308 46.667723,39.9154552 C46.8725984,39.9199187 46.9300917,39.8514037 46.927712,39.649621 C46.9177808,38.8074197 46.9149569,37.9648677 46.9292668,37.1228258 C46.933106,36.8977371 46.842773,36.8753239 46.6583946,36.8774281 C45.9301779,36.8858769 45.2016756,36.8742399 44.4735224,36.8853668 C44.2787686,36.8883 44.1880865,36.8514441 44.2146439,36.6345492 C44.2223082,36.5719608 44.2205823,36.5046318 44.215328,36.4359623 L44.1948415,36.2293321 C44.1787182,36.0594557 44.1771787,35.9024514 44.2818146,35.8114453 C44.4419518,35.6721518 44.8059174,35.7636857 45.0797721,35.7627293 Z M12.9483094,36.641745 C12.9483094,37.6382883 12.9541475,38.6348953 12.9435183,39.6313429 C12.9413289,39.8355806 12.993809,39.9082402 13.2004295,39.8892384 C13.397214,39.8711293 13.5980281,39.8723089 13.7951615,39.8884413 C14.0818983,39.9118748 14.1945369,39.7911367 14.1918716,39.5062689 C14.1841615,38.6758959 14.1834634,37.8452997 14.1931725,37.0149586 C14.195584,36.8113267 14.1320304,36.7239056 13.9302962,36.7577326 C13.725516,36.7920698 13.673607,36.7088571 13.6735435,36.5043963 C13.673273,35.7267582 13.6663673,35.6858299 14.3711525,35.6836758 L14.4953297,35.6835561 C15.299294,35.6835561 15.3416079,35.6835561 15.3438349,36.3987056 L15.3439587,37.9862511 C15.3439587,38.5730756 15.3474806,39.159964 15.3430702,39.7467885 C15.3376128,40.4709937 14.8686236,40.9566878 14.1467845,40.9642757 C13.1656543,40.9746056 12.1843021,40.9627135 11.2031403,40.9706511 C11.0189206,40.9720869 10.9360122,40.921681 10.9623157,40.7299731 C10.971295,40.6647739 10.9637435,40.5972792 10.9637118,40.5308685 C10.96368,39.9266681 10.963331,39.9198135 11.5577774,39.8897166 C11.7181685,39.8815866 11.7621769,39.8304156 11.7611933,39.6754042 C11.7553869,38.7785886 11.752563,37.8816136 11.762748,36.9848298 C11.765096,36.779827 11.6786657,36.7296444 11.5076771,36.758434 C11.2661862,36.7991158 11.2207817,36.6903654 11.2230345,36.4658188 C11.2304362,35.7271055 11.2229512,35.6859805 11.8858398,35.6836911 L12.0099185,35.6835561 C12.9483094,35.6835561 12.9483094,35.6835561 12.9483094,36.641745 Z M37.6672137,35.7324061 C38.626419,35.9227749 39.3884273,36.8269872 39.3919492,37.807143 C39.3953442,38.7599438 39.3823035,39.7129997 39.3995008,40.6655136 C39.4041967,40.9243655 39.3236363,40.9728265 39.0845251,40.9706267 C37.7939084,40.9587984 36.5030696,40.9596911 35.2124212,40.9700209 C34.9860017,40.9718382 34.9101054,40.9173833 34.9138177,40.6786491 C34.9277151,39.7814509 34.9220356,38.8838382 34.9168955,37.9864169 C34.9159753,37.8249652 34.9555099,37.6826429 35.0285188,37.5431262 C35.134526,37.3406102 35.2360277,37.1356392 35.3746843,36.8622171 C34.9463402,36.9786192 34.9051239,36.7958383 34.9128659,36.4957307 C34.9310523,35.7942614 34.9203737,35.7527161 35.5484468,35.7502556 L35.6738588,35.7501007 C35.8724519,35.7501007 36.0710449,35.7524919 36.2695745,35.7493355 C36.4245398,35.7469125 36.551996,35.7962662 36.6340794,35.9328816 C36.732789,36.0971389 36.684275,36.9054176 36.542509,37.0409808 C36.1444345,37.4215911 36.0233559,37.8755304 36.0737101,38.4165083 C36.1125467,38.8338788 36.090717,39.2581039 36.077359,39.6787263 C36.0711718,39.8729529 36.1103574,39.9521484 36.3270995,39.9456763 C36.8782038,39.929257 37.4302601,39.9339437 37.98165,39.9439547 C38.1519089,39.9470473 38.2099733,39.9031454 38.2068004,39.724031 C38.1960124,39.1148251 38.2029294,38.5053323 38.2021679,37.8959669 C38.2017872,37.6015982 38.0883236,37.3591019 37.8640933,37.1697532 C37.7439984,37.0683996 37.6406881,37.0147736 37.5952836,37.2390971 C37.5669177,37.3791877 37.5027613,37.5119453 37.4749031,37.6520678 C37.4488217,37.7834864 37.3885679,37.8311822 37.25429,37.8422773 C36.7794309,37.8816199 36.7682622,37.8723422 36.914502,37.4087106 C37.0737509,36.9037916 37.2410589,36.401168 37.3872988,35.8924868 C37.4362886,35.7219806 37.501619,35.6995674 37.6672137,35.7324061 Z M72.163412,35.762267 C72.6170442,35.7633829 72.7204814,35.8704434 72.7208622,36.3324171 C72.7217188,37.4289112 72.7248283,38.5254372 72.7178479,39.6219313 C72.716547,39.8273486 72.757319,39.8884668 72.9880537,39.9512111 C73.3842244,40.0589412 73.0831778,40.4433773 73.1604384,40.6945456 C73.2008931,40.8260598 73.1994336,40.974376 72.9647962,40.9695299 C72.3144112,40.9560118 71.6635502,40.9648113 71.0128797,40.964907 C70.3732508,40.9650026 69.7335268,40.958945 69.0939932,40.9688604 C68.9133272,40.9716979 68.8512332,40.9293583 68.8477747,40.7340796 C68.8331475,39.9131437 68.8257863,39.9132712 69.6318348,39.9132712 C70.1722147,39.9132712 70.7127215,39.9063847 71.252911,39.916842 C71.452678,39.9207317 71.5507212,39.8875422 71.5468185,39.6496688 C71.5330163,38.808137 71.5333654,37.9660951 71.546882,37.1245633 C71.5504357,36.9024397 71.4645447,36.8746066 71.2763906,36.8770615 C70.5486181,36.8865305 69.8206235,36.875563 69.0928827,36.8846813 C68.914406,36.886945 68.8510111,36.848495 68.8476795,36.6523554 C68.8332411,35.8061051 68.8261621,35.7639076 69.5883125,35.7618035 L69.7151556,35.7616931 C70.5311988,35.7616931 71.3473054,35.7602265 72.163412,35.762267 Z M20.0115959,35.7618366 C20.5229436,35.7621235 20.6270154,35.8617874 20.6290778,36.3864735 C20.633266,37.450097 20.6320286,38.513848 20.6288874,39.5775034 C20.6282845,39.7834945 20.6322507,39.879747 20.9103253,39.9612062 C21.260806,40.063867 21.0012295,40.4840431 21.0650686,40.7571145 C21.1087597,40.9440401 20.989807,40.970853 20.8330013,40.9694183 C20.1931821,40.9635201 19.5532677,40.9669634 18.9133851,40.9669634 C18.2735024,40.9669315 17.633588,40.9626593 16.9937689,40.969769 C16.8203371,40.9716501 16.7450437,40.937026 16.7403795,40.7352433 C16.7214055,39.911151 16.713378,39.9113423 17.5296432,39.9113423 C18.0812552,39.9113423 18.6329942,39.9054441 19.1844476,39.9145943 C19.3668904,39.917655 19.4597301,39.8985576 19.4557004,39.6706952 C19.4406608,38.8177814 19.4436751,37.9643894 19.4542409,37.1113481 C19.4566523,36.9167389 19.392369,36.8746544 19.2115126,36.8770137 C18.483518,36.8864827 17.7552378,36.8751645 17.0272114,36.8846654 C16.8287453,36.8872797 16.7391103,36.8590958 16.739269,36.6212224 C16.7399303,35.8069466 16.7305676,35.7640614 17.465928,35.7618027 L20.0115959,35.7618366 L20.0115959,35.7618366 Z M41.6270869,35.7489338 C42.5323842,35.7698486 42.5402531,35.7455862 42.5250548,36.682701 C42.5228972,36.815363 42.5247375,36.9481206 42.5247058,37.0808464 C42.524674,37.3905186 42.517059,37.7004778 42.5277835,38.0097674 C42.5333678,38.1715698 42.4763187,38.2220075 42.3195448,38.2138138 C42.0558752,38.2000406 41.7911585,38.1960554 41.5272351,38.2023362 C41.3783935,38.2058432 41.337209,38.1420787 41.3398108,38.0059416 C41.3451413,37.7295544 41.332164,37.4525615 41.3442211,37.1765888 C41.3529784,36.9766234 41.3149985,36.8457786 41.0781718,36.8905732 C40.811837,36.940979 40.7783309,36.803981 40.7804885,36.5740463 C40.7884208,35.7224397 40.7805837,35.7293581 41.6270869,35.7489338 Z M7.40279195,35.1938544 C8.04226212,35.1845448 8.04238903,35.1910169 7.80353166,35.7828151 C7.64659907,36.171619 7.48706469,36.5594346 7.33327329,36.9494501 C7.17529363,37.3500505 6.84010643,37.1202114 6.59084188,37.1430391 C6.35525262,37.1645915 6.47744175,36.9310222 6.46646345,36.8148433 C6.44571255,36.5951428 6.46046663,36.3720627 6.46046663,36.098258 C6.48210594,35.8429131 6.33174129,35.4438431 6.51437453,35.2518482 C6.69805483,35.0587375 7.0980965,35.1982542 7.40279195,35.1938544 Z M8.59967742,35.1589402 C9.02672064,35.1723307 9.4544619,35.1631168 9.92034165,35.1631168 C9.66454089,35.8130682 9.45455708,36.4526259 9.1575401,37.0485051 C9.04064975,37.282999 8.69064502,37.1403578 8.45210494,37.1334075 C8.28482863,37.1285295 8.36805431,36.9354187 8.36586499,36.830558 C8.35580684,36.3551619 8.36843506,35.8792557 8.35805961,35.4038914 C8.35399827,35.2187831 8.40835038,35.1529463 8.59967742,35.1589402 Z M24.2595987,30.6704305 L78.4823792,30.6705262 L78.4823792,30.6705262 C78.9943298,30.6705581 79.224303,30.8578662 79.206725,31.2630895 C79.1933987,31.5699561 79.0356412,31.760867 78.7328177,31.81258 C78.6144361,31.8327933 78.4909144,31.8256836 78.3697089,31.8256836 C60.3395946,31.8261618 42.3094803,31.8261618 24.279366,31.8255561 C24.1472139,31.8255561 24.0122697,31.8323789 23.8834491,31.8091367 C23.5706627,31.7526733 23.3955176,31.5064148 23.4204567,31.1829057 C23.444095,30.8762304 23.6411967,30.6884121 23.9617251,30.6717058 C24.0607519,30.666509 24.1602863,30.6704305 24.2595987,30.6704305 Z M57.756209,26.7070901 L57.7563623,27.3824435 C57.7563623,28.0188131 57.7389112,28.0287922 57.0929048,27.9611062 C56.9573577,27.9468868 56.9303562,27.8950781 56.9313081,27.7770501 C56.9349886,27.3245773 56.9371145,26.8720407 56.9301658,26.4196636 C56.9280717,26.281454 56.9631324,26.2341089 57.1114981,26.22515 C57.7164152,26.1886847 57.7538879,26.1809134 57.756209,26.7070901 Z M49.0845865,24.9802696 C49.590794,25.0004829 49.5954899,24.9851476 49.5125181,25.4831163 C49.4380814,25.9297865 49.3586632,26.3758191 49.2721694,26.8203213 C49.1169502,27.6182382 48.7579027,27.9230643 47.9365608,27.9552335 C47.6833301,27.9651489 47.4294013,27.9567639 47.1758216,27.9568276 C46.9883973,27.9568595 46.7966578,27.9313856 46.614437,27.9623114 C46.2631631,28.0218993 46.1758126,27.8494482 46.1340253,27.5399354 C46.0305564,26.7739327 45.9037348,26.0107674 45.7679973,25.2497702 C45.7310328,25.0425994 45.7600333,24.9806203 45.98163,24.9814173 C46.5387629,24.9833622 46.5397782,24.9718846 46.6356956,25.5038717 C46.6592386,25.6344294 46.6547965,25.7735954 46.6991539,25.8956407 C46.7338657,25.9911917 46.6511159,26.1743233 46.8426016,26.1717409 C46.9967738,26.1696366 47.1231194,26.0787085 47.1537698,25.920732 C47.1956841,25.7047935 47.2303006,25.4842003 47.2346158,25.2649461 C47.2390579,25.0352665 47.3274237,24.9757423 47.551178,24.980971 C48.1129751,24.9941065 48.1131337,24.9818956 48.0397758,25.5354032 C48.0238161,25.6559818 48.0087447,25.776688 47.9939589,25.8974261 C47.9249796,26.4603708 47.6656886,26.7377782 47.1102691,26.8597597 C47.01175,26.8814077 46.8471389,26.8375377 46.8727126,27.0451868 C46.8948279,27.2242375 46.9790054,27.2884802 47.1576408,27.2773533 C47.4101734,27.2616672 47.6641022,27.2631338 47.9173329,27.265238 C48.251822,27.2680118 48.4127208,27.0978881 48.462377,26.7730719 C48.53748,26.2817984 48.6476755,25.7956579 48.712879,25.3033005 C48.74556,25.0568507 48.8284684,24.9700673 49.0845865,24.9802696 Z M61.5212818,24.9836236 C62.0597579,25.0044427 62.5993128,24.9622944 63.1375986,25.0310325 C63.7246204,25.1059876 64.0106591,25.3762853 64.03563,25.9731846 C64.0601249,26.5585426 64.0407701,27.1456222 64.0503523,27.7317773 C64.0531128,27.90053 64.0032662,27.9569297 63.8271057,27.9618076 C63.2238386,27.9784183 63.2240607,27.986357 63.2240289,27.3907329 C63.2240289,26.9924281 63.2270115,26.5941232 63.2231722,26.1958502 C63.2195234,25.8142835 63.133569,25.725906 62.7654469,25.7062984 C62.1271824,25.6723438 62.1271824,25.6723438 62.1271824,26.2946533 C62.1271507,26.7593051 62.1163628,27.2243714 62.1318149,27.6885131 C62.1392395,27.9109555 62.0628039,27.9650596 61.8502183,27.9621584 C61.3037147,27.9547936 61.303556,27.9653785 61.303556,27.4006802 L61.303556,26.4713447 C61.3035878,26.0509136 61.3105365,25.630323 61.3002245,25.2101469 C61.2960362,25.0396726 61.3434079,24.976737 61.5212818,24.9836236 Z M76.4522851,24.9828202 C77.2131195,24.9930862 77.9742076,24.9924805 78.735042,24.9831709 C78.9246556,24.9808435 78.9829104,25.0423124 78.9776751,25.2297162 C78.965967,25.6502749 78.9740263,26.0713756 78.9740263,26.4922531 C78.974058,26.8799092 78.9568925,27.2686176 78.9800231,27.6548709 C78.9956656,27.9153488 78.9013664,27.9879447 78.6611447,27.9601753 C78.5087494,27.9425444 78.3527369,27.9568595 78.1983427,27.9568595 C77.7050489,27.9568595 77.6804588,27.9245947 77.7355724,27.4373703 C77.7478198,27.32913 77.7778039,27.2607108 77.8883484,27.2775127 C78.1463702,27.3167279 78.141357,27.1560095 78.1378351,26.9762574 C78.1315844,26.6551713 78.1435146,26.333607 78.1324728,26.0128079 C78.1280308,25.8846413 78.227946,25.6635698 77.9478407,25.6978432 C77.7310985,25.7243692 77.4351921,25.5531297 77.3893434,25.989502 C77.3317232,26.537494 77.1928762,27.0764314 77.1178367,27.6232437 C77.0797617,27.9008105 76.967123,27.9797829 76.6938395,27.964033 C76.2442685,27.9381765 76.2438878,27.9575609 76.3201648,27.5251102 L76.5941464,25.9576197 L76.5941464,25.9576197 C76.6195932,25.8114715 76.6516079,25.6973012 76.4139245,25.6860149 C76.0695041,25.6696274 76.2961458,25.379786 76.247727,25.2205023 C76.2031792,25.0737802 76.2606725,24.9802377 76.4522851,24.9828202 Z M59.0243433,24.9817999 C59.2481294,24.9751684 59.3352894,25.0245221 59.3227247,25.2683256 C59.3016565,25.6768647 59.31695,26.0872529 59.31695,26.496876 C59.31695,26.895404 59.3087004,27.294219 59.3205354,27.6923963 C59.3261514,27.8807566 59.2946761,27.9644156 59.0742216,27.963342 C58.493387,27.9604941 58.4933236,27.9731513 58.4933236,27.3958915 C58.4932918,26.9087627 58.4853595,26.4214745 58.4972263,25.9346645 C58.501827,25.7460173 58.4436991,25.6849309 58.2556719,25.6917537 C57.8923726,25.7048892 57.5281215,25.6896176 57.1645684,25.6982258 C57.0067474,25.701956 56.9309463,25.6768328 56.9271388,25.486719 C56.9170807,24.9867736 56.9060072,24.9869967 57.4041238,24.9869967 C57.9442499,24.9869649 58.484725,24.9977729 59.0243433,24.9817999 Z M38.0425447,25.5341534 C38.0928672,25.6429037 38.1695566,25.7434284 38.2504026,25.83289 C38.3892813,25.9864987 38.5084879,25.9272296 38.5769595,25.7631636 C38.6092281,25.6858491 38.5908251,25.5881619 38.6007881,25.5003263 C38.6190959,25.3387471 38.5172769,25.1088762 38.6513962,25.0291387 C38.845674,24.9135337 39.1016652,24.9955348 39.3311307,24.9921234 C39.4152448,24.99088 39.4361861,25.0572588 39.4369793,25.129759 C39.4406916,25.4730989 39.4401839,25.8149722 39.3344623,26.1484605 C39.2520933,26.4083007 39.0394125,26.5118543 38.7971284,26.6127297 C39.0982384,27.0484962 39.3918286,27.4733589 39.7248583,27.9553547 L38.8321257,27.955801 L38.8321257,27.955801 C38.7080328,27.9564387 38.6721153,27.8538097 38.6168748,27.7753794 C38.2734063,27.287613 37.9313021,26.7988901 37.5887538,26.310486 C37.5650203,26.3142481 37.5412869,26.3180102 37.5175534,26.3217723 L37.5132289,27.2198054 C37.514028,27.3694122 37.5167073,27.5189399 37.5229474,27.6683189 C37.5329104,27.9072444 37.4524451,27.9664816 37.2244074,27.9623369 C36.6798393,27.9524215 36.6796172,27.9638672 36.6796172,27.4226343 C36.6796172,26.7021275 36.6877716,25.9814613 36.6747626,25.2611458 C36.6707965,25.0412221 36.7437736,25.0044299 36.952393,24.9765011 C37.4603774,24.9084963 37.8222489,25.0583109 38.0425447,25.5341534 Z M43.54261,24.982868 C43.7281623,24.9792653 43.7604309,25.0542842 43.7570994,25.2163098 C43.748469,25.6366134 43.754212,26.0572039 43.754212,26.4776669 C43.754212,26.8870668 43.7425039,27.2969449 43.7590666,27.7056753 C43.7675383,27.9152691 43.6987811,27.9634432 43.4983795,27.9621923 C42.9306491,27.9585652 42.9305856,27.9684168 42.9305856,27.3833139 L42.928005,26.431655 C42.9285972,26.273075 42.930427,26.1145282 42.9345835,25.9560416 C42.9397553,25.759902 42.893748,25.677869 42.6812259,25.6909726 C42.3848435,25.7092092 42.0863352,25.6880075 41.7891279,25.6974447 C41.4669496,25.707647 41.5945327,25.4682751 41.5861562,25.3233703 C41.5779384,25.1804104 41.4984885,24.9770017 41.7909999,24.9833143 C42.3746584,24.9959397 42.9589198,24.9941862 43.54261,24.982868 Z M24.2680641,24.9808307 C24.7187773,25.0023193 25.1712038,24.986984 25.6229324,24.986984 C26.0636191,24.986984 26.5046232,24.9963892 26.9448975,24.9828074 C27.1494239,24.9764628 27.2357907,25.0201096 27.2320467,25.2503951 C27.2188474,26.0690035 27.22018,26.8880265 27.2314756,27.7066987 C27.2344264,27.9181098 27.1617983,27.9626493 26.9650138,27.9618627 C26.4033119,27.9596524 26.4032802,27.9688664 26.4032802,27.4156138 C26.4032802,26.9177088 26.3980448,26.4196763 26.406231,25.921867 C26.4088962,25.7600327 26.3763738,25.6956306 26.1930425,25.6901468 C25.3971341,25.6663459 25.355415,25.6588553 25.3532283,26.3671014 L25.3531073,26.7906581 L25.3531073,26.7906581 C25.3526631,27.6101593 25.0067832,27.9536585 24.1879479,27.9592379 C24.0353622,27.9602582 23.9345585,27.9482704 23.9498837,27.7521309 C23.9697462,27.4984758 23.8523482,27.1867312 24.3175616,27.2158078 C24.4776354,27.2258188 24.5352873,27.0189668 24.5380795,26.8561761 C24.5430293,26.5685983 24.5263714,26.2800002 24.5440129,25.9934107 C24.5576247,25.772403 24.5071118,25.6615485 24.2613058,25.6932713 C24.0026494,25.7266626 23.9916499,25.6029383 24.004116,25.4668389 L24.0143623,25.3647056 C24.016909,25.3313955 24.0174193,25.2995734 24.0123902,25.2715011 C23.9777737,25.0781034 24.02578,24.9692575 24.2680641,24.9808307 Z M66.2150639,24.9833653 L66.5566134,24.9899414 L66.5566134,24.9899414 L67.2402976,24.9870318 L67.2402976,24.9870318 C67.5710744,24.9870318 67.9020099,24.9935995 68.2325012,24.9841943 C68.3927336,24.9796351 68.4726277,25.0097001 68.4689471,25.1983154 C68.4566997,25.829265 68.4736113,26.4608841 68.4549228,27.091483 C68.4384554,27.6469354 68.1586674,27.9315801 67.6149242,27.952718 C67.1415246,27.9711141 66.6668241,27.9523036 66.1927582,27.9582974 C65.8614737,27.9625059 66.0240541,27.7149084 66.0025735,27.575838 C65.9811245,27.437214 65.9372431,27.2567924 66.2032289,27.270183 C66.5441591,27.2873675 66.886644,27.2704061 67.2283674,27.2751885 C67.527415,27.2793651 67.6780018,27.15512 67.663914,26.8380192 C67.6505878,26.5396333 67.6528088,26.2398764 67.6641996,25.9413311 C67.6708627,25.767796 67.6379913,25.6921076 67.4367647,25.6897164 C66.7940582,25.6821603 66.7766706,25.6728188 66.7967234,26.315246 C66.8057028,26.603334 66.6907162,26.638245 66.4527473,26.6311672 C65.9965766,26.6175853 65.9962276,26.6285847 65.9961959,26.175538 C65.9961959,25.8544201 66.0037474,25.5330152 65.9931816,25.212248 C65.987629,25.0428257 66.0367141,24.9767338 66.2150639,24.9833653 Z M72.2387053,24.9841433 C72.346299,25.0008815 72.4594136,24.9951426 72.5686889,24.9851635 C72.7326654,24.970147 72.7850186,25.0373547 72.7638235,25.1966065 C72.7287627,25.4594119 72.7190536,25.7262981 72.6724117,25.9867123 C72.5860765,26.468453 72.3255799,26.7866059 71.8132803,26.8563004 C71.7009272,26.8716039 71.5373632,26.8506254 71.5702029,27.0723983 C71.5969189,27.2525648 71.6930901,27.28094 71.8429471,27.2756157 C72.1068388,27.2662104 72.371143,27.2598659 72.6351616,27.2620657 C72.9626703,27.2647757 73.1058007,27.0808152 73.1560915,26.7808352 L73.3361135,25.7807034 C73.3646827,25.6138565 73.3908135,25.4467015 73.411924,25.2788946 C73.4430503,25.0313609 73.5401734,24.9755988 73.7703052,24.9815608 C74.2963118,24.9952064 74.2978031,24.9837288 74.205249,25.5016558 C74.1276077,25.9361789 74.0472059,26.3701919 73.9672166,26.8042686 C73.8170423,27.6191469 73.4540286,27.9302219 72.6153309,27.9556639 C72.3730785,27.9630287 72.1304453,27.9568117 71.8880025,27.9568436 L71.6896316,27.9568755 C70.8794901,27.9568755 70.8867244,27.9558234 70.7725945,27.1616048 C70.6815,26.5276264 70.5794271,25.8947958 70.4623147,25.2651852 C70.4205273,25.0403517 70.4686923,24.978532 70.6984434,24.9815289 C71.2356503,24.9885749 71.2361897,24.976906 71.3220807,25.4941316 C71.345592,25.6357207 71.3521282,25.782092 71.3929637,25.9182611 C71.41987,26.0080096 71.358601,26.1695888 71.5295261,26.1720119 C71.6719267,26.1739886 71.7768552,26.0958133 71.8358715,25.9594848 C71.9313129,25.739051 71.9032008,25.501337 71.9226508,25.2725819 C71.9412124,25.0538379 72.0047343,24.9477019 72.2387053,24.9841433 Z M33.1803504,24.6673804 C33.172069,24.9344261 33.2548188,25.0096363 33.5108734,24.9921967 C33.8293393,24.970453 34.1507243,24.9960864 34.4701421,24.983461 C34.6465881,24.9764469 34.6997028,25.0390636 34.6938329,25.2107814 C34.6828546,25.531708 34.6906917,25.8532723 34.6906917,26.1745816 L34.6868207,26.1745816 L34.690727,26.7729759 C34.6904026,26.8726681 34.6887774,26.9723072 34.6846314,27.0718435 C34.6603269,27.6564363 34.3739074,27.9349915 33.7934218,27.956512 C33.7272982,27.9589351 33.6610476,27.9568627 33.5948605,27.9568627 C33.2157919,27.9568308 33.08291,27.7573436 33.1955169,27.3782319 C33.2394301,27.2304577 33.3491179,27.2746146 33.436278,27.2770377 C33.7563304,27.2858372 33.9005396,27.1480102 33.8810579,26.816945 C33.8635116,26.5188142 33.8683345,26.2184834 33.8807406,25.9198743 C33.8879748,25.7458611 33.8314017,25.6867833 33.6571449,25.692267 C33.304475,25.703362 32.95098,25.6877397 32.59831,25.6987391 C32.4237043,25.704191 32.3670994,25.6435191 32.3718905,25.4700159 C32.3822977,25.0936141 32.3845505,24.7163516 32.3710973,24.3401411 C32.3643072,24.1498679 32.4271628,24.0987288 32.6135718,24.0965927 C33.1833964,24.0901206 33.1984043,24.0821181 33.1803504,24.6673804 Z M51.8205123,24.9879691 C51.852305,24.9816883 51.8863821,24.9870127 51.9193805,24.9869808 C52.7491624,24.9859606 52.7491624,24.9859606 52.7491624,25.8287358 C52.7491624,25.961334 52.732219,26.0966423 52.7524622,26.2260523 C52.8065922,26.5720703 52.6732344,26.6616275 52.3302101,26.6615956 C51.9872492,26.6615956 51.879021,26.5729948 51.8992325,26.2259247 C51.9010581,26.1946017 51.9067543,26.1602722 51.9133649,26.1244665 L51.9329835,26.0141508 C51.9576574,25.8466245 51.9409832,25.680189 51.6135745,25.6542761 C51.4912585,25.6446158 51.5653779,25.2945807 51.5661394,25.1023307 C51.5668057,24.9236627 51.7260862,25.0067159 51.8205123,24.9879691 Z M30.3281973,25.0374791 C30.5084191,25.206997 30.3523749,25.5612087 30.3861665,25.7643623 C30.3861665,25.9762836 30.3675415,26.1230057 30.3899423,26.2631281 C30.4416926,26.5870517 30.3191862,26.6781074 30.000752,26.655216 C29.5744703,26.6245771 29.5888436,26.6468947 29.5656178,26.208482 C29.5549568,26.0072731 29.7370824,25.7053483 29.2824031,25.6633275 C29.0912347,25.645601 29.2276702,25.3168313 29.2005735,25.131723 C29.1790293,24.9843951 29.2965225,24.9861487 29.3990396,24.9870095 C29.443048,24.9873921 29.4872467,24.9846502 29.5310965,24.9873602 C29.8033964,25.0041621 30.1518464,24.8716277 30.3281973,25.0374791 Z M78.5261687,17.4628444 C78.8636087,17.4626217 78.9437883,17.5452286 78.937613,17.8781748 C78.9148513,19.0192403 78.9181829,20.1611985 78.9357608,21.3024552 C78.9403298,21.5995021 78.8704304,21.6851378 78.5626255,21.6844683 L71.2463613,21.6767009 L71.2463613,21.6767009 L51.3500826,21.676944 C42.3012973,21.676944 33.2524803,21.6749992 24.2037268,21.6849479 C23.8827225,21.6853291 23.8062235,21.6075683 23.8118151,21.2890966 C23.8334471,20.1368723 23.8297982,18.9839148 23.8138702,17.8315311 C23.8099675,17.5513181 23.8625428,17.4618246 24.1672699,17.4630361 C27.5549959,17.4761397 30.9427854,17.4712936 34.3305749,17.4712936 C49.0624395,17.4712936 63.7943041,17.4726327 78.5261687,17.4628444 Z M53.3015232,17.9923451 C52.4241793,17.9762127 51.6675332,18.7175067 51.6620446,19.5986044 C51.6565232,20.4845163 52.3945125,21.2257784 53.2799791,21.2237422 C54.1552606,21.2217294 54.8735144,20.502179 54.879765,19.6211133 C54.8859205,18.7471572 54.1700147,18.0083181 53.3015232,17.9923451 Z M49.3314079,17.9921713 C48.4507958,17.9883917 47.7134728,18.7321407 47.717832,19.6198699 C47.7221983,20.4973648 48.4438154,21.2206135 49.3181133,21.2237478 C50.202628,21.2268624 50.9433778,20.4830497 50.9345888,19.600613 C50.9258633,18.7254135 50.1986936,17.9958841 49.3314079,17.9921713 Z M27.3973812,8.94078182 C27.618375,8.93842268 27.668285,9.0044508 27.6665082,9.21688218 C27.6565135,10.4131358 27.6616854,11.6095488 27.6616854,12.8058981 C27.6616854,14.0022474 27.6558472,15.1986604 27.6669841,16.3949141 C27.6690148,16.6142958 27.6076188,16.6688144 27.3936371,16.6667102 C26.2907621,16.6558702 25.1876649,16.6551688 24.0848534,16.6672203 C23.8638278,16.6695796 23.8152187,16.603392 23.8158533,16.391152 C23.8232144,13.9984534 23.8235635,11.605723 23.8154025,9.2130882 C23.8146793,8.99389778 23.874584,8.93918785 24.0885974,8.94129208 C25.1914407,8.95213204 26.2945379,8.95280157 27.3973812,8.94078182 Z M35.344697,4.12567721 C37.584905,4.13381653 39.8251764,4.12441127 42.0653844,4.1327963 C43.4980527,4.1381844 44.5366127,5.20225424 44.5372155,6.64164185 L44.5373425,11.4296214 L44.5373425,11.4296214 C44.5373425,13.0588997 44.5326783,14.688146 44.5423906,16.3173605 C44.5438152,16.5644798 44.5005049,16.6619438 44.2221129,16.6574803 C43.1078154,16.6395625 41.9929467,16.6418899 40.8785222,16.6563644 C40.6301461,16.6596164 40.5684011,16.5953737 40.5692895,16.3458951 C40.5789352,13.6415795 40.5711932,10.9372321 40.5817273,8.23291647 C40.5827427,7.96284199 40.526582,7.88160604 40.2436211,7.88422038 C38.6105195,7.89936445 36.977164,7.88731296 35.3439355,7.89662257 C35.1200861,7.89789786 35.042762,7.85071214 35.0458117,7.60910851 C35.0596419,6.54529372 35.0590391,5.48109634 35.0463157,4.41724967 C35.0434601,4.17886614 35.1179919,4.12485762 35.344697,4.12567721 Z M57.7887007,4.12473068 C59.0575194,4.13701751 60.3264968,4.12518919 61.5953472,4.13255399 C62.4190371,4.13730445 62.9454561,4.68303279 62.9468205,5.52265165 C62.9497713,7.31787697 62.9477406,9.1131023 62.9477406,10.9083276 C62.9477406,12.714648 62.9418707,14.5210002 62.9541513,16.327193 C62.9559585,16.593601 62.8814266,16.6595016 62.622802,16.656154 C61.5195779,16.6418388 60.4159096,16.6395433 59.3128125,16.6574293 C59.0351186,16.6619565 58.9915861,16.565449 58.9923159,16.3177877 C59.0002165,13.6471398 58.9891747,10.9763962 59.0067527,8.30584391 C59.0091324,7.94391669 58.8995715,7.85244654 58.5684456,7.88624172 C58.3063307,7.91295903 58.0381556,7.87591187 57.7749302,7.8965078 C57.5594572,7.91334162 57.5227148,7.83009709 57.5243129,7.63402129 C57.5335345,6.55917525 57.5331855,5.48420167 57.524809,4.40932374 C57.5232542,4.20738162 57.5570141,4.12251109 57.7887007,4.12473068 Z M54.4890835,4.57903292 C56.0823332,5.34516321 56.9888363,6.68204941 57.0448383,8.43646546 C57.1296187,11.0928939 57.0699995,13.7539134 57.078376,16.4129562 C57.0789789,16.604154 57.020502,16.6544642 56.8343785,16.6538585 C54.8596487,16.6477052 52.8848872,16.6472907 50.9101573,16.654241 C50.7074078,16.6549424 50.6469319,16.5969168 50.6486453,16.3922965 C50.6578151,15.2954836 50.6578151,14.1985113 50.6485819,13.1016665 C50.6469002,12.9035821 50.71699,12.8642713 50.89626,12.8667581 C51.5580357,12.876004 52.2202557,12.860828 52.8818729,12.8758127 C53.1038186,12.8808501 53.1550612,12.8102628 53.1533796,12.5970344 C53.1436705,11.3783675 53.1509682,10.1595413 53.1476049,8.94074689 C53.1460819,8.39941829 52.8588058,7.99269652 52.3537405,7.79764096 C51.7963854,7.58234018 51.2347153,7.58144748 50.6741873,7.77927679 C50.133268,7.97015578 49.8474515,8.38268012 49.8472294,8.9633514 C49.8463409,11.4119714 49.8423113,13.8606552 49.8532896,16.3092114 C49.8544953,16.5802742 49.7949396,16.6618609 49.5140728,16.6573336 C48.411166,16.6395752 47.3076882,16.6438474 46.2046227,16.6551656 C45.9748399,16.6575103 45.9070029,16.5936648 45.9077327,16.3599998 C45.9155381,13.8116522 45.9147448,11.2632726 45.9096364,8.71492497 C45.9090653,8.43397864 46.0054586,8.17876129 46.0838614,7.89159793 C45.8304721,7.89159793 45.5999278,7.88059856 45.3709382,7.89491369 C45.1686328,7.90753905 45.0812506,7.86408356 45.0841595,7.62856943 C45.0976864,6.55401032 45.0961634,5.47913239 45.0851851,4.40447764 C45.0829323,4.18315111 45.1489607,4.1235632 45.3651635,4.1258906 C46.3579382,4.13657115 47.3509033,4.13178882 48.3437732,4.12993965 C48.6854649,4.129302 49.0028838,4.22058086 49.2724233,4.42373451 C49.4269445,4.54013658 49.5473567,4.53666142 49.7161878,4.46875224 C51.3212725,3.82326436 52.9312435,3.82992774 54.4890835,4.57903292 Z M74.5423273,4.12536978 C75.5354193,4.13727256 76.5287652,4.1244559 77.5219524,4.13252211 C78.3650288,4.13934491 78.9253664,4.70560542 78.9268576,5.55784965 C78.9315853,8.27335591 78.9375504,10.9889259 78.9253029,13.7044003 C78.9176879,15.3935853 77.6350035,16.6498413 75.9538956,16.6499688 C72.2347265,16.6502558 68.5155891,16.6469719 64.7964834,16.6564136 C64.5217403,16.6570786 64.4476209,16.5847696 64.4494294,16.3092752 C64.4656431,13.8381463 64.4710053,11.3668899 64.4688477,8.8956654 C64.4685621,8.53447147 64.6640457,8.24883846 64.7879165,7.89153417 C64.4381973,7.89153417 64.1290915,7.88365925 63.8206837,7.89469051 C63.6542324,7.90065249 63.5895366,7.85783464 63.5907874,7.67581891 C63.5985794,6.56749651 63.5981034,5.45907846 63.5912817,4.35075606 C63.5901711,4.17227927 63.6527728,4.12662389 63.8211597,4.12764413 C64.8475039,4.13395681 65.8741654,4.11552887 66.9000972,4.13609292 C67.6908204,4.15197028 68.2160337,4.74437423 68.2169539,5.57870064 C68.2195557,7.88413749 68.223268,10.1895743 68.2112109,12.4949155 C68.2096562,12.7896988 68.2709252,12.9138163 68.5841876,12.87492 C68.9409506,12.8306037 69.4233613,13.0270939 69.6267771,12.799104 C69.8050318,12.5993299 69.6851589,12.1255916 69.6860473,11.7728146 L69.6858287,9.40087968 C69.6865796,9.00557058 69.6886385,8.61027682 69.6933767,8.2150114 C69.6965496,7.95099455 69.62316,7.87320188 69.3620605,7.88547654 C68.9317174,7.90572177 68.9309242,7.88927053 68.9309242,7.44773335 C68.9308925,6.43907484 68.9379364,5.43038444 68.9256889,4.42191723 C68.9228333,4.18806098 68.9917491,4.12286179 69.2218809,4.12557178 C70.2150047,4.13730445 71.2083823,4.12474284 72.2015377,4.13239458 C73.0640959,4.13905797 73.6202769,4.70994141 73.6208798,5.57764852 C73.6224662,7.88305349 73.6297639,10.1885541 73.6121225,12.4938315 C73.6095842,12.8288183 73.7062948,12.9047299 74.0127353,12.8766097 C74.3192076,12.8484896 74.6306296,12.8604455 74.9390374,12.8742505 C75.1158007,12.8821573 75.1602216,12.8219955 75.1595236,12.6498314 C75.1533681,11.1424708 75.152797,9.63504649 75.159936,8.12768594 C75.1608245,7.93518096 75.0988573,7.88911112 74.9145742,7.88687936 C74.2741839,7.87903633 74.2742791,7.87148024 74.2742791,7.23032834 C74.2742791,6.28817618 74.2804345,5.34599215 74.2695514,4.40399941 C74.2671083,4.19019709 74.3220949,4.12279803 74.5423273,4.12536978 Z M24.0868555,4.12551975 C26.9219858,4.13320758 29.7571479,4.12663984 32.5922783,4.13247429 C33.7719697,4.13489734 34.5990863,4.97888406 34.6024814,6.17236394 C34.6072408,7.85641588 34.6036871,9.5404997 34.6036871,11.2245516 C34.6036871,12.9307617 34.5982931,14.6370356 34.6096495,16.3431501 C34.6112704,16.594159 34.5432112,16.6590074 34.2961043,16.6559786 C33.1820606,16.6424287 32.0676678,16.6415041 30.9536558,16.6565787 C30.6931592,16.659932 30.6253539,16.5899824 30.6263057,16.3281335 C30.6362053,13.6358694 30.6277336,10.9435734 30.6391561,8.25134122 C30.6403618,7.96487927 30.5812186,7.88131591 30.2808383,7.88354767 C28.2290382,7.89891491 26.1770796,7.88734165 24.1252478,7.89732079 C23.8851847,7.89846856 23.8096058,7.8504539 23.8136037,7.59348302 C23.8301028,6.53011458 23.8261684,5.46629979 23.8157612,4.40277194 C23.8136988,4.18957538 23.8664328,4.12491819 24.0868555,4.12551975 Z" id="Combined-Shape" fill="#09008B"></path>
                <path d="M2.71646631,32 C1.3193739,32.0017634 0.19896735,30.8807533 0.207710397,29.489892 C0.216420201,28.1023952 1.31708009,27.0029372 2.70030995,27 C4.08606632,26.9970745 5.20188526,28.0977983 5.20765957,29.4733699 C5.21348725,30.880187 4.11116518,31.9982324 2.71646631,32" id="Fill-19" fill="#F3AD00"></path>
                <path d="M11.2076596,29.4795425 C11.2157411,28.0815709 12.3356606,26.9857177 13.7414809,27.0001407 C15.1178708,27.0142973 16.2214474,28.1411619 16.2075294,29.5181816 C16.193412,30.9107237 15.070204,32.0086755 13.6686023,31.9999483 C12.3021444,31.9914544 11.1997304,30.8623914 11.2076596,29.4795425" id="Fill-21" fill="#F3AD00"></path>
                <path d="M6.20765957,29.4985368 C6.20702726,28.102358 7.2947088,27.0041422 8.68220275,27 C10.0823817,26.9958479 11.2042562,28.106222 11.2076596,29.4996694 C11.2109816,30.8714648 10.0899062,31.9969287 8.71702827,32 C7.30473029,32.0031245 6.20829244,30.9101384 6.20765957,29.4985368" id="Fill-23" fill="#F3AD00"></path>
                <path d="M9.56519037,12.1619815 C10.0822549,11.7516611 10.5374268,11.3845653 10.9998858,11.0268077 C11.1517244,10.9093457 11.1937263,10.7874801 11.1790272,10.5876293 C11.1183231,9.76320963 11.9313088,9.15072734 12.7055139,9.41703892 C13.3663482,9.64434228 13.6882274,10.3117921 13.4461925,10.9526639 C13.2087863,11.5811368 12.4981001,11.8757129 11.862223,11.6033736 C11.7541376,11.5570885 11.6738242,11.4915022 11.5491007,11.593848 C10.9454053,12.0892432 10.3339224,12.5752064 9.72197042,13.0604825 C9.62511269,13.1372809 9.60375207,13.2195761 9.60985064,13.3407546 C9.64196975,13.9793777 9.67224366,14.6185005 9.68006233,15.2577482 C9.68278323,15.4792738 9.75996918,15.5087251 9.94965021,15.4678742 C13.891982,14.6190002 16.4984777,10.8907317 15.7454143,6.82663017 C15.0023588,2.81634062 11.2410762,0.22455768 7.21226989,0.876485441 C3.32541939,1.50548923 0.439296615,5.14530991 1.0943764,9.3709099 C1.61425567,12.7243996 4.30265982,15.2070594 7.7204837,15.5789025 C7.87504325,15.595705 7.94638083,15.5905206 7.95110331,15.4000705 C7.96817929,14.7067609 8.0032695,14.0138573 8.03842226,13.3211411 C8.04605329,13.1703551 7.97477825,13.087123 7.86428475,13.0005491 C7.30884615,12.5653372 6.75478364,12.1280015 6.21094795,11.6785168 C6.06239314,11.5557455 5.96181372,11.5157691 5.76459548,11.6115563 C5.33603832,11.8197147 4.79736296,11.6931332 4.47341966,11.3623596 C4.15341697,11.0355837 4.04692663,10.5060837 4.21868726,10.0957634 C4.44373997,9.55823684 5.02923356,9.24588993 5.56797147,9.37603187 C6.14395755,9.51516851 6.52453932,10.0323321 6.49323335,10.6251697 C6.48794793,10.7253293 6.41980037,10.8337653 6.53636116,10.9250864 C7.03622463,11.3167615 7.53258533,11.7128715 8.05393451,12.1261589 C8.1273675,11.5368192 8.12239482,10.9952638 8.13878276,10.4546766 C8.15520198,9.91302746 8.16561645,9.3708162 8.2013947,8.83032268 C8.21406095,8.63906055 8.14037777,8.53427864 8.00258146,8.42656096 C7.39597745,7.95230959 6.7898113,7.47709005 6.19712453,6.98587994 C6.04925777,6.86332726 5.95321318,6.8568311 5.77450956,6.92828893 C5.31899362,7.1104002 4.87867717,7.0533089 4.50807202,6.70445228 C4.14891341,6.36640178 4.05490168,5.94733659 4.19776449,5.48679588 C4.37024444,4.93087396 4.94626179,4.58448464 5.49219288,4.6830827 C6.10914881,4.79448571 6.52641581,5.3154595 6.49373375,5.93331362 C6.48769773,6.04718392 6.43227897,6.16386506 6.55600167,6.26083908 C7.10706181,6.69267797 7.65408752,7.12960762 8.24023787,7.59461444 C8.2690106,6.98088289 8.30037912,6.42308707 8.32011345,5.86482279 C8.35154452,4.9762222 8.37221709,4.08727807 8.40358561,3.19867748 C8.41650206,2.8320501 8.60224248,2.65265597 8.89772581,2.71315152 C9.2335535,2.78192343 9.21353769,3.06934756 9.22395216,3.30845645 C9.26207602,4.18578244 9.27852651,5.06404537 9.310802,5.94165245 C9.33078653,6.48533159 9.36453192,7.0284798 9.39449308,7.61847536 C9.94023653,7.18401301 10.4364721,6.77984528 10.9438415,6.39007531 C11.120481,6.25434291 11.2317251,6.12523161 11.1774948,5.88006379 C11.1461263,5.73836617 11.19038,5.58270803 11.2451107,5.43732508 C11.4698506,4.84039611 12.1199577,4.53120358 12.7314093,4.73711331 C13.3398585,4.9419924 13.6745603,5.62774395 13.4632685,6.23641599 C13.253728,6.83987236 12.5855129,7.19569362 11.9957972,6.95652226 C11.6986876,6.83603087 11.5300232,6.91286053 11.3217024,7.09612738 C10.9962266,7.3824584 10.64742,7.64224258 10.310654,7.91592482 C10.0179229,8.1538469 9.60985064,8.34204834 9.47017785,8.65036638 C9.32900387,8.96199497 9.45050606,9.3943648 9.46498625,9.77354728 C9.49469721,10.5501515 9.52981869,11.326537 9.56519037,12.1619815 M18.2068893,8.91798969 C18.2053881,13.5039395 14.8696916,17.284677 10.3608186,17.8815435 C9.79727989,17.9561558 9.79634165,17.956187 9.81488755,18.5365008 C9.84362899,19.4363447 9.87765586,20.3360637 9.90061149,21.2360326 C9.90620966,21.4561839 9.96675747,21.6047837 10.1660398,21.7409221 C11.0540536,22.3474704 11.4008587,23.442418 11.0502068,24.4422342 C10.6949575,25.4552301 9.75837417,26.0570312 8.63254766,25.9957236 C7.62837972,25.9410372 6.76210192,25.18439 6.52923053,24.1586203 C6.32172292,23.2444411 6.69576829,22.2817592 7.4944302,21.7380176 C7.67882581,21.6124979 7.73824773,21.4807007 7.74406482,21.2639849 C7.77127381,20.2451486 7.80952276,19.2263124 7.86569211,18.208663 C7.88114181,17.9290155 7.79713798,17.8368824 7.5203882,17.7766055 C3.97114804,17.003468 1.61034633,14.879003 0.574372027,11.4152971 C-0.974726218,6.23610367 2.55599932,0.854061174 7.92708434,0.0927916929 C12.8131927,-0.599768338 17.2668032,2.65393647 18.1012121,7.52949662 C18.1836835,8.01133726 18.2129566,8.49933052 18.2068893,8.91798969" id="Fill-5" fill="#F2AD00"></path>
                <g id="Group-71" transform="translate(58.207660, 38.000000)">
                    <mask id="mask-3" fill="white">
                        <use xlink:href="#path-2"></use>
                    </mask>
                    <g id="Clip-70"></g>
                    <path d="M1.24456653,1.31199041 C1.24456653,1.67200201 1.23629729,2.03224417 1.24837837,2.39190994 C1.2536965,2.54958073 1.20518774,2.60096567 1.03479223,2.59295388 C0.758003295,2.57992753 0.479769545,2.58283828 0.202611717,2.59217576 C0.0606820709,2.59695978 0.0216721682,2.55154044 0.0226558694,2.42170917 C0.028373633,1.671685 0.028373633,0.921632008 0.0226558694,0.171636655 C0.0216721682,0.0413442719 0.0617272535,-0.00297992313 0.203011346,0.00145826025 C0.490836184,0.0105363626 0.779460279,0.0105940014 1.06728512,0.00142944088 C1.20912254,-0.00309520062 1.25009985,0.0420071175 1.24736393,0.171982488 C1.23943284,0.551850638 1.24453579,0.931949343 1.24456653,1.31199041" id="Fill-69" fill="#09008B" mask="url(#mask-3)"></path>
                </g>
            </g>
        </g>
    </g>
</svg>